%TF.GenerationSoftware,KiCad,Pcbnew,9.0.4*%
%TF.CreationDate,2025-09-26T10:40:18+02:00*%
%TF.ProjectId,generator_dds,67656e65-7261-4746-9f72-5f6464732e6b,rev?*%
%TF.SameCoordinates,Original*%
%TF.FileFunction,Drillmap*%
%TF.FilePolarity,Positive*%
%FSLAX45Y45*%
G04 Gerber Fmt 4.5, Leading zero omitted, Abs format (unit mm)*
G04 Created by KiCad (PCBNEW 9.0.4) date 2025-09-26 10:40:18*
%MOMM*%
%LPD*%
G01*
G04 APERTURE LIST*
%ADD10C,0.038100*%
%ADD11C,0.200000*%
%ADD12C,0.100000*%
%ADD13C,0.150000*%
%ADD14C,0.400000*%
%ADD15C,0.430000*%
G04 APERTURE END LIST*
D10*
X5400000Y-2350000D02*
X15600000Y-2350000D01*
X15600000Y-17350000D01*
X5400000Y-17350000D01*
X5400000Y-2350000D01*
D11*
D12*
X8385000Y-13935000D02*
X8415000Y-13965000D01*
X8415000Y-13935000D02*
X8385000Y-13965000D01*
X8685000Y-13085000D02*
X8715000Y-13115000D01*
X8715000Y-13085000D02*
X8685000Y-13115000D01*
X10385000Y-15485000D02*
X10415000Y-15515000D01*
X10415000Y-15485000D02*
X10385000Y-15515000D01*
X10585000Y-15685000D02*
X10615000Y-15715000D01*
X10615000Y-15685000D02*
X10585000Y-15715000D01*
X10885000Y-12885000D02*
X10915000Y-12915000D01*
X10915000Y-12885000D02*
X10885000Y-12915000D01*
X11135000Y-15585000D02*
X11165000Y-15615000D01*
X11165000Y-15585000D02*
X11135000Y-15615000D01*
X12335000Y-12735000D02*
X12365000Y-12765000D01*
X12365000Y-12735000D02*
X12335000Y-12765000D01*
X12735000Y-13335000D02*
X12765000Y-13365000D01*
X12765000Y-13335000D02*
X12735000Y-13365000D01*
X13685000Y-10135000D02*
X13715000Y-10165000D01*
X13715000Y-10135000D02*
X13685000Y-10165000D01*
X13835000Y-14285000D02*
X13865000Y-14315000D01*
X13865000Y-14285000D02*
X13835000Y-14315000D01*
X14185000Y-13735000D02*
X14215000Y-13765000D01*
X14215000Y-13735000D02*
X14185000Y-13765000D01*
X14835000Y-13685000D02*
X14865000Y-13715000D01*
X14865000Y-13685000D02*
X14835000Y-13715000D01*
X14935000Y-15685000D02*
X14965000Y-15715000D01*
X14965000Y-15685000D02*
X14935000Y-15715000D01*
X8239500Y-13119000D02*
G75*
G02*
X8166500Y-13119000I-36500J0D01*
G01*
X8166500Y-13119000D02*
G75*
G02*
X8239500Y-13119000I36500J0D01*
G01*
X8239500Y-13373000D02*
G75*
G02*
X8166500Y-13373000I-36500J0D01*
G01*
X8166500Y-13373000D02*
G75*
G02*
X8239500Y-13373000I36500J0D01*
G01*
X8239500Y-13627000D02*
G75*
G02*
X8166500Y-13627000I-36500J0D01*
G01*
X8166500Y-13627000D02*
G75*
G02*
X8239500Y-13627000I36500J0D01*
G01*
X8239500Y-13881000D02*
G75*
G02*
X8166500Y-13881000I-36500J0D01*
G01*
X8166500Y-13881000D02*
G75*
G02*
X8239500Y-13881000I36500J0D01*
G01*
X8486500Y-15156000D02*
G75*
G02*
X8413500Y-15156000I-36500J0D01*
G01*
X8413500Y-15156000D02*
G75*
G02*
X8486500Y-15156000I36500J0D01*
G01*
X8486500Y-15950000D02*
G75*
G02*
X8413500Y-15950000I-36500J0D01*
G01*
X8413500Y-15950000D02*
G75*
G02*
X8486500Y-15950000I36500J0D01*
G01*
X8740500Y-15156000D02*
G75*
G02*
X8667500Y-15156000I-36500J0D01*
G01*
X8667500Y-15156000D02*
G75*
G02*
X8740500Y-15156000I36500J0D01*
G01*
X8740500Y-15950000D02*
G75*
G02*
X8667500Y-15950000I-36500J0D01*
G01*
X8667500Y-15950000D02*
G75*
G02*
X8740500Y-15950000I36500J0D01*
G01*
X8994500Y-15156000D02*
G75*
G02*
X8921500Y-15156000I-36500J0D01*
G01*
X8921500Y-15156000D02*
G75*
G02*
X8994500Y-15156000I36500J0D01*
G01*
X8994500Y-15950000D02*
G75*
G02*
X8921500Y-15950000I-36500J0D01*
G01*
X8921500Y-15950000D02*
G75*
G02*
X8994500Y-15950000I36500J0D01*
G01*
X9033500Y-13119000D02*
G75*
G02*
X8960500Y-13119000I-36500J0D01*
G01*
X8960500Y-13119000D02*
G75*
G02*
X9033500Y-13119000I36500J0D01*
G01*
X9033500Y-13373000D02*
G75*
G02*
X8960500Y-13373000I-36500J0D01*
G01*
X8960500Y-13373000D02*
G75*
G02*
X9033500Y-13373000I36500J0D01*
G01*
X9033500Y-13627000D02*
G75*
G02*
X8960500Y-13627000I-36500J0D01*
G01*
X8960500Y-13627000D02*
G75*
G02*
X9033500Y-13627000I36500J0D01*
G01*
X9033500Y-13881000D02*
G75*
G02*
X8960500Y-13881000I-36500J0D01*
G01*
X8960500Y-13881000D02*
G75*
G02*
X9033500Y-13881000I36500J0D01*
G01*
X9248500Y-15156000D02*
G75*
G02*
X9175500Y-15156000I-36500J0D01*
G01*
X9175500Y-15156000D02*
G75*
G02*
X9248500Y-15156000I36500J0D01*
G01*
X9248500Y-15950000D02*
G75*
G02*
X9175500Y-15950000I-36500J0D01*
G01*
X9175500Y-15950000D02*
G75*
G02*
X9248500Y-15950000I36500J0D01*
G01*
X9502500Y-15156000D02*
G75*
G02*
X9429500Y-15156000I-36500J0D01*
G01*
X9429500Y-15156000D02*
G75*
G02*
X9502500Y-15156000I36500J0D01*
G01*
X9502500Y-15950000D02*
G75*
G02*
X9429500Y-15950000I-36500J0D01*
G01*
X9429500Y-15950000D02*
G75*
G02*
X9502500Y-15950000I36500J0D01*
G01*
X9756500Y-15156000D02*
G75*
G02*
X9683500Y-15156000I-36500J0D01*
G01*
X9683500Y-15156000D02*
G75*
G02*
X9756500Y-15156000I36500J0D01*
G01*
X9756500Y-15950000D02*
G75*
G02*
X9683500Y-15950000I-36500J0D01*
G01*
X9683500Y-15950000D02*
G75*
G02*
X9756500Y-15950000I36500J0D01*
G01*
X10010500Y-15156000D02*
G75*
G02*
X9937500Y-15156000I-36500J0D01*
G01*
X9937500Y-15156000D02*
G75*
G02*
X10010500Y-15156000I36500J0D01*
G01*
X10010500Y-15950000D02*
G75*
G02*
X9937500Y-15950000I-36500J0D01*
G01*
X9937500Y-15950000D02*
G75*
G02*
X10010500Y-15950000I36500J0D01*
G01*
X10264500Y-15156000D02*
G75*
G02*
X10191500Y-15156000I-36500J0D01*
G01*
X10191500Y-15156000D02*
G75*
G02*
X10264500Y-15156000I36500J0D01*
G01*
X10264500Y-15950000D02*
G75*
G02*
X10191500Y-15950000I-36500J0D01*
G01*
X10191500Y-15950000D02*
G75*
G02*
X10264500Y-15950000I36500J0D01*
G01*
X10586500Y-13150000D02*
G75*
G02*
X10513500Y-13150000I-36500J0D01*
G01*
X10513500Y-13150000D02*
G75*
G02*
X10586500Y-13150000I36500J0D01*
G01*
X10586500Y-13944000D02*
G75*
G02*
X10513500Y-13944000I-36500J0D01*
G01*
X10513500Y-13944000D02*
G75*
G02*
X10586500Y-13944000I36500J0D01*
G01*
X10840500Y-13150000D02*
G75*
G02*
X10767500Y-13150000I-36500J0D01*
G01*
X10767500Y-13150000D02*
G75*
G02*
X10840500Y-13150000I36500J0D01*
G01*
X10840500Y-13944000D02*
G75*
G02*
X10767500Y-13944000I-36500J0D01*
G01*
X10767500Y-13944000D02*
G75*
G02*
X10840500Y-13944000I36500J0D01*
G01*
X11094500Y-13150000D02*
G75*
G02*
X11021500Y-13150000I-36500J0D01*
G01*
X11021500Y-13150000D02*
G75*
G02*
X11094500Y-13150000I36500J0D01*
G01*
X11094500Y-13944000D02*
G75*
G02*
X11021500Y-13944000I-36500J0D01*
G01*
X11021500Y-13944000D02*
G75*
G02*
X11094500Y-13944000I36500J0D01*
G01*
X11348500Y-13150000D02*
G75*
G02*
X11275500Y-13150000I-36500J0D01*
G01*
X11275500Y-13150000D02*
G75*
G02*
X11348500Y-13150000I36500J0D01*
G01*
X11348500Y-13944000D02*
G75*
G02*
X11275500Y-13944000I-36500J0D01*
G01*
X11275500Y-13944000D02*
G75*
G02*
X11348500Y-13944000I36500J0D01*
G01*
X6000000Y-15860000D02*
X6000000Y-15940000D01*
X5960000Y-15900000D02*
X6040000Y-15900000D01*
X6131000Y-16310000D02*
X6131000Y-16390000D01*
X6091000Y-16350000D02*
X6171000Y-16350000D01*
X6200000Y-12979000D02*
X6200000Y-13059000D01*
X6160000Y-13019000D02*
X6240000Y-13019000D01*
X6200000Y-13741000D02*
X6200000Y-13821000D01*
X6160000Y-13781000D02*
X6240000Y-13781000D01*
X6381000Y-14936500D02*
X6381000Y-15016500D01*
X6341000Y-14976500D02*
X6421000Y-14976500D01*
X6381000Y-15136500D02*
X6381000Y-15216500D01*
X6341000Y-15176500D02*
X6421000Y-15176500D01*
X6450000Y-12310000D02*
X6450000Y-12390000D01*
X6410000Y-12350000D02*
X6490000Y-12350000D01*
X6581000Y-14936500D02*
X6581000Y-15016500D01*
X6541000Y-14976500D02*
X6621000Y-14976500D01*
X6581000Y-15136500D02*
X6581000Y-15216500D01*
X6541000Y-15176500D02*
X6621000Y-15176500D01*
X6631000Y-16310000D02*
X6631000Y-16390000D01*
X6591000Y-16350000D02*
X6671000Y-16350000D01*
X6690000Y-4120000D02*
X6690000Y-4200000D01*
X6650000Y-4160000D02*
X6730000Y-4160000D01*
X6690000Y-4374000D02*
X6690000Y-4454000D01*
X6650000Y-4414000D02*
X6730000Y-4414000D01*
X6690000Y-4628000D02*
X6690000Y-4708000D01*
X6650000Y-4668000D02*
X6730000Y-4668000D01*
X6690000Y-4882000D02*
X6690000Y-4962000D01*
X6650000Y-4922000D02*
X6730000Y-4922000D01*
X6762000Y-15860000D02*
X6762000Y-15940000D01*
X6722000Y-15900000D02*
X6802000Y-15900000D01*
X6869000Y-13028500D02*
X6869000Y-13108500D01*
X6829000Y-13068500D02*
X6909000Y-13068500D01*
X6869000Y-13790500D02*
X6869000Y-13870500D01*
X6829000Y-13830500D02*
X6909000Y-13830500D01*
X7123000Y-13028500D02*
X7123000Y-13108500D01*
X7083000Y-13068500D02*
X7163000Y-13068500D01*
X7123000Y-13790500D02*
X7123000Y-13870500D01*
X7083000Y-13830500D02*
X7163000Y-13830500D01*
X7212000Y-12310000D02*
X7212000Y-12390000D01*
X7172000Y-12350000D02*
X7252000Y-12350000D01*
X7377000Y-13028500D02*
X7377000Y-13108500D01*
X7337000Y-13068500D02*
X7417000Y-13068500D01*
X7377000Y-13790500D02*
X7377000Y-13870500D01*
X7337000Y-13830500D02*
X7417000Y-13830500D01*
X7631000Y-13028500D02*
X7631000Y-13108500D01*
X7591000Y-13068500D02*
X7671000Y-13068500D01*
X7631000Y-13790500D02*
X7631000Y-13870500D01*
X7591000Y-13830500D02*
X7671000Y-13830500D01*
X8343000Y-14566000D02*
X8343000Y-14646000D01*
X8303000Y-14606000D02*
X8383000Y-14606000D01*
X8350000Y-11829000D02*
X8350000Y-11909000D01*
X8310000Y-11869000D02*
X8390000Y-11869000D01*
X8350000Y-12591000D02*
X8350000Y-12671000D01*
X8310000Y-12631000D02*
X8390000Y-12631000D01*
X9105000Y-14566000D02*
X9105000Y-14646000D01*
X9065000Y-14606000D02*
X9145000Y-14606000D01*
X10519000Y-12310000D02*
X10519000Y-12390000D01*
X10479000Y-12350000D02*
X10559000Y-12350000D01*
X11144000Y-14510000D02*
X11144000Y-14590000D01*
X11104000Y-14550000D02*
X11184000Y-14550000D01*
X11144000Y-16034000D02*
X11144000Y-16114000D01*
X11104000Y-16074000D02*
X11184000Y-16074000D01*
X11281000Y-12310000D02*
X11281000Y-12390000D01*
X11241000Y-12350000D02*
X11321000Y-12350000D01*
X11398000Y-14510000D02*
X11398000Y-14590000D01*
X11358000Y-14550000D02*
X11438000Y-14550000D01*
X11398000Y-16034000D02*
X11398000Y-16114000D01*
X11358000Y-16074000D02*
X11438000Y-16074000D01*
X11600000Y-10550000D02*
X11600000Y-10630000D01*
X11560000Y-10590000D02*
X11640000Y-10590000D01*
X11652000Y-14510000D02*
X11652000Y-14590000D01*
X11612000Y-14550000D02*
X11692000Y-14550000D01*
X11652000Y-16034000D02*
X11652000Y-16114000D01*
X11612000Y-16074000D02*
X11692000Y-16074000D01*
X11906000Y-14510000D02*
X11906000Y-14590000D01*
X11866000Y-14550000D02*
X11946000Y-14550000D01*
X11906000Y-16034000D02*
X11906000Y-16114000D01*
X11866000Y-16074000D02*
X11946000Y-16074000D01*
X11919000Y-12260000D02*
X11919000Y-12340000D01*
X11879000Y-12300000D02*
X11959000Y-12300000D01*
X12064000Y-13382000D02*
X12064000Y-13462000D01*
X12024000Y-13422000D02*
X12104000Y-13422000D01*
X12100000Y-10550000D02*
X12100000Y-10630000D01*
X12060000Y-10590000D02*
X12140000Y-10590000D01*
X12160000Y-14510000D02*
X12160000Y-14590000D01*
X12120000Y-14550000D02*
X12200000Y-14550000D01*
X12160000Y-16034000D02*
X12160000Y-16114000D01*
X12120000Y-16074000D02*
X12200000Y-16074000D01*
X12318000Y-13382000D02*
X12318000Y-13462000D01*
X12278000Y-13422000D02*
X12358000Y-13422000D01*
X12414000Y-14510000D02*
X12414000Y-14590000D01*
X12374000Y-14550000D02*
X12454000Y-14550000D01*
X12414000Y-16034000D02*
X12414000Y-16114000D01*
X12374000Y-16074000D02*
X12454000Y-16074000D01*
X12572000Y-13382000D02*
X12572000Y-13462000D01*
X12532000Y-13422000D02*
X12612000Y-13422000D01*
X12625600Y-10555000D02*
X12625600Y-10635000D01*
X12585600Y-10595000D02*
X12665600Y-10595000D01*
X12668000Y-14510000D02*
X12668000Y-14590000D01*
X12628000Y-14550000D02*
X12708000Y-14550000D01*
X12668000Y-16034000D02*
X12668000Y-16114000D01*
X12628000Y-16074000D02*
X12708000Y-16074000D01*
X12681000Y-12260000D02*
X12681000Y-12340000D01*
X12641000Y-12300000D02*
X12721000Y-12300000D01*
X12922000Y-14510000D02*
X12922000Y-14590000D01*
X12882000Y-14550000D02*
X12962000Y-14550000D01*
X12922000Y-16034000D02*
X12922000Y-16114000D01*
X12882000Y-16074000D02*
X12962000Y-16074000D01*
X13100749Y-12252620D02*
X13100749Y-12332620D01*
X13060749Y-12292620D02*
X13140749Y-12292620D01*
X13125600Y-10555000D02*
X13125600Y-10635000D01*
X13085600Y-10595000D02*
X13165600Y-10595000D01*
X13176000Y-14510000D02*
X13176000Y-14590000D01*
X13136000Y-14550000D02*
X13216000Y-14550000D01*
X13176000Y-16034000D02*
X13176000Y-16114000D01*
X13136000Y-16074000D02*
X13216000Y-16074000D01*
X13183000Y-12901500D02*
X13183000Y-12981500D01*
X13143000Y-12941500D02*
X13223000Y-12941500D01*
X13183000Y-13663500D02*
X13183000Y-13743500D01*
X13143000Y-13703500D02*
X13223000Y-13703500D01*
X13188000Y-11460000D02*
X13188000Y-11540000D01*
X13148000Y-11500000D02*
X13228000Y-11500000D01*
X13350749Y-12252620D02*
X13350749Y-12332620D01*
X13310749Y-12292620D02*
X13390749Y-12292620D01*
X13430000Y-14510000D02*
X13430000Y-14590000D01*
X13390000Y-14550000D02*
X13470000Y-14550000D01*
X13430000Y-16034000D02*
X13430000Y-16114000D01*
X13390000Y-16074000D02*
X13470000Y-16074000D01*
X13437000Y-12901500D02*
X13437000Y-12981500D01*
X13397000Y-12941500D02*
X13477000Y-12941500D01*
X13437000Y-13663500D02*
X13437000Y-13743500D01*
X13397000Y-13703500D02*
X13477000Y-13703500D01*
X13684000Y-14510000D02*
X13684000Y-14590000D01*
X13644000Y-14550000D02*
X13724000Y-14550000D01*
X13684000Y-16034000D02*
X13684000Y-16114000D01*
X13644000Y-16074000D02*
X13724000Y-16074000D01*
X13691000Y-12901500D02*
X13691000Y-12981500D01*
X13651000Y-12941500D02*
X13731000Y-12941500D01*
X13691000Y-13663500D02*
X13691000Y-13743500D01*
X13651000Y-13703500D02*
X13731000Y-13703500D01*
X13724400Y-10565000D02*
X13724400Y-10645000D01*
X13684400Y-10605000D02*
X13764400Y-10605000D01*
X13783000Y-12232000D02*
X13783000Y-12312000D01*
X13743000Y-12272000D02*
X13823000Y-12272000D01*
X13938000Y-14510000D02*
X13938000Y-14590000D01*
X13898000Y-14550000D02*
X13978000Y-14550000D01*
X13938000Y-16034000D02*
X13938000Y-16114000D01*
X13898000Y-16074000D02*
X13978000Y-16074000D01*
X13945000Y-12901500D02*
X13945000Y-12981500D01*
X13905000Y-12941500D02*
X13985000Y-12941500D01*
X13945000Y-13663500D02*
X13945000Y-13743500D01*
X13905000Y-13703500D02*
X13985000Y-13703500D01*
X13950000Y-11460000D02*
X13950000Y-11540000D01*
X13910000Y-11500000D02*
X13990000Y-11500000D01*
X14192000Y-14510000D02*
X14192000Y-14590000D01*
X14152000Y-14550000D02*
X14232000Y-14550000D01*
X14192000Y-16034000D02*
X14192000Y-16114000D01*
X14152000Y-16074000D02*
X14232000Y-16074000D01*
X14224400Y-10565000D02*
X14224400Y-10645000D01*
X14184400Y-10605000D02*
X14264400Y-10605000D01*
X14446000Y-14510000D02*
X14446000Y-14590000D01*
X14406000Y-14550000D02*
X14486000Y-14550000D01*
X14446000Y-16034000D02*
X14446000Y-16114000D01*
X14406000Y-16074000D02*
X14486000Y-16074000D01*
X14472000Y-12920000D02*
X14472000Y-13000000D01*
X14432000Y-12960000D02*
X14512000Y-12960000D01*
X14472000Y-13682000D02*
X14472000Y-13762000D01*
X14432000Y-13722000D02*
X14512000Y-13722000D01*
X14500000Y-11460000D02*
X14500000Y-11540000D01*
X14460000Y-11500000D02*
X14540000Y-11500000D01*
X14545000Y-12232000D02*
X14545000Y-12312000D01*
X14505000Y-12272000D02*
X14585000Y-12272000D01*
X14700000Y-14510000D02*
X14700000Y-14590000D01*
X14660000Y-14550000D02*
X14740000Y-14550000D01*
X14700000Y-16034000D02*
X14700000Y-16114000D01*
X14660000Y-16074000D02*
X14740000Y-16074000D01*
X14750000Y-11460000D02*
X14750000Y-11540000D01*
X14710000Y-11500000D02*
X14790000Y-11500000D01*
X14954000Y-14510000D02*
X14954000Y-14590000D01*
X14914000Y-14550000D02*
X14994000Y-14550000D01*
X14954000Y-16034000D02*
X14954000Y-16114000D01*
X14914000Y-16074000D02*
X14994000Y-16074000D01*
X14964000Y-12182000D02*
X14964000Y-12262000D01*
X14924000Y-12222000D02*
X15004000Y-12222000D01*
X15208000Y-14510000D02*
X15208000Y-14590000D01*
X15168000Y-14550000D02*
X15248000Y-14550000D01*
X15208000Y-16034000D02*
X15208000Y-16114000D01*
X15168000Y-16074000D02*
X15248000Y-16074000D01*
X15214000Y-12182000D02*
X15214000Y-12262000D01*
X15174000Y-12222000D02*
X15254000Y-12222000D01*
X5885356Y-10685356D02*
X5885356Y-10614644D01*
X5814644Y-10614644D01*
X5814644Y-10685356D01*
X5885356Y-10685356D01*
X6135356Y-10185356D02*
X6135356Y-10114644D01*
X6064644Y-10114644D01*
X6064644Y-10185356D01*
X6135356Y-10185356D01*
X6166356Y-11835356D02*
X6166356Y-11764644D01*
X6095644Y-11764644D01*
X6095644Y-11835356D01*
X6166356Y-11835356D01*
X6385356Y-10685356D02*
X6385356Y-10614644D01*
X6314644Y-10614644D01*
X6314644Y-10685356D01*
X6385356Y-10685356D01*
X6420356Y-11835356D02*
X6420356Y-11764644D01*
X6349644Y-11764644D01*
X6349644Y-11835356D01*
X6420356Y-11835356D01*
X7035356Y-10685356D02*
X7035356Y-10614644D01*
X6964644Y-10614644D01*
X6964644Y-10685356D01*
X7035356Y-10685356D01*
X7285356Y-10185356D02*
X7285356Y-10114644D01*
X7214644Y-10114644D01*
X7214644Y-10185356D01*
X7285356Y-10185356D01*
X7316356Y-15185356D02*
X7316356Y-15114644D01*
X7245644Y-15114644D01*
X7245644Y-15185356D01*
X7316356Y-15185356D01*
X7362356Y-11835356D02*
X7362356Y-11764644D01*
X7291644Y-11764644D01*
X7291644Y-11835356D01*
X7362356Y-11835356D01*
X7366356Y-15981356D02*
X7366356Y-15910644D01*
X7295644Y-15910644D01*
X7295644Y-15981356D01*
X7366356Y-15981356D01*
X7366356Y-16235356D02*
X7366356Y-16164644D01*
X7295644Y-16164644D01*
X7295644Y-16235356D01*
X7366356Y-16235356D01*
X7535356Y-10685356D02*
X7535356Y-10614644D01*
X7464644Y-10614644D01*
X7464644Y-10685356D01*
X7535356Y-10685356D01*
X7570356Y-15185356D02*
X7570356Y-15114644D01*
X7499644Y-15114644D01*
X7499644Y-15185356D01*
X7570356Y-15185356D01*
X7616356Y-11835356D02*
X7616356Y-11764644D01*
X7545644Y-11764644D01*
X7545644Y-11835356D01*
X7616356Y-11835356D01*
X9685356Y-12385356D02*
X9685356Y-12314644D01*
X9614644Y-12314644D01*
X9614644Y-12385356D01*
X9685356Y-12385356D01*
X9685356Y-13585356D02*
X9685356Y-13514644D01*
X9614644Y-13514644D01*
X9614644Y-13585356D01*
X9685356Y-13585356D01*
X9939356Y-12385356D02*
X9939356Y-12314644D01*
X9868644Y-12314644D01*
X9868644Y-12385356D01*
X9939356Y-12385356D01*
X9939356Y-13585356D02*
X9939356Y-13514644D01*
X9868644Y-13514644D01*
X9868644Y-13585356D01*
X9939356Y-13585356D01*
X12921356Y-2984156D02*
X12921356Y-2913444D01*
X12850644Y-2913444D01*
X12850644Y-2984156D01*
X12921356Y-2984156D01*
X13175356Y-2984156D02*
X13175356Y-2913444D01*
X13104644Y-2913444D01*
X13104644Y-2984156D01*
X13175356Y-2984156D01*
X15207356Y-13207356D02*
X15207356Y-13136644D01*
X15136644Y-13136644D01*
X15136644Y-13207356D01*
X15207356Y-13207356D01*
X15207356Y-13461356D02*
X15207356Y-13390644D01*
X15136644Y-13390644D01*
X15136644Y-13461356D01*
X15207356Y-13461356D01*
D13*
X9090000Y-10375000D02*
X9165000Y-10300000D01*
X9090000Y-10225000D01*
X9015000Y-10300000D01*
X9090000Y-10375000D01*
X9090000Y-10875000D02*
X9165000Y-10800000D01*
X9090000Y-10725000D01*
X9015000Y-10800000D01*
X9090000Y-10875000D01*
X9090000Y-11375000D02*
X9165000Y-11300000D01*
X9090000Y-11225000D01*
X9015000Y-11300000D01*
X9090000Y-11375000D01*
X10450000Y-10375000D02*
X10525000Y-10300000D01*
X10450000Y-10225000D01*
X10375000Y-10300000D01*
X10450000Y-10375000D01*
X10450000Y-10875000D02*
X10525000Y-10800000D01*
X10450000Y-10725000D01*
X10375000Y-10800000D01*
X10450000Y-10875000D01*
X10450000Y-11375000D02*
X10525000Y-11300000D01*
X10450000Y-11225000D01*
X10375000Y-11300000D01*
X10450000Y-11375000D01*
D14*
X5660000Y-3760000D02*
X6060000Y-4160000D01*
X6060000Y-3760000D02*
X5660000Y-4160000D01*
X6060000Y-3960000D02*
G75*
G02*
X5660000Y-3960000I-200000J0D01*
G01*
X5660000Y-3960000D02*
G75*
G02*
X6060000Y-3960000I200000J0D01*
G01*
X5660000Y-9240000D02*
X6060000Y-9640000D01*
X6060000Y-9240000D02*
X5660000Y-9640000D01*
X6060000Y-9440000D02*
G75*
G02*
X5660000Y-9440000I-200000J0D01*
G01*
X5660000Y-9440000D02*
G75*
G02*
X6060000Y-9440000I200000J0D01*
G01*
X14940000Y-3760000D02*
X15340000Y-4160000D01*
X15340000Y-3760000D02*
X14940000Y-4160000D01*
X15340000Y-3960000D02*
G75*
G02*
X14940000Y-3960000I-200000J0D01*
G01*
X14940000Y-3960000D02*
G75*
G02*
X15340000Y-3960000I200000J0D01*
G01*
X14940000Y-9240000D02*
X15340000Y-9640000D01*
X15340000Y-9240000D02*
X14940000Y-9640000D01*
X15340000Y-9440000D02*
G75*
G02*
X14940000Y-9440000I-200000J0D01*
G01*
X14940000Y-9440000D02*
G75*
G02*
X15340000Y-9440000I200000J0D01*
G01*
D15*
X5635000Y-2585000D02*
X6065000Y-3015000D01*
X6065000Y-2585000D02*
X5635000Y-3015000D01*
X5850000Y-2585000D02*
X5850000Y-3015000D01*
X5635000Y-2800000D02*
X6065000Y-2800000D01*
X5635000Y-16685000D02*
X6065000Y-17115000D01*
X6065000Y-16685000D02*
X5635000Y-17115000D01*
X5850000Y-16685000D02*
X5850000Y-17115000D01*
X5635000Y-16900000D02*
X6065000Y-16900000D01*
X14935000Y-2585000D02*
X15365000Y-3015000D01*
X15365000Y-2585000D02*
X14935000Y-3015000D01*
X15150000Y-2585000D02*
X15150000Y-3015000D01*
X14935000Y-2800000D02*
X15365000Y-2800000D01*
X14935000Y-16685000D02*
X15365000Y-17115000D01*
X15365000Y-16685000D02*
X14935000Y-17115000D01*
X15150000Y-16685000D02*
X15150000Y-17115000D01*
X14935000Y-16900000D02*
X15365000Y-16900000D01*
D11*
X5658872Y-17663389D02*
X5658872Y-17463389D01*
X5658872Y-17463389D02*
X5706491Y-17463389D01*
X5706491Y-17463389D02*
X5735062Y-17472913D01*
X5735062Y-17472913D02*
X5754110Y-17491960D01*
X5754110Y-17491960D02*
X5763634Y-17511008D01*
X5763634Y-17511008D02*
X5773157Y-17549103D01*
X5773157Y-17549103D02*
X5773157Y-17577675D01*
X5773157Y-17577675D02*
X5763634Y-17615770D01*
X5763634Y-17615770D02*
X5754110Y-17634817D01*
X5754110Y-17634817D02*
X5735062Y-17653865D01*
X5735062Y-17653865D02*
X5706491Y-17663389D01*
X5706491Y-17663389D02*
X5658872Y-17663389D01*
X5858872Y-17663389D02*
X5858872Y-17530055D01*
X5858872Y-17568151D02*
X5868396Y-17549103D01*
X5868396Y-17549103D02*
X5877919Y-17539579D01*
X5877919Y-17539579D02*
X5896967Y-17530055D01*
X5896967Y-17530055D02*
X5916015Y-17530055D01*
X5982681Y-17663389D02*
X5982681Y-17530055D01*
X5982681Y-17463389D02*
X5973157Y-17472913D01*
X5973157Y-17472913D02*
X5982681Y-17482436D01*
X5982681Y-17482436D02*
X5992205Y-17472913D01*
X5992205Y-17472913D02*
X5982681Y-17463389D01*
X5982681Y-17463389D02*
X5982681Y-17482436D01*
X6106491Y-17663389D02*
X6087443Y-17653865D01*
X6087443Y-17653865D02*
X6077919Y-17634817D01*
X6077919Y-17634817D02*
X6077919Y-17463389D01*
X6211253Y-17663389D02*
X6192205Y-17653865D01*
X6192205Y-17653865D02*
X6182681Y-17634817D01*
X6182681Y-17634817D02*
X6182681Y-17463389D01*
X6439824Y-17663389D02*
X6439824Y-17463389D01*
X6439824Y-17463389D02*
X6506491Y-17606246D01*
X6506491Y-17606246D02*
X6573157Y-17463389D01*
X6573157Y-17463389D02*
X6573157Y-17663389D01*
X6754110Y-17663389D02*
X6754110Y-17558627D01*
X6754110Y-17558627D02*
X6744586Y-17539579D01*
X6744586Y-17539579D02*
X6725538Y-17530055D01*
X6725538Y-17530055D02*
X6687443Y-17530055D01*
X6687443Y-17530055D02*
X6668396Y-17539579D01*
X6754110Y-17653865D02*
X6735062Y-17663389D01*
X6735062Y-17663389D02*
X6687443Y-17663389D01*
X6687443Y-17663389D02*
X6668396Y-17653865D01*
X6668396Y-17653865D02*
X6658872Y-17634817D01*
X6658872Y-17634817D02*
X6658872Y-17615770D01*
X6658872Y-17615770D02*
X6668396Y-17596722D01*
X6668396Y-17596722D02*
X6687443Y-17587198D01*
X6687443Y-17587198D02*
X6735062Y-17587198D01*
X6735062Y-17587198D02*
X6754110Y-17577675D01*
X6849348Y-17530055D02*
X6849348Y-17730055D01*
X6849348Y-17539579D02*
X6868396Y-17530055D01*
X6868396Y-17530055D02*
X6906491Y-17530055D01*
X6906491Y-17530055D02*
X6925538Y-17539579D01*
X6925538Y-17539579D02*
X6935062Y-17549103D01*
X6935062Y-17549103D02*
X6944586Y-17568151D01*
X6944586Y-17568151D02*
X6944586Y-17625294D01*
X6944586Y-17625294D02*
X6935062Y-17644341D01*
X6935062Y-17644341D02*
X6925538Y-17653865D01*
X6925538Y-17653865D02*
X6906491Y-17663389D01*
X6906491Y-17663389D02*
X6868396Y-17663389D01*
X6868396Y-17663389D02*
X6849348Y-17653865D01*
X7030300Y-17644341D02*
X7039824Y-17653865D01*
X7039824Y-17653865D02*
X7030300Y-17663389D01*
X7030300Y-17663389D02*
X7020777Y-17653865D01*
X7020777Y-17653865D02*
X7030300Y-17644341D01*
X7030300Y-17644341D02*
X7030300Y-17663389D01*
X7030300Y-17539579D02*
X7039824Y-17549103D01*
X7039824Y-17549103D02*
X7030300Y-17558627D01*
X7030300Y-17558627D02*
X7020777Y-17549103D01*
X7020777Y-17549103D02*
X7030300Y-17539579D01*
X7030300Y-17539579D02*
X7030300Y-17558627D01*
D12*
X5368095Y-17976905D02*
X5398095Y-18006905D01*
X5398095Y-17976905D02*
X5368095Y-18006905D01*
D11*
X5696967Y-17883389D02*
X5716015Y-17883389D01*
X5716015Y-17883389D02*
X5735062Y-17892913D01*
X5735062Y-17892913D02*
X5744586Y-17902436D01*
X5744586Y-17902436D02*
X5754110Y-17921484D01*
X5754110Y-17921484D02*
X5763634Y-17959579D01*
X5763634Y-17959579D02*
X5763634Y-18007198D01*
X5763634Y-18007198D02*
X5754110Y-18045294D01*
X5754110Y-18045294D02*
X5744586Y-18064341D01*
X5744586Y-18064341D02*
X5735062Y-18073865D01*
X5735062Y-18073865D02*
X5716015Y-18083389D01*
X5716015Y-18083389D02*
X5696967Y-18083389D01*
X5696967Y-18083389D02*
X5677919Y-18073865D01*
X5677919Y-18073865D02*
X5668396Y-18064341D01*
X5668396Y-18064341D02*
X5658872Y-18045294D01*
X5658872Y-18045294D02*
X5649348Y-18007198D01*
X5649348Y-18007198D02*
X5649348Y-17959579D01*
X5649348Y-17959579D02*
X5658872Y-17921484D01*
X5658872Y-17921484D02*
X5668396Y-17902436D01*
X5668396Y-17902436D02*
X5677919Y-17892913D01*
X5677919Y-17892913D02*
X5696967Y-17883389D01*
X5849348Y-18064341D02*
X5858872Y-18073865D01*
X5858872Y-18073865D02*
X5849348Y-18083389D01*
X5849348Y-18083389D02*
X5839824Y-18073865D01*
X5839824Y-18073865D02*
X5849348Y-18064341D01*
X5849348Y-18064341D02*
X5849348Y-18083389D01*
X5925538Y-17883389D02*
X6049348Y-17883389D01*
X6049348Y-17883389D02*
X5982681Y-17959579D01*
X5982681Y-17959579D02*
X6011253Y-17959579D01*
X6011253Y-17959579D02*
X6030300Y-17969103D01*
X6030300Y-17969103D02*
X6039824Y-17978627D01*
X6039824Y-17978627D02*
X6049348Y-17997675D01*
X6049348Y-17997675D02*
X6049348Y-18045294D01*
X6049348Y-18045294D02*
X6039824Y-18064341D01*
X6039824Y-18064341D02*
X6030300Y-18073865D01*
X6030300Y-18073865D02*
X6011253Y-18083389D01*
X6011253Y-18083389D02*
X5954110Y-18083389D01*
X5954110Y-18083389D02*
X5935062Y-18073865D01*
X5935062Y-18073865D02*
X5925538Y-18064341D01*
X6173157Y-17883389D02*
X6192205Y-17883389D01*
X6192205Y-17883389D02*
X6211253Y-17892913D01*
X6211253Y-17892913D02*
X6220777Y-17902436D01*
X6220777Y-17902436D02*
X6230300Y-17921484D01*
X6230300Y-17921484D02*
X6239824Y-17959579D01*
X6239824Y-17959579D02*
X6239824Y-18007198D01*
X6239824Y-18007198D02*
X6230300Y-18045294D01*
X6230300Y-18045294D02*
X6220777Y-18064341D01*
X6220777Y-18064341D02*
X6211253Y-18073865D01*
X6211253Y-18073865D02*
X6192205Y-18083389D01*
X6192205Y-18083389D02*
X6173157Y-18083389D01*
X6173157Y-18083389D02*
X6154110Y-18073865D01*
X6154110Y-18073865D02*
X6144586Y-18064341D01*
X6144586Y-18064341D02*
X6135062Y-18045294D01*
X6135062Y-18045294D02*
X6125538Y-18007198D01*
X6125538Y-18007198D02*
X6125538Y-17959579D01*
X6125538Y-17959579D02*
X6135062Y-17921484D01*
X6135062Y-17921484D02*
X6144586Y-17902436D01*
X6144586Y-17902436D02*
X6154110Y-17892913D01*
X6154110Y-17892913D02*
X6173157Y-17883389D01*
X6363634Y-17883389D02*
X6382681Y-17883389D01*
X6382681Y-17883389D02*
X6401729Y-17892913D01*
X6401729Y-17892913D02*
X6411253Y-17902436D01*
X6411253Y-17902436D02*
X6420777Y-17921484D01*
X6420777Y-17921484D02*
X6430300Y-17959579D01*
X6430300Y-17959579D02*
X6430300Y-18007198D01*
X6430300Y-18007198D02*
X6420777Y-18045294D01*
X6420777Y-18045294D02*
X6411253Y-18064341D01*
X6411253Y-18064341D02*
X6401729Y-18073865D01*
X6401729Y-18073865D02*
X6382681Y-18083389D01*
X6382681Y-18083389D02*
X6363634Y-18083389D01*
X6363634Y-18083389D02*
X6344586Y-18073865D01*
X6344586Y-18073865D02*
X6335062Y-18064341D01*
X6335062Y-18064341D02*
X6325538Y-18045294D01*
X6325538Y-18045294D02*
X6316015Y-18007198D01*
X6316015Y-18007198D02*
X6316015Y-17959579D01*
X6316015Y-17959579D02*
X6325538Y-17921484D01*
X6325538Y-17921484D02*
X6335062Y-17902436D01*
X6335062Y-17902436D02*
X6344586Y-17892913D01*
X6344586Y-17892913D02*
X6363634Y-17883389D01*
X6516015Y-18083389D02*
X6516015Y-17950055D01*
X6516015Y-17969103D02*
X6525538Y-17959579D01*
X6525538Y-17959579D02*
X6544586Y-17950055D01*
X6544586Y-17950055D02*
X6573158Y-17950055D01*
X6573158Y-17950055D02*
X6592205Y-17959579D01*
X6592205Y-17959579D02*
X6601729Y-17978627D01*
X6601729Y-17978627D02*
X6601729Y-18083389D01*
X6601729Y-17978627D02*
X6611253Y-17959579D01*
X6611253Y-17959579D02*
X6630300Y-17950055D01*
X6630300Y-17950055D02*
X6658872Y-17950055D01*
X6658872Y-17950055D02*
X6677919Y-17959579D01*
X6677919Y-17959579D02*
X6687443Y-17978627D01*
X6687443Y-17978627D02*
X6687443Y-18083389D01*
X6782681Y-18083389D02*
X6782681Y-17950055D01*
X6782681Y-17969103D02*
X6792205Y-17959579D01*
X6792205Y-17959579D02*
X6811253Y-17950055D01*
X6811253Y-17950055D02*
X6839824Y-17950055D01*
X6839824Y-17950055D02*
X6858872Y-17959579D01*
X6858872Y-17959579D02*
X6868396Y-17978627D01*
X6868396Y-17978627D02*
X6868396Y-18083389D01*
X6868396Y-17978627D02*
X6877919Y-17959579D01*
X6877919Y-17959579D02*
X6896967Y-17950055D01*
X6896967Y-17950055D02*
X6925538Y-17950055D01*
X6925538Y-17950055D02*
X6944586Y-17959579D01*
X6944586Y-17959579D02*
X6954110Y-17978627D01*
X6954110Y-17978627D02*
X6954110Y-18083389D01*
X7344586Y-17873865D02*
X7173158Y-18131008D01*
X7601729Y-17883389D02*
X7620777Y-17883389D01*
X7620777Y-17883389D02*
X7639824Y-17892913D01*
X7639824Y-17892913D02*
X7649348Y-17902436D01*
X7649348Y-17902436D02*
X7658872Y-17921484D01*
X7658872Y-17921484D02*
X7668396Y-17959579D01*
X7668396Y-17959579D02*
X7668396Y-18007198D01*
X7668396Y-18007198D02*
X7658872Y-18045294D01*
X7658872Y-18045294D02*
X7649348Y-18064341D01*
X7649348Y-18064341D02*
X7639824Y-18073865D01*
X7639824Y-18073865D02*
X7620777Y-18083389D01*
X7620777Y-18083389D02*
X7601729Y-18083389D01*
X7601729Y-18083389D02*
X7582681Y-18073865D01*
X7582681Y-18073865D02*
X7573158Y-18064341D01*
X7573158Y-18064341D02*
X7563634Y-18045294D01*
X7563634Y-18045294D02*
X7554110Y-18007198D01*
X7554110Y-18007198D02*
X7554110Y-17959579D01*
X7554110Y-17959579D02*
X7563634Y-17921484D01*
X7563634Y-17921484D02*
X7573158Y-17902436D01*
X7573158Y-17902436D02*
X7582681Y-17892913D01*
X7582681Y-17892913D02*
X7601729Y-17883389D01*
X7754110Y-18064341D02*
X7763634Y-18073865D01*
X7763634Y-18073865D02*
X7754110Y-18083389D01*
X7754110Y-18083389D02*
X7744586Y-18073865D01*
X7744586Y-18073865D02*
X7754110Y-18064341D01*
X7754110Y-18064341D02*
X7754110Y-18083389D01*
X7887443Y-17883389D02*
X7906491Y-17883389D01*
X7906491Y-17883389D02*
X7925539Y-17892913D01*
X7925539Y-17892913D02*
X7935062Y-17902436D01*
X7935062Y-17902436D02*
X7944586Y-17921484D01*
X7944586Y-17921484D02*
X7954110Y-17959579D01*
X7954110Y-17959579D02*
X7954110Y-18007198D01*
X7954110Y-18007198D02*
X7944586Y-18045294D01*
X7944586Y-18045294D02*
X7935062Y-18064341D01*
X7935062Y-18064341D02*
X7925539Y-18073865D01*
X7925539Y-18073865D02*
X7906491Y-18083389D01*
X7906491Y-18083389D02*
X7887443Y-18083389D01*
X7887443Y-18083389D02*
X7868396Y-18073865D01*
X7868396Y-18073865D02*
X7858872Y-18064341D01*
X7858872Y-18064341D02*
X7849348Y-18045294D01*
X7849348Y-18045294D02*
X7839824Y-18007198D01*
X7839824Y-18007198D02*
X7839824Y-17959579D01*
X7839824Y-17959579D02*
X7849348Y-17921484D01*
X7849348Y-17921484D02*
X7858872Y-17902436D01*
X7858872Y-17902436D02*
X7868396Y-17892913D01*
X7868396Y-17892913D02*
X7887443Y-17883389D01*
X8144586Y-18083389D02*
X8030301Y-18083389D01*
X8087443Y-18083389D02*
X8087443Y-17883389D01*
X8087443Y-17883389D02*
X8068396Y-17911960D01*
X8068396Y-17911960D02*
X8049348Y-17931008D01*
X8049348Y-17931008D02*
X8030301Y-17940532D01*
X8335062Y-18083389D02*
X8220777Y-18083389D01*
X8277920Y-18083389D02*
X8277920Y-17883389D01*
X8277920Y-17883389D02*
X8258872Y-17911960D01*
X8258872Y-17911960D02*
X8239824Y-17931008D01*
X8239824Y-17931008D02*
X8220777Y-17940532D01*
X8449348Y-17969103D02*
X8430301Y-17959579D01*
X8430301Y-17959579D02*
X8420777Y-17950055D01*
X8420777Y-17950055D02*
X8411253Y-17931008D01*
X8411253Y-17931008D02*
X8411253Y-17921484D01*
X8411253Y-17921484D02*
X8420777Y-17902436D01*
X8420777Y-17902436D02*
X8430301Y-17892913D01*
X8430301Y-17892913D02*
X8449348Y-17883389D01*
X8449348Y-17883389D02*
X8487444Y-17883389D01*
X8487444Y-17883389D02*
X8506491Y-17892913D01*
X8506491Y-17892913D02*
X8516015Y-17902436D01*
X8516015Y-17902436D02*
X8525539Y-17921484D01*
X8525539Y-17921484D02*
X8525539Y-17931008D01*
X8525539Y-17931008D02*
X8516015Y-17950055D01*
X8516015Y-17950055D02*
X8506491Y-17959579D01*
X8506491Y-17959579D02*
X8487444Y-17969103D01*
X8487444Y-17969103D02*
X8449348Y-17969103D01*
X8449348Y-17969103D02*
X8430301Y-17978627D01*
X8430301Y-17978627D02*
X8420777Y-17988151D01*
X8420777Y-17988151D02*
X8411253Y-18007198D01*
X8411253Y-18007198D02*
X8411253Y-18045294D01*
X8411253Y-18045294D02*
X8420777Y-18064341D01*
X8420777Y-18064341D02*
X8430301Y-18073865D01*
X8430301Y-18073865D02*
X8449348Y-18083389D01*
X8449348Y-18083389D02*
X8487444Y-18083389D01*
X8487444Y-18083389D02*
X8506491Y-18073865D01*
X8506491Y-18073865D02*
X8516015Y-18064341D01*
X8516015Y-18064341D02*
X8525539Y-18045294D01*
X8525539Y-18045294D02*
X8525539Y-18007198D01*
X8525539Y-18007198D02*
X8516015Y-17988151D01*
X8516015Y-17988151D02*
X8506491Y-17978627D01*
X8506491Y-17978627D02*
X8487444Y-17969103D01*
X8601729Y-17883389D02*
X8601729Y-17921484D01*
X8677920Y-17883389D02*
X8677920Y-17921484D01*
X8973158Y-18159579D02*
X8963634Y-18150055D01*
X8963634Y-18150055D02*
X8944586Y-18121484D01*
X8944586Y-18121484D02*
X8935063Y-18102436D01*
X8935063Y-18102436D02*
X8925539Y-18073865D01*
X8925539Y-18073865D02*
X8916015Y-18026246D01*
X8916015Y-18026246D02*
X8916015Y-17988151D01*
X8916015Y-17988151D02*
X8925539Y-17940532D01*
X8925539Y-17940532D02*
X8935063Y-17911960D01*
X8935063Y-17911960D02*
X8944586Y-17892913D01*
X8944586Y-17892913D02*
X8963634Y-17864341D01*
X8963634Y-17864341D02*
X8973158Y-17854817D01*
X9154110Y-18083389D02*
X9039825Y-18083389D01*
X9096967Y-18083389D02*
X9096967Y-17883389D01*
X9096967Y-17883389D02*
X9077920Y-17911960D01*
X9077920Y-17911960D02*
X9058872Y-17931008D01*
X9058872Y-17931008D02*
X9039825Y-17940532D01*
X9220777Y-17883389D02*
X9344586Y-17883389D01*
X9344586Y-17883389D02*
X9277920Y-17959579D01*
X9277920Y-17959579D02*
X9306491Y-17959579D01*
X9306491Y-17959579D02*
X9325539Y-17969103D01*
X9325539Y-17969103D02*
X9335063Y-17978627D01*
X9335063Y-17978627D02*
X9344586Y-17997675D01*
X9344586Y-17997675D02*
X9344586Y-18045294D01*
X9344586Y-18045294D02*
X9335063Y-18064341D01*
X9335063Y-18064341D02*
X9325539Y-18073865D01*
X9325539Y-18073865D02*
X9306491Y-18083389D01*
X9306491Y-18083389D02*
X9249348Y-18083389D01*
X9249348Y-18083389D02*
X9230301Y-18073865D01*
X9230301Y-18073865D02*
X9220777Y-18064341D01*
X9582682Y-18083389D02*
X9582682Y-17883389D01*
X9668396Y-18083389D02*
X9668396Y-17978627D01*
X9668396Y-17978627D02*
X9658872Y-17959579D01*
X9658872Y-17959579D02*
X9639825Y-17950055D01*
X9639825Y-17950055D02*
X9611253Y-17950055D01*
X9611253Y-17950055D02*
X9592206Y-17959579D01*
X9592206Y-17959579D02*
X9582682Y-17969103D01*
X9792206Y-18083389D02*
X9773158Y-18073865D01*
X9773158Y-18073865D02*
X9763634Y-18064341D01*
X9763634Y-18064341D02*
X9754110Y-18045294D01*
X9754110Y-18045294D02*
X9754110Y-17988151D01*
X9754110Y-17988151D02*
X9763634Y-17969103D01*
X9763634Y-17969103D02*
X9773158Y-17959579D01*
X9773158Y-17959579D02*
X9792206Y-17950055D01*
X9792206Y-17950055D02*
X9820777Y-17950055D01*
X9820777Y-17950055D02*
X9839825Y-17959579D01*
X9839825Y-17959579D02*
X9849348Y-17969103D01*
X9849348Y-17969103D02*
X9858872Y-17988151D01*
X9858872Y-17988151D02*
X9858872Y-18045294D01*
X9858872Y-18045294D02*
X9849348Y-18064341D01*
X9849348Y-18064341D02*
X9839825Y-18073865D01*
X9839825Y-18073865D02*
X9820777Y-18083389D01*
X9820777Y-18083389D02*
X9792206Y-18083389D01*
X9973158Y-18083389D02*
X9954110Y-18073865D01*
X9954110Y-18073865D02*
X9944587Y-18054817D01*
X9944587Y-18054817D02*
X9944587Y-17883389D01*
X10125539Y-18073865D02*
X10106491Y-18083389D01*
X10106491Y-18083389D02*
X10068396Y-18083389D01*
X10068396Y-18083389D02*
X10049348Y-18073865D01*
X10049348Y-18073865D02*
X10039825Y-18054817D01*
X10039825Y-18054817D02*
X10039825Y-17978627D01*
X10039825Y-17978627D02*
X10049348Y-17959579D01*
X10049348Y-17959579D02*
X10068396Y-17950055D01*
X10068396Y-17950055D02*
X10106491Y-17950055D01*
X10106491Y-17950055D02*
X10125539Y-17959579D01*
X10125539Y-17959579D02*
X10135063Y-17978627D01*
X10135063Y-17978627D02*
X10135063Y-17997675D01*
X10135063Y-17997675D02*
X10039825Y-18016722D01*
X10211253Y-18073865D02*
X10230301Y-18083389D01*
X10230301Y-18083389D02*
X10268396Y-18083389D01*
X10268396Y-18083389D02*
X10287444Y-18073865D01*
X10287444Y-18073865D02*
X10296968Y-18054817D01*
X10296968Y-18054817D02*
X10296968Y-18045294D01*
X10296968Y-18045294D02*
X10287444Y-18026246D01*
X10287444Y-18026246D02*
X10268396Y-18016722D01*
X10268396Y-18016722D02*
X10239825Y-18016722D01*
X10239825Y-18016722D02*
X10220777Y-18007198D01*
X10220777Y-18007198D02*
X10211253Y-17988151D01*
X10211253Y-17988151D02*
X10211253Y-17978627D01*
X10211253Y-17978627D02*
X10220777Y-17959579D01*
X10220777Y-17959579D02*
X10239825Y-17950055D01*
X10239825Y-17950055D02*
X10268396Y-17950055D01*
X10268396Y-17950055D02*
X10287444Y-17959579D01*
X10363634Y-18159579D02*
X10373158Y-18150055D01*
X10373158Y-18150055D02*
X10392206Y-18121484D01*
X10392206Y-18121484D02*
X10401729Y-18102436D01*
X10401729Y-18102436D02*
X10411253Y-18073865D01*
X10411253Y-18073865D02*
X10420777Y-18026246D01*
X10420777Y-18026246D02*
X10420777Y-17988151D01*
X10420777Y-17988151D02*
X10411253Y-17940532D01*
X10411253Y-17940532D02*
X10401729Y-17911960D01*
X10401729Y-17911960D02*
X10392206Y-17892913D01*
X10392206Y-17892913D02*
X10373158Y-17864341D01*
X10373158Y-17864341D02*
X10363634Y-17854817D01*
D12*
X5398095Y-18255905D02*
G75*
G02*
X5325095Y-18255905I-36500J0D01*
G01*
X5325095Y-18255905D02*
G75*
G02*
X5398095Y-18255905I36500J0D01*
G01*
D11*
X5696967Y-18147389D02*
X5716015Y-18147389D01*
X5716015Y-18147389D02*
X5735062Y-18156913D01*
X5735062Y-18156913D02*
X5744586Y-18166436D01*
X5744586Y-18166436D02*
X5754110Y-18185484D01*
X5754110Y-18185484D02*
X5763634Y-18223579D01*
X5763634Y-18223579D02*
X5763634Y-18271198D01*
X5763634Y-18271198D02*
X5754110Y-18309294D01*
X5754110Y-18309294D02*
X5744586Y-18328341D01*
X5744586Y-18328341D02*
X5735062Y-18337865D01*
X5735062Y-18337865D02*
X5716015Y-18347389D01*
X5716015Y-18347389D02*
X5696967Y-18347389D01*
X5696967Y-18347389D02*
X5677919Y-18337865D01*
X5677919Y-18337865D02*
X5668396Y-18328341D01*
X5668396Y-18328341D02*
X5658872Y-18309294D01*
X5658872Y-18309294D02*
X5649348Y-18271198D01*
X5649348Y-18271198D02*
X5649348Y-18223579D01*
X5649348Y-18223579D02*
X5658872Y-18185484D01*
X5658872Y-18185484D02*
X5668396Y-18166436D01*
X5668396Y-18166436D02*
X5677919Y-18156913D01*
X5677919Y-18156913D02*
X5696967Y-18147389D01*
X5849348Y-18328341D02*
X5858872Y-18337865D01*
X5858872Y-18337865D02*
X5849348Y-18347389D01*
X5849348Y-18347389D02*
X5839824Y-18337865D01*
X5839824Y-18337865D02*
X5849348Y-18328341D01*
X5849348Y-18328341D02*
X5849348Y-18347389D01*
X5925538Y-18147389D02*
X6058872Y-18147389D01*
X6058872Y-18147389D02*
X5973157Y-18347389D01*
X6116015Y-18147389D02*
X6239824Y-18147389D01*
X6239824Y-18147389D02*
X6173157Y-18223579D01*
X6173157Y-18223579D02*
X6201729Y-18223579D01*
X6201729Y-18223579D02*
X6220777Y-18233103D01*
X6220777Y-18233103D02*
X6230300Y-18242627D01*
X6230300Y-18242627D02*
X6239824Y-18261675D01*
X6239824Y-18261675D02*
X6239824Y-18309294D01*
X6239824Y-18309294D02*
X6230300Y-18328341D01*
X6230300Y-18328341D02*
X6220777Y-18337865D01*
X6220777Y-18337865D02*
X6201729Y-18347389D01*
X6201729Y-18347389D02*
X6144586Y-18347389D01*
X6144586Y-18347389D02*
X6125538Y-18337865D01*
X6125538Y-18337865D02*
X6116015Y-18328341D01*
X6363634Y-18147389D02*
X6382681Y-18147389D01*
X6382681Y-18147389D02*
X6401729Y-18156913D01*
X6401729Y-18156913D02*
X6411253Y-18166436D01*
X6411253Y-18166436D02*
X6420777Y-18185484D01*
X6420777Y-18185484D02*
X6430300Y-18223579D01*
X6430300Y-18223579D02*
X6430300Y-18271198D01*
X6430300Y-18271198D02*
X6420777Y-18309294D01*
X6420777Y-18309294D02*
X6411253Y-18328341D01*
X6411253Y-18328341D02*
X6401729Y-18337865D01*
X6401729Y-18337865D02*
X6382681Y-18347389D01*
X6382681Y-18347389D02*
X6363634Y-18347389D01*
X6363634Y-18347389D02*
X6344586Y-18337865D01*
X6344586Y-18337865D02*
X6335062Y-18328341D01*
X6335062Y-18328341D02*
X6325538Y-18309294D01*
X6325538Y-18309294D02*
X6316015Y-18271198D01*
X6316015Y-18271198D02*
X6316015Y-18223579D01*
X6316015Y-18223579D02*
X6325538Y-18185484D01*
X6325538Y-18185484D02*
X6335062Y-18166436D01*
X6335062Y-18166436D02*
X6344586Y-18156913D01*
X6344586Y-18156913D02*
X6363634Y-18147389D01*
X6516015Y-18347389D02*
X6516015Y-18214055D01*
X6516015Y-18233103D02*
X6525538Y-18223579D01*
X6525538Y-18223579D02*
X6544586Y-18214055D01*
X6544586Y-18214055D02*
X6573158Y-18214055D01*
X6573158Y-18214055D02*
X6592205Y-18223579D01*
X6592205Y-18223579D02*
X6601729Y-18242627D01*
X6601729Y-18242627D02*
X6601729Y-18347389D01*
X6601729Y-18242627D02*
X6611253Y-18223579D01*
X6611253Y-18223579D02*
X6630300Y-18214055D01*
X6630300Y-18214055D02*
X6658872Y-18214055D01*
X6658872Y-18214055D02*
X6677919Y-18223579D01*
X6677919Y-18223579D02*
X6687443Y-18242627D01*
X6687443Y-18242627D02*
X6687443Y-18347389D01*
X6782681Y-18347389D02*
X6782681Y-18214055D01*
X6782681Y-18233103D02*
X6792205Y-18223579D01*
X6792205Y-18223579D02*
X6811253Y-18214055D01*
X6811253Y-18214055D02*
X6839824Y-18214055D01*
X6839824Y-18214055D02*
X6858872Y-18223579D01*
X6858872Y-18223579D02*
X6868396Y-18242627D01*
X6868396Y-18242627D02*
X6868396Y-18347389D01*
X6868396Y-18242627D02*
X6877919Y-18223579D01*
X6877919Y-18223579D02*
X6896967Y-18214055D01*
X6896967Y-18214055D02*
X6925538Y-18214055D01*
X6925538Y-18214055D02*
X6944586Y-18223579D01*
X6944586Y-18223579D02*
X6954110Y-18242627D01*
X6954110Y-18242627D02*
X6954110Y-18347389D01*
X7344586Y-18137865D02*
X7173158Y-18395008D01*
X7601729Y-18147389D02*
X7620777Y-18147389D01*
X7620777Y-18147389D02*
X7639824Y-18156913D01*
X7639824Y-18156913D02*
X7649348Y-18166436D01*
X7649348Y-18166436D02*
X7658872Y-18185484D01*
X7658872Y-18185484D02*
X7668396Y-18223579D01*
X7668396Y-18223579D02*
X7668396Y-18271198D01*
X7668396Y-18271198D02*
X7658872Y-18309294D01*
X7658872Y-18309294D02*
X7649348Y-18328341D01*
X7649348Y-18328341D02*
X7639824Y-18337865D01*
X7639824Y-18337865D02*
X7620777Y-18347389D01*
X7620777Y-18347389D02*
X7601729Y-18347389D01*
X7601729Y-18347389D02*
X7582681Y-18337865D01*
X7582681Y-18337865D02*
X7573158Y-18328341D01*
X7573158Y-18328341D02*
X7563634Y-18309294D01*
X7563634Y-18309294D02*
X7554110Y-18271198D01*
X7554110Y-18271198D02*
X7554110Y-18223579D01*
X7554110Y-18223579D02*
X7563634Y-18185484D01*
X7563634Y-18185484D02*
X7573158Y-18166436D01*
X7573158Y-18166436D02*
X7582681Y-18156913D01*
X7582681Y-18156913D02*
X7601729Y-18147389D01*
X7754110Y-18328341D02*
X7763634Y-18337865D01*
X7763634Y-18337865D02*
X7754110Y-18347389D01*
X7754110Y-18347389D02*
X7744586Y-18337865D01*
X7744586Y-18337865D02*
X7754110Y-18328341D01*
X7754110Y-18328341D02*
X7754110Y-18347389D01*
X7887443Y-18147389D02*
X7906491Y-18147389D01*
X7906491Y-18147389D02*
X7925539Y-18156913D01*
X7925539Y-18156913D02*
X7935062Y-18166436D01*
X7935062Y-18166436D02*
X7944586Y-18185484D01*
X7944586Y-18185484D02*
X7954110Y-18223579D01*
X7954110Y-18223579D02*
X7954110Y-18271198D01*
X7954110Y-18271198D02*
X7944586Y-18309294D01*
X7944586Y-18309294D02*
X7935062Y-18328341D01*
X7935062Y-18328341D02*
X7925539Y-18337865D01*
X7925539Y-18337865D02*
X7906491Y-18347389D01*
X7906491Y-18347389D02*
X7887443Y-18347389D01*
X7887443Y-18347389D02*
X7868396Y-18337865D01*
X7868396Y-18337865D02*
X7858872Y-18328341D01*
X7858872Y-18328341D02*
X7849348Y-18309294D01*
X7849348Y-18309294D02*
X7839824Y-18271198D01*
X7839824Y-18271198D02*
X7839824Y-18223579D01*
X7839824Y-18223579D02*
X7849348Y-18185484D01*
X7849348Y-18185484D02*
X7858872Y-18166436D01*
X7858872Y-18166436D02*
X7868396Y-18156913D01*
X7868396Y-18156913D02*
X7887443Y-18147389D01*
X8030301Y-18166436D02*
X8039824Y-18156913D01*
X8039824Y-18156913D02*
X8058872Y-18147389D01*
X8058872Y-18147389D02*
X8106491Y-18147389D01*
X8106491Y-18147389D02*
X8125539Y-18156913D01*
X8125539Y-18156913D02*
X8135062Y-18166436D01*
X8135062Y-18166436D02*
X8144586Y-18185484D01*
X8144586Y-18185484D02*
X8144586Y-18204532D01*
X8144586Y-18204532D02*
X8135062Y-18233103D01*
X8135062Y-18233103D02*
X8020777Y-18347389D01*
X8020777Y-18347389D02*
X8144586Y-18347389D01*
X8258872Y-18233103D02*
X8239824Y-18223579D01*
X8239824Y-18223579D02*
X8230301Y-18214055D01*
X8230301Y-18214055D02*
X8220777Y-18195008D01*
X8220777Y-18195008D02*
X8220777Y-18185484D01*
X8220777Y-18185484D02*
X8230301Y-18166436D01*
X8230301Y-18166436D02*
X8239824Y-18156913D01*
X8239824Y-18156913D02*
X8258872Y-18147389D01*
X8258872Y-18147389D02*
X8296967Y-18147389D01*
X8296967Y-18147389D02*
X8316015Y-18156913D01*
X8316015Y-18156913D02*
X8325539Y-18166436D01*
X8325539Y-18166436D02*
X8335062Y-18185484D01*
X8335062Y-18185484D02*
X8335062Y-18195008D01*
X8335062Y-18195008D02*
X8325539Y-18214055D01*
X8325539Y-18214055D02*
X8316015Y-18223579D01*
X8316015Y-18223579D02*
X8296967Y-18233103D01*
X8296967Y-18233103D02*
X8258872Y-18233103D01*
X8258872Y-18233103D02*
X8239824Y-18242627D01*
X8239824Y-18242627D02*
X8230301Y-18252151D01*
X8230301Y-18252151D02*
X8220777Y-18271198D01*
X8220777Y-18271198D02*
X8220777Y-18309294D01*
X8220777Y-18309294D02*
X8230301Y-18328341D01*
X8230301Y-18328341D02*
X8239824Y-18337865D01*
X8239824Y-18337865D02*
X8258872Y-18347389D01*
X8258872Y-18347389D02*
X8296967Y-18347389D01*
X8296967Y-18347389D02*
X8316015Y-18337865D01*
X8316015Y-18337865D02*
X8325539Y-18328341D01*
X8325539Y-18328341D02*
X8335062Y-18309294D01*
X8335062Y-18309294D02*
X8335062Y-18271198D01*
X8335062Y-18271198D02*
X8325539Y-18252151D01*
X8325539Y-18252151D02*
X8316015Y-18242627D01*
X8316015Y-18242627D02*
X8296967Y-18233103D01*
X8401729Y-18147389D02*
X8535063Y-18147389D01*
X8535063Y-18147389D02*
X8449348Y-18347389D01*
X8601729Y-18147389D02*
X8601729Y-18185484D01*
X8677920Y-18147389D02*
X8677920Y-18185484D01*
X8973158Y-18423579D02*
X8963634Y-18414055D01*
X8963634Y-18414055D02*
X8944586Y-18385484D01*
X8944586Y-18385484D02*
X8935063Y-18366436D01*
X8935063Y-18366436D02*
X8925539Y-18337865D01*
X8925539Y-18337865D02*
X8916015Y-18290246D01*
X8916015Y-18290246D02*
X8916015Y-18252151D01*
X8916015Y-18252151D02*
X8925539Y-18204532D01*
X8925539Y-18204532D02*
X8935063Y-18175960D01*
X8935063Y-18175960D02*
X8944586Y-18156913D01*
X8944586Y-18156913D02*
X8963634Y-18128341D01*
X8963634Y-18128341D02*
X8973158Y-18118817D01*
X9030301Y-18147389D02*
X9154110Y-18147389D01*
X9154110Y-18147389D02*
X9087444Y-18223579D01*
X9087444Y-18223579D02*
X9116015Y-18223579D01*
X9116015Y-18223579D02*
X9135063Y-18233103D01*
X9135063Y-18233103D02*
X9144586Y-18242627D01*
X9144586Y-18242627D02*
X9154110Y-18261675D01*
X9154110Y-18261675D02*
X9154110Y-18309294D01*
X9154110Y-18309294D02*
X9144586Y-18328341D01*
X9144586Y-18328341D02*
X9135063Y-18337865D01*
X9135063Y-18337865D02*
X9116015Y-18347389D01*
X9116015Y-18347389D02*
X9058872Y-18347389D01*
X9058872Y-18347389D02*
X9039825Y-18337865D01*
X9039825Y-18337865D02*
X9030301Y-18328341D01*
X9230301Y-18166436D02*
X9239825Y-18156913D01*
X9239825Y-18156913D02*
X9258872Y-18147389D01*
X9258872Y-18147389D02*
X9306491Y-18147389D01*
X9306491Y-18147389D02*
X9325539Y-18156913D01*
X9325539Y-18156913D02*
X9335063Y-18166436D01*
X9335063Y-18166436D02*
X9344586Y-18185484D01*
X9344586Y-18185484D02*
X9344586Y-18204532D01*
X9344586Y-18204532D02*
X9335063Y-18233103D01*
X9335063Y-18233103D02*
X9220777Y-18347389D01*
X9220777Y-18347389D02*
X9344586Y-18347389D01*
X9582682Y-18347389D02*
X9582682Y-18147389D01*
X9668396Y-18347389D02*
X9668396Y-18242627D01*
X9668396Y-18242627D02*
X9658872Y-18223579D01*
X9658872Y-18223579D02*
X9639825Y-18214055D01*
X9639825Y-18214055D02*
X9611253Y-18214055D01*
X9611253Y-18214055D02*
X9592206Y-18223579D01*
X9592206Y-18223579D02*
X9582682Y-18233103D01*
X9792206Y-18347389D02*
X9773158Y-18337865D01*
X9773158Y-18337865D02*
X9763634Y-18328341D01*
X9763634Y-18328341D02*
X9754110Y-18309294D01*
X9754110Y-18309294D02*
X9754110Y-18252151D01*
X9754110Y-18252151D02*
X9763634Y-18233103D01*
X9763634Y-18233103D02*
X9773158Y-18223579D01*
X9773158Y-18223579D02*
X9792206Y-18214055D01*
X9792206Y-18214055D02*
X9820777Y-18214055D01*
X9820777Y-18214055D02*
X9839825Y-18223579D01*
X9839825Y-18223579D02*
X9849348Y-18233103D01*
X9849348Y-18233103D02*
X9858872Y-18252151D01*
X9858872Y-18252151D02*
X9858872Y-18309294D01*
X9858872Y-18309294D02*
X9849348Y-18328341D01*
X9849348Y-18328341D02*
X9839825Y-18337865D01*
X9839825Y-18337865D02*
X9820777Y-18347389D01*
X9820777Y-18347389D02*
X9792206Y-18347389D01*
X9973158Y-18347389D02*
X9954110Y-18337865D01*
X9954110Y-18337865D02*
X9944587Y-18318817D01*
X9944587Y-18318817D02*
X9944587Y-18147389D01*
X10125539Y-18337865D02*
X10106491Y-18347389D01*
X10106491Y-18347389D02*
X10068396Y-18347389D01*
X10068396Y-18347389D02*
X10049348Y-18337865D01*
X10049348Y-18337865D02*
X10039825Y-18318817D01*
X10039825Y-18318817D02*
X10039825Y-18242627D01*
X10039825Y-18242627D02*
X10049348Y-18223579D01*
X10049348Y-18223579D02*
X10068396Y-18214055D01*
X10068396Y-18214055D02*
X10106491Y-18214055D01*
X10106491Y-18214055D02*
X10125539Y-18223579D01*
X10125539Y-18223579D02*
X10135063Y-18242627D01*
X10135063Y-18242627D02*
X10135063Y-18261675D01*
X10135063Y-18261675D02*
X10039825Y-18280722D01*
X10211253Y-18337865D02*
X10230301Y-18347389D01*
X10230301Y-18347389D02*
X10268396Y-18347389D01*
X10268396Y-18347389D02*
X10287444Y-18337865D01*
X10287444Y-18337865D02*
X10296968Y-18318817D01*
X10296968Y-18318817D02*
X10296968Y-18309294D01*
X10296968Y-18309294D02*
X10287444Y-18290246D01*
X10287444Y-18290246D02*
X10268396Y-18280722D01*
X10268396Y-18280722D02*
X10239825Y-18280722D01*
X10239825Y-18280722D02*
X10220777Y-18271198D01*
X10220777Y-18271198D02*
X10211253Y-18252151D01*
X10211253Y-18252151D02*
X10211253Y-18242627D01*
X10211253Y-18242627D02*
X10220777Y-18223579D01*
X10220777Y-18223579D02*
X10239825Y-18214055D01*
X10239825Y-18214055D02*
X10268396Y-18214055D01*
X10268396Y-18214055D02*
X10287444Y-18223579D01*
X10363634Y-18423579D02*
X10373158Y-18414055D01*
X10373158Y-18414055D02*
X10392206Y-18385484D01*
X10392206Y-18385484D02*
X10401729Y-18366436D01*
X10401729Y-18366436D02*
X10411253Y-18337865D01*
X10411253Y-18337865D02*
X10420777Y-18290246D01*
X10420777Y-18290246D02*
X10420777Y-18252151D01*
X10420777Y-18252151D02*
X10411253Y-18204532D01*
X10411253Y-18204532D02*
X10401729Y-18175960D01*
X10401729Y-18175960D02*
X10392206Y-18156913D01*
X10392206Y-18156913D02*
X10373158Y-18128341D01*
X10373158Y-18128341D02*
X10363634Y-18118817D01*
D12*
X5358095Y-18479905D02*
X5358095Y-18559905D01*
X5318095Y-18519905D02*
X5398095Y-18519905D01*
D11*
X5696967Y-18411389D02*
X5716015Y-18411389D01*
X5716015Y-18411389D02*
X5735062Y-18420913D01*
X5735062Y-18420913D02*
X5744586Y-18430436D01*
X5744586Y-18430436D02*
X5754110Y-18449484D01*
X5754110Y-18449484D02*
X5763634Y-18487579D01*
X5763634Y-18487579D02*
X5763634Y-18535198D01*
X5763634Y-18535198D02*
X5754110Y-18573294D01*
X5754110Y-18573294D02*
X5744586Y-18592341D01*
X5744586Y-18592341D02*
X5735062Y-18601865D01*
X5735062Y-18601865D02*
X5716015Y-18611389D01*
X5716015Y-18611389D02*
X5696967Y-18611389D01*
X5696967Y-18611389D02*
X5677919Y-18601865D01*
X5677919Y-18601865D02*
X5668396Y-18592341D01*
X5668396Y-18592341D02*
X5658872Y-18573294D01*
X5658872Y-18573294D02*
X5649348Y-18535198D01*
X5649348Y-18535198D02*
X5649348Y-18487579D01*
X5649348Y-18487579D02*
X5658872Y-18449484D01*
X5658872Y-18449484D02*
X5668396Y-18430436D01*
X5668396Y-18430436D02*
X5677919Y-18420913D01*
X5677919Y-18420913D02*
X5696967Y-18411389D01*
X5849348Y-18592341D02*
X5858872Y-18601865D01*
X5858872Y-18601865D02*
X5849348Y-18611389D01*
X5849348Y-18611389D02*
X5839824Y-18601865D01*
X5839824Y-18601865D02*
X5849348Y-18592341D01*
X5849348Y-18592341D02*
X5849348Y-18611389D01*
X5973157Y-18497103D02*
X5954110Y-18487579D01*
X5954110Y-18487579D02*
X5944586Y-18478055D01*
X5944586Y-18478055D02*
X5935062Y-18459008D01*
X5935062Y-18459008D02*
X5935062Y-18449484D01*
X5935062Y-18449484D02*
X5944586Y-18430436D01*
X5944586Y-18430436D02*
X5954110Y-18420913D01*
X5954110Y-18420913D02*
X5973157Y-18411389D01*
X5973157Y-18411389D02*
X6011253Y-18411389D01*
X6011253Y-18411389D02*
X6030300Y-18420913D01*
X6030300Y-18420913D02*
X6039824Y-18430436D01*
X6039824Y-18430436D02*
X6049348Y-18449484D01*
X6049348Y-18449484D02*
X6049348Y-18459008D01*
X6049348Y-18459008D02*
X6039824Y-18478055D01*
X6039824Y-18478055D02*
X6030300Y-18487579D01*
X6030300Y-18487579D02*
X6011253Y-18497103D01*
X6011253Y-18497103D02*
X5973157Y-18497103D01*
X5973157Y-18497103D02*
X5954110Y-18506627D01*
X5954110Y-18506627D02*
X5944586Y-18516151D01*
X5944586Y-18516151D02*
X5935062Y-18535198D01*
X5935062Y-18535198D02*
X5935062Y-18573294D01*
X5935062Y-18573294D02*
X5944586Y-18592341D01*
X5944586Y-18592341D02*
X5954110Y-18601865D01*
X5954110Y-18601865D02*
X5973157Y-18611389D01*
X5973157Y-18611389D02*
X6011253Y-18611389D01*
X6011253Y-18611389D02*
X6030300Y-18601865D01*
X6030300Y-18601865D02*
X6039824Y-18592341D01*
X6039824Y-18592341D02*
X6049348Y-18573294D01*
X6049348Y-18573294D02*
X6049348Y-18535198D01*
X6049348Y-18535198D02*
X6039824Y-18516151D01*
X6039824Y-18516151D02*
X6030300Y-18506627D01*
X6030300Y-18506627D02*
X6011253Y-18497103D01*
X6173157Y-18411389D02*
X6192205Y-18411389D01*
X6192205Y-18411389D02*
X6211253Y-18420913D01*
X6211253Y-18420913D02*
X6220777Y-18430436D01*
X6220777Y-18430436D02*
X6230300Y-18449484D01*
X6230300Y-18449484D02*
X6239824Y-18487579D01*
X6239824Y-18487579D02*
X6239824Y-18535198D01*
X6239824Y-18535198D02*
X6230300Y-18573294D01*
X6230300Y-18573294D02*
X6220777Y-18592341D01*
X6220777Y-18592341D02*
X6211253Y-18601865D01*
X6211253Y-18601865D02*
X6192205Y-18611389D01*
X6192205Y-18611389D02*
X6173157Y-18611389D01*
X6173157Y-18611389D02*
X6154110Y-18601865D01*
X6154110Y-18601865D02*
X6144586Y-18592341D01*
X6144586Y-18592341D02*
X6135062Y-18573294D01*
X6135062Y-18573294D02*
X6125538Y-18535198D01*
X6125538Y-18535198D02*
X6125538Y-18487579D01*
X6125538Y-18487579D02*
X6135062Y-18449484D01*
X6135062Y-18449484D02*
X6144586Y-18430436D01*
X6144586Y-18430436D02*
X6154110Y-18420913D01*
X6154110Y-18420913D02*
X6173157Y-18411389D01*
X6363634Y-18411389D02*
X6382681Y-18411389D01*
X6382681Y-18411389D02*
X6401729Y-18420913D01*
X6401729Y-18420913D02*
X6411253Y-18430436D01*
X6411253Y-18430436D02*
X6420777Y-18449484D01*
X6420777Y-18449484D02*
X6430300Y-18487579D01*
X6430300Y-18487579D02*
X6430300Y-18535198D01*
X6430300Y-18535198D02*
X6420777Y-18573294D01*
X6420777Y-18573294D02*
X6411253Y-18592341D01*
X6411253Y-18592341D02*
X6401729Y-18601865D01*
X6401729Y-18601865D02*
X6382681Y-18611389D01*
X6382681Y-18611389D02*
X6363634Y-18611389D01*
X6363634Y-18611389D02*
X6344586Y-18601865D01*
X6344586Y-18601865D02*
X6335062Y-18592341D01*
X6335062Y-18592341D02*
X6325538Y-18573294D01*
X6325538Y-18573294D02*
X6316015Y-18535198D01*
X6316015Y-18535198D02*
X6316015Y-18487579D01*
X6316015Y-18487579D02*
X6325538Y-18449484D01*
X6325538Y-18449484D02*
X6335062Y-18430436D01*
X6335062Y-18430436D02*
X6344586Y-18420913D01*
X6344586Y-18420913D02*
X6363634Y-18411389D01*
X6516015Y-18611389D02*
X6516015Y-18478055D01*
X6516015Y-18497103D02*
X6525538Y-18487579D01*
X6525538Y-18487579D02*
X6544586Y-18478055D01*
X6544586Y-18478055D02*
X6573158Y-18478055D01*
X6573158Y-18478055D02*
X6592205Y-18487579D01*
X6592205Y-18487579D02*
X6601729Y-18506627D01*
X6601729Y-18506627D02*
X6601729Y-18611389D01*
X6601729Y-18506627D02*
X6611253Y-18487579D01*
X6611253Y-18487579D02*
X6630300Y-18478055D01*
X6630300Y-18478055D02*
X6658872Y-18478055D01*
X6658872Y-18478055D02*
X6677919Y-18487579D01*
X6677919Y-18487579D02*
X6687443Y-18506627D01*
X6687443Y-18506627D02*
X6687443Y-18611389D01*
X6782681Y-18611389D02*
X6782681Y-18478055D01*
X6782681Y-18497103D02*
X6792205Y-18487579D01*
X6792205Y-18487579D02*
X6811253Y-18478055D01*
X6811253Y-18478055D02*
X6839824Y-18478055D01*
X6839824Y-18478055D02*
X6858872Y-18487579D01*
X6858872Y-18487579D02*
X6868396Y-18506627D01*
X6868396Y-18506627D02*
X6868396Y-18611389D01*
X6868396Y-18506627D02*
X6877919Y-18487579D01*
X6877919Y-18487579D02*
X6896967Y-18478055D01*
X6896967Y-18478055D02*
X6925538Y-18478055D01*
X6925538Y-18478055D02*
X6944586Y-18487579D01*
X6944586Y-18487579D02*
X6954110Y-18506627D01*
X6954110Y-18506627D02*
X6954110Y-18611389D01*
X7344586Y-18401865D02*
X7173158Y-18659008D01*
X7601729Y-18411389D02*
X7620777Y-18411389D01*
X7620777Y-18411389D02*
X7639824Y-18420913D01*
X7639824Y-18420913D02*
X7649348Y-18430436D01*
X7649348Y-18430436D02*
X7658872Y-18449484D01*
X7658872Y-18449484D02*
X7668396Y-18487579D01*
X7668396Y-18487579D02*
X7668396Y-18535198D01*
X7668396Y-18535198D02*
X7658872Y-18573294D01*
X7658872Y-18573294D02*
X7649348Y-18592341D01*
X7649348Y-18592341D02*
X7639824Y-18601865D01*
X7639824Y-18601865D02*
X7620777Y-18611389D01*
X7620777Y-18611389D02*
X7601729Y-18611389D01*
X7601729Y-18611389D02*
X7582681Y-18601865D01*
X7582681Y-18601865D02*
X7573158Y-18592341D01*
X7573158Y-18592341D02*
X7563634Y-18573294D01*
X7563634Y-18573294D02*
X7554110Y-18535198D01*
X7554110Y-18535198D02*
X7554110Y-18487579D01*
X7554110Y-18487579D02*
X7563634Y-18449484D01*
X7563634Y-18449484D02*
X7573158Y-18430436D01*
X7573158Y-18430436D02*
X7582681Y-18420913D01*
X7582681Y-18420913D02*
X7601729Y-18411389D01*
X7754110Y-18592341D02*
X7763634Y-18601865D01*
X7763634Y-18601865D02*
X7754110Y-18611389D01*
X7754110Y-18611389D02*
X7744586Y-18601865D01*
X7744586Y-18601865D02*
X7754110Y-18592341D01*
X7754110Y-18592341D02*
X7754110Y-18611389D01*
X7887443Y-18411389D02*
X7906491Y-18411389D01*
X7906491Y-18411389D02*
X7925539Y-18420913D01*
X7925539Y-18420913D02*
X7935062Y-18430436D01*
X7935062Y-18430436D02*
X7944586Y-18449484D01*
X7944586Y-18449484D02*
X7954110Y-18487579D01*
X7954110Y-18487579D02*
X7954110Y-18535198D01*
X7954110Y-18535198D02*
X7944586Y-18573294D01*
X7944586Y-18573294D02*
X7935062Y-18592341D01*
X7935062Y-18592341D02*
X7925539Y-18601865D01*
X7925539Y-18601865D02*
X7906491Y-18611389D01*
X7906491Y-18611389D02*
X7887443Y-18611389D01*
X7887443Y-18611389D02*
X7868396Y-18601865D01*
X7868396Y-18601865D02*
X7858872Y-18592341D01*
X7858872Y-18592341D02*
X7849348Y-18573294D01*
X7849348Y-18573294D02*
X7839824Y-18535198D01*
X7839824Y-18535198D02*
X7839824Y-18487579D01*
X7839824Y-18487579D02*
X7849348Y-18449484D01*
X7849348Y-18449484D02*
X7858872Y-18430436D01*
X7858872Y-18430436D02*
X7868396Y-18420913D01*
X7868396Y-18420913D02*
X7887443Y-18411389D01*
X8020777Y-18411389D02*
X8144586Y-18411389D01*
X8144586Y-18411389D02*
X8077920Y-18487579D01*
X8077920Y-18487579D02*
X8106491Y-18487579D01*
X8106491Y-18487579D02*
X8125539Y-18497103D01*
X8125539Y-18497103D02*
X8135062Y-18506627D01*
X8135062Y-18506627D02*
X8144586Y-18525675D01*
X8144586Y-18525675D02*
X8144586Y-18573294D01*
X8144586Y-18573294D02*
X8135062Y-18592341D01*
X8135062Y-18592341D02*
X8125539Y-18601865D01*
X8125539Y-18601865D02*
X8106491Y-18611389D01*
X8106491Y-18611389D02*
X8049348Y-18611389D01*
X8049348Y-18611389D02*
X8030301Y-18601865D01*
X8030301Y-18601865D02*
X8020777Y-18592341D01*
X8335062Y-18611389D02*
X8220777Y-18611389D01*
X8277920Y-18611389D02*
X8277920Y-18411389D01*
X8277920Y-18411389D02*
X8258872Y-18439960D01*
X8258872Y-18439960D02*
X8239824Y-18459008D01*
X8239824Y-18459008D02*
X8220777Y-18468532D01*
X8516015Y-18411389D02*
X8420777Y-18411389D01*
X8420777Y-18411389D02*
X8411253Y-18506627D01*
X8411253Y-18506627D02*
X8420777Y-18497103D01*
X8420777Y-18497103D02*
X8439824Y-18487579D01*
X8439824Y-18487579D02*
X8487444Y-18487579D01*
X8487444Y-18487579D02*
X8506491Y-18497103D01*
X8506491Y-18497103D02*
X8516015Y-18506627D01*
X8516015Y-18506627D02*
X8525539Y-18525675D01*
X8525539Y-18525675D02*
X8525539Y-18573294D01*
X8525539Y-18573294D02*
X8516015Y-18592341D01*
X8516015Y-18592341D02*
X8506491Y-18601865D01*
X8506491Y-18601865D02*
X8487444Y-18611389D01*
X8487444Y-18611389D02*
X8439824Y-18611389D01*
X8439824Y-18611389D02*
X8420777Y-18601865D01*
X8420777Y-18601865D02*
X8411253Y-18592341D01*
X8601729Y-18411389D02*
X8601729Y-18449484D01*
X8677920Y-18411389D02*
X8677920Y-18449484D01*
X8973158Y-18687579D02*
X8963634Y-18678055D01*
X8963634Y-18678055D02*
X8944586Y-18649484D01*
X8944586Y-18649484D02*
X8935063Y-18630436D01*
X8935063Y-18630436D02*
X8925539Y-18601865D01*
X8925539Y-18601865D02*
X8916015Y-18554246D01*
X8916015Y-18554246D02*
X8916015Y-18516151D01*
X8916015Y-18516151D02*
X8925539Y-18468532D01*
X8925539Y-18468532D02*
X8935063Y-18439960D01*
X8935063Y-18439960D02*
X8944586Y-18420913D01*
X8944586Y-18420913D02*
X8963634Y-18392341D01*
X8963634Y-18392341D02*
X8973158Y-18382817D01*
X9058872Y-18611389D02*
X9096967Y-18611389D01*
X9096967Y-18611389D02*
X9116015Y-18601865D01*
X9116015Y-18601865D02*
X9125539Y-18592341D01*
X9125539Y-18592341D02*
X9144586Y-18563770D01*
X9144586Y-18563770D02*
X9154110Y-18525675D01*
X9154110Y-18525675D02*
X9154110Y-18449484D01*
X9154110Y-18449484D02*
X9144586Y-18430436D01*
X9144586Y-18430436D02*
X9135063Y-18420913D01*
X9135063Y-18420913D02*
X9116015Y-18411389D01*
X9116015Y-18411389D02*
X9077920Y-18411389D01*
X9077920Y-18411389D02*
X9058872Y-18420913D01*
X9058872Y-18420913D02*
X9049348Y-18430436D01*
X9049348Y-18430436D02*
X9039825Y-18449484D01*
X9039825Y-18449484D02*
X9039825Y-18497103D01*
X9039825Y-18497103D02*
X9049348Y-18516151D01*
X9049348Y-18516151D02*
X9058872Y-18525675D01*
X9058872Y-18525675D02*
X9077920Y-18535198D01*
X9077920Y-18535198D02*
X9116015Y-18535198D01*
X9116015Y-18535198D02*
X9135063Y-18525675D01*
X9135063Y-18525675D02*
X9144586Y-18516151D01*
X9144586Y-18516151D02*
X9154110Y-18497103D01*
X9335063Y-18411389D02*
X9239825Y-18411389D01*
X9239825Y-18411389D02*
X9230301Y-18506627D01*
X9230301Y-18506627D02*
X9239825Y-18497103D01*
X9239825Y-18497103D02*
X9258872Y-18487579D01*
X9258872Y-18487579D02*
X9306491Y-18487579D01*
X9306491Y-18487579D02*
X9325539Y-18497103D01*
X9325539Y-18497103D02*
X9335063Y-18506627D01*
X9335063Y-18506627D02*
X9344586Y-18525675D01*
X9344586Y-18525675D02*
X9344586Y-18573294D01*
X9344586Y-18573294D02*
X9335063Y-18592341D01*
X9335063Y-18592341D02*
X9325539Y-18601865D01*
X9325539Y-18601865D02*
X9306491Y-18611389D01*
X9306491Y-18611389D02*
X9258872Y-18611389D01*
X9258872Y-18611389D02*
X9239825Y-18601865D01*
X9239825Y-18601865D02*
X9230301Y-18592341D01*
X9582682Y-18611389D02*
X9582682Y-18411389D01*
X9668396Y-18611389D02*
X9668396Y-18506627D01*
X9668396Y-18506627D02*
X9658872Y-18487579D01*
X9658872Y-18487579D02*
X9639825Y-18478055D01*
X9639825Y-18478055D02*
X9611253Y-18478055D01*
X9611253Y-18478055D02*
X9592206Y-18487579D01*
X9592206Y-18487579D02*
X9582682Y-18497103D01*
X9792206Y-18611389D02*
X9773158Y-18601865D01*
X9773158Y-18601865D02*
X9763634Y-18592341D01*
X9763634Y-18592341D02*
X9754110Y-18573294D01*
X9754110Y-18573294D02*
X9754110Y-18516151D01*
X9754110Y-18516151D02*
X9763634Y-18497103D01*
X9763634Y-18497103D02*
X9773158Y-18487579D01*
X9773158Y-18487579D02*
X9792206Y-18478055D01*
X9792206Y-18478055D02*
X9820777Y-18478055D01*
X9820777Y-18478055D02*
X9839825Y-18487579D01*
X9839825Y-18487579D02*
X9849348Y-18497103D01*
X9849348Y-18497103D02*
X9858872Y-18516151D01*
X9858872Y-18516151D02*
X9858872Y-18573294D01*
X9858872Y-18573294D02*
X9849348Y-18592341D01*
X9849348Y-18592341D02*
X9839825Y-18601865D01*
X9839825Y-18601865D02*
X9820777Y-18611389D01*
X9820777Y-18611389D02*
X9792206Y-18611389D01*
X9973158Y-18611389D02*
X9954110Y-18601865D01*
X9954110Y-18601865D02*
X9944587Y-18582817D01*
X9944587Y-18582817D02*
X9944587Y-18411389D01*
X10125539Y-18601865D02*
X10106491Y-18611389D01*
X10106491Y-18611389D02*
X10068396Y-18611389D01*
X10068396Y-18611389D02*
X10049348Y-18601865D01*
X10049348Y-18601865D02*
X10039825Y-18582817D01*
X10039825Y-18582817D02*
X10039825Y-18506627D01*
X10039825Y-18506627D02*
X10049348Y-18487579D01*
X10049348Y-18487579D02*
X10068396Y-18478055D01*
X10068396Y-18478055D02*
X10106491Y-18478055D01*
X10106491Y-18478055D02*
X10125539Y-18487579D01*
X10125539Y-18487579D02*
X10135063Y-18506627D01*
X10135063Y-18506627D02*
X10135063Y-18525675D01*
X10135063Y-18525675D02*
X10039825Y-18544722D01*
X10211253Y-18601865D02*
X10230301Y-18611389D01*
X10230301Y-18611389D02*
X10268396Y-18611389D01*
X10268396Y-18611389D02*
X10287444Y-18601865D01*
X10287444Y-18601865D02*
X10296968Y-18582817D01*
X10296968Y-18582817D02*
X10296968Y-18573294D01*
X10296968Y-18573294D02*
X10287444Y-18554246D01*
X10287444Y-18554246D02*
X10268396Y-18544722D01*
X10268396Y-18544722D02*
X10239825Y-18544722D01*
X10239825Y-18544722D02*
X10220777Y-18535198D01*
X10220777Y-18535198D02*
X10211253Y-18516151D01*
X10211253Y-18516151D02*
X10211253Y-18506627D01*
X10211253Y-18506627D02*
X10220777Y-18487579D01*
X10220777Y-18487579D02*
X10239825Y-18478055D01*
X10239825Y-18478055D02*
X10268396Y-18478055D01*
X10268396Y-18478055D02*
X10287444Y-18487579D01*
X10363634Y-18687579D02*
X10373158Y-18678055D01*
X10373158Y-18678055D02*
X10392206Y-18649484D01*
X10392206Y-18649484D02*
X10401729Y-18630436D01*
X10401729Y-18630436D02*
X10411253Y-18601865D01*
X10411253Y-18601865D02*
X10420777Y-18554246D01*
X10420777Y-18554246D02*
X10420777Y-18516151D01*
X10420777Y-18516151D02*
X10411253Y-18468532D01*
X10411253Y-18468532D02*
X10401729Y-18439960D01*
X10401729Y-18439960D02*
X10392206Y-18420913D01*
X10392206Y-18420913D02*
X10373158Y-18392341D01*
X10373158Y-18392341D02*
X10363634Y-18382817D01*
D12*
X5383451Y-18819261D02*
X5383451Y-18748549D01*
X5312739Y-18748549D01*
X5312739Y-18819261D01*
X5383451Y-18819261D01*
D11*
X5763634Y-18875389D02*
X5649348Y-18875389D01*
X5706491Y-18875389D02*
X5706491Y-18675389D01*
X5706491Y-18675389D02*
X5687443Y-18703960D01*
X5687443Y-18703960D02*
X5668396Y-18723008D01*
X5668396Y-18723008D02*
X5649348Y-18732532D01*
X5849348Y-18856341D02*
X5858872Y-18865865D01*
X5858872Y-18865865D02*
X5849348Y-18875389D01*
X5849348Y-18875389D02*
X5839824Y-18865865D01*
X5839824Y-18865865D02*
X5849348Y-18856341D01*
X5849348Y-18856341D02*
X5849348Y-18875389D01*
X5982681Y-18675389D02*
X6001729Y-18675389D01*
X6001729Y-18675389D02*
X6020777Y-18684913D01*
X6020777Y-18684913D02*
X6030300Y-18694436D01*
X6030300Y-18694436D02*
X6039824Y-18713484D01*
X6039824Y-18713484D02*
X6049348Y-18751579D01*
X6049348Y-18751579D02*
X6049348Y-18799198D01*
X6049348Y-18799198D02*
X6039824Y-18837294D01*
X6039824Y-18837294D02*
X6030300Y-18856341D01*
X6030300Y-18856341D02*
X6020777Y-18865865D01*
X6020777Y-18865865D02*
X6001729Y-18875389D01*
X6001729Y-18875389D02*
X5982681Y-18875389D01*
X5982681Y-18875389D02*
X5963634Y-18865865D01*
X5963634Y-18865865D02*
X5954110Y-18856341D01*
X5954110Y-18856341D02*
X5944586Y-18837294D01*
X5944586Y-18837294D02*
X5935062Y-18799198D01*
X5935062Y-18799198D02*
X5935062Y-18751579D01*
X5935062Y-18751579D02*
X5944586Y-18713484D01*
X5944586Y-18713484D02*
X5954110Y-18694436D01*
X5954110Y-18694436D02*
X5963634Y-18684913D01*
X5963634Y-18684913D02*
X5982681Y-18675389D01*
X6173157Y-18675389D02*
X6192205Y-18675389D01*
X6192205Y-18675389D02*
X6211253Y-18684913D01*
X6211253Y-18684913D02*
X6220777Y-18694436D01*
X6220777Y-18694436D02*
X6230300Y-18713484D01*
X6230300Y-18713484D02*
X6239824Y-18751579D01*
X6239824Y-18751579D02*
X6239824Y-18799198D01*
X6239824Y-18799198D02*
X6230300Y-18837294D01*
X6230300Y-18837294D02*
X6220777Y-18856341D01*
X6220777Y-18856341D02*
X6211253Y-18865865D01*
X6211253Y-18865865D02*
X6192205Y-18875389D01*
X6192205Y-18875389D02*
X6173157Y-18875389D01*
X6173157Y-18875389D02*
X6154110Y-18865865D01*
X6154110Y-18865865D02*
X6144586Y-18856341D01*
X6144586Y-18856341D02*
X6135062Y-18837294D01*
X6135062Y-18837294D02*
X6125538Y-18799198D01*
X6125538Y-18799198D02*
X6125538Y-18751579D01*
X6125538Y-18751579D02*
X6135062Y-18713484D01*
X6135062Y-18713484D02*
X6144586Y-18694436D01*
X6144586Y-18694436D02*
X6154110Y-18684913D01*
X6154110Y-18684913D02*
X6173157Y-18675389D01*
X6363634Y-18675389D02*
X6382681Y-18675389D01*
X6382681Y-18675389D02*
X6401729Y-18684913D01*
X6401729Y-18684913D02*
X6411253Y-18694436D01*
X6411253Y-18694436D02*
X6420777Y-18713484D01*
X6420777Y-18713484D02*
X6430300Y-18751579D01*
X6430300Y-18751579D02*
X6430300Y-18799198D01*
X6430300Y-18799198D02*
X6420777Y-18837294D01*
X6420777Y-18837294D02*
X6411253Y-18856341D01*
X6411253Y-18856341D02*
X6401729Y-18865865D01*
X6401729Y-18865865D02*
X6382681Y-18875389D01*
X6382681Y-18875389D02*
X6363634Y-18875389D01*
X6363634Y-18875389D02*
X6344586Y-18865865D01*
X6344586Y-18865865D02*
X6335062Y-18856341D01*
X6335062Y-18856341D02*
X6325538Y-18837294D01*
X6325538Y-18837294D02*
X6316015Y-18799198D01*
X6316015Y-18799198D02*
X6316015Y-18751579D01*
X6316015Y-18751579D02*
X6325538Y-18713484D01*
X6325538Y-18713484D02*
X6335062Y-18694436D01*
X6335062Y-18694436D02*
X6344586Y-18684913D01*
X6344586Y-18684913D02*
X6363634Y-18675389D01*
X6516015Y-18875389D02*
X6516015Y-18742055D01*
X6516015Y-18761103D02*
X6525538Y-18751579D01*
X6525538Y-18751579D02*
X6544586Y-18742055D01*
X6544586Y-18742055D02*
X6573158Y-18742055D01*
X6573158Y-18742055D02*
X6592205Y-18751579D01*
X6592205Y-18751579D02*
X6601729Y-18770627D01*
X6601729Y-18770627D02*
X6601729Y-18875389D01*
X6601729Y-18770627D02*
X6611253Y-18751579D01*
X6611253Y-18751579D02*
X6630300Y-18742055D01*
X6630300Y-18742055D02*
X6658872Y-18742055D01*
X6658872Y-18742055D02*
X6677919Y-18751579D01*
X6677919Y-18751579D02*
X6687443Y-18770627D01*
X6687443Y-18770627D02*
X6687443Y-18875389D01*
X6782681Y-18875389D02*
X6782681Y-18742055D01*
X6782681Y-18761103D02*
X6792205Y-18751579D01*
X6792205Y-18751579D02*
X6811253Y-18742055D01*
X6811253Y-18742055D02*
X6839824Y-18742055D01*
X6839824Y-18742055D02*
X6858872Y-18751579D01*
X6858872Y-18751579D02*
X6868396Y-18770627D01*
X6868396Y-18770627D02*
X6868396Y-18875389D01*
X6868396Y-18770627D02*
X6877919Y-18751579D01*
X6877919Y-18751579D02*
X6896967Y-18742055D01*
X6896967Y-18742055D02*
X6925538Y-18742055D01*
X6925538Y-18742055D02*
X6944586Y-18751579D01*
X6944586Y-18751579D02*
X6954110Y-18770627D01*
X6954110Y-18770627D02*
X6954110Y-18875389D01*
X7344586Y-18665865D02*
X7173158Y-18923008D01*
X7601729Y-18675389D02*
X7620777Y-18675389D01*
X7620777Y-18675389D02*
X7639824Y-18684913D01*
X7639824Y-18684913D02*
X7649348Y-18694436D01*
X7649348Y-18694436D02*
X7658872Y-18713484D01*
X7658872Y-18713484D02*
X7668396Y-18751579D01*
X7668396Y-18751579D02*
X7668396Y-18799198D01*
X7668396Y-18799198D02*
X7658872Y-18837294D01*
X7658872Y-18837294D02*
X7649348Y-18856341D01*
X7649348Y-18856341D02*
X7639824Y-18865865D01*
X7639824Y-18865865D02*
X7620777Y-18875389D01*
X7620777Y-18875389D02*
X7601729Y-18875389D01*
X7601729Y-18875389D02*
X7582681Y-18865865D01*
X7582681Y-18865865D02*
X7573158Y-18856341D01*
X7573158Y-18856341D02*
X7563634Y-18837294D01*
X7563634Y-18837294D02*
X7554110Y-18799198D01*
X7554110Y-18799198D02*
X7554110Y-18751579D01*
X7554110Y-18751579D02*
X7563634Y-18713484D01*
X7563634Y-18713484D02*
X7573158Y-18694436D01*
X7573158Y-18694436D02*
X7582681Y-18684913D01*
X7582681Y-18684913D02*
X7601729Y-18675389D01*
X7754110Y-18856341D02*
X7763634Y-18865865D01*
X7763634Y-18865865D02*
X7754110Y-18875389D01*
X7754110Y-18875389D02*
X7744586Y-18865865D01*
X7744586Y-18865865D02*
X7754110Y-18856341D01*
X7754110Y-18856341D02*
X7754110Y-18875389D01*
X7887443Y-18675389D02*
X7906491Y-18675389D01*
X7906491Y-18675389D02*
X7925539Y-18684913D01*
X7925539Y-18684913D02*
X7935062Y-18694436D01*
X7935062Y-18694436D02*
X7944586Y-18713484D01*
X7944586Y-18713484D02*
X7954110Y-18751579D01*
X7954110Y-18751579D02*
X7954110Y-18799198D01*
X7954110Y-18799198D02*
X7944586Y-18837294D01*
X7944586Y-18837294D02*
X7935062Y-18856341D01*
X7935062Y-18856341D02*
X7925539Y-18865865D01*
X7925539Y-18865865D02*
X7906491Y-18875389D01*
X7906491Y-18875389D02*
X7887443Y-18875389D01*
X7887443Y-18875389D02*
X7868396Y-18865865D01*
X7868396Y-18865865D02*
X7858872Y-18856341D01*
X7858872Y-18856341D02*
X7849348Y-18837294D01*
X7849348Y-18837294D02*
X7839824Y-18799198D01*
X7839824Y-18799198D02*
X7839824Y-18751579D01*
X7839824Y-18751579D02*
X7849348Y-18713484D01*
X7849348Y-18713484D02*
X7858872Y-18694436D01*
X7858872Y-18694436D02*
X7868396Y-18684913D01*
X7868396Y-18684913D02*
X7887443Y-18675389D01*
X8020777Y-18675389D02*
X8144586Y-18675389D01*
X8144586Y-18675389D02*
X8077920Y-18751579D01*
X8077920Y-18751579D02*
X8106491Y-18751579D01*
X8106491Y-18751579D02*
X8125539Y-18761103D01*
X8125539Y-18761103D02*
X8135062Y-18770627D01*
X8135062Y-18770627D02*
X8144586Y-18789675D01*
X8144586Y-18789675D02*
X8144586Y-18837294D01*
X8144586Y-18837294D02*
X8135062Y-18856341D01*
X8135062Y-18856341D02*
X8125539Y-18865865D01*
X8125539Y-18865865D02*
X8106491Y-18875389D01*
X8106491Y-18875389D02*
X8049348Y-18875389D01*
X8049348Y-18875389D02*
X8030301Y-18865865D01*
X8030301Y-18865865D02*
X8020777Y-18856341D01*
X8239824Y-18875389D02*
X8277920Y-18875389D01*
X8277920Y-18875389D02*
X8296967Y-18865865D01*
X8296967Y-18865865D02*
X8306491Y-18856341D01*
X8306491Y-18856341D02*
X8325539Y-18827770D01*
X8325539Y-18827770D02*
X8335062Y-18789675D01*
X8335062Y-18789675D02*
X8335062Y-18713484D01*
X8335062Y-18713484D02*
X8325539Y-18694436D01*
X8325539Y-18694436D02*
X8316015Y-18684913D01*
X8316015Y-18684913D02*
X8296967Y-18675389D01*
X8296967Y-18675389D02*
X8258872Y-18675389D01*
X8258872Y-18675389D02*
X8239824Y-18684913D01*
X8239824Y-18684913D02*
X8230301Y-18694436D01*
X8230301Y-18694436D02*
X8220777Y-18713484D01*
X8220777Y-18713484D02*
X8220777Y-18761103D01*
X8220777Y-18761103D02*
X8230301Y-18780151D01*
X8230301Y-18780151D02*
X8239824Y-18789675D01*
X8239824Y-18789675D02*
X8258872Y-18799198D01*
X8258872Y-18799198D02*
X8296967Y-18799198D01*
X8296967Y-18799198D02*
X8316015Y-18789675D01*
X8316015Y-18789675D02*
X8325539Y-18780151D01*
X8325539Y-18780151D02*
X8335062Y-18761103D01*
X8506491Y-18742055D02*
X8506491Y-18875389D01*
X8458872Y-18665865D02*
X8411253Y-18808722D01*
X8411253Y-18808722D02*
X8535063Y-18808722D01*
X8601729Y-18675389D02*
X8601729Y-18713484D01*
X8677920Y-18675389D02*
X8677920Y-18713484D01*
X8973158Y-18951579D02*
X8963634Y-18942055D01*
X8963634Y-18942055D02*
X8944586Y-18913484D01*
X8944586Y-18913484D02*
X8935063Y-18894436D01*
X8935063Y-18894436D02*
X8925539Y-18865865D01*
X8925539Y-18865865D02*
X8916015Y-18818246D01*
X8916015Y-18818246D02*
X8916015Y-18780151D01*
X8916015Y-18780151D02*
X8925539Y-18732532D01*
X8925539Y-18732532D02*
X8935063Y-18703960D01*
X8935063Y-18703960D02*
X8944586Y-18684913D01*
X8944586Y-18684913D02*
X8963634Y-18656341D01*
X8963634Y-18656341D02*
X8973158Y-18646817D01*
X9039825Y-18694436D02*
X9049348Y-18684913D01*
X9049348Y-18684913D02*
X9068396Y-18675389D01*
X9068396Y-18675389D02*
X9116015Y-18675389D01*
X9116015Y-18675389D02*
X9135063Y-18684913D01*
X9135063Y-18684913D02*
X9144586Y-18694436D01*
X9144586Y-18694436D02*
X9154110Y-18713484D01*
X9154110Y-18713484D02*
X9154110Y-18732532D01*
X9154110Y-18732532D02*
X9144586Y-18761103D01*
X9144586Y-18761103D02*
X9030301Y-18875389D01*
X9030301Y-18875389D02*
X9154110Y-18875389D01*
X9230301Y-18694436D02*
X9239825Y-18684913D01*
X9239825Y-18684913D02*
X9258872Y-18675389D01*
X9258872Y-18675389D02*
X9306491Y-18675389D01*
X9306491Y-18675389D02*
X9325539Y-18684913D01*
X9325539Y-18684913D02*
X9335063Y-18694436D01*
X9335063Y-18694436D02*
X9344586Y-18713484D01*
X9344586Y-18713484D02*
X9344586Y-18732532D01*
X9344586Y-18732532D02*
X9335063Y-18761103D01*
X9335063Y-18761103D02*
X9220777Y-18875389D01*
X9220777Y-18875389D02*
X9344586Y-18875389D01*
X9582682Y-18875389D02*
X9582682Y-18675389D01*
X9668396Y-18875389D02*
X9668396Y-18770627D01*
X9668396Y-18770627D02*
X9658872Y-18751579D01*
X9658872Y-18751579D02*
X9639825Y-18742055D01*
X9639825Y-18742055D02*
X9611253Y-18742055D01*
X9611253Y-18742055D02*
X9592206Y-18751579D01*
X9592206Y-18751579D02*
X9582682Y-18761103D01*
X9792206Y-18875389D02*
X9773158Y-18865865D01*
X9773158Y-18865865D02*
X9763634Y-18856341D01*
X9763634Y-18856341D02*
X9754110Y-18837294D01*
X9754110Y-18837294D02*
X9754110Y-18780151D01*
X9754110Y-18780151D02*
X9763634Y-18761103D01*
X9763634Y-18761103D02*
X9773158Y-18751579D01*
X9773158Y-18751579D02*
X9792206Y-18742055D01*
X9792206Y-18742055D02*
X9820777Y-18742055D01*
X9820777Y-18742055D02*
X9839825Y-18751579D01*
X9839825Y-18751579D02*
X9849348Y-18761103D01*
X9849348Y-18761103D02*
X9858872Y-18780151D01*
X9858872Y-18780151D02*
X9858872Y-18837294D01*
X9858872Y-18837294D02*
X9849348Y-18856341D01*
X9849348Y-18856341D02*
X9839825Y-18865865D01*
X9839825Y-18865865D02*
X9820777Y-18875389D01*
X9820777Y-18875389D02*
X9792206Y-18875389D01*
X9973158Y-18875389D02*
X9954110Y-18865865D01*
X9954110Y-18865865D02*
X9944587Y-18846817D01*
X9944587Y-18846817D02*
X9944587Y-18675389D01*
X10125539Y-18865865D02*
X10106491Y-18875389D01*
X10106491Y-18875389D02*
X10068396Y-18875389D01*
X10068396Y-18875389D02*
X10049348Y-18865865D01*
X10049348Y-18865865D02*
X10039825Y-18846817D01*
X10039825Y-18846817D02*
X10039825Y-18770627D01*
X10039825Y-18770627D02*
X10049348Y-18751579D01*
X10049348Y-18751579D02*
X10068396Y-18742055D01*
X10068396Y-18742055D02*
X10106491Y-18742055D01*
X10106491Y-18742055D02*
X10125539Y-18751579D01*
X10125539Y-18751579D02*
X10135063Y-18770627D01*
X10135063Y-18770627D02*
X10135063Y-18789675D01*
X10135063Y-18789675D02*
X10039825Y-18808722D01*
X10211253Y-18865865D02*
X10230301Y-18875389D01*
X10230301Y-18875389D02*
X10268396Y-18875389D01*
X10268396Y-18875389D02*
X10287444Y-18865865D01*
X10287444Y-18865865D02*
X10296968Y-18846817D01*
X10296968Y-18846817D02*
X10296968Y-18837294D01*
X10296968Y-18837294D02*
X10287444Y-18818246D01*
X10287444Y-18818246D02*
X10268396Y-18808722D01*
X10268396Y-18808722D02*
X10239825Y-18808722D01*
X10239825Y-18808722D02*
X10220777Y-18799198D01*
X10220777Y-18799198D02*
X10211253Y-18780151D01*
X10211253Y-18780151D02*
X10211253Y-18770627D01*
X10211253Y-18770627D02*
X10220777Y-18751579D01*
X10220777Y-18751579D02*
X10239825Y-18742055D01*
X10239825Y-18742055D02*
X10268396Y-18742055D01*
X10268396Y-18742055D02*
X10287444Y-18751579D01*
X10363634Y-18951579D02*
X10373158Y-18942055D01*
X10373158Y-18942055D02*
X10392206Y-18913484D01*
X10392206Y-18913484D02*
X10401729Y-18894436D01*
X10401729Y-18894436D02*
X10411253Y-18865865D01*
X10411253Y-18865865D02*
X10420777Y-18818246D01*
X10420777Y-18818246D02*
X10420777Y-18780151D01*
X10420777Y-18780151D02*
X10411253Y-18732532D01*
X10411253Y-18732532D02*
X10401729Y-18703960D01*
X10401729Y-18703960D02*
X10392206Y-18684913D01*
X10392206Y-18684913D02*
X10373158Y-18656341D01*
X10373158Y-18656341D02*
X10363634Y-18646817D01*
D13*
X5323095Y-19122905D02*
X5398095Y-19047905D01*
X5323095Y-18972905D01*
X5248095Y-19047905D01*
X5323095Y-19122905D01*
D11*
X5763634Y-19139389D02*
X5649348Y-19139389D01*
X5706491Y-19139389D02*
X5706491Y-18939389D01*
X5706491Y-18939389D02*
X5687443Y-18967960D01*
X5687443Y-18967960D02*
X5668396Y-18987008D01*
X5668396Y-18987008D02*
X5649348Y-18996532D01*
X5849348Y-19120341D02*
X5858872Y-19129865D01*
X5858872Y-19129865D02*
X5849348Y-19139389D01*
X5849348Y-19139389D02*
X5839824Y-19129865D01*
X5839824Y-19129865D02*
X5849348Y-19120341D01*
X5849348Y-19120341D02*
X5849348Y-19139389D01*
X6039824Y-18939389D02*
X5944586Y-18939389D01*
X5944586Y-18939389D02*
X5935062Y-19034627D01*
X5935062Y-19034627D02*
X5944586Y-19025103D01*
X5944586Y-19025103D02*
X5963634Y-19015579D01*
X5963634Y-19015579D02*
X6011253Y-19015579D01*
X6011253Y-19015579D02*
X6030300Y-19025103D01*
X6030300Y-19025103D02*
X6039824Y-19034627D01*
X6039824Y-19034627D02*
X6049348Y-19053675D01*
X6049348Y-19053675D02*
X6049348Y-19101294D01*
X6049348Y-19101294D02*
X6039824Y-19120341D01*
X6039824Y-19120341D02*
X6030300Y-19129865D01*
X6030300Y-19129865D02*
X6011253Y-19139389D01*
X6011253Y-19139389D02*
X5963634Y-19139389D01*
X5963634Y-19139389D02*
X5944586Y-19129865D01*
X5944586Y-19129865D02*
X5935062Y-19120341D01*
X6173157Y-18939389D02*
X6192205Y-18939389D01*
X6192205Y-18939389D02*
X6211253Y-18948913D01*
X6211253Y-18948913D02*
X6220777Y-18958436D01*
X6220777Y-18958436D02*
X6230300Y-18977484D01*
X6230300Y-18977484D02*
X6239824Y-19015579D01*
X6239824Y-19015579D02*
X6239824Y-19063198D01*
X6239824Y-19063198D02*
X6230300Y-19101294D01*
X6230300Y-19101294D02*
X6220777Y-19120341D01*
X6220777Y-19120341D02*
X6211253Y-19129865D01*
X6211253Y-19129865D02*
X6192205Y-19139389D01*
X6192205Y-19139389D02*
X6173157Y-19139389D01*
X6173157Y-19139389D02*
X6154110Y-19129865D01*
X6154110Y-19129865D02*
X6144586Y-19120341D01*
X6144586Y-19120341D02*
X6135062Y-19101294D01*
X6135062Y-19101294D02*
X6125538Y-19063198D01*
X6125538Y-19063198D02*
X6125538Y-19015579D01*
X6125538Y-19015579D02*
X6135062Y-18977484D01*
X6135062Y-18977484D02*
X6144586Y-18958436D01*
X6144586Y-18958436D02*
X6154110Y-18948913D01*
X6154110Y-18948913D02*
X6173157Y-18939389D01*
X6363634Y-18939389D02*
X6382681Y-18939389D01*
X6382681Y-18939389D02*
X6401729Y-18948913D01*
X6401729Y-18948913D02*
X6411253Y-18958436D01*
X6411253Y-18958436D02*
X6420777Y-18977484D01*
X6420777Y-18977484D02*
X6430300Y-19015579D01*
X6430300Y-19015579D02*
X6430300Y-19063198D01*
X6430300Y-19063198D02*
X6420777Y-19101294D01*
X6420777Y-19101294D02*
X6411253Y-19120341D01*
X6411253Y-19120341D02*
X6401729Y-19129865D01*
X6401729Y-19129865D02*
X6382681Y-19139389D01*
X6382681Y-19139389D02*
X6363634Y-19139389D01*
X6363634Y-19139389D02*
X6344586Y-19129865D01*
X6344586Y-19129865D02*
X6335062Y-19120341D01*
X6335062Y-19120341D02*
X6325538Y-19101294D01*
X6325538Y-19101294D02*
X6316015Y-19063198D01*
X6316015Y-19063198D02*
X6316015Y-19015579D01*
X6316015Y-19015579D02*
X6325538Y-18977484D01*
X6325538Y-18977484D02*
X6335062Y-18958436D01*
X6335062Y-18958436D02*
X6344586Y-18948913D01*
X6344586Y-18948913D02*
X6363634Y-18939389D01*
X6516015Y-19139389D02*
X6516015Y-19006055D01*
X6516015Y-19025103D02*
X6525538Y-19015579D01*
X6525538Y-19015579D02*
X6544586Y-19006055D01*
X6544586Y-19006055D02*
X6573158Y-19006055D01*
X6573158Y-19006055D02*
X6592205Y-19015579D01*
X6592205Y-19015579D02*
X6601729Y-19034627D01*
X6601729Y-19034627D02*
X6601729Y-19139389D01*
X6601729Y-19034627D02*
X6611253Y-19015579D01*
X6611253Y-19015579D02*
X6630300Y-19006055D01*
X6630300Y-19006055D02*
X6658872Y-19006055D01*
X6658872Y-19006055D02*
X6677919Y-19015579D01*
X6677919Y-19015579D02*
X6687443Y-19034627D01*
X6687443Y-19034627D02*
X6687443Y-19139389D01*
X6782681Y-19139389D02*
X6782681Y-19006055D01*
X6782681Y-19025103D02*
X6792205Y-19015579D01*
X6792205Y-19015579D02*
X6811253Y-19006055D01*
X6811253Y-19006055D02*
X6839824Y-19006055D01*
X6839824Y-19006055D02*
X6858872Y-19015579D01*
X6858872Y-19015579D02*
X6868396Y-19034627D01*
X6868396Y-19034627D02*
X6868396Y-19139389D01*
X6868396Y-19034627D02*
X6877919Y-19015579D01*
X6877919Y-19015579D02*
X6896967Y-19006055D01*
X6896967Y-19006055D02*
X6925538Y-19006055D01*
X6925538Y-19006055D02*
X6944586Y-19015579D01*
X6944586Y-19015579D02*
X6954110Y-19034627D01*
X6954110Y-19034627D02*
X6954110Y-19139389D01*
X7344586Y-18929865D02*
X7173158Y-19187008D01*
X7601729Y-18939389D02*
X7620777Y-18939389D01*
X7620777Y-18939389D02*
X7639824Y-18948913D01*
X7639824Y-18948913D02*
X7649348Y-18958436D01*
X7649348Y-18958436D02*
X7658872Y-18977484D01*
X7658872Y-18977484D02*
X7668396Y-19015579D01*
X7668396Y-19015579D02*
X7668396Y-19063198D01*
X7668396Y-19063198D02*
X7658872Y-19101294D01*
X7658872Y-19101294D02*
X7649348Y-19120341D01*
X7649348Y-19120341D02*
X7639824Y-19129865D01*
X7639824Y-19129865D02*
X7620777Y-19139389D01*
X7620777Y-19139389D02*
X7601729Y-19139389D01*
X7601729Y-19139389D02*
X7582681Y-19129865D01*
X7582681Y-19129865D02*
X7573158Y-19120341D01*
X7573158Y-19120341D02*
X7563634Y-19101294D01*
X7563634Y-19101294D02*
X7554110Y-19063198D01*
X7554110Y-19063198D02*
X7554110Y-19015579D01*
X7554110Y-19015579D02*
X7563634Y-18977484D01*
X7563634Y-18977484D02*
X7573158Y-18958436D01*
X7573158Y-18958436D02*
X7582681Y-18948913D01*
X7582681Y-18948913D02*
X7601729Y-18939389D01*
X7754110Y-19120341D02*
X7763634Y-19129865D01*
X7763634Y-19129865D02*
X7754110Y-19139389D01*
X7754110Y-19139389D02*
X7744586Y-19129865D01*
X7744586Y-19129865D02*
X7754110Y-19120341D01*
X7754110Y-19120341D02*
X7754110Y-19139389D01*
X7887443Y-18939389D02*
X7906491Y-18939389D01*
X7906491Y-18939389D02*
X7925539Y-18948913D01*
X7925539Y-18948913D02*
X7935062Y-18958436D01*
X7935062Y-18958436D02*
X7944586Y-18977484D01*
X7944586Y-18977484D02*
X7954110Y-19015579D01*
X7954110Y-19015579D02*
X7954110Y-19063198D01*
X7954110Y-19063198D02*
X7944586Y-19101294D01*
X7944586Y-19101294D02*
X7935062Y-19120341D01*
X7935062Y-19120341D02*
X7925539Y-19129865D01*
X7925539Y-19129865D02*
X7906491Y-19139389D01*
X7906491Y-19139389D02*
X7887443Y-19139389D01*
X7887443Y-19139389D02*
X7868396Y-19129865D01*
X7868396Y-19129865D02*
X7858872Y-19120341D01*
X7858872Y-19120341D02*
X7849348Y-19101294D01*
X7849348Y-19101294D02*
X7839824Y-19063198D01*
X7839824Y-19063198D02*
X7839824Y-19015579D01*
X7839824Y-19015579D02*
X7849348Y-18977484D01*
X7849348Y-18977484D02*
X7858872Y-18958436D01*
X7858872Y-18958436D02*
X7868396Y-18948913D01*
X7868396Y-18948913D02*
X7887443Y-18939389D01*
X8135062Y-18939389D02*
X8039824Y-18939389D01*
X8039824Y-18939389D02*
X8030301Y-19034627D01*
X8030301Y-19034627D02*
X8039824Y-19025103D01*
X8039824Y-19025103D02*
X8058872Y-19015579D01*
X8058872Y-19015579D02*
X8106491Y-19015579D01*
X8106491Y-19015579D02*
X8125539Y-19025103D01*
X8125539Y-19025103D02*
X8135062Y-19034627D01*
X8135062Y-19034627D02*
X8144586Y-19053675D01*
X8144586Y-19053675D02*
X8144586Y-19101294D01*
X8144586Y-19101294D02*
X8135062Y-19120341D01*
X8135062Y-19120341D02*
X8125539Y-19129865D01*
X8125539Y-19129865D02*
X8106491Y-19139389D01*
X8106491Y-19139389D02*
X8058872Y-19139389D01*
X8058872Y-19139389D02*
X8039824Y-19129865D01*
X8039824Y-19129865D02*
X8030301Y-19120341D01*
X8239824Y-19139389D02*
X8277920Y-19139389D01*
X8277920Y-19139389D02*
X8296967Y-19129865D01*
X8296967Y-19129865D02*
X8306491Y-19120341D01*
X8306491Y-19120341D02*
X8325539Y-19091770D01*
X8325539Y-19091770D02*
X8335062Y-19053675D01*
X8335062Y-19053675D02*
X8335062Y-18977484D01*
X8335062Y-18977484D02*
X8325539Y-18958436D01*
X8325539Y-18958436D02*
X8316015Y-18948913D01*
X8316015Y-18948913D02*
X8296967Y-18939389D01*
X8296967Y-18939389D02*
X8258872Y-18939389D01*
X8258872Y-18939389D02*
X8239824Y-18948913D01*
X8239824Y-18948913D02*
X8230301Y-18958436D01*
X8230301Y-18958436D02*
X8220777Y-18977484D01*
X8220777Y-18977484D02*
X8220777Y-19025103D01*
X8220777Y-19025103D02*
X8230301Y-19044151D01*
X8230301Y-19044151D02*
X8239824Y-19053675D01*
X8239824Y-19053675D02*
X8258872Y-19063198D01*
X8258872Y-19063198D02*
X8296967Y-19063198D01*
X8296967Y-19063198D02*
X8316015Y-19053675D01*
X8316015Y-19053675D02*
X8325539Y-19044151D01*
X8325539Y-19044151D02*
X8335062Y-19025103D01*
X8525539Y-19139389D02*
X8411253Y-19139389D01*
X8468396Y-19139389D02*
X8468396Y-18939389D01*
X8468396Y-18939389D02*
X8449348Y-18967960D01*
X8449348Y-18967960D02*
X8430301Y-18987008D01*
X8430301Y-18987008D02*
X8411253Y-18996532D01*
X8601729Y-18939389D02*
X8601729Y-18977484D01*
X8677920Y-18939389D02*
X8677920Y-18977484D01*
X8973158Y-19215579D02*
X8963634Y-19206055D01*
X8963634Y-19206055D02*
X8944586Y-19177484D01*
X8944586Y-19177484D02*
X8935063Y-19158436D01*
X8935063Y-19158436D02*
X8925539Y-19129865D01*
X8925539Y-19129865D02*
X8916015Y-19082246D01*
X8916015Y-19082246D02*
X8916015Y-19044151D01*
X8916015Y-19044151D02*
X8925539Y-18996532D01*
X8925539Y-18996532D02*
X8935063Y-18967960D01*
X8935063Y-18967960D02*
X8944586Y-18948913D01*
X8944586Y-18948913D02*
X8963634Y-18920341D01*
X8963634Y-18920341D02*
X8973158Y-18910817D01*
X9135063Y-18939389D02*
X9096967Y-18939389D01*
X9096967Y-18939389D02*
X9077920Y-18948913D01*
X9077920Y-18948913D02*
X9068396Y-18958436D01*
X9068396Y-18958436D02*
X9049348Y-18987008D01*
X9049348Y-18987008D02*
X9039825Y-19025103D01*
X9039825Y-19025103D02*
X9039825Y-19101294D01*
X9039825Y-19101294D02*
X9049348Y-19120341D01*
X9049348Y-19120341D02*
X9058872Y-19129865D01*
X9058872Y-19129865D02*
X9077920Y-19139389D01*
X9077920Y-19139389D02*
X9116015Y-19139389D01*
X9116015Y-19139389D02*
X9135063Y-19129865D01*
X9135063Y-19129865D02*
X9144586Y-19120341D01*
X9144586Y-19120341D02*
X9154110Y-19101294D01*
X9154110Y-19101294D02*
X9154110Y-19053675D01*
X9154110Y-19053675D02*
X9144586Y-19034627D01*
X9144586Y-19034627D02*
X9135063Y-19025103D01*
X9135063Y-19025103D02*
X9116015Y-19015579D01*
X9116015Y-19015579D02*
X9077920Y-19015579D01*
X9077920Y-19015579D02*
X9058872Y-19025103D01*
X9058872Y-19025103D02*
X9049348Y-19034627D01*
X9049348Y-19034627D02*
X9039825Y-19053675D01*
X9392206Y-19139389D02*
X9392206Y-18939389D01*
X9477920Y-19139389D02*
X9477920Y-19034627D01*
X9477920Y-19034627D02*
X9468396Y-19015579D01*
X9468396Y-19015579D02*
X9449348Y-19006055D01*
X9449348Y-19006055D02*
X9420777Y-19006055D01*
X9420777Y-19006055D02*
X9401729Y-19015579D01*
X9401729Y-19015579D02*
X9392206Y-19025103D01*
X9601729Y-19139389D02*
X9582682Y-19129865D01*
X9582682Y-19129865D02*
X9573158Y-19120341D01*
X9573158Y-19120341D02*
X9563634Y-19101294D01*
X9563634Y-19101294D02*
X9563634Y-19044151D01*
X9563634Y-19044151D02*
X9573158Y-19025103D01*
X9573158Y-19025103D02*
X9582682Y-19015579D01*
X9582682Y-19015579D02*
X9601729Y-19006055D01*
X9601729Y-19006055D02*
X9630301Y-19006055D01*
X9630301Y-19006055D02*
X9649348Y-19015579D01*
X9649348Y-19015579D02*
X9658872Y-19025103D01*
X9658872Y-19025103D02*
X9668396Y-19044151D01*
X9668396Y-19044151D02*
X9668396Y-19101294D01*
X9668396Y-19101294D02*
X9658872Y-19120341D01*
X9658872Y-19120341D02*
X9649348Y-19129865D01*
X9649348Y-19129865D02*
X9630301Y-19139389D01*
X9630301Y-19139389D02*
X9601729Y-19139389D01*
X9782682Y-19139389D02*
X9763634Y-19129865D01*
X9763634Y-19129865D02*
X9754110Y-19110817D01*
X9754110Y-19110817D02*
X9754110Y-18939389D01*
X9935063Y-19129865D02*
X9916015Y-19139389D01*
X9916015Y-19139389D02*
X9877920Y-19139389D01*
X9877920Y-19139389D02*
X9858872Y-19129865D01*
X9858872Y-19129865D02*
X9849348Y-19110817D01*
X9849348Y-19110817D02*
X9849348Y-19034627D01*
X9849348Y-19034627D02*
X9858872Y-19015579D01*
X9858872Y-19015579D02*
X9877920Y-19006055D01*
X9877920Y-19006055D02*
X9916015Y-19006055D01*
X9916015Y-19006055D02*
X9935063Y-19015579D01*
X9935063Y-19015579D02*
X9944587Y-19034627D01*
X9944587Y-19034627D02*
X9944587Y-19053675D01*
X9944587Y-19053675D02*
X9849348Y-19072722D01*
X10020777Y-19129865D02*
X10039825Y-19139389D01*
X10039825Y-19139389D02*
X10077920Y-19139389D01*
X10077920Y-19139389D02*
X10096968Y-19129865D01*
X10096968Y-19129865D02*
X10106491Y-19110817D01*
X10106491Y-19110817D02*
X10106491Y-19101294D01*
X10106491Y-19101294D02*
X10096968Y-19082246D01*
X10096968Y-19082246D02*
X10077920Y-19072722D01*
X10077920Y-19072722D02*
X10049348Y-19072722D01*
X10049348Y-19072722D02*
X10030301Y-19063198D01*
X10030301Y-19063198D02*
X10020777Y-19044151D01*
X10020777Y-19044151D02*
X10020777Y-19034627D01*
X10020777Y-19034627D02*
X10030301Y-19015579D01*
X10030301Y-19015579D02*
X10049348Y-19006055D01*
X10049348Y-19006055D02*
X10077920Y-19006055D01*
X10077920Y-19006055D02*
X10096968Y-19015579D01*
X10173158Y-19215579D02*
X10182682Y-19206055D01*
X10182682Y-19206055D02*
X10201729Y-19177484D01*
X10201729Y-19177484D02*
X10211253Y-19158436D01*
X10211253Y-19158436D02*
X10220777Y-19129865D01*
X10220777Y-19129865D02*
X10230301Y-19082246D01*
X10230301Y-19082246D02*
X10230301Y-19044151D01*
X10230301Y-19044151D02*
X10220777Y-18996532D01*
X10220777Y-18996532D02*
X10211253Y-18967960D01*
X10211253Y-18967960D02*
X10201729Y-18948913D01*
X10201729Y-18948913D02*
X10182682Y-18920341D01*
X10182682Y-18920341D02*
X10173158Y-18910817D01*
X5198095Y-19217905D02*
X5398095Y-19417905D01*
X5398095Y-19217905D02*
X5198095Y-19417905D01*
X5398095Y-19317905D02*
G75*
G02*
X5198095Y-19317905I-100000J0D01*
G01*
X5198095Y-19317905D02*
G75*
G02*
X5398095Y-19317905I100000J0D01*
G01*
X5744586Y-19276055D02*
X5744586Y-19409389D01*
X5696967Y-19199865D02*
X5649348Y-19342722D01*
X5649348Y-19342722D02*
X5773157Y-19342722D01*
X5849348Y-19390341D02*
X5858872Y-19399865D01*
X5858872Y-19399865D02*
X5849348Y-19409389D01*
X5849348Y-19409389D02*
X5839824Y-19399865D01*
X5839824Y-19399865D02*
X5849348Y-19390341D01*
X5849348Y-19390341D02*
X5849348Y-19409389D01*
X5982681Y-19209389D02*
X6001729Y-19209389D01*
X6001729Y-19209389D02*
X6020777Y-19218913D01*
X6020777Y-19218913D02*
X6030300Y-19228436D01*
X6030300Y-19228436D02*
X6039824Y-19247484D01*
X6039824Y-19247484D02*
X6049348Y-19285579D01*
X6049348Y-19285579D02*
X6049348Y-19333198D01*
X6049348Y-19333198D02*
X6039824Y-19371294D01*
X6039824Y-19371294D02*
X6030300Y-19390341D01*
X6030300Y-19390341D02*
X6020777Y-19399865D01*
X6020777Y-19399865D02*
X6001729Y-19409389D01*
X6001729Y-19409389D02*
X5982681Y-19409389D01*
X5982681Y-19409389D02*
X5963634Y-19399865D01*
X5963634Y-19399865D02*
X5954110Y-19390341D01*
X5954110Y-19390341D02*
X5944586Y-19371294D01*
X5944586Y-19371294D02*
X5935062Y-19333198D01*
X5935062Y-19333198D02*
X5935062Y-19285579D01*
X5935062Y-19285579D02*
X5944586Y-19247484D01*
X5944586Y-19247484D02*
X5954110Y-19228436D01*
X5954110Y-19228436D02*
X5963634Y-19218913D01*
X5963634Y-19218913D02*
X5982681Y-19209389D01*
X6173157Y-19209389D02*
X6192205Y-19209389D01*
X6192205Y-19209389D02*
X6211253Y-19218913D01*
X6211253Y-19218913D02*
X6220777Y-19228436D01*
X6220777Y-19228436D02*
X6230300Y-19247484D01*
X6230300Y-19247484D02*
X6239824Y-19285579D01*
X6239824Y-19285579D02*
X6239824Y-19333198D01*
X6239824Y-19333198D02*
X6230300Y-19371294D01*
X6230300Y-19371294D02*
X6220777Y-19390341D01*
X6220777Y-19390341D02*
X6211253Y-19399865D01*
X6211253Y-19399865D02*
X6192205Y-19409389D01*
X6192205Y-19409389D02*
X6173157Y-19409389D01*
X6173157Y-19409389D02*
X6154110Y-19399865D01*
X6154110Y-19399865D02*
X6144586Y-19390341D01*
X6144586Y-19390341D02*
X6135062Y-19371294D01*
X6135062Y-19371294D02*
X6125538Y-19333198D01*
X6125538Y-19333198D02*
X6125538Y-19285579D01*
X6125538Y-19285579D02*
X6135062Y-19247484D01*
X6135062Y-19247484D02*
X6144586Y-19228436D01*
X6144586Y-19228436D02*
X6154110Y-19218913D01*
X6154110Y-19218913D02*
X6173157Y-19209389D01*
X6363634Y-19209389D02*
X6382681Y-19209389D01*
X6382681Y-19209389D02*
X6401729Y-19218913D01*
X6401729Y-19218913D02*
X6411253Y-19228436D01*
X6411253Y-19228436D02*
X6420777Y-19247484D01*
X6420777Y-19247484D02*
X6430300Y-19285579D01*
X6430300Y-19285579D02*
X6430300Y-19333198D01*
X6430300Y-19333198D02*
X6420777Y-19371294D01*
X6420777Y-19371294D02*
X6411253Y-19390341D01*
X6411253Y-19390341D02*
X6401729Y-19399865D01*
X6401729Y-19399865D02*
X6382681Y-19409389D01*
X6382681Y-19409389D02*
X6363634Y-19409389D01*
X6363634Y-19409389D02*
X6344586Y-19399865D01*
X6344586Y-19399865D02*
X6335062Y-19390341D01*
X6335062Y-19390341D02*
X6325538Y-19371294D01*
X6325538Y-19371294D02*
X6316015Y-19333198D01*
X6316015Y-19333198D02*
X6316015Y-19285579D01*
X6316015Y-19285579D02*
X6325538Y-19247484D01*
X6325538Y-19247484D02*
X6335062Y-19228436D01*
X6335062Y-19228436D02*
X6344586Y-19218913D01*
X6344586Y-19218913D02*
X6363634Y-19209389D01*
X6516015Y-19409389D02*
X6516015Y-19276055D01*
X6516015Y-19295103D02*
X6525538Y-19285579D01*
X6525538Y-19285579D02*
X6544586Y-19276055D01*
X6544586Y-19276055D02*
X6573158Y-19276055D01*
X6573158Y-19276055D02*
X6592205Y-19285579D01*
X6592205Y-19285579D02*
X6601729Y-19304627D01*
X6601729Y-19304627D02*
X6601729Y-19409389D01*
X6601729Y-19304627D02*
X6611253Y-19285579D01*
X6611253Y-19285579D02*
X6630300Y-19276055D01*
X6630300Y-19276055D02*
X6658872Y-19276055D01*
X6658872Y-19276055D02*
X6677919Y-19285579D01*
X6677919Y-19285579D02*
X6687443Y-19304627D01*
X6687443Y-19304627D02*
X6687443Y-19409389D01*
X6782681Y-19409389D02*
X6782681Y-19276055D01*
X6782681Y-19295103D02*
X6792205Y-19285579D01*
X6792205Y-19285579D02*
X6811253Y-19276055D01*
X6811253Y-19276055D02*
X6839824Y-19276055D01*
X6839824Y-19276055D02*
X6858872Y-19285579D01*
X6858872Y-19285579D02*
X6868396Y-19304627D01*
X6868396Y-19304627D02*
X6868396Y-19409389D01*
X6868396Y-19304627D02*
X6877919Y-19285579D01*
X6877919Y-19285579D02*
X6896967Y-19276055D01*
X6896967Y-19276055D02*
X6925538Y-19276055D01*
X6925538Y-19276055D02*
X6944586Y-19285579D01*
X6944586Y-19285579D02*
X6954110Y-19304627D01*
X6954110Y-19304627D02*
X6954110Y-19409389D01*
X7344586Y-19199865D02*
X7173158Y-19457008D01*
X7601729Y-19209389D02*
X7620777Y-19209389D01*
X7620777Y-19209389D02*
X7639824Y-19218913D01*
X7639824Y-19218913D02*
X7649348Y-19228436D01*
X7649348Y-19228436D02*
X7658872Y-19247484D01*
X7658872Y-19247484D02*
X7668396Y-19285579D01*
X7668396Y-19285579D02*
X7668396Y-19333198D01*
X7668396Y-19333198D02*
X7658872Y-19371294D01*
X7658872Y-19371294D02*
X7649348Y-19390341D01*
X7649348Y-19390341D02*
X7639824Y-19399865D01*
X7639824Y-19399865D02*
X7620777Y-19409389D01*
X7620777Y-19409389D02*
X7601729Y-19409389D01*
X7601729Y-19409389D02*
X7582681Y-19399865D01*
X7582681Y-19399865D02*
X7573158Y-19390341D01*
X7573158Y-19390341D02*
X7563634Y-19371294D01*
X7563634Y-19371294D02*
X7554110Y-19333198D01*
X7554110Y-19333198D02*
X7554110Y-19285579D01*
X7554110Y-19285579D02*
X7563634Y-19247484D01*
X7563634Y-19247484D02*
X7573158Y-19228436D01*
X7573158Y-19228436D02*
X7582681Y-19218913D01*
X7582681Y-19218913D02*
X7601729Y-19209389D01*
X7754110Y-19390341D02*
X7763634Y-19399865D01*
X7763634Y-19399865D02*
X7754110Y-19409389D01*
X7754110Y-19409389D02*
X7744586Y-19399865D01*
X7744586Y-19399865D02*
X7754110Y-19390341D01*
X7754110Y-19390341D02*
X7754110Y-19409389D01*
X7954110Y-19409389D02*
X7839824Y-19409389D01*
X7896967Y-19409389D02*
X7896967Y-19209389D01*
X7896967Y-19209389D02*
X7877920Y-19237960D01*
X7877920Y-19237960D02*
X7858872Y-19257008D01*
X7858872Y-19257008D02*
X7839824Y-19266532D01*
X8135062Y-19209389D02*
X8039824Y-19209389D01*
X8039824Y-19209389D02*
X8030301Y-19304627D01*
X8030301Y-19304627D02*
X8039824Y-19295103D01*
X8039824Y-19295103D02*
X8058872Y-19285579D01*
X8058872Y-19285579D02*
X8106491Y-19285579D01*
X8106491Y-19285579D02*
X8125539Y-19295103D01*
X8125539Y-19295103D02*
X8135062Y-19304627D01*
X8135062Y-19304627D02*
X8144586Y-19323675D01*
X8144586Y-19323675D02*
X8144586Y-19371294D01*
X8144586Y-19371294D02*
X8135062Y-19390341D01*
X8135062Y-19390341D02*
X8125539Y-19399865D01*
X8125539Y-19399865D02*
X8106491Y-19409389D01*
X8106491Y-19409389D02*
X8058872Y-19409389D01*
X8058872Y-19409389D02*
X8039824Y-19399865D01*
X8039824Y-19399865D02*
X8030301Y-19390341D01*
X8211253Y-19209389D02*
X8344586Y-19209389D01*
X8344586Y-19209389D02*
X8258872Y-19409389D01*
X8516015Y-19209389D02*
X8420777Y-19209389D01*
X8420777Y-19209389D02*
X8411253Y-19304627D01*
X8411253Y-19304627D02*
X8420777Y-19295103D01*
X8420777Y-19295103D02*
X8439824Y-19285579D01*
X8439824Y-19285579D02*
X8487444Y-19285579D01*
X8487444Y-19285579D02*
X8506491Y-19295103D01*
X8506491Y-19295103D02*
X8516015Y-19304627D01*
X8516015Y-19304627D02*
X8525539Y-19323675D01*
X8525539Y-19323675D02*
X8525539Y-19371294D01*
X8525539Y-19371294D02*
X8516015Y-19390341D01*
X8516015Y-19390341D02*
X8506491Y-19399865D01*
X8506491Y-19399865D02*
X8487444Y-19409389D01*
X8487444Y-19409389D02*
X8439824Y-19409389D01*
X8439824Y-19409389D02*
X8420777Y-19399865D01*
X8420777Y-19399865D02*
X8411253Y-19390341D01*
X8601729Y-19209389D02*
X8601729Y-19247484D01*
X8677920Y-19209389D02*
X8677920Y-19247484D01*
X8973158Y-19485579D02*
X8963634Y-19476055D01*
X8963634Y-19476055D02*
X8944586Y-19447484D01*
X8944586Y-19447484D02*
X8935063Y-19428436D01*
X8935063Y-19428436D02*
X8925539Y-19399865D01*
X8925539Y-19399865D02*
X8916015Y-19352246D01*
X8916015Y-19352246D02*
X8916015Y-19314151D01*
X8916015Y-19314151D02*
X8925539Y-19266532D01*
X8925539Y-19266532D02*
X8935063Y-19237960D01*
X8935063Y-19237960D02*
X8944586Y-19218913D01*
X8944586Y-19218913D02*
X8963634Y-19190341D01*
X8963634Y-19190341D02*
X8973158Y-19180817D01*
X9135063Y-19276055D02*
X9135063Y-19409389D01*
X9087444Y-19199865D02*
X9039825Y-19342722D01*
X9039825Y-19342722D02*
X9163634Y-19342722D01*
X9392206Y-19409389D02*
X9392206Y-19209389D01*
X9477920Y-19409389D02*
X9477920Y-19304627D01*
X9477920Y-19304627D02*
X9468396Y-19285579D01*
X9468396Y-19285579D02*
X9449348Y-19276055D01*
X9449348Y-19276055D02*
X9420777Y-19276055D01*
X9420777Y-19276055D02*
X9401729Y-19285579D01*
X9401729Y-19285579D02*
X9392206Y-19295103D01*
X9601729Y-19409389D02*
X9582682Y-19399865D01*
X9582682Y-19399865D02*
X9573158Y-19390341D01*
X9573158Y-19390341D02*
X9563634Y-19371294D01*
X9563634Y-19371294D02*
X9563634Y-19314151D01*
X9563634Y-19314151D02*
X9573158Y-19295103D01*
X9573158Y-19295103D02*
X9582682Y-19285579D01*
X9582682Y-19285579D02*
X9601729Y-19276055D01*
X9601729Y-19276055D02*
X9630301Y-19276055D01*
X9630301Y-19276055D02*
X9649348Y-19285579D01*
X9649348Y-19285579D02*
X9658872Y-19295103D01*
X9658872Y-19295103D02*
X9668396Y-19314151D01*
X9668396Y-19314151D02*
X9668396Y-19371294D01*
X9668396Y-19371294D02*
X9658872Y-19390341D01*
X9658872Y-19390341D02*
X9649348Y-19399865D01*
X9649348Y-19399865D02*
X9630301Y-19409389D01*
X9630301Y-19409389D02*
X9601729Y-19409389D01*
X9782682Y-19409389D02*
X9763634Y-19399865D01*
X9763634Y-19399865D02*
X9754110Y-19380817D01*
X9754110Y-19380817D02*
X9754110Y-19209389D01*
X9935063Y-19399865D02*
X9916015Y-19409389D01*
X9916015Y-19409389D02*
X9877920Y-19409389D01*
X9877920Y-19409389D02*
X9858872Y-19399865D01*
X9858872Y-19399865D02*
X9849348Y-19380817D01*
X9849348Y-19380817D02*
X9849348Y-19304627D01*
X9849348Y-19304627D02*
X9858872Y-19285579D01*
X9858872Y-19285579D02*
X9877920Y-19276055D01*
X9877920Y-19276055D02*
X9916015Y-19276055D01*
X9916015Y-19276055D02*
X9935063Y-19285579D01*
X9935063Y-19285579D02*
X9944587Y-19304627D01*
X9944587Y-19304627D02*
X9944587Y-19323675D01*
X9944587Y-19323675D02*
X9849348Y-19342722D01*
X10020777Y-19399865D02*
X10039825Y-19409389D01*
X10039825Y-19409389D02*
X10077920Y-19409389D01*
X10077920Y-19409389D02*
X10096968Y-19399865D01*
X10096968Y-19399865D02*
X10106491Y-19380817D01*
X10106491Y-19380817D02*
X10106491Y-19371294D01*
X10106491Y-19371294D02*
X10096968Y-19352246D01*
X10096968Y-19352246D02*
X10077920Y-19342722D01*
X10077920Y-19342722D02*
X10049348Y-19342722D01*
X10049348Y-19342722D02*
X10030301Y-19333198D01*
X10030301Y-19333198D02*
X10020777Y-19314151D01*
X10020777Y-19314151D02*
X10020777Y-19304627D01*
X10020777Y-19304627D02*
X10030301Y-19285579D01*
X10030301Y-19285579D02*
X10049348Y-19276055D01*
X10049348Y-19276055D02*
X10077920Y-19276055D01*
X10077920Y-19276055D02*
X10096968Y-19285579D01*
X10173158Y-19485579D02*
X10182682Y-19476055D01*
X10182682Y-19476055D02*
X10201729Y-19447484D01*
X10201729Y-19447484D02*
X10211253Y-19428436D01*
X10211253Y-19428436D02*
X10220777Y-19399865D01*
X10220777Y-19399865D02*
X10230301Y-19352246D01*
X10230301Y-19352246D02*
X10230301Y-19314151D01*
X10230301Y-19314151D02*
X10220777Y-19266532D01*
X10220777Y-19266532D02*
X10211253Y-19237960D01*
X10211253Y-19237960D02*
X10201729Y-19218913D01*
X10201729Y-19218913D02*
X10182682Y-19190341D01*
X10182682Y-19190341D02*
X10173158Y-19180817D01*
X5198095Y-19537905D02*
X5398095Y-19737905D01*
X5398095Y-19537905D02*
X5198095Y-19737905D01*
X5298095Y-19537905D02*
X5298095Y-19737905D01*
X5198095Y-19637905D02*
X5398095Y-19637905D01*
X5744586Y-19596055D02*
X5744586Y-19729389D01*
X5696967Y-19519865D02*
X5649348Y-19662722D01*
X5649348Y-19662722D02*
X5773157Y-19662722D01*
X5849348Y-19710341D02*
X5858872Y-19719865D01*
X5858872Y-19719865D02*
X5849348Y-19729389D01*
X5849348Y-19729389D02*
X5839824Y-19719865D01*
X5839824Y-19719865D02*
X5849348Y-19710341D01*
X5849348Y-19710341D02*
X5849348Y-19729389D01*
X5925538Y-19529389D02*
X6049348Y-19529389D01*
X6049348Y-19529389D02*
X5982681Y-19605579D01*
X5982681Y-19605579D02*
X6011253Y-19605579D01*
X6011253Y-19605579D02*
X6030300Y-19615103D01*
X6030300Y-19615103D02*
X6039824Y-19624627D01*
X6039824Y-19624627D02*
X6049348Y-19643675D01*
X6049348Y-19643675D02*
X6049348Y-19691294D01*
X6049348Y-19691294D02*
X6039824Y-19710341D01*
X6039824Y-19710341D02*
X6030300Y-19719865D01*
X6030300Y-19719865D02*
X6011253Y-19729389D01*
X6011253Y-19729389D02*
X5954110Y-19729389D01*
X5954110Y-19729389D02*
X5935062Y-19719865D01*
X5935062Y-19719865D02*
X5925538Y-19710341D01*
X6173157Y-19529389D02*
X6192205Y-19529389D01*
X6192205Y-19529389D02*
X6211253Y-19538913D01*
X6211253Y-19538913D02*
X6220777Y-19548436D01*
X6220777Y-19548436D02*
X6230300Y-19567484D01*
X6230300Y-19567484D02*
X6239824Y-19605579D01*
X6239824Y-19605579D02*
X6239824Y-19653198D01*
X6239824Y-19653198D02*
X6230300Y-19691294D01*
X6230300Y-19691294D02*
X6220777Y-19710341D01*
X6220777Y-19710341D02*
X6211253Y-19719865D01*
X6211253Y-19719865D02*
X6192205Y-19729389D01*
X6192205Y-19729389D02*
X6173157Y-19729389D01*
X6173157Y-19729389D02*
X6154110Y-19719865D01*
X6154110Y-19719865D02*
X6144586Y-19710341D01*
X6144586Y-19710341D02*
X6135062Y-19691294D01*
X6135062Y-19691294D02*
X6125538Y-19653198D01*
X6125538Y-19653198D02*
X6125538Y-19605579D01*
X6125538Y-19605579D02*
X6135062Y-19567484D01*
X6135062Y-19567484D02*
X6144586Y-19548436D01*
X6144586Y-19548436D02*
X6154110Y-19538913D01*
X6154110Y-19538913D02*
X6173157Y-19529389D01*
X6363634Y-19529389D02*
X6382681Y-19529389D01*
X6382681Y-19529389D02*
X6401729Y-19538913D01*
X6401729Y-19538913D02*
X6411253Y-19548436D01*
X6411253Y-19548436D02*
X6420777Y-19567484D01*
X6420777Y-19567484D02*
X6430300Y-19605579D01*
X6430300Y-19605579D02*
X6430300Y-19653198D01*
X6430300Y-19653198D02*
X6420777Y-19691294D01*
X6420777Y-19691294D02*
X6411253Y-19710341D01*
X6411253Y-19710341D02*
X6401729Y-19719865D01*
X6401729Y-19719865D02*
X6382681Y-19729389D01*
X6382681Y-19729389D02*
X6363634Y-19729389D01*
X6363634Y-19729389D02*
X6344586Y-19719865D01*
X6344586Y-19719865D02*
X6335062Y-19710341D01*
X6335062Y-19710341D02*
X6325538Y-19691294D01*
X6325538Y-19691294D02*
X6316015Y-19653198D01*
X6316015Y-19653198D02*
X6316015Y-19605579D01*
X6316015Y-19605579D02*
X6325538Y-19567484D01*
X6325538Y-19567484D02*
X6335062Y-19548436D01*
X6335062Y-19548436D02*
X6344586Y-19538913D01*
X6344586Y-19538913D02*
X6363634Y-19529389D01*
X6516015Y-19729389D02*
X6516015Y-19596055D01*
X6516015Y-19615103D02*
X6525538Y-19605579D01*
X6525538Y-19605579D02*
X6544586Y-19596055D01*
X6544586Y-19596055D02*
X6573158Y-19596055D01*
X6573158Y-19596055D02*
X6592205Y-19605579D01*
X6592205Y-19605579D02*
X6601729Y-19624627D01*
X6601729Y-19624627D02*
X6601729Y-19729389D01*
X6601729Y-19624627D02*
X6611253Y-19605579D01*
X6611253Y-19605579D02*
X6630300Y-19596055D01*
X6630300Y-19596055D02*
X6658872Y-19596055D01*
X6658872Y-19596055D02*
X6677919Y-19605579D01*
X6677919Y-19605579D02*
X6687443Y-19624627D01*
X6687443Y-19624627D02*
X6687443Y-19729389D01*
X6782681Y-19729389D02*
X6782681Y-19596055D01*
X6782681Y-19615103D02*
X6792205Y-19605579D01*
X6792205Y-19605579D02*
X6811253Y-19596055D01*
X6811253Y-19596055D02*
X6839824Y-19596055D01*
X6839824Y-19596055D02*
X6858872Y-19605579D01*
X6858872Y-19605579D02*
X6868396Y-19624627D01*
X6868396Y-19624627D02*
X6868396Y-19729389D01*
X6868396Y-19624627D02*
X6877919Y-19605579D01*
X6877919Y-19605579D02*
X6896967Y-19596055D01*
X6896967Y-19596055D02*
X6925538Y-19596055D01*
X6925538Y-19596055D02*
X6944586Y-19605579D01*
X6944586Y-19605579D02*
X6954110Y-19624627D01*
X6954110Y-19624627D02*
X6954110Y-19729389D01*
X7344586Y-19519865D02*
X7173158Y-19777008D01*
X7601729Y-19529389D02*
X7620777Y-19529389D01*
X7620777Y-19529389D02*
X7639824Y-19538913D01*
X7639824Y-19538913D02*
X7649348Y-19548436D01*
X7649348Y-19548436D02*
X7658872Y-19567484D01*
X7658872Y-19567484D02*
X7668396Y-19605579D01*
X7668396Y-19605579D02*
X7668396Y-19653198D01*
X7668396Y-19653198D02*
X7658872Y-19691294D01*
X7658872Y-19691294D02*
X7649348Y-19710341D01*
X7649348Y-19710341D02*
X7639824Y-19719865D01*
X7639824Y-19719865D02*
X7620777Y-19729389D01*
X7620777Y-19729389D02*
X7601729Y-19729389D01*
X7601729Y-19729389D02*
X7582681Y-19719865D01*
X7582681Y-19719865D02*
X7573158Y-19710341D01*
X7573158Y-19710341D02*
X7563634Y-19691294D01*
X7563634Y-19691294D02*
X7554110Y-19653198D01*
X7554110Y-19653198D02*
X7554110Y-19605579D01*
X7554110Y-19605579D02*
X7563634Y-19567484D01*
X7563634Y-19567484D02*
X7573158Y-19548436D01*
X7573158Y-19548436D02*
X7582681Y-19538913D01*
X7582681Y-19538913D02*
X7601729Y-19529389D01*
X7754110Y-19710341D02*
X7763634Y-19719865D01*
X7763634Y-19719865D02*
X7754110Y-19729389D01*
X7754110Y-19729389D02*
X7744586Y-19719865D01*
X7744586Y-19719865D02*
X7754110Y-19710341D01*
X7754110Y-19710341D02*
X7754110Y-19729389D01*
X7954110Y-19729389D02*
X7839824Y-19729389D01*
X7896967Y-19729389D02*
X7896967Y-19529389D01*
X7896967Y-19529389D02*
X7877920Y-19557960D01*
X7877920Y-19557960D02*
X7858872Y-19577008D01*
X7858872Y-19577008D02*
X7839824Y-19586532D01*
X8125539Y-19529389D02*
X8087443Y-19529389D01*
X8087443Y-19529389D02*
X8068396Y-19538913D01*
X8068396Y-19538913D02*
X8058872Y-19548436D01*
X8058872Y-19548436D02*
X8039824Y-19577008D01*
X8039824Y-19577008D02*
X8030301Y-19615103D01*
X8030301Y-19615103D02*
X8030301Y-19691294D01*
X8030301Y-19691294D02*
X8039824Y-19710341D01*
X8039824Y-19710341D02*
X8049348Y-19719865D01*
X8049348Y-19719865D02*
X8068396Y-19729389D01*
X8068396Y-19729389D02*
X8106491Y-19729389D01*
X8106491Y-19729389D02*
X8125539Y-19719865D01*
X8125539Y-19719865D02*
X8135062Y-19710341D01*
X8135062Y-19710341D02*
X8144586Y-19691294D01*
X8144586Y-19691294D02*
X8144586Y-19643675D01*
X8144586Y-19643675D02*
X8135062Y-19624627D01*
X8135062Y-19624627D02*
X8125539Y-19615103D01*
X8125539Y-19615103D02*
X8106491Y-19605579D01*
X8106491Y-19605579D02*
X8068396Y-19605579D01*
X8068396Y-19605579D02*
X8049348Y-19615103D01*
X8049348Y-19615103D02*
X8039824Y-19624627D01*
X8039824Y-19624627D02*
X8030301Y-19643675D01*
X8239824Y-19729389D02*
X8277920Y-19729389D01*
X8277920Y-19729389D02*
X8296967Y-19719865D01*
X8296967Y-19719865D02*
X8306491Y-19710341D01*
X8306491Y-19710341D02*
X8325539Y-19681770D01*
X8325539Y-19681770D02*
X8335062Y-19643675D01*
X8335062Y-19643675D02*
X8335062Y-19567484D01*
X8335062Y-19567484D02*
X8325539Y-19548436D01*
X8325539Y-19548436D02*
X8316015Y-19538913D01*
X8316015Y-19538913D02*
X8296967Y-19529389D01*
X8296967Y-19529389D02*
X8258872Y-19529389D01*
X8258872Y-19529389D02*
X8239824Y-19538913D01*
X8239824Y-19538913D02*
X8230301Y-19548436D01*
X8230301Y-19548436D02*
X8220777Y-19567484D01*
X8220777Y-19567484D02*
X8220777Y-19615103D01*
X8220777Y-19615103D02*
X8230301Y-19634151D01*
X8230301Y-19634151D02*
X8239824Y-19643675D01*
X8239824Y-19643675D02*
X8258872Y-19653198D01*
X8258872Y-19653198D02*
X8296967Y-19653198D01*
X8296967Y-19653198D02*
X8316015Y-19643675D01*
X8316015Y-19643675D02*
X8325539Y-19634151D01*
X8325539Y-19634151D02*
X8335062Y-19615103D01*
X8401729Y-19529389D02*
X8525539Y-19529389D01*
X8525539Y-19529389D02*
X8458872Y-19605579D01*
X8458872Y-19605579D02*
X8487444Y-19605579D01*
X8487444Y-19605579D02*
X8506491Y-19615103D01*
X8506491Y-19615103D02*
X8516015Y-19624627D01*
X8516015Y-19624627D02*
X8525539Y-19643675D01*
X8525539Y-19643675D02*
X8525539Y-19691294D01*
X8525539Y-19691294D02*
X8516015Y-19710341D01*
X8516015Y-19710341D02*
X8506491Y-19719865D01*
X8506491Y-19719865D02*
X8487444Y-19729389D01*
X8487444Y-19729389D02*
X8430301Y-19729389D01*
X8430301Y-19729389D02*
X8411253Y-19719865D01*
X8411253Y-19719865D02*
X8401729Y-19710341D01*
X8601729Y-19529389D02*
X8601729Y-19567484D01*
X8677920Y-19529389D02*
X8677920Y-19567484D01*
X8973158Y-19805579D02*
X8963634Y-19796055D01*
X8963634Y-19796055D02*
X8944586Y-19767484D01*
X8944586Y-19767484D02*
X8935063Y-19748436D01*
X8935063Y-19748436D02*
X8925539Y-19719865D01*
X8925539Y-19719865D02*
X8916015Y-19672246D01*
X8916015Y-19672246D02*
X8916015Y-19634151D01*
X8916015Y-19634151D02*
X8925539Y-19586532D01*
X8925539Y-19586532D02*
X8935063Y-19557960D01*
X8935063Y-19557960D02*
X8944586Y-19538913D01*
X8944586Y-19538913D02*
X8963634Y-19510341D01*
X8963634Y-19510341D02*
X8973158Y-19500817D01*
X9135063Y-19596055D02*
X9135063Y-19729389D01*
X9087444Y-19519865D02*
X9039825Y-19662722D01*
X9039825Y-19662722D02*
X9163634Y-19662722D01*
X9392206Y-19729389D02*
X9392206Y-19529389D01*
X9477920Y-19729389D02*
X9477920Y-19624627D01*
X9477920Y-19624627D02*
X9468396Y-19605579D01*
X9468396Y-19605579D02*
X9449348Y-19596055D01*
X9449348Y-19596055D02*
X9420777Y-19596055D01*
X9420777Y-19596055D02*
X9401729Y-19605579D01*
X9401729Y-19605579D02*
X9392206Y-19615103D01*
X9601729Y-19729389D02*
X9582682Y-19719865D01*
X9582682Y-19719865D02*
X9573158Y-19710341D01*
X9573158Y-19710341D02*
X9563634Y-19691294D01*
X9563634Y-19691294D02*
X9563634Y-19634151D01*
X9563634Y-19634151D02*
X9573158Y-19615103D01*
X9573158Y-19615103D02*
X9582682Y-19605579D01*
X9582682Y-19605579D02*
X9601729Y-19596055D01*
X9601729Y-19596055D02*
X9630301Y-19596055D01*
X9630301Y-19596055D02*
X9649348Y-19605579D01*
X9649348Y-19605579D02*
X9658872Y-19615103D01*
X9658872Y-19615103D02*
X9668396Y-19634151D01*
X9668396Y-19634151D02*
X9668396Y-19691294D01*
X9668396Y-19691294D02*
X9658872Y-19710341D01*
X9658872Y-19710341D02*
X9649348Y-19719865D01*
X9649348Y-19719865D02*
X9630301Y-19729389D01*
X9630301Y-19729389D02*
X9601729Y-19729389D01*
X9782682Y-19729389D02*
X9763634Y-19719865D01*
X9763634Y-19719865D02*
X9754110Y-19700817D01*
X9754110Y-19700817D02*
X9754110Y-19529389D01*
X9935063Y-19719865D02*
X9916015Y-19729389D01*
X9916015Y-19729389D02*
X9877920Y-19729389D01*
X9877920Y-19729389D02*
X9858872Y-19719865D01*
X9858872Y-19719865D02*
X9849348Y-19700817D01*
X9849348Y-19700817D02*
X9849348Y-19624627D01*
X9849348Y-19624627D02*
X9858872Y-19605579D01*
X9858872Y-19605579D02*
X9877920Y-19596055D01*
X9877920Y-19596055D02*
X9916015Y-19596055D01*
X9916015Y-19596055D02*
X9935063Y-19605579D01*
X9935063Y-19605579D02*
X9944587Y-19624627D01*
X9944587Y-19624627D02*
X9944587Y-19643675D01*
X9944587Y-19643675D02*
X9849348Y-19662722D01*
X10020777Y-19719865D02*
X10039825Y-19729389D01*
X10039825Y-19729389D02*
X10077920Y-19729389D01*
X10077920Y-19729389D02*
X10096968Y-19719865D01*
X10096968Y-19719865D02*
X10106491Y-19700817D01*
X10106491Y-19700817D02*
X10106491Y-19691294D01*
X10106491Y-19691294D02*
X10096968Y-19672246D01*
X10096968Y-19672246D02*
X10077920Y-19662722D01*
X10077920Y-19662722D02*
X10049348Y-19662722D01*
X10049348Y-19662722D02*
X10030301Y-19653198D01*
X10030301Y-19653198D02*
X10020777Y-19634151D01*
X10020777Y-19634151D02*
X10020777Y-19624627D01*
X10020777Y-19624627D02*
X10030301Y-19605579D01*
X10030301Y-19605579D02*
X10049348Y-19596055D01*
X10049348Y-19596055D02*
X10077920Y-19596055D01*
X10077920Y-19596055D02*
X10096968Y-19605579D01*
X10173158Y-19805579D02*
X10182682Y-19796055D01*
X10182682Y-19796055D02*
X10201729Y-19767484D01*
X10201729Y-19767484D02*
X10211253Y-19748436D01*
X10211253Y-19748436D02*
X10220777Y-19719865D01*
X10220777Y-19719865D02*
X10230301Y-19672246D01*
X10230301Y-19672246D02*
X10230301Y-19634151D01*
X10230301Y-19634151D02*
X10220777Y-19586532D01*
X10220777Y-19586532D02*
X10211253Y-19557960D01*
X10211253Y-19557960D02*
X10201729Y-19538913D01*
X10201729Y-19538913D02*
X10182682Y-19510341D01*
X10182682Y-19510341D02*
X10173158Y-19500817D01*
M02*
