G04 #@! TF.GenerationSoftware,KiCad,Pcbnew,9.0.4*
G04 #@! TF.CreationDate,2025-09-26T10:38:55+02:00*
G04 #@! TF.ProjectId,generator_dds,67656e65-7261-4746-9f72-5f6464732e6b,rev?*
G04 #@! TF.SameCoordinates,Original*
G04 #@! TF.FileFunction,Soldermask,Bot*
G04 #@! TF.FilePolarity,Negative*
%FSLAX46Y46*%
G04 Gerber Fmt 4.6, Leading zero omitted, Abs format (unit mm)*
G04 Created by KiCad (PCBNEW 9.0.4) date 2025-09-26 10:38:55*
%MOMM*%
%LPD*%
G01*
G04 APERTURE LIST*
G04 APERTURE END LIST*
G36*
X59050239Y-165290588D02*
G01*
X59411176Y-165362383D01*
X59763337Y-165469210D01*
X60103332Y-165610040D01*
X60427885Y-165783518D01*
X60733872Y-165987972D01*
X61018346Y-166221433D01*
X61278567Y-166481654D01*
X61512028Y-166766128D01*
X61716482Y-167072115D01*
X61889960Y-167396668D01*
X62030790Y-167736663D01*
X62137617Y-168088824D01*
X62209412Y-168449761D01*
X62245483Y-168815996D01*
X62245483Y-169184004D01*
X62209412Y-169550239D01*
X62137617Y-169911176D01*
X62030790Y-170263337D01*
X61889960Y-170603332D01*
X61716482Y-170927885D01*
X61512028Y-171233872D01*
X61278567Y-171518346D01*
X61018346Y-171778567D01*
X60733872Y-172012028D01*
X60427885Y-172216482D01*
X60103332Y-172389960D01*
X59763337Y-172530790D01*
X59411176Y-172637617D01*
X59050239Y-172709412D01*
X58684004Y-172745483D01*
X58315996Y-172745483D01*
X57949761Y-172709412D01*
X57588824Y-172637617D01*
X57236663Y-172530790D01*
X56896668Y-172389960D01*
X56572115Y-172216482D01*
X56266128Y-172012028D01*
X55981654Y-171778567D01*
X55721433Y-171518346D01*
X55487972Y-171233872D01*
X55283518Y-170927885D01*
X55110040Y-170603332D01*
X54969210Y-170263337D01*
X54862383Y-169911176D01*
X54790588Y-169550239D01*
X54754517Y-169184004D01*
X54754517Y-168815996D01*
X54790588Y-168449761D01*
X54862383Y-168088824D01*
X54969210Y-167736663D01*
X55110040Y-167396668D01*
X55283518Y-167072115D01*
X55487972Y-166766128D01*
X55721433Y-166481654D01*
X55981654Y-166221433D01*
X56266128Y-165987972D01*
X56572115Y-165783518D01*
X56896668Y-165610040D01*
X57236663Y-165469210D01*
X57588824Y-165362383D01*
X57949761Y-165290588D01*
X58315996Y-165254517D01*
X58684004Y-165254517D01*
X59050239Y-165290588D01*
G37*
G36*
X152050239Y-165290588D02*
G01*
X152411176Y-165362383D01*
X152763337Y-165469210D01*
X153103332Y-165610040D01*
X153427885Y-165783518D01*
X153733872Y-165987972D01*
X154018346Y-166221433D01*
X154278567Y-166481654D01*
X154512028Y-166766128D01*
X154716482Y-167072115D01*
X154889960Y-167396668D01*
X155030790Y-167736663D01*
X155137617Y-168088824D01*
X155209412Y-168449761D01*
X155245483Y-168815996D01*
X155245483Y-169184004D01*
X155209412Y-169550239D01*
X155137617Y-169911176D01*
X155030790Y-170263337D01*
X154889960Y-170603332D01*
X154716482Y-170927885D01*
X154512028Y-171233872D01*
X154278567Y-171518346D01*
X154018346Y-171778567D01*
X153733872Y-172012028D01*
X153427885Y-172216482D01*
X153103332Y-172389960D01*
X152763337Y-172530790D01*
X152411176Y-172637617D01*
X152050239Y-172709412D01*
X151684004Y-172745483D01*
X151315996Y-172745483D01*
X150949761Y-172709412D01*
X150588824Y-172637617D01*
X150236663Y-172530790D01*
X149896668Y-172389960D01*
X149572115Y-172216482D01*
X149266128Y-172012028D01*
X148981654Y-171778567D01*
X148721433Y-171518346D01*
X148487972Y-171233872D01*
X148283518Y-170927885D01*
X148110040Y-170603332D01*
X147969210Y-170263337D01*
X147862383Y-169911176D01*
X147790588Y-169550239D01*
X147754517Y-169184004D01*
X147754517Y-168815996D01*
X147790588Y-168449761D01*
X147862383Y-168088824D01*
X147969210Y-167736663D01*
X148110040Y-167396668D01*
X148283518Y-167072115D01*
X148487972Y-166766128D01*
X148721433Y-166481654D01*
X148981654Y-166221433D01*
X149266128Y-165987972D01*
X149572115Y-165783518D01*
X149896668Y-165610040D01*
X150236663Y-165469210D01*
X150588824Y-165362383D01*
X150949761Y-165290588D01*
X151315996Y-165254517D01*
X151684004Y-165254517D01*
X152050239Y-165290588D01*
G37*
G36*
X61542228Y-162734448D02*
G01*
X61687117Y-162794463D01*
X61817515Y-162881592D01*
X61928408Y-162992485D01*
X62015537Y-163122883D01*
X62075552Y-163267772D01*
X62106148Y-163421586D01*
X62106148Y-163578414D01*
X62075552Y-163732228D01*
X62015537Y-163877117D01*
X61928408Y-164007515D01*
X61817515Y-164118408D01*
X61687117Y-164205537D01*
X61542228Y-164265552D01*
X61388414Y-164296148D01*
X61231586Y-164296148D01*
X61077772Y-164265552D01*
X60932883Y-164205537D01*
X60802485Y-164118408D01*
X60691592Y-164007515D01*
X60604463Y-163877117D01*
X60544448Y-163732228D01*
X60513852Y-163578414D01*
X60513852Y-163421586D01*
X60544448Y-163267772D01*
X60604463Y-163122883D01*
X60691592Y-162992485D01*
X60802485Y-162881592D01*
X60932883Y-162794463D01*
X61077772Y-162734448D01*
X61231586Y-162703852D01*
X61388414Y-162703852D01*
X61542228Y-162734448D01*
G37*
G36*
X66542228Y-162734448D02*
G01*
X66687117Y-162794463D01*
X66817515Y-162881592D01*
X66928408Y-162992485D01*
X67015537Y-163122883D01*
X67075552Y-163267772D01*
X67106148Y-163421586D01*
X67106148Y-163578414D01*
X67075552Y-163732228D01*
X67015537Y-163877117D01*
X66928408Y-164007515D01*
X66817515Y-164118408D01*
X66687117Y-164205537D01*
X66542228Y-164265552D01*
X66388414Y-164296148D01*
X66231586Y-164296148D01*
X66077772Y-164265552D01*
X65932883Y-164205537D01*
X65802485Y-164118408D01*
X65691592Y-164007515D01*
X65604463Y-163877117D01*
X65544448Y-163732228D01*
X65513852Y-163578414D01*
X65513852Y-163421586D01*
X65544448Y-163267772D01*
X65604463Y-163122883D01*
X65691592Y-162992485D01*
X65802485Y-162881592D01*
X65932883Y-162794463D01*
X66077772Y-162734448D01*
X66231586Y-162703852D01*
X66388414Y-162703852D01*
X66542228Y-162734448D01*
G37*
G36*
X73556742Y-161186601D02*
G01*
X73710687Y-161250367D01*
X73849234Y-161342941D01*
X73967059Y-161460766D01*
X74059633Y-161599313D01*
X74123399Y-161753258D01*
X74155907Y-161916685D01*
X74155907Y-162083315D01*
X74123399Y-162246742D01*
X74059633Y-162400687D01*
X73967059Y-162539234D01*
X73849234Y-162657059D01*
X73710687Y-162749633D01*
X73556742Y-162813399D01*
X73393315Y-162845907D01*
X73226685Y-162845907D01*
X73063258Y-162813399D01*
X72909313Y-162749633D01*
X72770766Y-162657059D01*
X72652941Y-162539234D01*
X72560367Y-162400687D01*
X72496601Y-162246742D01*
X72464093Y-162083315D01*
X72464093Y-161916685D01*
X72496601Y-161753258D01*
X72560367Y-161599313D01*
X72652941Y-161460766D01*
X72770766Y-161342941D01*
X72909313Y-161250367D01*
X73063258Y-161186601D01*
X73226685Y-161154093D01*
X73393315Y-161154093D01*
X73556742Y-161186601D01*
G37*
G36*
X112240000Y-161540000D02*
G01*
X110640000Y-161540000D01*
X110640000Y-159940000D01*
X112240000Y-159940000D01*
X112240000Y-161540000D01*
G37*
G36*
X114212228Y-159974448D02*
G01*
X114357117Y-160034463D01*
X114487515Y-160121592D01*
X114598408Y-160232485D01*
X114685537Y-160362883D01*
X114745552Y-160507772D01*
X114776148Y-160661586D01*
X114776148Y-160818414D01*
X114745552Y-160972228D01*
X114685537Y-161117117D01*
X114598408Y-161247515D01*
X114487515Y-161358408D01*
X114357117Y-161445537D01*
X114212228Y-161505552D01*
X114058414Y-161536148D01*
X113901586Y-161536148D01*
X113747772Y-161505552D01*
X113602883Y-161445537D01*
X113472485Y-161358408D01*
X113361592Y-161247515D01*
X113274463Y-161117117D01*
X113214448Y-160972228D01*
X113183852Y-160818414D01*
X113183852Y-160661586D01*
X113214448Y-160507772D01*
X113274463Y-160362883D01*
X113361592Y-160232485D01*
X113472485Y-160121592D01*
X113602883Y-160034463D01*
X113747772Y-159974448D01*
X113901586Y-159943852D01*
X114058414Y-159943852D01*
X114212228Y-159974448D01*
G37*
G36*
X116752228Y-159974448D02*
G01*
X116897117Y-160034463D01*
X117027515Y-160121592D01*
X117138408Y-160232485D01*
X117225537Y-160362883D01*
X117285552Y-160507772D01*
X117316148Y-160661586D01*
X117316148Y-160818414D01*
X117285552Y-160972228D01*
X117225537Y-161117117D01*
X117138408Y-161247515D01*
X117027515Y-161358408D01*
X116897117Y-161445537D01*
X116752228Y-161505552D01*
X116598414Y-161536148D01*
X116441586Y-161536148D01*
X116287772Y-161505552D01*
X116142883Y-161445537D01*
X116012485Y-161358408D01*
X115901592Y-161247515D01*
X115814463Y-161117117D01*
X115754448Y-160972228D01*
X115723852Y-160818414D01*
X115723852Y-160661586D01*
X115754448Y-160507772D01*
X115814463Y-160362883D01*
X115901592Y-160232485D01*
X116012485Y-160121592D01*
X116142883Y-160034463D01*
X116287772Y-159974448D01*
X116441586Y-159943852D01*
X116598414Y-159943852D01*
X116752228Y-159974448D01*
G37*
G36*
X119292228Y-159974448D02*
G01*
X119437117Y-160034463D01*
X119567515Y-160121592D01*
X119678408Y-160232485D01*
X119765537Y-160362883D01*
X119825552Y-160507772D01*
X119856148Y-160661586D01*
X119856148Y-160818414D01*
X119825552Y-160972228D01*
X119765537Y-161117117D01*
X119678408Y-161247515D01*
X119567515Y-161358408D01*
X119437117Y-161445537D01*
X119292228Y-161505552D01*
X119138414Y-161536148D01*
X118981586Y-161536148D01*
X118827772Y-161505552D01*
X118682883Y-161445537D01*
X118552485Y-161358408D01*
X118441592Y-161247515D01*
X118354463Y-161117117D01*
X118294448Y-160972228D01*
X118263852Y-160818414D01*
X118263852Y-160661586D01*
X118294448Y-160507772D01*
X118354463Y-160362883D01*
X118441592Y-160232485D01*
X118552485Y-160121592D01*
X118682883Y-160034463D01*
X118827772Y-159974448D01*
X118981586Y-159943852D01*
X119138414Y-159943852D01*
X119292228Y-159974448D01*
G37*
G36*
X121832228Y-159974448D02*
G01*
X121977117Y-160034463D01*
X122107515Y-160121592D01*
X122218408Y-160232485D01*
X122305537Y-160362883D01*
X122365552Y-160507772D01*
X122396148Y-160661586D01*
X122396148Y-160818414D01*
X122365552Y-160972228D01*
X122305537Y-161117117D01*
X122218408Y-161247515D01*
X122107515Y-161358408D01*
X121977117Y-161445537D01*
X121832228Y-161505552D01*
X121678414Y-161536148D01*
X121521586Y-161536148D01*
X121367772Y-161505552D01*
X121222883Y-161445537D01*
X121092485Y-161358408D01*
X120981592Y-161247515D01*
X120894463Y-161117117D01*
X120834448Y-160972228D01*
X120803852Y-160818414D01*
X120803852Y-160661586D01*
X120834448Y-160507772D01*
X120894463Y-160362883D01*
X120981592Y-160232485D01*
X121092485Y-160121592D01*
X121222883Y-160034463D01*
X121367772Y-159974448D01*
X121521586Y-159943852D01*
X121678414Y-159943852D01*
X121832228Y-159974448D01*
G37*
G36*
X124372228Y-159974448D02*
G01*
X124517117Y-160034463D01*
X124647515Y-160121592D01*
X124758408Y-160232485D01*
X124845537Y-160362883D01*
X124905552Y-160507772D01*
X124936148Y-160661586D01*
X124936148Y-160818414D01*
X124905552Y-160972228D01*
X124845537Y-161117117D01*
X124758408Y-161247515D01*
X124647515Y-161358408D01*
X124517117Y-161445537D01*
X124372228Y-161505552D01*
X124218414Y-161536148D01*
X124061586Y-161536148D01*
X123907772Y-161505552D01*
X123762883Y-161445537D01*
X123632485Y-161358408D01*
X123521592Y-161247515D01*
X123434463Y-161117117D01*
X123374448Y-160972228D01*
X123343852Y-160818414D01*
X123343852Y-160661586D01*
X123374448Y-160507772D01*
X123434463Y-160362883D01*
X123521592Y-160232485D01*
X123632485Y-160121592D01*
X123762883Y-160034463D01*
X123907772Y-159974448D01*
X124061586Y-159943852D01*
X124218414Y-159943852D01*
X124372228Y-159974448D01*
G37*
G36*
X126912228Y-159974448D02*
G01*
X127057117Y-160034463D01*
X127187515Y-160121592D01*
X127298408Y-160232485D01*
X127385537Y-160362883D01*
X127445552Y-160507772D01*
X127476148Y-160661586D01*
X127476148Y-160818414D01*
X127445552Y-160972228D01*
X127385537Y-161117117D01*
X127298408Y-161247515D01*
X127187515Y-161358408D01*
X127057117Y-161445537D01*
X126912228Y-161505552D01*
X126758414Y-161536148D01*
X126601586Y-161536148D01*
X126447772Y-161505552D01*
X126302883Y-161445537D01*
X126172485Y-161358408D01*
X126061592Y-161247515D01*
X125974463Y-161117117D01*
X125914448Y-160972228D01*
X125883852Y-160818414D01*
X125883852Y-160661586D01*
X125914448Y-160507772D01*
X125974463Y-160362883D01*
X126061592Y-160232485D01*
X126172485Y-160121592D01*
X126302883Y-160034463D01*
X126447772Y-159974448D01*
X126601586Y-159943852D01*
X126758414Y-159943852D01*
X126912228Y-159974448D01*
G37*
G36*
X129452228Y-159974448D02*
G01*
X129597117Y-160034463D01*
X129727515Y-160121592D01*
X129838408Y-160232485D01*
X129925537Y-160362883D01*
X129985552Y-160507772D01*
X130016148Y-160661586D01*
X130016148Y-160818414D01*
X129985552Y-160972228D01*
X129925537Y-161117117D01*
X129838408Y-161247515D01*
X129727515Y-161358408D01*
X129597117Y-161445537D01*
X129452228Y-161505552D01*
X129298414Y-161536148D01*
X129141586Y-161536148D01*
X128987772Y-161505552D01*
X128842883Y-161445537D01*
X128712485Y-161358408D01*
X128601592Y-161247515D01*
X128514463Y-161117117D01*
X128454448Y-160972228D01*
X128423852Y-160818414D01*
X128423852Y-160661586D01*
X128454448Y-160507772D01*
X128514463Y-160362883D01*
X128601592Y-160232485D01*
X128712485Y-160121592D01*
X128842883Y-160034463D01*
X128987772Y-159974448D01*
X129141586Y-159943852D01*
X129298414Y-159943852D01*
X129452228Y-159974448D01*
G37*
G36*
X131992228Y-159974448D02*
G01*
X132137117Y-160034463D01*
X132267515Y-160121592D01*
X132378408Y-160232485D01*
X132465537Y-160362883D01*
X132525552Y-160507772D01*
X132556148Y-160661586D01*
X132556148Y-160818414D01*
X132525552Y-160972228D01*
X132465537Y-161117117D01*
X132378408Y-161247515D01*
X132267515Y-161358408D01*
X132137117Y-161445537D01*
X131992228Y-161505552D01*
X131838414Y-161536148D01*
X131681586Y-161536148D01*
X131527772Y-161505552D01*
X131382883Y-161445537D01*
X131252485Y-161358408D01*
X131141592Y-161247515D01*
X131054463Y-161117117D01*
X130994448Y-160972228D01*
X130963852Y-160818414D01*
X130963852Y-160661586D01*
X130994448Y-160507772D01*
X131054463Y-160362883D01*
X131141592Y-160232485D01*
X131252485Y-160121592D01*
X131382883Y-160034463D01*
X131527772Y-159974448D01*
X131681586Y-159943852D01*
X131838414Y-159943852D01*
X131992228Y-159974448D01*
G37*
G36*
X134532228Y-159974448D02*
G01*
X134677117Y-160034463D01*
X134807515Y-160121592D01*
X134918408Y-160232485D01*
X135005537Y-160362883D01*
X135065552Y-160507772D01*
X135096148Y-160661586D01*
X135096148Y-160818414D01*
X135065552Y-160972228D01*
X135005537Y-161117117D01*
X134918408Y-161247515D01*
X134807515Y-161358408D01*
X134677117Y-161445537D01*
X134532228Y-161505552D01*
X134378414Y-161536148D01*
X134221586Y-161536148D01*
X134067772Y-161505552D01*
X133922883Y-161445537D01*
X133792485Y-161358408D01*
X133681592Y-161247515D01*
X133594463Y-161117117D01*
X133534448Y-160972228D01*
X133503852Y-160818414D01*
X133503852Y-160661586D01*
X133534448Y-160507772D01*
X133594463Y-160362883D01*
X133681592Y-160232485D01*
X133792485Y-160121592D01*
X133922883Y-160034463D01*
X134067772Y-159974448D01*
X134221586Y-159943852D01*
X134378414Y-159943852D01*
X134532228Y-159974448D01*
G37*
G36*
X137072228Y-159974448D02*
G01*
X137217117Y-160034463D01*
X137347515Y-160121592D01*
X137458408Y-160232485D01*
X137545537Y-160362883D01*
X137605552Y-160507772D01*
X137636148Y-160661586D01*
X137636148Y-160818414D01*
X137605552Y-160972228D01*
X137545537Y-161117117D01*
X137458408Y-161247515D01*
X137347515Y-161358408D01*
X137217117Y-161445537D01*
X137072228Y-161505552D01*
X136918414Y-161536148D01*
X136761586Y-161536148D01*
X136607772Y-161505552D01*
X136462883Y-161445537D01*
X136332485Y-161358408D01*
X136221592Y-161247515D01*
X136134463Y-161117117D01*
X136074448Y-160972228D01*
X136043852Y-160818414D01*
X136043852Y-160661586D01*
X136074448Y-160507772D01*
X136134463Y-160362883D01*
X136221592Y-160232485D01*
X136332485Y-160121592D01*
X136462883Y-160034463D01*
X136607772Y-159974448D01*
X136761586Y-159943852D01*
X136918414Y-159943852D01*
X137072228Y-159974448D01*
G37*
G36*
X139612228Y-159974448D02*
G01*
X139757117Y-160034463D01*
X139887515Y-160121592D01*
X139998408Y-160232485D01*
X140085537Y-160362883D01*
X140145552Y-160507772D01*
X140176148Y-160661586D01*
X140176148Y-160818414D01*
X140145552Y-160972228D01*
X140085537Y-161117117D01*
X139998408Y-161247515D01*
X139887515Y-161358408D01*
X139757117Y-161445537D01*
X139612228Y-161505552D01*
X139458414Y-161536148D01*
X139301586Y-161536148D01*
X139147772Y-161505552D01*
X139002883Y-161445537D01*
X138872485Y-161358408D01*
X138761592Y-161247515D01*
X138674463Y-161117117D01*
X138614448Y-160972228D01*
X138583852Y-160818414D01*
X138583852Y-160661586D01*
X138614448Y-160507772D01*
X138674463Y-160362883D01*
X138761592Y-160232485D01*
X138872485Y-160121592D01*
X139002883Y-160034463D01*
X139147772Y-159974448D01*
X139301586Y-159943852D01*
X139458414Y-159943852D01*
X139612228Y-159974448D01*
G37*
G36*
X142152228Y-159974448D02*
G01*
X142297117Y-160034463D01*
X142427515Y-160121592D01*
X142538408Y-160232485D01*
X142625537Y-160362883D01*
X142685552Y-160507772D01*
X142716148Y-160661586D01*
X142716148Y-160818414D01*
X142685552Y-160972228D01*
X142625537Y-161117117D01*
X142538408Y-161247515D01*
X142427515Y-161358408D01*
X142297117Y-161445537D01*
X142152228Y-161505552D01*
X141998414Y-161536148D01*
X141841586Y-161536148D01*
X141687772Y-161505552D01*
X141542883Y-161445537D01*
X141412485Y-161358408D01*
X141301592Y-161247515D01*
X141214463Y-161117117D01*
X141154448Y-160972228D01*
X141123852Y-160818414D01*
X141123852Y-160661586D01*
X141154448Y-160507772D01*
X141214463Y-160362883D01*
X141301592Y-160232485D01*
X141412485Y-160121592D01*
X141542883Y-160034463D01*
X141687772Y-159974448D01*
X141841586Y-159943852D01*
X141998414Y-159943852D01*
X142152228Y-159974448D01*
G37*
G36*
X144692228Y-159974448D02*
G01*
X144837117Y-160034463D01*
X144967515Y-160121592D01*
X145078408Y-160232485D01*
X145165537Y-160362883D01*
X145225552Y-160507772D01*
X145256148Y-160661586D01*
X145256148Y-160818414D01*
X145225552Y-160972228D01*
X145165537Y-161117117D01*
X145078408Y-161247515D01*
X144967515Y-161358408D01*
X144837117Y-161445537D01*
X144692228Y-161505552D01*
X144538414Y-161536148D01*
X144381586Y-161536148D01*
X144227772Y-161505552D01*
X144082883Y-161445537D01*
X143952485Y-161358408D01*
X143841592Y-161247515D01*
X143754463Y-161117117D01*
X143694448Y-160972228D01*
X143663852Y-160818414D01*
X143663852Y-160661586D01*
X143694448Y-160507772D01*
X143754463Y-160362883D01*
X143841592Y-160232485D01*
X143952485Y-160121592D01*
X144082883Y-160034463D01*
X144227772Y-159974448D01*
X144381586Y-159943852D01*
X144538414Y-159943852D01*
X144692228Y-159974448D01*
G37*
G36*
X147232228Y-159974448D02*
G01*
X147377117Y-160034463D01*
X147507515Y-160121592D01*
X147618408Y-160232485D01*
X147705537Y-160362883D01*
X147765552Y-160507772D01*
X147796148Y-160661586D01*
X147796148Y-160818414D01*
X147765552Y-160972228D01*
X147705537Y-161117117D01*
X147618408Y-161247515D01*
X147507515Y-161358408D01*
X147377117Y-161445537D01*
X147232228Y-161505552D01*
X147078414Y-161536148D01*
X146921586Y-161536148D01*
X146767772Y-161505552D01*
X146622883Y-161445537D01*
X146492485Y-161358408D01*
X146381592Y-161247515D01*
X146294463Y-161117117D01*
X146234448Y-160972228D01*
X146203852Y-160818414D01*
X146203852Y-160661586D01*
X146234448Y-160507772D01*
X146294463Y-160362883D01*
X146381592Y-160232485D01*
X146492485Y-160121592D01*
X146622883Y-160034463D01*
X146767772Y-159974448D01*
X146921586Y-159943852D01*
X147078414Y-159943852D01*
X147232228Y-159974448D01*
G37*
G36*
X149772228Y-159974448D02*
G01*
X149917117Y-160034463D01*
X150047515Y-160121592D01*
X150158408Y-160232485D01*
X150245537Y-160362883D01*
X150305552Y-160507772D01*
X150336148Y-160661586D01*
X150336148Y-160818414D01*
X150305552Y-160972228D01*
X150245537Y-161117117D01*
X150158408Y-161247515D01*
X150047515Y-161358408D01*
X149917117Y-161445537D01*
X149772228Y-161505552D01*
X149618414Y-161536148D01*
X149461586Y-161536148D01*
X149307772Y-161505552D01*
X149162883Y-161445537D01*
X149032485Y-161358408D01*
X148921592Y-161247515D01*
X148834463Y-161117117D01*
X148774448Y-160972228D01*
X148743852Y-160818414D01*
X148743852Y-160661586D01*
X148774448Y-160507772D01*
X148834463Y-160362883D01*
X148921592Y-160232485D01*
X149032485Y-160121592D01*
X149162883Y-160034463D01*
X149307772Y-159974448D01*
X149461586Y-159943852D01*
X149618414Y-159943852D01*
X149772228Y-159974448D01*
G37*
G36*
X152312228Y-159974448D02*
G01*
X152457117Y-160034463D01*
X152587515Y-160121592D01*
X152698408Y-160232485D01*
X152785537Y-160362883D01*
X152845552Y-160507772D01*
X152876148Y-160661586D01*
X152876148Y-160818414D01*
X152845552Y-160972228D01*
X152785537Y-161117117D01*
X152698408Y-161247515D01*
X152587515Y-161358408D01*
X152457117Y-161445537D01*
X152312228Y-161505552D01*
X152158414Y-161536148D01*
X152001586Y-161536148D01*
X151847772Y-161505552D01*
X151702883Y-161445537D01*
X151572485Y-161358408D01*
X151461592Y-161247515D01*
X151374463Y-161117117D01*
X151314448Y-160972228D01*
X151283852Y-160818414D01*
X151283852Y-160661586D01*
X151314448Y-160507772D01*
X151374463Y-160362883D01*
X151461592Y-160232485D01*
X151572485Y-160121592D01*
X151702883Y-160034463D01*
X151847772Y-159974448D01*
X152001586Y-159943852D01*
X152158414Y-159943852D01*
X152312228Y-159974448D01*
G37*
G36*
X74160000Y-160310000D02*
G01*
X72460000Y-160310000D01*
X72460000Y-158610000D01*
X74160000Y-158610000D01*
X74160000Y-160310000D01*
G37*
G36*
X85065000Y-160065000D02*
G01*
X83935000Y-160065000D01*
X83935000Y-158935000D01*
X85065000Y-158935000D01*
X85065000Y-160065000D01*
G37*
G36*
X87104523Y-158939834D02*
G01*
X87113747Y-158939834D01*
X87140318Y-158946953D01*
X87203924Y-158959605D01*
X87233946Y-158972041D01*
X87256216Y-158978008D01*
X87276184Y-158989536D01*
X87306203Y-159001971D01*
X87360118Y-159037996D01*
X87383950Y-159051755D01*
X87390472Y-159058277D01*
X87398245Y-159063471D01*
X87476528Y-159141754D01*
X87481721Y-159149526D01*
X87488245Y-159156050D01*
X87502005Y-159179884D01*
X87538028Y-159233796D01*
X87550461Y-159263812D01*
X87561992Y-159283784D01*
X87567959Y-159306057D01*
X87580394Y-159336075D01*
X87593044Y-159399676D01*
X87600166Y-159426253D01*
X87600166Y-159435476D01*
X87601990Y-159444647D01*
X87601990Y-159555352D01*
X87600166Y-159564522D01*
X87600166Y-159573747D01*
X87593044Y-159600326D01*
X87580394Y-159663924D01*
X87567960Y-159693940D01*
X87561992Y-159716216D01*
X87550459Y-159736190D01*
X87538028Y-159766203D01*
X87502010Y-159820107D01*
X87488245Y-159843950D01*
X87481719Y-159850475D01*
X87476528Y-159858245D01*
X87398245Y-159936528D01*
X87390475Y-159941719D01*
X87383950Y-159948245D01*
X87360107Y-159962010D01*
X87306203Y-159998028D01*
X87276190Y-160010459D01*
X87256216Y-160021992D01*
X87233940Y-160027960D01*
X87203924Y-160040394D01*
X87140324Y-160053044D01*
X87113747Y-160060166D01*
X87104523Y-160060166D01*
X87095353Y-160061990D01*
X86984647Y-160061990D01*
X86975477Y-160060166D01*
X86966253Y-160060166D01*
X86939676Y-160053044D01*
X86876075Y-160040394D01*
X86846057Y-160027959D01*
X86823784Y-160021992D01*
X86803812Y-160010461D01*
X86773796Y-159998028D01*
X86719884Y-159962005D01*
X86696050Y-159948245D01*
X86689526Y-159941721D01*
X86681754Y-159936528D01*
X86603471Y-159858245D01*
X86598277Y-159850472D01*
X86591755Y-159843950D01*
X86577996Y-159820118D01*
X86541971Y-159766203D01*
X86529536Y-159736184D01*
X86518008Y-159716216D01*
X86512041Y-159693946D01*
X86499605Y-159663924D01*
X86486954Y-159600320D01*
X86479834Y-159573747D01*
X86479834Y-159564522D01*
X86478010Y-159555352D01*
X86478010Y-159444647D01*
X86479834Y-159435476D01*
X86479834Y-159426253D01*
X86486953Y-159399682D01*
X86499605Y-159336075D01*
X86512041Y-159306050D01*
X86518008Y-159283784D01*
X86529535Y-159263818D01*
X86541971Y-159233796D01*
X86578000Y-159179873D01*
X86591755Y-159156050D01*
X86598275Y-159149529D01*
X86603471Y-159141754D01*
X86681754Y-159063471D01*
X86689529Y-159058275D01*
X86696050Y-159051755D01*
X86719873Y-159038000D01*
X86773796Y-159001971D01*
X86803818Y-158989535D01*
X86823784Y-158978008D01*
X86846050Y-158972041D01*
X86876075Y-158959605D01*
X86939682Y-158946953D01*
X86966253Y-158939834D01*
X86975477Y-158939834D01*
X86984647Y-158938010D01*
X87095353Y-158938010D01*
X87104523Y-158939834D01*
G37*
G36*
X89644523Y-158939834D02*
G01*
X89653747Y-158939834D01*
X89680318Y-158946953D01*
X89743924Y-158959605D01*
X89773946Y-158972041D01*
X89796216Y-158978008D01*
X89816184Y-158989536D01*
X89846203Y-159001971D01*
X89900118Y-159037996D01*
X89923950Y-159051755D01*
X89930472Y-159058277D01*
X89938245Y-159063471D01*
X90016528Y-159141754D01*
X90021721Y-159149526D01*
X90028245Y-159156050D01*
X90042005Y-159179884D01*
X90078028Y-159233796D01*
X90090461Y-159263812D01*
X90101992Y-159283784D01*
X90107959Y-159306057D01*
X90120394Y-159336075D01*
X90133044Y-159399676D01*
X90140166Y-159426253D01*
X90140166Y-159435476D01*
X90141990Y-159444647D01*
X90141990Y-159555352D01*
X90140166Y-159564522D01*
X90140166Y-159573747D01*
X90133044Y-159600326D01*
X90120394Y-159663924D01*
X90107960Y-159693940D01*
X90101992Y-159716216D01*
X90090459Y-159736190D01*
X90078028Y-159766203D01*
X90042010Y-159820107D01*
X90028245Y-159843950D01*
X90021719Y-159850475D01*
X90016528Y-159858245D01*
X89938245Y-159936528D01*
X89930475Y-159941719D01*
X89923950Y-159948245D01*
X89900107Y-159962010D01*
X89846203Y-159998028D01*
X89816190Y-160010459D01*
X89796216Y-160021992D01*
X89773940Y-160027960D01*
X89743924Y-160040394D01*
X89680324Y-160053044D01*
X89653747Y-160060166D01*
X89644523Y-160060166D01*
X89635353Y-160061990D01*
X89524647Y-160061990D01*
X89515477Y-160060166D01*
X89506253Y-160060166D01*
X89479676Y-160053044D01*
X89416075Y-160040394D01*
X89386057Y-160027959D01*
X89363784Y-160021992D01*
X89343812Y-160010461D01*
X89313796Y-159998028D01*
X89259884Y-159962005D01*
X89236050Y-159948245D01*
X89229526Y-159941721D01*
X89221754Y-159936528D01*
X89143471Y-159858245D01*
X89138277Y-159850472D01*
X89131755Y-159843950D01*
X89117996Y-159820118D01*
X89081971Y-159766203D01*
X89069536Y-159736184D01*
X89058008Y-159716216D01*
X89052041Y-159693946D01*
X89039605Y-159663924D01*
X89026954Y-159600320D01*
X89019834Y-159573747D01*
X89019834Y-159564522D01*
X89018010Y-159555352D01*
X89018010Y-159444647D01*
X89019834Y-159435476D01*
X89019834Y-159426253D01*
X89026953Y-159399682D01*
X89039605Y-159336075D01*
X89052041Y-159306050D01*
X89058008Y-159283784D01*
X89069535Y-159263818D01*
X89081971Y-159233796D01*
X89118000Y-159179873D01*
X89131755Y-159156050D01*
X89138275Y-159149529D01*
X89143471Y-159141754D01*
X89221754Y-159063471D01*
X89229529Y-159058275D01*
X89236050Y-159051755D01*
X89259873Y-159038000D01*
X89313796Y-159001971D01*
X89343818Y-158989535D01*
X89363784Y-158978008D01*
X89386050Y-158972041D01*
X89416075Y-158959605D01*
X89479682Y-158946953D01*
X89506253Y-158939834D01*
X89515477Y-158939834D01*
X89524647Y-158938010D01*
X89635353Y-158938010D01*
X89644523Y-158939834D01*
G37*
G36*
X92184523Y-158939834D02*
G01*
X92193747Y-158939834D01*
X92220318Y-158946953D01*
X92283924Y-158959605D01*
X92313946Y-158972041D01*
X92336216Y-158978008D01*
X92356184Y-158989536D01*
X92386203Y-159001971D01*
X92440118Y-159037996D01*
X92463950Y-159051755D01*
X92470472Y-159058277D01*
X92478245Y-159063471D01*
X92556528Y-159141754D01*
X92561721Y-159149526D01*
X92568245Y-159156050D01*
X92582005Y-159179884D01*
X92618028Y-159233796D01*
X92630461Y-159263812D01*
X92641992Y-159283784D01*
X92647959Y-159306057D01*
X92660394Y-159336075D01*
X92673044Y-159399676D01*
X92680166Y-159426253D01*
X92680166Y-159435476D01*
X92681990Y-159444647D01*
X92681990Y-159555352D01*
X92680166Y-159564522D01*
X92680166Y-159573747D01*
X92673044Y-159600326D01*
X92660394Y-159663924D01*
X92647960Y-159693940D01*
X92641992Y-159716216D01*
X92630459Y-159736190D01*
X92618028Y-159766203D01*
X92582010Y-159820107D01*
X92568245Y-159843950D01*
X92561719Y-159850475D01*
X92556528Y-159858245D01*
X92478245Y-159936528D01*
X92470475Y-159941719D01*
X92463950Y-159948245D01*
X92440107Y-159962010D01*
X92386203Y-159998028D01*
X92356190Y-160010459D01*
X92336216Y-160021992D01*
X92313940Y-160027960D01*
X92283924Y-160040394D01*
X92220324Y-160053044D01*
X92193747Y-160060166D01*
X92184523Y-160060166D01*
X92175353Y-160061990D01*
X92064647Y-160061990D01*
X92055477Y-160060166D01*
X92046253Y-160060166D01*
X92019676Y-160053044D01*
X91956075Y-160040394D01*
X91926057Y-160027959D01*
X91903784Y-160021992D01*
X91883812Y-160010461D01*
X91853796Y-159998028D01*
X91799884Y-159962005D01*
X91776050Y-159948245D01*
X91769526Y-159941721D01*
X91761754Y-159936528D01*
X91683471Y-159858245D01*
X91678277Y-159850472D01*
X91671755Y-159843950D01*
X91657996Y-159820118D01*
X91621971Y-159766203D01*
X91609536Y-159736184D01*
X91598008Y-159716216D01*
X91592041Y-159693946D01*
X91579605Y-159663924D01*
X91566954Y-159600320D01*
X91559834Y-159573747D01*
X91559834Y-159564522D01*
X91558010Y-159555352D01*
X91558010Y-159444647D01*
X91559834Y-159435476D01*
X91559834Y-159426253D01*
X91566953Y-159399682D01*
X91579605Y-159336075D01*
X91592041Y-159306050D01*
X91598008Y-159283784D01*
X91609535Y-159263818D01*
X91621971Y-159233796D01*
X91658000Y-159179873D01*
X91671755Y-159156050D01*
X91678275Y-159149529D01*
X91683471Y-159141754D01*
X91761754Y-159063471D01*
X91769529Y-159058275D01*
X91776050Y-159051755D01*
X91799873Y-159038000D01*
X91853796Y-159001971D01*
X91883818Y-158989535D01*
X91903784Y-158978008D01*
X91926050Y-158972041D01*
X91956075Y-158959605D01*
X92019682Y-158946953D01*
X92046253Y-158939834D01*
X92055477Y-158939834D01*
X92064647Y-158938010D01*
X92175353Y-158938010D01*
X92184523Y-158939834D01*
G37*
G36*
X94724523Y-158939834D02*
G01*
X94733747Y-158939834D01*
X94760318Y-158946953D01*
X94823924Y-158959605D01*
X94853946Y-158972041D01*
X94876216Y-158978008D01*
X94896184Y-158989536D01*
X94926203Y-159001971D01*
X94980118Y-159037996D01*
X95003950Y-159051755D01*
X95010472Y-159058277D01*
X95018245Y-159063471D01*
X95096528Y-159141754D01*
X95101721Y-159149526D01*
X95108245Y-159156050D01*
X95122005Y-159179884D01*
X95158028Y-159233796D01*
X95170461Y-159263812D01*
X95181992Y-159283784D01*
X95187959Y-159306057D01*
X95200394Y-159336075D01*
X95213044Y-159399676D01*
X95220166Y-159426253D01*
X95220166Y-159435476D01*
X95221990Y-159444647D01*
X95221990Y-159555352D01*
X95220166Y-159564522D01*
X95220166Y-159573747D01*
X95213044Y-159600326D01*
X95200394Y-159663924D01*
X95187960Y-159693940D01*
X95181992Y-159716216D01*
X95170459Y-159736190D01*
X95158028Y-159766203D01*
X95122010Y-159820107D01*
X95108245Y-159843950D01*
X95101719Y-159850475D01*
X95096528Y-159858245D01*
X95018245Y-159936528D01*
X95010475Y-159941719D01*
X95003950Y-159948245D01*
X94980107Y-159962010D01*
X94926203Y-159998028D01*
X94896190Y-160010459D01*
X94876216Y-160021992D01*
X94853940Y-160027960D01*
X94823924Y-160040394D01*
X94760324Y-160053044D01*
X94733747Y-160060166D01*
X94724523Y-160060166D01*
X94715353Y-160061990D01*
X94604647Y-160061990D01*
X94595477Y-160060166D01*
X94586253Y-160060166D01*
X94559676Y-160053044D01*
X94496075Y-160040394D01*
X94466057Y-160027959D01*
X94443784Y-160021992D01*
X94423812Y-160010461D01*
X94393796Y-159998028D01*
X94339884Y-159962005D01*
X94316050Y-159948245D01*
X94309526Y-159941721D01*
X94301754Y-159936528D01*
X94223471Y-159858245D01*
X94218277Y-159850472D01*
X94211755Y-159843950D01*
X94197996Y-159820118D01*
X94161971Y-159766203D01*
X94149536Y-159736184D01*
X94138008Y-159716216D01*
X94132041Y-159693946D01*
X94119605Y-159663924D01*
X94106954Y-159600320D01*
X94099834Y-159573747D01*
X94099834Y-159564522D01*
X94098010Y-159555352D01*
X94098010Y-159444647D01*
X94099834Y-159435476D01*
X94099834Y-159426253D01*
X94106953Y-159399682D01*
X94119605Y-159336075D01*
X94132041Y-159306050D01*
X94138008Y-159283784D01*
X94149535Y-159263818D01*
X94161971Y-159233796D01*
X94198000Y-159179873D01*
X94211755Y-159156050D01*
X94218275Y-159149529D01*
X94223471Y-159141754D01*
X94301754Y-159063471D01*
X94309529Y-159058275D01*
X94316050Y-159051755D01*
X94339873Y-159038000D01*
X94393796Y-159001971D01*
X94423818Y-158989535D01*
X94443784Y-158978008D01*
X94466050Y-158972041D01*
X94496075Y-158959605D01*
X94559682Y-158946953D01*
X94586253Y-158939834D01*
X94595477Y-158939834D01*
X94604647Y-158938010D01*
X94715353Y-158938010D01*
X94724523Y-158939834D01*
G37*
G36*
X97264523Y-158939834D02*
G01*
X97273747Y-158939834D01*
X97300318Y-158946953D01*
X97363924Y-158959605D01*
X97393946Y-158972041D01*
X97416216Y-158978008D01*
X97436184Y-158989536D01*
X97466203Y-159001971D01*
X97520118Y-159037996D01*
X97543950Y-159051755D01*
X97550472Y-159058277D01*
X97558245Y-159063471D01*
X97636528Y-159141754D01*
X97641721Y-159149526D01*
X97648245Y-159156050D01*
X97662005Y-159179884D01*
X97698028Y-159233796D01*
X97710461Y-159263812D01*
X97721992Y-159283784D01*
X97727959Y-159306057D01*
X97740394Y-159336075D01*
X97753044Y-159399676D01*
X97760166Y-159426253D01*
X97760166Y-159435476D01*
X97761990Y-159444647D01*
X97761990Y-159555352D01*
X97760166Y-159564522D01*
X97760166Y-159573747D01*
X97753044Y-159600326D01*
X97740394Y-159663924D01*
X97727960Y-159693940D01*
X97721992Y-159716216D01*
X97710459Y-159736190D01*
X97698028Y-159766203D01*
X97662010Y-159820107D01*
X97648245Y-159843950D01*
X97641719Y-159850475D01*
X97636528Y-159858245D01*
X97558245Y-159936528D01*
X97550475Y-159941719D01*
X97543950Y-159948245D01*
X97520107Y-159962010D01*
X97466203Y-159998028D01*
X97436190Y-160010459D01*
X97416216Y-160021992D01*
X97393940Y-160027960D01*
X97363924Y-160040394D01*
X97300324Y-160053044D01*
X97273747Y-160060166D01*
X97264523Y-160060166D01*
X97255353Y-160061990D01*
X97144647Y-160061990D01*
X97135477Y-160060166D01*
X97126253Y-160060166D01*
X97099676Y-160053044D01*
X97036075Y-160040394D01*
X97006057Y-160027959D01*
X96983784Y-160021992D01*
X96963812Y-160010461D01*
X96933796Y-159998028D01*
X96879884Y-159962005D01*
X96856050Y-159948245D01*
X96849526Y-159941721D01*
X96841754Y-159936528D01*
X96763471Y-159858245D01*
X96758277Y-159850472D01*
X96751755Y-159843950D01*
X96737996Y-159820118D01*
X96701971Y-159766203D01*
X96689536Y-159736184D01*
X96678008Y-159716216D01*
X96672041Y-159693946D01*
X96659605Y-159663924D01*
X96646954Y-159600320D01*
X96639834Y-159573747D01*
X96639834Y-159564522D01*
X96638010Y-159555352D01*
X96638010Y-159444647D01*
X96639834Y-159435476D01*
X96639834Y-159426253D01*
X96646953Y-159399682D01*
X96659605Y-159336075D01*
X96672041Y-159306050D01*
X96678008Y-159283784D01*
X96689535Y-159263818D01*
X96701971Y-159233796D01*
X96738000Y-159179873D01*
X96751755Y-159156050D01*
X96758275Y-159149529D01*
X96763471Y-159141754D01*
X96841754Y-159063471D01*
X96849529Y-159058275D01*
X96856050Y-159051755D01*
X96879873Y-159038000D01*
X96933796Y-159001971D01*
X96963818Y-158989535D01*
X96983784Y-158978008D01*
X97006050Y-158972041D01*
X97036075Y-158959605D01*
X97099682Y-158946953D01*
X97126253Y-158939834D01*
X97135477Y-158939834D01*
X97144647Y-158938010D01*
X97255353Y-158938010D01*
X97264523Y-158939834D01*
G37*
G36*
X99804523Y-158939834D02*
G01*
X99813747Y-158939834D01*
X99840318Y-158946953D01*
X99903924Y-158959605D01*
X99933946Y-158972041D01*
X99956216Y-158978008D01*
X99976184Y-158989536D01*
X100006203Y-159001971D01*
X100060118Y-159037996D01*
X100083950Y-159051755D01*
X100090472Y-159058277D01*
X100098245Y-159063471D01*
X100176528Y-159141754D01*
X100181721Y-159149526D01*
X100188245Y-159156050D01*
X100202005Y-159179884D01*
X100238028Y-159233796D01*
X100250461Y-159263812D01*
X100261992Y-159283784D01*
X100267959Y-159306057D01*
X100280394Y-159336075D01*
X100293044Y-159399676D01*
X100300166Y-159426253D01*
X100300166Y-159435476D01*
X100301990Y-159444647D01*
X100301990Y-159555352D01*
X100300166Y-159564522D01*
X100300166Y-159573747D01*
X100293044Y-159600326D01*
X100280394Y-159663924D01*
X100267960Y-159693940D01*
X100261992Y-159716216D01*
X100250459Y-159736190D01*
X100238028Y-159766203D01*
X100202010Y-159820107D01*
X100188245Y-159843950D01*
X100181719Y-159850475D01*
X100176528Y-159858245D01*
X100098245Y-159936528D01*
X100090475Y-159941719D01*
X100083950Y-159948245D01*
X100060107Y-159962010D01*
X100006203Y-159998028D01*
X99976190Y-160010459D01*
X99956216Y-160021992D01*
X99933940Y-160027960D01*
X99903924Y-160040394D01*
X99840324Y-160053044D01*
X99813747Y-160060166D01*
X99804523Y-160060166D01*
X99795353Y-160061990D01*
X99684647Y-160061990D01*
X99675477Y-160060166D01*
X99666253Y-160060166D01*
X99639676Y-160053044D01*
X99576075Y-160040394D01*
X99546057Y-160027959D01*
X99523784Y-160021992D01*
X99503812Y-160010461D01*
X99473796Y-159998028D01*
X99419884Y-159962005D01*
X99396050Y-159948245D01*
X99389526Y-159941721D01*
X99381754Y-159936528D01*
X99303471Y-159858245D01*
X99298277Y-159850472D01*
X99291755Y-159843950D01*
X99277996Y-159820118D01*
X99241971Y-159766203D01*
X99229536Y-159736184D01*
X99218008Y-159716216D01*
X99212041Y-159693946D01*
X99199605Y-159663924D01*
X99186954Y-159600320D01*
X99179834Y-159573747D01*
X99179834Y-159564522D01*
X99178010Y-159555352D01*
X99178010Y-159444647D01*
X99179834Y-159435476D01*
X99179834Y-159426253D01*
X99186953Y-159399682D01*
X99199605Y-159336075D01*
X99212041Y-159306050D01*
X99218008Y-159283784D01*
X99229535Y-159263818D01*
X99241971Y-159233796D01*
X99278000Y-159179873D01*
X99291755Y-159156050D01*
X99298275Y-159149529D01*
X99303471Y-159141754D01*
X99381754Y-159063471D01*
X99389529Y-159058275D01*
X99396050Y-159051755D01*
X99419873Y-159038000D01*
X99473796Y-159001971D01*
X99503818Y-158989535D01*
X99523784Y-158978008D01*
X99546050Y-158972041D01*
X99576075Y-158959605D01*
X99639682Y-158946953D01*
X99666253Y-158939834D01*
X99675477Y-158939834D01*
X99684647Y-158938010D01*
X99795353Y-158938010D01*
X99804523Y-158939834D01*
G37*
G36*
X102344523Y-158939834D02*
G01*
X102353747Y-158939834D01*
X102380318Y-158946953D01*
X102443924Y-158959605D01*
X102473946Y-158972041D01*
X102496216Y-158978008D01*
X102516184Y-158989536D01*
X102546203Y-159001971D01*
X102600118Y-159037996D01*
X102623950Y-159051755D01*
X102630472Y-159058277D01*
X102638245Y-159063471D01*
X102716528Y-159141754D01*
X102721721Y-159149526D01*
X102728245Y-159156050D01*
X102742005Y-159179884D01*
X102778028Y-159233796D01*
X102790461Y-159263812D01*
X102801992Y-159283784D01*
X102807959Y-159306057D01*
X102820394Y-159336075D01*
X102833044Y-159399676D01*
X102840166Y-159426253D01*
X102840166Y-159435476D01*
X102841990Y-159444647D01*
X102841990Y-159555352D01*
X102840166Y-159564522D01*
X102840166Y-159573747D01*
X102833044Y-159600326D01*
X102820394Y-159663924D01*
X102807960Y-159693940D01*
X102801992Y-159716216D01*
X102790459Y-159736190D01*
X102778028Y-159766203D01*
X102742010Y-159820107D01*
X102728245Y-159843950D01*
X102721719Y-159850475D01*
X102716528Y-159858245D01*
X102638245Y-159936528D01*
X102630475Y-159941719D01*
X102623950Y-159948245D01*
X102600107Y-159962010D01*
X102546203Y-159998028D01*
X102516190Y-160010459D01*
X102496216Y-160021992D01*
X102473940Y-160027960D01*
X102443924Y-160040394D01*
X102380324Y-160053044D01*
X102353747Y-160060166D01*
X102344523Y-160060166D01*
X102335353Y-160061990D01*
X102224647Y-160061990D01*
X102215477Y-160060166D01*
X102206253Y-160060166D01*
X102179676Y-160053044D01*
X102116075Y-160040394D01*
X102086057Y-160027959D01*
X102063784Y-160021992D01*
X102043812Y-160010461D01*
X102013796Y-159998028D01*
X101959884Y-159962005D01*
X101936050Y-159948245D01*
X101929526Y-159941721D01*
X101921754Y-159936528D01*
X101843471Y-159858245D01*
X101838277Y-159850472D01*
X101831755Y-159843950D01*
X101817996Y-159820118D01*
X101781971Y-159766203D01*
X101769536Y-159736184D01*
X101758008Y-159716216D01*
X101752041Y-159693946D01*
X101739605Y-159663924D01*
X101726954Y-159600320D01*
X101719834Y-159573747D01*
X101719834Y-159564522D01*
X101718010Y-159555352D01*
X101718010Y-159444647D01*
X101719834Y-159435476D01*
X101719834Y-159426253D01*
X101726953Y-159399682D01*
X101739605Y-159336075D01*
X101752041Y-159306050D01*
X101758008Y-159283784D01*
X101769535Y-159263818D01*
X101781971Y-159233796D01*
X101818000Y-159179873D01*
X101831755Y-159156050D01*
X101838275Y-159149529D01*
X101843471Y-159141754D01*
X101921754Y-159063471D01*
X101929529Y-159058275D01*
X101936050Y-159051755D01*
X101959873Y-159038000D01*
X102013796Y-159001971D01*
X102043818Y-158989535D01*
X102063784Y-158978008D01*
X102086050Y-158972041D01*
X102116075Y-158959605D01*
X102179682Y-158946953D01*
X102206253Y-158939834D01*
X102215477Y-158939834D01*
X102224647Y-158938010D01*
X102335353Y-158938010D01*
X102344523Y-158939834D01*
G37*
G36*
X60232228Y-158234448D02*
G01*
X60377117Y-158294463D01*
X60507515Y-158381592D01*
X60618408Y-158492485D01*
X60705537Y-158622883D01*
X60765552Y-158767772D01*
X60796148Y-158921586D01*
X60796148Y-159078414D01*
X60765552Y-159232228D01*
X60705537Y-159377117D01*
X60618408Y-159507515D01*
X60507515Y-159618408D01*
X60377117Y-159705537D01*
X60232228Y-159765552D01*
X60078414Y-159796148D01*
X59921586Y-159796148D01*
X59767772Y-159765552D01*
X59622883Y-159705537D01*
X59492485Y-159618408D01*
X59381592Y-159507515D01*
X59294463Y-159377117D01*
X59234448Y-159232228D01*
X59203852Y-159078414D01*
X59203852Y-158921586D01*
X59234448Y-158767772D01*
X59294463Y-158622883D01*
X59381592Y-158492485D01*
X59492485Y-158381592D01*
X59622883Y-158294463D01*
X59767772Y-158234448D01*
X59921586Y-158203852D01*
X60078414Y-158203852D01*
X60232228Y-158234448D01*
G37*
G36*
X67852228Y-158234448D02*
G01*
X67997117Y-158294463D01*
X68127515Y-158381592D01*
X68238408Y-158492485D01*
X68325537Y-158622883D01*
X68385552Y-158767772D01*
X68416148Y-158921586D01*
X68416148Y-159078414D01*
X68385552Y-159232228D01*
X68325537Y-159377117D01*
X68238408Y-159507515D01*
X68127515Y-159618408D01*
X67997117Y-159705537D01*
X67852228Y-159765552D01*
X67698414Y-159796148D01*
X67541586Y-159796148D01*
X67387772Y-159765552D01*
X67242883Y-159705537D01*
X67112485Y-159618408D01*
X67001592Y-159507515D01*
X66914463Y-159377117D01*
X66854448Y-159232228D01*
X66823852Y-159078414D01*
X66823852Y-158921586D01*
X66854448Y-158767772D01*
X66914463Y-158622883D01*
X67001592Y-158492485D01*
X67112485Y-158381592D01*
X67242883Y-158294463D01*
X67387772Y-158234448D01*
X67541586Y-158203852D01*
X67698414Y-158203852D01*
X67852228Y-158234448D01*
G37*
G36*
X64005942Y-151119065D02*
G01*
X64128193Y-151169703D01*
X64238215Y-151243218D01*
X64331782Y-151336785D01*
X64405297Y-151446807D01*
X64455935Y-151569058D01*
X64481750Y-151698838D01*
X64481750Y-151831162D01*
X64455935Y-151960942D01*
X64405297Y-152083193D01*
X64331782Y-152193215D01*
X64238215Y-152286782D01*
X64128193Y-152360297D01*
X64005942Y-152410935D01*
X63876162Y-152436750D01*
X63743838Y-152436750D01*
X63614058Y-152410935D01*
X63491807Y-152360297D01*
X63381785Y-152286782D01*
X63288218Y-152193215D01*
X63214703Y-152083193D01*
X63164065Y-151960942D01*
X63138250Y-151831162D01*
X63138250Y-151698838D01*
X63164065Y-151569058D01*
X63214703Y-151446807D01*
X63288218Y-151336785D01*
X63381785Y-151243218D01*
X63491807Y-151169703D01*
X63614058Y-151119065D01*
X63743838Y-151093250D01*
X63876162Y-151093250D01*
X64005942Y-151119065D01*
G37*
G36*
X66005942Y-151119065D02*
G01*
X66128193Y-151169703D01*
X66238215Y-151243218D01*
X66331782Y-151336785D01*
X66405297Y-151446807D01*
X66455935Y-151569058D01*
X66481750Y-151698838D01*
X66481750Y-151831162D01*
X66455935Y-151960942D01*
X66405297Y-152083193D01*
X66331782Y-152193215D01*
X66238215Y-152286782D01*
X66128193Y-152360297D01*
X66005942Y-152410935D01*
X65876162Y-152436750D01*
X65743838Y-152436750D01*
X65614058Y-152410935D01*
X65491807Y-152360297D01*
X65381785Y-152286782D01*
X65288218Y-152193215D01*
X65214703Y-152083193D01*
X65164065Y-151960942D01*
X65138250Y-151831162D01*
X65138250Y-151698838D01*
X65164065Y-151569058D01*
X65214703Y-151446807D01*
X65288218Y-151336785D01*
X65381785Y-151243218D01*
X65491807Y-151169703D01*
X65614058Y-151119065D01*
X65743838Y-151093250D01*
X65876162Y-151093250D01*
X66005942Y-151119065D01*
G37*
G36*
X73660000Y-152350000D02*
G01*
X71960000Y-152350000D01*
X71960000Y-150650000D01*
X73660000Y-150650000D01*
X73660000Y-152350000D01*
G37*
G36*
X75596742Y-150686601D02*
G01*
X75750687Y-150750367D01*
X75889234Y-150842941D01*
X76007059Y-150960766D01*
X76099633Y-151099313D01*
X76163399Y-151253258D01*
X76195907Y-151416685D01*
X76195907Y-151583315D01*
X76163399Y-151746742D01*
X76099633Y-151900687D01*
X76007059Y-152039234D01*
X75889234Y-152157059D01*
X75750687Y-152249633D01*
X75596742Y-152313399D01*
X75433315Y-152345907D01*
X75266685Y-152345907D01*
X75103258Y-152313399D01*
X74949313Y-152249633D01*
X74810766Y-152157059D01*
X74692941Y-152039234D01*
X74600367Y-151900687D01*
X74536601Y-151746742D01*
X74504093Y-151583315D01*
X74504093Y-151416685D01*
X74536601Y-151253258D01*
X74600367Y-151099313D01*
X74692941Y-150960766D01*
X74810766Y-150842941D01*
X74949313Y-150750367D01*
X75103258Y-150686601D01*
X75266685Y-150654093D01*
X75433315Y-150654093D01*
X75596742Y-150686601D01*
G37*
G36*
X84564523Y-150999834D02*
G01*
X84573747Y-150999834D01*
X84600318Y-151006953D01*
X84663924Y-151019605D01*
X84693946Y-151032041D01*
X84716216Y-151038008D01*
X84736184Y-151049536D01*
X84766203Y-151061971D01*
X84820118Y-151097996D01*
X84843950Y-151111755D01*
X84850472Y-151118277D01*
X84858245Y-151123471D01*
X84936528Y-151201754D01*
X84941721Y-151209526D01*
X84948245Y-151216050D01*
X84962005Y-151239884D01*
X84998028Y-151293796D01*
X85010461Y-151323812D01*
X85021992Y-151343784D01*
X85027959Y-151366057D01*
X85040394Y-151396075D01*
X85053044Y-151459676D01*
X85060166Y-151486253D01*
X85060166Y-151495476D01*
X85061990Y-151504647D01*
X85061990Y-151615352D01*
X85060166Y-151624522D01*
X85060166Y-151633747D01*
X85053044Y-151660326D01*
X85040394Y-151723924D01*
X85027960Y-151753940D01*
X85021992Y-151776216D01*
X85010459Y-151796190D01*
X84998028Y-151826203D01*
X84962010Y-151880107D01*
X84948245Y-151903950D01*
X84941719Y-151910475D01*
X84936528Y-151918245D01*
X84858245Y-151996528D01*
X84850475Y-152001719D01*
X84843950Y-152008245D01*
X84820107Y-152022010D01*
X84766203Y-152058028D01*
X84736190Y-152070459D01*
X84716216Y-152081992D01*
X84693940Y-152087960D01*
X84663924Y-152100394D01*
X84600324Y-152113044D01*
X84573747Y-152120166D01*
X84564523Y-152120166D01*
X84555353Y-152121990D01*
X84444647Y-152121990D01*
X84435477Y-152120166D01*
X84426253Y-152120166D01*
X84399676Y-152113044D01*
X84336075Y-152100394D01*
X84306057Y-152087959D01*
X84283784Y-152081992D01*
X84263812Y-152070461D01*
X84233796Y-152058028D01*
X84179884Y-152022005D01*
X84156050Y-152008245D01*
X84149526Y-152001721D01*
X84141754Y-151996528D01*
X84063471Y-151918245D01*
X84058277Y-151910472D01*
X84051755Y-151903950D01*
X84037996Y-151880118D01*
X84001971Y-151826203D01*
X83989536Y-151796184D01*
X83978008Y-151776216D01*
X83972041Y-151753946D01*
X83959605Y-151723924D01*
X83946954Y-151660320D01*
X83939834Y-151633747D01*
X83939834Y-151624522D01*
X83938010Y-151615352D01*
X83938010Y-151504647D01*
X83939834Y-151495476D01*
X83939834Y-151486253D01*
X83946953Y-151459682D01*
X83959605Y-151396075D01*
X83972041Y-151366050D01*
X83978008Y-151343784D01*
X83989535Y-151323818D01*
X84001971Y-151293796D01*
X84038000Y-151239873D01*
X84051755Y-151216050D01*
X84058275Y-151209529D01*
X84063471Y-151201754D01*
X84141754Y-151123471D01*
X84149529Y-151118275D01*
X84156050Y-151111755D01*
X84179873Y-151098000D01*
X84233796Y-151061971D01*
X84263818Y-151049535D01*
X84283784Y-151038008D01*
X84306050Y-151032041D01*
X84336075Y-151019605D01*
X84399682Y-151006953D01*
X84426253Y-150999834D01*
X84435477Y-150999834D01*
X84444647Y-150998010D01*
X84555353Y-150998010D01*
X84564523Y-150999834D01*
G37*
G36*
X87104523Y-150999834D02*
G01*
X87113747Y-150999834D01*
X87140318Y-151006953D01*
X87203924Y-151019605D01*
X87233946Y-151032041D01*
X87256216Y-151038008D01*
X87276184Y-151049536D01*
X87306203Y-151061971D01*
X87360118Y-151097996D01*
X87383950Y-151111755D01*
X87390472Y-151118277D01*
X87398245Y-151123471D01*
X87476528Y-151201754D01*
X87481721Y-151209526D01*
X87488245Y-151216050D01*
X87502005Y-151239884D01*
X87538028Y-151293796D01*
X87550461Y-151323812D01*
X87561992Y-151343784D01*
X87567959Y-151366057D01*
X87580394Y-151396075D01*
X87593044Y-151459676D01*
X87600166Y-151486253D01*
X87600166Y-151495476D01*
X87601990Y-151504647D01*
X87601990Y-151615352D01*
X87600166Y-151624522D01*
X87600166Y-151633747D01*
X87593044Y-151660326D01*
X87580394Y-151723924D01*
X87567960Y-151753940D01*
X87561992Y-151776216D01*
X87550459Y-151796190D01*
X87538028Y-151826203D01*
X87502010Y-151880107D01*
X87488245Y-151903950D01*
X87481719Y-151910475D01*
X87476528Y-151918245D01*
X87398245Y-151996528D01*
X87390475Y-152001719D01*
X87383950Y-152008245D01*
X87360107Y-152022010D01*
X87306203Y-152058028D01*
X87276190Y-152070459D01*
X87256216Y-152081992D01*
X87233940Y-152087960D01*
X87203924Y-152100394D01*
X87140324Y-152113044D01*
X87113747Y-152120166D01*
X87104523Y-152120166D01*
X87095353Y-152121990D01*
X86984647Y-152121990D01*
X86975477Y-152120166D01*
X86966253Y-152120166D01*
X86939676Y-152113044D01*
X86876075Y-152100394D01*
X86846057Y-152087959D01*
X86823784Y-152081992D01*
X86803812Y-152070461D01*
X86773796Y-152058028D01*
X86719884Y-152022005D01*
X86696050Y-152008245D01*
X86689526Y-152001721D01*
X86681754Y-151996528D01*
X86603471Y-151918245D01*
X86598277Y-151910472D01*
X86591755Y-151903950D01*
X86577996Y-151880118D01*
X86541971Y-151826203D01*
X86529536Y-151796184D01*
X86518008Y-151776216D01*
X86512041Y-151753946D01*
X86499605Y-151723924D01*
X86486954Y-151660320D01*
X86479834Y-151633747D01*
X86479834Y-151624522D01*
X86478010Y-151615352D01*
X86478010Y-151504647D01*
X86479834Y-151495476D01*
X86479834Y-151486253D01*
X86486953Y-151459682D01*
X86499605Y-151396075D01*
X86512041Y-151366050D01*
X86518008Y-151343784D01*
X86529535Y-151323818D01*
X86541971Y-151293796D01*
X86578000Y-151239873D01*
X86591755Y-151216050D01*
X86598275Y-151209529D01*
X86603471Y-151201754D01*
X86681754Y-151123471D01*
X86689529Y-151118275D01*
X86696050Y-151111755D01*
X86719873Y-151098000D01*
X86773796Y-151061971D01*
X86803818Y-151049535D01*
X86823784Y-151038008D01*
X86846050Y-151032041D01*
X86876075Y-151019605D01*
X86939682Y-151006953D01*
X86966253Y-150999834D01*
X86975477Y-150999834D01*
X86984647Y-150998010D01*
X87095353Y-150998010D01*
X87104523Y-150999834D01*
G37*
G36*
X89644523Y-150999834D02*
G01*
X89653747Y-150999834D01*
X89680318Y-151006953D01*
X89743924Y-151019605D01*
X89773946Y-151032041D01*
X89796216Y-151038008D01*
X89816184Y-151049536D01*
X89846203Y-151061971D01*
X89900118Y-151097996D01*
X89923950Y-151111755D01*
X89930472Y-151118277D01*
X89938245Y-151123471D01*
X90016528Y-151201754D01*
X90021721Y-151209526D01*
X90028245Y-151216050D01*
X90042005Y-151239884D01*
X90078028Y-151293796D01*
X90090461Y-151323812D01*
X90101992Y-151343784D01*
X90107959Y-151366057D01*
X90120394Y-151396075D01*
X90133044Y-151459676D01*
X90140166Y-151486253D01*
X90140166Y-151495476D01*
X90141990Y-151504647D01*
X90141990Y-151615352D01*
X90140166Y-151624522D01*
X90140166Y-151633747D01*
X90133044Y-151660326D01*
X90120394Y-151723924D01*
X90107960Y-151753940D01*
X90101992Y-151776216D01*
X90090459Y-151796190D01*
X90078028Y-151826203D01*
X90042010Y-151880107D01*
X90028245Y-151903950D01*
X90021719Y-151910475D01*
X90016528Y-151918245D01*
X89938245Y-151996528D01*
X89930475Y-152001719D01*
X89923950Y-152008245D01*
X89900107Y-152022010D01*
X89846203Y-152058028D01*
X89816190Y-152070459D01*
X89796216Y-152081992D01*
X89773940Y-152087960D01*
X89743924Y-152100394D01*
X89680324Y-152113044D01*
X89653747Y-152120166D01*
X89644523Y-152120166D01*
X89635353Y-152121990D01*
X89524647Y-152121990D01*
X89515477Y-152120166D01*
X89506253Y-152120166D01*
X89479676Y-152113044D01*
X89416075Y-152100394D01*
X89386057Y-152087959D01*
X89363784Y-152081992D01*
X89343812Y-152070461D01*
X89313796Y-152058028D01*
X89259884Y-152022005D01*
X89236050Y-152008245D01*
X89229526Y-152001721D01*
X89221754Y-151996528D01*
X89143471Y-151918245D01*
X89138277Y-151910472D01*
X89131755Y-151903950D01*
X89117996Y-151880118D01*
X89081971Y-151826203D01*
X89069536Y-151796184D01*
X89058008Y-151776216D01*
X89052041Y-151753946D01*
X89039605Y-151723924D01*
X89026954Y-151660320D01*
X89019834Y-151633747D01*
X89019834Y-151624522D01*
X89018010Y-151615352D01*
X89018010Y-151504647D01*
X89019834Y-151495476D01*
X89019834Y-151486253D01*
X89026953Y-151459682D01*
X89039605Y-151396075D01*
X89052041Y-151366050D01*
X89058008Y-151343784D01*
X89069535Y-151323818D01*
X89081971Y-151293796D01*
X89118000Y-151239873D01*
X89131755Y-151216050D01*
X89138275Y-151209529D01*
X89143471Y-151201754D01*
X89221754Y-151123471D01*
X89229529Y-151118275D01*
X89236050Y-151111755D01*
X89259873Y-151098000D01*
X89313796Y-151061971D01*
X89343818Y-151049535D01*
X89363784Y-151038008D01*
X89386050Y-151032041D01*
X89416075Y-151019605D01*
X89479682Y-151006953D01*
X89506253Y-150999834D01*
X89515477Y-150999834D01*
X89524647Y-150998010D01*
X89635353Y-150998010D01*
X89644523Y-150999834D01*
G37*
G36*
X92184523Y-150999834D02*
G01*
X92193747Y-150999834D01*
X92220318Y-151006953D01*
X92283924Y-151019605D01*
X92313946Y-151032041D01*
X92336216Y-151038008D01*
X92356184Y-151049536D01*
X92386203Y-151061971D01*
X92440118Y-151097996D01*
X92463950Y-151111755D01*
X92470472Y-151118277D01*
X92478245Y-151123471D01*
X92556528Y-151201754D01*
X92561721Y-151209526D01*
X92568245Y-151216050D01*
X92582005Y-151239884D01*
X92618028Y-151293796D01*
X92630461Y-151323812D01*
X92641992Y-151343784D01*
X92647959Y-151366057D01*
X92660394Y-151396075D01*
X92673044Y-151459676D01*
X92680166Y-151486253D01*
X92680166Y-151495476D01*
X92681990Y-151504647D01*
X92681990Y-151615352D01*
X92680166Y-151624522D01*
X92680166Y-151633747D01*
X92673044Y-151660326D01*
X92660394Y-151723924D01*
X92647960Y-151753940D01*
X92641992Y-151776216D01*
X92630459Y-151796190D01*
X92618028Y-151826203D01*
X92582010Y-151880107D01*
X92568245Y-151903950D01*
X92561719Y-151910475D01*
X92556528Y-151918245D01*
X92478245Y-151996528D01*
X92470475Y-152001719D01*
X92463950Y-152008245D01*
X92440107Y-152022010D01*
X92386203Y-152058028D01*
X92356190Y-152070459D01*
X92336216Y-152081992D01*
X92313940Y-152087960D01*
X92283924Y-152100394D01*
X92220324Y-152113044D01*
X92193747Y-152120166D01*
X92184523Y-152120166D01*
X92175353Y-152121990D01*
X92064647Y-152121990D01*
X92055477Y-152120166D01*
X92046253Y-152120166D01*
X92019676Y-152113044D01*
X91956075Y-152100394D01*
X91926057Y-152087959D01*
X91903784Y-152081992D01*
X91883812Y-152070461D01*
X91853796Y-152058028D01*
X91799884Y-152022005D01*
X91776050Y-152008245D01*
X91769526Y-152001721D01*
X91761754Y-151996528D01*
X91683471Y-151918245D01*
X91678277Y-151910472D01*
X91671755Y-151903950D01*
X91657996Y-151880118D01*
X91621971Y-151826203D01*
X91609536Y-151796184D01*
X91598008Y-151776216D01*
X91592041Y-151753946D01*
X91579605Y-151723924D01*
X91566954Y-151660320D01*
X91559834Y-151633747D01*
X91559834Y-151624522D01*
X91558010Y-151615352D01*
X91558010Y-151504647D01*
X91559834Y-151495476D01*
X91559834Y-151486253D01*
X91566953Y-151459682D01*
X91579605Y-151396075D01*
X91592041Y-151366050D01*
X91598008Y-151343784D01*
X91609535Y-151323818D01*
X91621971Y-151293796D01*
X91658000Y-151239873D01*
X91671755Y-151216050D01*
X91678275Y-151209529D01*
X91683471Y-151201754D01*
X91761754Y-151123471D01*
X91769529Y-151118275D01*
X91776050Y-151111755D01*
X91799873Y-151098000D01*
X91853796Y-151061971D01*
X91883818Y-151049535D01*
X91903784Y-151038008D01*
X91926050Y-151032041D01*
X91956075Y-151019605D01*
X92019682Y-151006953D01*
X92046253Y-150999834D01*
X92055477Y-150999834D01*
X92064647Y-150998010D01*
X92175353Y-150998010D01*
X92184523Y-150999834D01*
G37*
G36*
X94724523Y-150999834D02*
G01*
X94733747Y-150999834D01*
X94760318Y-151006953D01*
X94823924Y-151019605D01*
X94853946Y-151032041D01*
X94876216Y-151038008D01*
X94896184Y-151049536D01*
X94926203Y-151061971D01*
X94980118Y-151097996D01*
X95003950Y-151111755D01*
X95010472Y-151118277D01*
X95018245Y-151123471D01*
X95096528Y-151201754D01*
X95101721Y-151209526D01*
X95108245Y-151216050D01*
X95122005Y-151239884D01*
X95158028Y-151293796D01*
X95170461Y-151323812D01*
X95181992Y-151343784D01*
X95187959Y-151366057D01*
X95200394Y-151396075D01*
X95213044Y-151459676D01*
X95220166Y-151486253D01*
X95220166Y-151495476D01*
X95221990Y-151504647D01*
X95221990Y-151615352D01*
X95220166Y-151624522D01*
X95220166Y-151633747D01*
X95213044Y-151660326D01*
X95200394Y-151723924D01*
X95187960Y-151753940D01*
X95181992Y-151776216D01*
X95170459Y-151796190D01*
X95158028Y-151826203D01*
X95122010Y-151880107D01*
X95108245Y-151903950D01*
X95101719Y-151910475D01*
X95096528Y-151918245D01*
X95018245Y-151996528D01*
X95010475Y-152001719D01*
X95003950Y-152008245D01*
X94980107Y-152022010D01*
X94926203Y-152058028D01*
X94896190Y-152070459D01*
X94876216Y-152081992D01*
X94853940Y-152087960D01*
X94823924Y-152100394D01*
X94760324Y-152113044D01*
X94733747Y-152120166D01*
X94724523Y-152120166D01*
X94715353Y-152121990D01*
X94604647Y-152121990D01*
X94595477Y-152120166D01*
X94586253Y-152120166D01*
X94559676Y-152113044D01*
X94496075Y-152100394D01*
X94466057Y-152087959D01*
X94443784Y-152081992D01*
X94423812Y-152070461D01*
X94393796Y-152058028D01*
X94339884Y-152022005D01*
X94316050Y-152008245D01*
X94309526Y-152001721D01*
X94301754Y-151996528D01*
X94223471Y-151918245D01*
X94218277Y-151910472D01*
X94211755Y-151903950D01*
X94197996Y-151880118D01*
X94161971Y-151826203D01*
X94149536Y-151796184D01*
X94138008Y-151776216D01*
X94132041Y-151753946D01*
X94119605Y-151723924D01*
X94106954Y-151660320D01*
X94099834Y-151633747D01*
X94099834Y-151624522D01*
X94098010Y-151615352D01*
X94098010Y-151504647D01*
X94099834Y-151495476D01*
X94099834Y-151486253D01*
X94106953Y-151459682D01*
X94119605Y-151396075D01*
X94132041Y-151366050D01*
X94138008Y-151343784D01*
X94149535Y-151323818D01*
X94161971Y-151293796D01*
X94198000Y-151239873D01*
X94211755Y-151216050D01*
X94218275Y-151209529D01*
X94223471Y-151201754D01*
X94301754Y-151123471D01*
X94309529Y-151118275D01*
X94316050Y-151111755D01*
X94339873Y-151098000D01*
X94393796Y-151061971D01*
X94423818Y-151049535D01*
X94443784Y-151038008D01*
X94466050Y-151032041D01*
X94496075Y-151019605D01*
X94559682Y-151006953D01*
X94586253Y-150999834D01*
X94595477Y-150999834D01*
X94604647Y-150998010D01*
X94715353Y-150998010D01*
X94724523Y-150999834D01*
G37*
G36*
X97264523Y-150999834D02*
G01*
X97273747Y-150999834D01*
X97300318Y-151006953D01*
X97363924Y-151019605D01*
X97393946Y-151032041D01*
X97416216Y-151038008D01*
X97436184Y-151049536D01*
X97466203Y-151061971D01*
X97520118Y-151097996D01*
X97543950Y-151111755D01*
X97550472Y-151118277D01*
X97558245Y-151123471D01*
X97636528Y-151201754D01*
X97641721Y-151209526D01*
X97648245Y-151216050D01*
X97662005Y-151239884D01*
X97698028Y-151293796D01*
X97710461Y-151323812D01*
X97721992Y-151343784D01*
X97727959Y-151366057D01*
X97740394Y-151396075D01*
X97753044Y-151459676D01*
X97760166Y-151486253D01*
X97760166Y-151495476D01*
X97761990Y-151504647D01*
X97761990Y-151615352D01*
X97760166Y-151624522D01*
X97760166Y-151633747D01*
X97753044Y-151660326D01*
X97740394Y-151723924D01*
X97727960Y-151753940D01*
X97721992Y-151776216D01*
X97710459Y-151796190D01*
X97698028Y-151826203D01*
X97662010Y-151880107D01*
X97648245Y-151903950D01*
X97641719Y-151910475D01*
X97636528Y-151918245D01*
X97558245Y-151996528D01*
X97550475Y-152001719D01*
X97543950Y-152008245D01*
X97520107Y-152022010D01*
X97466203Y-152058028D01*
X97436190Y-152070459D01*
X97416216Y-152081992D01*
X97393940Y-152087960D01*
X97363924Y-152100394D01*
X97300324Y-152113044D01*
X97273747Y-152120166D01*
X97264523Y-152120166D01*
X97255353Y-152121990D01*
X97144647Y-152121990D01*
X97135477Y-152120166D01*
X97126253Y-152120166D01*
X97099676Y-152113044D01*
X97036075Y-152100394D01*
X97006057Y-152087959D01*
X96983784Y-152081992D01*
X96963812Y-152070461D01*
X96933796Y-152058028D01*
X96879884Y-152022005D01*
X96856050Y-152008245D01*
X96849526Y-152001721D01*
X96841754Y-151996528D01*
X96763471Y-151918245D01*
X96758277Y-151910472D01*
X96751755Y-151903950D01*
X96737996Y-151880118D01*
X96701971Y-151826203D01*
X96689536Y-151796184D01*
X96678008Y-151776216D01*
X96672041Y-151753946D01*
X96659605Y-151723924D01*
X96646954Y-151660320D01*
X96639834Y-151633747D01*
X96639834Y-151624522D01*
X96638010Y-151615352D01*
X96638010Y-151504647D01*
X96639834Y-151495476D01*
X96639834Y-151486253D01*
X96646953Y-151459682D01*
X96659605Y-151396075D01*
X96672041Y-151366050D01*
X96678008Y-151343784D01*
X96689535Y-151323818D01*
X96701971Y-151293796D01*
X96738000Y-151239873D01*
X96751755Y-151216050D01*
X96758275Y-151209529D01*
X96763471Y-151201754D01*
X96841754Y-151123471D01*
X96849529Y-151118275D01*
X96856050Y-151111755D01*
X96879873Y-151098000D01*
X96933796Y-151061971D01*
X96963818Y-151049535D01*
X96983784Y-151038008D01*
X97006050Y-151032041D01*
X97036075Y-151019605D01*
X97099682Y-151006953D01*
X97126253Y-150999834D01*
X97135477Y-150999834D01*
X97144647Y-150998010D01*
X97255353Y-150998010D01*
X97264523Y-150999834D01*
G37*
G36*
X99804523Y-150999834D02*
G01*
X99813747Y-150999834D01*
X99840318Y-151006953D01*
X99903924Y-151019605D01*
X99933946Y-151032041D01*
X99956216Y-151038008D01*
X99976184Y-151049536D01*
X100006203Y-151061971D01*
X100060118Y-151097996D01*
X100083950Y-151111755D01*
X100090472Y-151118277D01*
X100098245Y-151123471D01*
X100176528Y-151201754D01*
X100181721Y-151209526D01*
X100188245Y-151216050D01*
X100202005Y-151239884D01*
X100238028Y-151293796D01*
X100250461Y-151323812D01*
X100261992Y-151343784D01*
X100267959Y-151366057D01*
X100280394Y-151396075D01*
X100293044Y-151459676D01*
X100300166Y-151486253D01*
X100300166Y-151495476D01*
X100301990Y-151504647D01*
X100301990Y-151615352D01*
X100300166Y-151624522D01*
X100300166Y-151633747D01*
X100293044Y-151660326D01*
X100280394Y-151723924D01*
X100267960Y-151753940D01*
X100261992Y-151776216D01*
X100250459Y-151796190D01*
X100238028Y-151826203D01*
X100202010Y-151880107D01*
X100188245Y-151903950D01*
X100181719Y-151910475D01*
X100176528Y-151918245D01*
X100098245Y-151996528D01*
X100090475Y-152001719D01*
X100083950Y-152008245D01*
X100060107Y-152022010D01*
X100006203Y-152058028D01*
X99976190Y-152070459D01*
X99956216Y-152081992D01*
X99933940Y-152087960D01*
X99903924Y-152100394D01*
X99840324Y-152113044D01*
X99813747Y-152120166D01*
X99804523Y-152120166D01*
X99795353Y-152121990D01*
X99684647Y-152121990D01*
X99675477Y-152120166D01*
X99666253Y-152120166D01*
X99639676Y-152113044D01*
X99576075Y-152100394D01*
X99546057Y-152087959D01*
X99523784Y-152081992D01*
X99503812Y-152070461D01*
X99473796Y-152058028D01*
X99419884Y-152022005D01*
X99396050Y-152008245D01*
X99389526Y-152001721D01*
X99381754Y-151996528D01*
X99303471Y-151918245D01*
X99298277Y-151910472D01*
X99291755Y-151903950D01*
X99277996Y-151880118D01*
X99241971Y-151826203D01*
X99229536Y-151796184D01*
X99218008Y-151776216D01*
X99212041Y-151753946D01*
X99199605Y-151723924D01*
X99186954Y-151660320D01*
X99179834Y-151633747D01*
X99179834Y-151624522D01*
X99178010Y-151615352D01*
X99178010Y-151504647D01*
X99179834Y-151495476D01*
X99179834Y-151486253D01*
X99186953Y-151459682D01*
X99199605Y-151396075D01*
X99212041Y-151366050D01*
X99218008Y-151343784D01*
X99229535Y-151323818D01*
X99241971Y-151293796D01*
X99278000Y-151239873D01*
X99291755Y-151216050D01*
X99298275Y-151209529D01*
X99303471Y-151201754D01*
X99381754Y-151123471D01*
X99389529Y-151118275D01*
X99396050Y-151111755D01*
X99419873Y-151098000D01*
X99473796Y-151061971D01*
X99503818Y-151049535D01*
X99523784Y-151038008D01*
X99546050Y-151032041D01*
X99576075Y-151019605D01*
X99639682Y-151006953D01*
X99666253Y-150999834D01*
X99675477Y-150999834D01*
X99684647Y-150998010D01*
X99795353Y-150998010D01*
X99804523Y-150999834D01*
G37*
G36*
X102344523Y-150999834D02*
G01*
X102353747Y-150999834D01*
X102380318Y-151006953D01*
X102443924Y-151019605D01*
X102473946Y-151032041D01*
X102496216Y-151038008D01*
X102516184Y-151049536D01*
X102546203Y-151061971D01*
X102600118Y-151097996D01*
X102623950Y-151111755D01*
X102630472Y-151118277D01*
X102638245Y-151123471D01*
X102716528Y-151201754D01*
X102721721Y-151209526D01*
X102728245Y-151216050D01*
X102742005Y-151239884D01*
X102778028Y-151293796D01*
X102790461Y-151323812D01*
X102801992Y-151343784D01*
X102807959Y-151366057D01*
X102820394Y-151396075D01*
X102833044Y-151459676D01*
X102840166Y-151486253D01*
X102840166Y-151495476D01*
X102841990Y-151504647D01*
X102841990Y-151615352D01*
X102840166Y-151624522D01*
X102840166Y-151633747D01*
X102833044Y-151660326D01*
X102820394Y-151723924D01*
X102807960Y-151753940D01*
X102801992Y-151776216D01*
X102790459Y-151796190D01*
X102778028Y-151826203D01*
X102742010Y-151880107D01*
X102728245Y-151903950D01*
X102721719Y-151910475D01*
X102716528Y-151918245D01*
X102638245Y-151996528D01*
X102630475Y-152001719D01*
X102623950Y-152008245D01*
X102600107Y-152022010D01*
X102546203Y-152058028D01*
X102516190Y-152070459D01*
X102496216Y-152081992D01*
X102473940Y-152087960D01*
X102443924Y-152100394D01*
X102380324Y-152113044D01*
X102353747Y-152120166D01*
X102344523Y-152120166D01*
X102335353Y-152121990D01*
X102224647Y-152121990D01*
X102215477Y-152120166D01*
X102206253Y-152120166D01*
X102179676Y-152113044D01*
X102116075Y-152100394D01*
X102086057Y-152087959D01*
X102063784Y-152081992D01*
X102043812Y-152070461D01*
X102013796Y-152058028D01*
X101959884Y-152022005D01*
X101936050Y-152008245D01*
X101929526Y-152001721D01*
X101921754Y-151996528D01*
X101843471Y-151918245D01*
X101838277Y-151910472D01*
X101831755Y-151903950D01*
X101817996Y-151880118D01*
X101781971Y-151826203D01*
X101769536Y-151796184D01*
X101758008Y-151776216D01*
X101752041Y-151753946D01*
X101739605Y-151723924D01*
X101726954Y-151660320D01*
X101719834Y-151633747D01*
X101719834Y-151624522D01*
X101718010Y-151615352D01*
X101718010Y-151504647D01*
X101719834Y-151495476D01*
X101719834Y-151486253D01*
X101726953Y-151459682D01*
X101739605Y-151396075D01*
X101752041Y-151366050D01*
X101758008Y-151343784D01*
X101769535Y-151323818D01*
X101781971Y-151293796D01*
X101818000Y-151239873D01*
X101831755Y-151216050D01*
X101838275Y-151209529D01*
X101843471Y-151201754D01*
X101921754Y-151123471D01*
X101929529Y-151118275D01*
X101936050Y-151111755D01*
X101959873Y-151098000D01*
X102013796Y-151061971D01*
X102043818Y-151049535D01*
X102063784Y-151038008D01*
X102086050Y-151032041D01*
X102116075Y-151019605D01*
X102179682Y-151006953D01*
X102206253Y-150999834D01*
X102215477Y-150999834D01*
X102224647Y-150998010D01*
X102335353Y-150998010D01*
X102344523Y-150999834D01*
G37*
G36*
X64485000Y-150440000D02*
G01*
X63135000Y-150440000D01*
X63135000Y-149090000D01*
X64485000Y-149090000D01*
X64485000Y-150440000D01*
G37*
G36*
X66005942Y-149119065D02*
G01*
X66128193Y-149169703D01*
X66238215Y-149243218D01*
X66331782Y-149336785D01*
X66405297Y-149446807D01*
X66455935Y-149569058D01*
X66481750Y-149698838D01*
X66481750Y-149831162D01*
X66455935Y-149960942D01*
X66405297Y-150083193D01*
X66331782Y-150193215D01*
X66238215Y-150286782D01*
X66128193Y-150360297D01*
X66005942Y-150410935D01*
X65876162Y-150436750D01*
X65743838Y-150436750D01*
X65614058Y-150410935D01*
X65491807Y-150360297D01*
X65381785Y-150286782D01*
X65288218Y-150193215D01*
X65214703Y-150083193D01*
X65164065Y-149960942D01*
X65138250Y-149831162D01*
X65138250Y-149698838D01*
X65164065Y-149569058D01*
X65214703Y-149446807D01*
X65288218Y-149336785D01*
X65381785Y-149243218D01*
X65491807Y-149169703D01*
X65614058Y-149119065D01*
X65743838Y-149093250D01*
X65876162Y-149093250D01*
X66005942Y-149119065D01*
G37*
G36*
X83662228Y-145294448D02*
G01*
X83807117Y-145354463D01*
X83937515Y-145441592D01*
X84048408Y-145552485D01*
X84135537Y-145682883D01*
X84195552Y-145827772D01*
X84226148Y-145981586D01*
X84226148Y-146138414D01*
X84195552Y-146292228D01*
X84135537Y-146437117D01*
X84048408Y-146567515D01*
X83937515Y-146678408D01*
X83807117Y-146765537D01*
X83662228Y-146825552D01*
X83508414Y-146856148D01*
X83351586Y-146856148D01*
X83197772Y-146825552D01*
X83052883Y-146765537D01*
X82922485Y-146678408D01*
X82811592Y-146567515D01*
X82724463Y-146437117D01*
X82664448Y-146292228D01*
X82633852Y-146138414D01*
X82633852Y-145981586D01*
X82664448Y-145827772D01*
X82724463Y-145682883D01*
X82811592Y-145552485D01*
X82922485Y-145441592D01*
X83052883Y-145354463D01*
X83197772Y-145294448D01*
X83351586Y-145263852D01*
X83508414Y-145263852D01*
X83662228Y-145294448D01*
G37*
G36*
X91282228Y-145294448D02*
G01*
X91427117Y-145354463D01*
X91557515Y-145441592D01*
X91668408Y-145552485D01*
X91755537Y-145682883D01*
X91815552Y-145827772D01*
X91846148Y-145981586D01*
X91846148Y-146138414D01*
X91815552Y-146292228D01*
X91755537Y-146437117D01*
X91668408Y-146567515D01*
X91557515Y-146678408D01*
X91427117Y-146765537D01*
X91282228Y-146825552D01*
X91128414Y-146856148D01*
X90971586Y-146856148D01*
X90817772Y-146825552D01*
X90672883Y-146765537D01*
X90542485Y-146678408D01*
X90431592Y-146567515D01*
X90344463Y-146437117D01*
X90284448Y-146292228D01*
X90253852Y-146138414D01*
X90253852Y-145981586D01*
X90284448Y-145827772D01*
X90344463Y-145682883D01*
X90431592Y-145552485D01*
X90542485Y-145441592D01*
X90672883Y-145354463D01*
X90817772Y-145294448D01*
X90971586Y-145263852D01*
X91128414Y-145263852D01*
X91282228Y-145294448D01*
G37*
G36*
X111672228Y-144734448D02*
G01*
X111817117Y-144794463D01*
X111947515Y-144881592D01*
X112058408Y-144992485D01*
X112145537Y-145122883D01*
X112205552Y-145267772D01*
X112236148Y-145421586D01*
X112236148Y-145578414D01*
X112205552Y-145732228D01*
X112145537Y-145877117D01*
X112058408Y-146007515D01*
X111947515Y-146118408D01*
X111817117Y-146205537D01*
X111672228Y-146265552D01*
X111518414Y-146296148D01*
X111361586Y-146296148D01*
X111207772Y-146265552D01*
X111062883Y-146205537D01*
X110932485Y-146118408D01*
X110821592Y-146007515D01*
X110734463Y-145877117D01*
X110674448Y-145732228D01*
X110643852Y-145578414D01*
X110643852Y-145421586D01*
X110674448Y-145267772D01*
X110734463Y-145122883D01*
X110821592Y-144992485D01*
X110932485Y-144881592D01*
X111062883Y-144794463D01*
X111207772Y-144734448D01*
X111361586Y-144703852D01*
X111518414Y-144703852D01*
X111672228Y-144734448D01*
G37*
G36*
X114212228Y-144734448D02*
G01*
X114357117Y-144794463D01*
X114487515Y-144881592D01*
X114598408Y-144992485D01*
X114685537Y-145122883D01*
X114745552Y-145267772D01*
X114776148Y-145421586D01*
X114776148Y-145578414D01*
X114745552Y-145732228D01*
X114685537Y-145877117D01*
X114598408Y-146007515D01*
X114487515Y-146118408D01*
X114357117Y-146205537D01*
X114212228Y-146265552D01*
X114058414Y-146296148D01*
X113901586Y-146296148D01*
X113747772Y-146265552D01*
X113602883Y-146205537D01*
X113472485Y-146118408D01*
X113361592Y-146007515D01*
X113274463Y-145877117D01*
X113214448Y-145732228D01*
X113183852Y-145578414D01*
X113183852Y-145421586D01*
X113214448Y-145267772D01*
X113274463Y-145122883D01*
X113361592Y-144992485D01*
X113472485Y-144881592D01*
X113602883Y-144794463D01*
X113747772Y-144734448D01*
X113901586Y-144703852D01*
X114058414Y-144703852D01*
X114212228Y-144734448D01*
G37*
G36*
X116752228Y-144734448D02*
G01*
X116897117Y-144794463D01*
X117027515Y-144881592D01*
X117138408Y-144992485D01*
X117225537Y-145122883D01*
X117285552Y-145267772D01*
X117316148Y-145421586D01*
X117316148Y-145578414D01*
X117285552Y-145732228D01*
X117225537Y-145877117D01*
X117138408Y-146007515D01*
X117027515Y-146118408D01*
X116897117Y-146205537D01*
X116752228Y-146265552D01*
X116598414Y-146296148D01*
X116441586Y-146296148D01*
X116287772Y-146265552D01*
X116142883Y-146205537D01*
X116012485Y-146118408D01*
X115901592Y-146007515D01*
X115814463Y-145877117D01*
X115754448Y-145732228D01*
X115723852Y-145578414D01*
X115723852Y-145421586D01*
X115754448Y-145267772D01*
X115814463Y-145122883D01*
X115901592Y-144992485D01*
X116012485Y-144881592D01*
X116142883Y-144794463D01*
X116287772Y-144734448D01*
X116441586Y-144703852D01*
X116598414Y-144703852D01*
X116752228Y-144734448D01*
G37*
G36*
X119292228Y-144734448D02*
G01*
X119437117Y-144794463D01*
X119567515Y-144881592D01*
X119678408Y-144992485D01*
X119765537Y-145122883D01*
X119825552Y-145267772D01*
X119856148Y-145421586D01*
X119856148Y-145578414D01*
X119825552Y-145732228D01*
X119765537Y-145877117D01*
X119678408Y-146007515D01*
X119567515Y-146118408D01*
X119437117Y-146205537D01*
X119292228Y-146265552D01*
X119138414Y-146296148D01*
X118981586Y-146296148D01*
X118827772Y-146265552D01*
X118682883Y-146205537D01*
X118552485Y-146118408D01*
X118441592Y-146007515D01*
X118354463Y-145877117D01*
X118294448Y-145732228D01*
X118263852Y-145578414D01*
X118263852Y-145421586D01*
X118294448Y-145267772D01*
X118354463Y-145122883D01*
X118441592Y-144992485D01*
X118552485Y-144881592D01*
X118682883Y-144794463D01*
X118827772Y-144734448D01*
X118981586Y-144703852D01*
X119138414Y-144703852D01*
X119292228Y-144734448D01*
G37*
G36*
X121832228Y-144734448D02*
G01*
X121977117Y-144794463D01*
X122107515Y-144881592D01*
X122218408Y-144992485D01*
X122305537Y-145122883D01*
X122365552Y-145267772D01*
X122396148Y-145421586D01*
X122396148Y-145578414D01*
X122365552Y-145732228D01*
X122305537Y-145877117D01*
X122218408Y-146007515D01*
X122107515Y-146118408D01*
X121977117Y-146205537D01*
X121832228Y-146265552D01*
X121678414Y-146296148D01*
X121521586Y-146296148D01*
X121367772Y-146265552D01*
X121222883Y-146205537D01*
X121092485Y-146118408D01*
X120981592Y-146007515D01*
X120894463Y-145877117D01*
X120834448Y-145732228D01*
X120803852Y-145578414D01*
X120803852Y-145421586D01*
X120834448Y-145267772D01*
X120894463Y-145122883D01*
X120981592Y-144992485D01*
X121092485Y-144881592D01*
X121222883Y-144794463D01*
X121367772Y-144734448D01*
X121521586Y-144703852D01*
X121678414Y-144703852D01*
X121832228Y-144734448D01*
G37*
G36*
X124372228Y-144734448D02*
G01*
X124517117Y-144794463D01*
X124647515Y-144881592D01*
X124758408Y-144992485D01*
X124845537Y-145122883D01*
X124905552Y-145267772D01*
X124936148Y-145421586D01*
X124936148Y-145578414D01*
X124905552Y-145732228D01*
X124845537Y-145877117D01*
X124758408Y-146007515D01*
X124647515Y-146118408D01*
X124517117Y-146205537D01*
X124372228Y-146265552D01*
X124218414Y-146296148D01*
X124061586Y-146296148D01*
X123907772Y-146265552D01*
X123762883Y-146205537D01*
X123632485Y-146118408D01*
X123521592Y-146007515D01*
X123434463Y-145877117D01*
X123374448Y-145732228D01*
X123343852Y-145578414D01*
X123343852Y-145421586D01*
X123374448Y-145267772D01*
X123434463Y-145122883D01*
X123521592Y-144992485D01*
X123632485Y-144881592D01*
X123762883Y-144794463D01*
X123907772Y-144734448D01*
X124061586Y-144703852D01*
X124218414Y-144703852D01*
X124372228Y-144734448D01*
G37*
G36*
X126912228Y-144734448D02*
G01*
X127057117Y-144794463D01*
X127187515Y-144881592D01*
X127298408Y-144992485D01*
X127385537Y-145122883D01*
X127445552Y-145267772D01*
X127476148Y-145421586D01*
X127476148Y-145578414D01*
X127445552Y-145732228D01*
X127385537Y-145877117D01*
X127298408Y-146007515D01*
X127187515Y-146118408D01*
X127057117Y-146205537D01*
X126912228Y-146265552D01*
X126758414Y-146296148D01*
X126601586Y-146296148D01*
X126447772Y-146265552D01*
X126302883Y-146205537D01*
X126172485Y-146118408D01*
X126061592Y-146007515D01*
X125974463Y-145877117D01*
X125914448Y-145732228D01*
X125883852Y-145578414D01*
X125883852Y-145421586D01*
X125914448Y-145267772D01*
X125974463Y-145122883D01*
X126061592Y-144992485D01*
X126172485Y-144881592D01*
X126302883Y-144794463D01*
X126447772Y-144734448D01*
X126601586Y-144703852D01*
X126758414Y-144703852D01*
X126912228Y-144734448D01*
G37*
G36*
X129452228Y-144734448D02*
G01*
X129597117Y-144794463D01*
X129727515Y-144881592D01*
X129838408Y-144992485D01*
X129925537Y-145122883D01*
X129985552Y-145267772D01*
X130016148Y-145421586D01*
X130016148Y-145578414D01*
X129985552Y-145732228D01*
X129925537Y-145877117D01*
X129838408Y-146007515D01*
X129727515Y-146118408D01*
X129597117Y-146205537D01*
X129452228Y-146265552D01*
X129298414Y-146296148D01*
X129141586Y-146296148D01*
X128987772Y-146265552D01*
X128842883Y-146205537D01*
X128712485Y-146118408D01*
X128601592Y-146007515D01*
X128514463Y-145877117D01*
X128454448Y-145732228D01*
X128423852Y-145578414D01*
X128423852Y-145421586D01*
X128454448Y-145267772D01*
X128514463Y-145122883D01*
X128601592Y-144992485D01*
X128712485Y-144881592D01*
X128842883Y-144794463D01*
X128987772Y-144734448D01*
X129141586Y-144703852D01*
X129298414Y-144703852D01*
X129452228Y-144734448D01*
G37*
G36*
X131992228Y-144734448D02*
G01*
X132137117Y-144794463D01*
X132267515Y-144881592D01*
X132378408Y-144992485D01*
X132465537Y-145122883D01*
X132525552Y-145267772D01*
X132556148Y-145421586D01*
X132556148Y-145578414D01*
X132525552Y-145732228D01*
X132465537Y-145877117D01*
X132378408Y-146007515D01*
X132267515Y-146118408D01*
X132137117Y-146205537D01*
X131992228Y-146265552D01*
X131838414Y-146296148D01*
X131681586Y-146296148D01*
X131527772Y-146265552D01*
X131382883Y-146205537D01*
X131252485Y-146118408D01*
X131141592Y-146007515D01*
X131054463Y-145877117D01*
X130994448Y-145732228D01*
X130963852Y-145578414D01*
X130963852Y-145421586D01*
X130994448Y-145267772D01*
X131054463Y-145122883D01*
X131141592Y-144992485D01*
X131252485Y-144881592D01*
X131382883Y-144794463D01*
X131527772Y-144734448D01*
X131681586Y-144703852D01*
X131838414Y-144703852D01*
X131992228Y-144734448D01*
G37*
G36*
X134532228Y-144734448D02*
G01*
X134677117Y-144794463D01*
X134807515Y-144881592D01*
X134918408Y-144992485D01*
X135005537Y-145122883D01*
X135065552Y-145267772D01*
X135096148Y-145421586D01*
X135096148Y-145578414D01*
X135065552Y-145732228D01*
X135005537Y-145877117D01*
X134918408Y-146007515D01*
X134807515Y-146118408D01*
X134677117Y-146205537D01*
X134532228Y-146265552D01*
X134378414Y-146296148D01*
X134221586Y-146296148D01*
X134067772Y-146265552D01*
X133922883Y-146205537D01*
X133792485Y-146118408D01*
X133681592Y-146007515D01*
X133594463Y-145877117D01*
X133534448Y-145732228D01*
X133503852Y-145578414D01*
X133503852Y-145421586D01*
X133534448Y-145267772D01*
X133594463Y-145122883D01*
X133681592Y-144992485D01*
X133792485Y-144881592D01*
X133922883Y-144794463D01*
X134067772Y-144734448D01*
X134221586Y-144703852D01*
X134378414Y-144703852D01*
X134532228Y-144734448D01*
G37*
G36*
X137072228Y-144734448D02*
G01*
X137217117Y-144794463D01*
X137347515Y-144881592D01*
X137458408Y-144992485D01*
X137545537Y-145122883D01*
X137605552Y-145267772D01*
X137636148Y-145421586D01*
X137636148Y-145578414D01*
X137605552Y-145732228D01*
X137545537Y-145877117D01*
X137458408Y-146007515D01*
X137347515Y-146118408D01*
X137217117Y-146205537D01*
X137072228Y-146265552D01*
X136918414Y-146296148D01*
X136761586Y-146296148D01*
X136607772Y-146265552D01*
X136462883Y-146205537D01*
X136332485Y-146118408D01*
X136221592Y-146007515D01*
X136134463Y-145877117D01*
X136074448Y-145732228D01*
X136043852Y-145578414D01*
X136043852Y-145421586D01*
X136074448Y-145267772D01*
X136134463Y-145122883D01*
X136221592Y-144992485D01*
X136332485Y-144881592D01*
X136462883Y-144794463D01*
X136607772Y-144734448D01*
X136761586Y-144703852D01*
X136918414Y-144703852D01*
X137072228Y-144734448D01*
G37*
G36*
X139612228Y-144734448D02*
G01*
X139757117Y-144794463D01*
X139887515Y-144881592D01*
X139998408Y-144992485D01*
X140085537Y-145122883D01*
X140145552Y-145267772D01*
X140176148Y-145421586D01*
X140176148Y-145578414D01*
X140145552Y-145732228D01*
X140085537Y-145877117D01*
X139998408Y-146007515D01*
X139887515Y-146118408D01*
X139757117Y-146205537D01*
X139612228Y-146265552D01*
X139458414Y-146296148D01*
X139301586Y-146296148D01*
X139147772Y-146265552D01*
X139002883Y-146205537D01*
X138872485Y-146118408D01*
X138761592Y-146007515D01*
X138674463Y-145877117D01*
X138614448Y-145732228D01*
X138583852Y-145578414D01*
X138583852Y-145421586D01*
X138614448Y-145267772D01*
X138674463Y-145122883D01*
X138761592Y-144992485D01*
X138872485Y-144881592D01*
X139002883Y-144794463D01*
X139147772Y-144734448D01*
X139301586Y-144703852D01*
X139458414Y-144703852D01*
X139612228Y-144734448D01*
G37*
G36*
X142152228Y-144734448D02*
G01*
X142297117Y-144794463D01*
X142427515Y-144881592D01*
X142538408Y-144992485D01*
X142625537Y-145122883D01*
X142685552Y-145267772D01*
X142716148Y-145421586D01*
X142716148Y-145578414D01*
X142685552Y-145732228D01*
X142625537Y-145877117D01*
X142538408Y-146007515D01*
X142427515Y-146118408D01*
X142297117Y-146205537D01*
X142152228Y-146265552D01*
X141998414Y-146296148D01*
X141841586Y-146296148D01*
X141687772Y-146265552D01*
X141542883Y-146205537D01*
X141412485Y-146118408D01*
X141301592Y-146007515D01*
X141214463Y-145877117D01*
X141154448Y-145732228D01*
X141123852Y-145578414D01*
X141123852Y-145421586D01*
X141154448Y-145267772D01*
X141214463Y-145122883D01*
X141301592Y-144992485D01*
X141412485Y-144881592D01*
X141542883Y-144794463D01*
X141687772Y-144734448D01*
X141841586Y-144703852D01*
X141998414Y-144703852D01*
X142152228Y-144734448D01*
G37*
G36*
X144692228Y-144734448D02*
G01*
X144837117Y-144794463D01*
X144967515Y-144881592D01*
X145078408Y-144992485D01*
X145165537Y-145122883D01*
X145225552Y-145267772D01*
X145256148Y-145421586D01*
X145256148Y-145578414D01*
X145225552Y-145732228D01*
X145165537Y-145877117D01*
X145078408Y-146007515D01*
X144967515Y-146118408D01*
X144837117Y-146205537D01*
X144692228Y-146265552D01*
X144538414Y-146296148D01*
X144381586Y-146296148D01*
X144227772Y-146265552D01*
X144082883Y-146205537D01*
X143952485Y-146118408D01*
X143841592Y-146007515D01*
X143754463Y-145877117D01*
X143694448Y-145732228D01*
X143663852Y-145578414D01*
X143663852Y-145421586D01*
X143694448Y-145267772D01*
X143754463Y-145122883D01*
X143841592Y-144992485D01*
X143952485Y-144881592D01*
X144082883Y-144794463D01*
X144227772Y-144734448D01*
X144381586Y-144703852D01*
X144538414Y-144703852D01*
X144692228Y-144734448D01*
G37*
G36*
X147232228Y-144734448D02*
G01*
X147377117Y-144794463D01*
X147507515Y-144881592D01*
X147618408Y-144992485D01*
X147705537Y-145122883D01*
X147765552Y-145267772D01*
X147796148Y-145421586D01*
X147796148Y-145578414D01*
X147765552Y-145732228D01*
X147705537Y-145877117D01*
X147618408Y-146007515D01*
X147507515Y-146118408D01*
X147377117Y-146205537D01*
X147232228Y-146265552D01*
X147078414Y-146296148D01*
X146921586Y-146296148D01*
X146767772Y-146265552D01*
X146622883Y-146205537D01*
X146492485Y-146118408D01*
X146381592Y-146007515D01*
X146294463Y-145877117D01*
X146234448Y-145732228D01*
X146203852Y-145578414D01*
X146203852Y-145421586D01*
X146234448Y-145267772D01*
X146294463Y-145122883D01*
X146381592Y-144992485D01*
X146492485Y-144881592D01*
X146622883Y-144794463D01*
X146767772Y-144734448D01*
X146921586Y-144703852D01*
X147078414Y-144703852D01*
X147232228Y-144734448D01*
G37*
G36*
X149772228Y-144734448D02*
G01*
X149917117Y-144794463D01*
X150047515Y-144881592D01*
X150158408Y-144992485D01*
X150245537Y-145122883D01*
X150305552Y-145267772D01*
X150336148Y-145421586D01*
X150336148Y-145578414D01*
X150305552Y-145732228D01*
X150245537Y-145877117D01*
X150158408Y-146007515D01*
X150047515Y-146118408D01*
X149917117Y-146205537D01*
X149772228Y-146265552D01*
X149618414Y-146296148D01*
X149461586Y-146296148D01*
X149307772Y-146265552D01*
X149162883Y-146205537D01*
X149032485Y-146118408D01*
X148921592Y-146007515D01*
X148834463Y-145877117D01*
X148774448Y-145732228D01*
X148743852Y-145578414D01*
X148743852Y-145421586D01*
X148774448Y-145267772D01*
X148834463Y-145122883D01*
X148921592Y-144992485D01*
X149032485Y-144881592D01*
X149162883Y-144794463D01*
X149307772Y-144734448D01*
X149461586Y-144703852D01*
X149618414Y-144703852D01*
X149772228Y-144734448D01*
G37*
G36*
X152312228Y-144734448D02*
G01*
X152457117Y-144794463D01*
X152587515Y-144881592D01*
X152698408Y-144992485D01*
X152785537Y-145122883D01*
X152845552Y-145267772D01*
X152876148Y-145421586D01*
X152876148Y-145578414D01*
X152845552Y-145732228D01*
X152785537Y-145877117D01*
X152698408Y-146007515D01*
X152587515Y-146118408D01*
X152457117Y-146205537D01*
X152312228Y-146265552D01*
X152158414Y-146296148D01*
X152001586Y-146296148D01*
X151847772Y-146265552D01*
X151702883Y-146205537D01*
X151572485Y-146118408D01*
X151461592Y-146007515D01*
X151374463Y-145877117D01*
X151314448Y-145732228D01*
X151283852Y-145578414D01*
X151283852Y-145421586D01*
X151314448Y-145267772D01*
X151374463Y-145122883D01*
X151461592Y-144992485D01*
X151572485Y-144881592D01*
X151702883Y-144794463D01*
X151847772Y-144734448D01*
X152001586Y-144703852D01*
X152158414Y-144703852D01*
X152312228Y-144734448D01*
G37*
G36*
X105564523Y-138879834D02*
G01*
X105573747Y-138879834D01*
X105600318Y-138886953D01*
X105663924Y-138899605D01*
X105693946Y-138912041D01*
X105716216Y-138918008D01*
X105736184Y-138929536D01*
X105766203Y-138941971D01*
X105820118Y-138977996D01*
X105843950Y-138991755D01*
X105850472Y-138998277D01*
X105858245Y-139003471D01*
X105936528Y-139081754D01*
X105941721Y-139089526D01*
X105948245Y-139096050D01*
X105962005Y-139119884D01*
X105998028Y-139173796D01*
X106010461Y-139203812D01*
X106021992Y-139223784D01*
X106027959Y-139246057D01*
X106040394Y-139276075D01*
X106053044Y-139339676D01*
X106060166Y-139366253D01*
X106060166Y-139375476D01*
X106061990Y-139384647D01*
X106061990Y-139495352D01*
X106060166Y-139504522D01*
X106060166Y-139513747D01*
X106053044Y-139540326D01*
X106040394Y-139603924D01*
X106027960Y-139633940D01*
X106021992Y-139656216D01*
X106010459Y-139676190D01*
X105998028Y-139706203D01*
X105962010Y-139760107D01*
X105948245Y-139783950D01*
X105941719Y-139790475D01*
X105936528Y-139798245D01*
X105858245Y-139876528D01*
X105850475Y-139881719D01*
X105843950Y-139888245D01*
X105820107Y-139902010D01*
X105766203Y-139938028D01*
X105736190Y-139950459D01*
X105716216Y-139961992D01*
X105693940Y-139967960D01*
X105663924Y-139980394D01*
X105600324Y-139993044D01*
X105573747Y-140000166D01*
X105564523Y-140000166D01*
X105555353Y-140001990D01*
X105444647Y-140001990D01*
X105435477Y-140000166D01*
X105426253Y-140000166D01*
X105399676Y-139993044D01*
X105336075Y-139980394D01*
X105306057Y-139967959D01*
X105283784Y-139961992D01*
X105263812Y-139950461D01*
X105233796Y-139938028D01*
X105179884Y-139902005D01*
X105156050Y-139888245D01*
X105149526Y-139881721D01*
X105141754Y-139876528D01*
X105063471Y-139798245D01*
X105058277Y-139790472D01*
X105051755Y-139783950D01*
X105037996Y-139760118D01*
X105001971Y-139706203D01*
X104989536Y-139676184D01*
X104978008Y-139656216D01*
X104972041Y-139633946D01*
X104959605Y-139603924D01*
X104946954Y-139540320D01*
X104939834Y-139513747D01*
X104939834Y-139504522D01*
X104938010Y-139495352D01*
X104938010Y-139384647D01*
X104939834Y-139375476D01*
X104939834Y-139366253D01*
X104946953Y-139339682D01*
X104959605Y-139276075D01*
X104972041Y-139246050D01*
X104978008Y-139223784D01*
X104989535Y-139203818D01*
X105001971Y-139173796D01*
X105038000Y-139119873D01*
X105051755Y-139096050D01*
X105058275Y-139089529D01*
X105063471Y-139081754D01*
X105141754Y-139003471D01*
X105149529Y-138998275D01*
X105156050Y-138991755D01*
X105179873Y-138978000D01*
X105233796Y-138941971D01*
X105263818Y-138929535D01*
X105283784Y-138918008D01*
X105306050Y-138912041D01*
X105336075Y-138899605D01*
X105399682Y-138886953D01*
X105426253Y-138879834D01*
X105435477Y-138879834D01*
X105444647Y-138878010D01*
X105555353Y-138878010D01*
X105564523Y-138879834D01*
G37*
G36*
X108104523Y-138879834D02*
G01*
X108113747Y-138879834D01*
X108140318Y-138886953D01*
X108203924Y-138899605D01*
X108233946Y-138912041D01*
X108256216Y-138918008D01*
X108276184Y-138929536D01*
X108306203Y-138941971D01*
X108360118Y-138977996D01*
X108383950Y-138991755D01*
X108390472Y-138998277D01*
X108398245Y-139003471D01*
X108476528Y-139081754D01*
X108481721Y-139089526D01*
X108488245Y-139096050D01*
X108502005Y-139119884D01*
X108538028Y-139173796D01*
X108550461Y-139203812D01*
X108561992Y-139223784D01*
X108567959Y-139246057D01*
X108580394Y-139276075D01*
X108593044Y-139339676D01*
X108600166Y-139366253D01*
X108600166Y-139375476D01*
X108601990Y-139384647D01*
X108601990Y-139495352D01*
X108600166Y-139504522D01*
X108600166Y-139513747D01*
X108593044Y-139540326D01*
X108580394Y-139603924D01*
X108567960Y-139633940D01*
X108561992Y-139656216D01*
X108550459Y-139676190D01*
X108538028Y-139706203D01*
X108502010Y-139760107D01*
X108488245Y-139783950D01*
X108481719Y-139790475D01*
X108476528Y-139798245D01*
X108398245Y-139876528D01*
X108390475Y-139881719D01*
X108383950Y-139888245D01*
X108360107Y-139902010D01*
X108306203Y-139938028D01*
X108276190Y-139950459D01*
X108256216Y-139961992D01*
X108233940Y-139967960D01*
X108203924Y-139980394D01*
X108140324Y-139993044D01*
X108113747Y-140000166D01*
X108104523Y-140000166D01*
X108095353Y-140001990D01*
X107984647Y-140001990D01*
X107975477Y-140000166D01*
X107966253Y-140000166D01*
X107939676Y-139993044D01*
X107876075Y-139980394D01*
X107846057Y-139967959D01*
X107823784Y-139961992D01*
X107803812Y-139950461D01*
X107773796Y-139938028D01*
X107719884Y-139902005D01*
X107696050Y-139888245D01*
X107689526Y-139881721D01*
X107681754Y-139876528D01*
X107603471Y-139798245D01*
X107598277Y-139790472D01*
X107591755Y-139783950D01*
X107577996Y-139760118D01*
X107541971Y-139706203D01*
X107529536Y-139676184D01*
X107518008Y-139656216D01*
X107512041Y-139633946D01*
X107499605Y-139603924D01*
X107486954Y-139540320D01*
X107479834Y-139513747D01*
X107479834Y-139504522D01*
X107478010Y-139495352D01*
X107478010Y-139384647D01*
X107479834Y-139375476D01*
X107479834Y-139366253D01*
X107486953Y-139339682D01*
X107499605Y-139276075D01*
X107512041Y-139246050D01*
X107518008Y-139223784D01*
X107529535Y-139203818D01*
X107541971Y-139173796D01*
X107578000Y-139119873D01*
X107591755Y-139096050D01*
X107598275Y-139089529D01*
X107603471Y-139081754D01*
X107681754Y-139003471D01*
X107689529Y-138998275D01*
X107696050Y-138991755D01*
X107719873Y-138978000D01*
X107773796Y-138941971D01*
X107803818Y-138929535D01*
X107823784Y-138918008D01*
X107846050Y-138912041D01*
X107876075Y-138899605D01*
X107939682Y-138886953D01*
X107966253Y-138879834D01*
X107975477Y-138879834D01*
X107984647Y-138878010D01*
X108095353Y-138878010D01*
X108104523Y-138879834D01*
G37*
G36*
X110644523Y-138879834D02*
G01*
X110653747Y-138879834D01*
X110680318Y-138886953D01*
X110743924Y-138899605D01*
X110773946Y-138912041D01*
X110796216Y-138918008D01*
X110816184Y-138929536D01*
X110846203Y-138941971D01*
X110900118Y-138977996D01*
X110923950Y-138991755D01*
X110930472Y-138998277D01*
X110938245Y-139003471D01*
X111016528Y-139081754D01*
X111021721Y-139089526D01*
X111028245Y-139096050D01*
X111042005Y-139119884D01*
X111078028Y-139173796D01*
X111090461Y-139203812D01*
X111101992Y-139223784D01*
X111107959Y-139246057D01*
X111120394Y-139276075D01*
X111133044Y-139339676D01*
X111140166Y-139366253D01*
X111140166Y-139375476D01*
X111141990Y-139384647D01*
X111141990Y-139495352D01*
X111140166Y-139504522D01*
X111140166Y-139513747D01*
X111133044Y-139540326D01*
X111120394Y-139603924D01*
X111107960Y-139633940D01*
X111101992Y-139656216D01*
X111090459Y-139676190D01*
X111078028Y-139706203D01*
X111042010Y-139760107D01*
X111028245Y-139783950D01*
X111021719Y-139790475D01*
X111016528Y-139798245D01*
X110938245Y-139876528D01*
X110930475Y-139881719D01*
X110923950Y-139888245D01*
X110900107Y-139902010D01*
X110846203Y-139938028D01*
X110816190Y-139950459D01*
X110796216Y-139961992D01*
X110773940Y-139967960D01*
X110743924Y-139980394D01*
X110680324Y-139993044D01*
X110653747Y-140000166D01*
X110644523Y-140000166D01*
X110635353Y-140001990D01*
X110524647Y-140001990D01*
X110515477Y-140000166D01*
X110506253Y-140000166D01*
X110479676Y-139993044D01*
X110416075Y-139980394D01*
X110386057Y-139967959D01*
X110363784Y-139961992D01*
X110343812Y-139950461D01*
X110313796Y-139938028D01*
X110259884Y-139902005D01*
X110236050Y-139888245D01*
X110229526Y-139881721D01*
X110221754Y-139876528D01*
X110143471Y-139798245D01*
X110138277Y-139790472D01*
X110131755Y-139783950D01*
X110117996Y-139760118D01*
X110081971Y-139706203D01*
X110069536Y-139676184D01*
X110058008Y-139656216D01*
X110052041Y-139633946D01*
X110039605Y-139603924D01*
X110026954Y-139540320D01*
X110019834Y-139513747D01*
X110019834Y-139504522D01*
X110018010Y-139495352D01*
X110018010Y-139384647D01*
X110019834Y-139375476D01*
X110019834Y-139366253D01*
X110026953Y-139339682D01*
X110039605Y-139276075D01*
X110052041Y-139246050D01*
X110058008Y-139223784D01*
X110069535Y-139203818D01*
X110081971Y-139173796D01*
X110118000Y-139119873D01*
X110131755Y-139096050D01*
X110138275Y-139089529D01*
X110143471Y-139081754D01*
X110221754Y-139003471D01*
X110229529Y-138998275D01*
X110236050Y-138991755D01*
X110259873Y-138978000D01*
X110313796Y-138941971D01*
X110343818Y-138929535D01*
X110363784Y-138918008D01*
X110386050Y-138912041D01*
X110416075Y-138899605D01*
X110479682Y-138886953D01*
X110506253Y-138879834D01*
X110515477Y-138879834D01*
X110524647Y-138878010D01*
X110635353Y-138878010D01*
X110644523Y-138879834D01*
G37*
G36*
X113184523Y-138879834D02*
G01*
X113193747Y-138879834D01*
X113220318Y-138886953D01*
X113283924Y-138899605D01*
X113313946Y-138912041D01*
X113336216Y-138918008D01*
X113356184Y-138929536D01*
X113386203Y-138941971D01*
X113440118Y-138977996D01*
X113463950Y-138991755D01*
X113470472Y-138998277D01*
X113478245Y-139003471D01*
X113556528Y-139081754D01*
X113561721Y-139089526D01*
X113568245Y-139096050D01*
X113582005Y-139119884D01*
X113618028Y-139173796D01*
X113630461Y-139203812D01*
X113641992Y-139223784D01*
X113647959Y-139246057D01*
X113660394Y-139276075D01*
X113673044Y-139339676D01*
X113680166Y-139366253D01*
X113680166Y-139375476D01*
X113681990Y-139384647D01*
X113681990Y-139495352D01*
X113680166Y-139504522D01*
X113680166Y-139513747D01*
X113673044Y-139540326D01*
X113660394Y-139603924D01*
X113647960Y-139633940D01*
X113641992Y-139656216D01*
X113630459Y-139676190D01*
X113618028Y-139706203D01*
X113582010Y-139760107D01*
X113568245Y-139783950D01*
X113561719Y-139790475D01*
X113556528Y-139798245D01*
X113478245Y-139876528D01*
X113470475Y-139881719D01*
X113463950Y-139888245D01*
X113440107Y-139902010D01*
X113386203Y-139938028D01*
X113356190Y-139950459D01*
X113336216Y-139961992D01*
X113313940Y-139967960D01*
X113283924Y-139980394D01*
X113220324Y-139993044D01*
X113193747Y-140000166D01*
X113184523Y-140000166D01*
X113175353Y-140001990D01*
X113064647Y-140001990D01*
X113055477Y-140000166D01*
X113046253Y-140000166D01*
X113019676Y-139993044D01*
X112956075Y-139980394D01*
X112926057Y-139967959D01*
X112903784Y-139961992D01*
X112883812Y-139950461D01*
X112853796Y-139938028D01*
X112799884Y-139902005D01*
X112776050Y-139888245D01*
X112769526Y-139881721D01*
X112761754Y-139876528D01*
X112683471Y-139798245D01*
X112678277Y-139790472D01*
X112671755Y-139783950D01*
X112657996Y-139760118D01*
X112621971Y-139706203D01*
X112609536Y-139676184D01*
X112598008Y-139656216D01*
X112592041Y-139633946D01*
X112579605Y-139603924D01*
X112566954Y-139540320D01*
X112559834Y-139513747D01*
X112559834Y-139504522D01*
X112558010Y-139495352D01*
X112558010Y-139384647D01*
X112559834Y-139375476D01*
X112559834Y-139366253D01*
X112566953Y-139339682D01*
X112579605Y-139276075D01*
X112592041Y-139246050D01*
X112598008Y-139223784D01*
X112609535Y-139203818D01*
X112621971Y-139173796D01*
X112658000Y-139119873D01*
X112671755Y-139096050D01*
X112678275Y-139089529D01*
X112683471Y-139081754D01*
X112761754Y-139003471D01*
X112769529Y-138998275D01*
X112776050Y-138991755D01*
X112799873Y-138978000D01*
X112853796Y-138941971D01*
X112883818Y-138929535D01*
X112903784Y-138918008D01*
X112926050Y-138912041D01*
X112956075Y-138899605D01*
X113019682Y-138886953D01*
X113046253Y-138879834D01*
X113055477Y-138879834D01*
X113064647Y-138878010D01*
X113175353Y-138878010D01*
X113184523Y-138879834D01*
G37*
G36*
X90535000Y-139375000D02*
G01*
X89405000Y-139375000D01*
X89405000Y-138245000D01*
X90535000Y-138245000D01*
X90535000Y-139375000D01*
G37*
G36*
X82094523Y-138249834D02*
G01*
X82103747Y-138249834D01*
X82130318Y-138256953D01*
X82193924Y-138269605D01*
X82223946Y-138282041D01*
X82246216Y-138288008D01*
X82266184Y-138299536D01*
X82296203Y-138311971D01*
X82350118Y-138347996D01*
X82373950Y-138361755D01*
X82380472Y-138368277D01*
X82388245Y-138373471D01*
X82466528Y-138451754D01*
X82471721Y-138459526D01*
X82478245Y-138466050D01*
X82492005Y-138489884D01*
X82528028Y-138543796D01*
X82540461Y-138573812D01*
X82551992Y-138593784D01*
X82557959Y-138616057D01*
X82570394Y-138646075D01*
X82583044Y-138709676D01*
X82590166Y-138736253D01*
X82590166Y-138745476D01*
X82591990Y-138754647D01*
X82591990Y-138865352D01*
X82590166Y-138874522D01*
X82590166Y-138883747D01*
X82583044Y-138910326D01*
X82570394Y-138973924D01*
X82557960Y-139003940D01*
X82551992Y-139026216D01*
X82540459Y-139046190D01*
X82528028Y-139076203D01*
X82492010Y-139130107D01*
X82478245Y-139153950D01*
X82471719Y-139160475D01*
X82466528Y-139168245D01*
X82388245Y-139246528D01*
X82380475Y-139251719D01*
X82373950Y-139258245D01*
X82350107Y-139272010D01*
X82296203Y-139308028D01*
X82266190Y-139320459D01*
X82246216Y-139331992D01*
X82223940Y-139337960D01*
X82193924Y-139350394D01*
X82130324Y-139363044D01*
X82103747Y-139370166D01*
X82094523Y-139370166D01*
X82085353Y-139371990D01*
X81974647Y-139371990D01*
X81965477Y-139370166D01*
X81956253Y-139370166D01*
X81929676Y-139363044D01*
X81866075Y-139350394D01*
X81836057Y-139337959D01*
X81813784Y-139331992D01*
X81793812Y-139320461D01*
X81763796Y-139308028D01*
X81709884Y-139272005D01*
X81686050Y-139258245D01*
X81679526Y-139251721D01*
X81671754Y-139246528D01*
X81593471Y-139168245D01*
X81588277Y-139160472D01*
X81581755Y-139153950D01*
X81567996Y-139130118D01*
X81531971Y-139076203D01*
X81519536Y-139046184D01*
X81508008Y-139026216D01*
X81502041Y-139003946D01*
X81489605Y-138973924D01*
X81476954Y-138910320D01*
X81469834Y-138883747D01*
X81469834Y-138874522D01*
X81468010Y-138865352D01*
X81468010Y-138754647D01*
X81469834Y-138745476D01*
X81469834Y-138736253D01*
X81476953Y-138709682D01*
X81489605Y-138646075D01*
X81502041Y-138616050D01*
X81508008Y-138593784D01*
X81519535Y-138573818D01*
X81531971Y-138543796D01*
X81568000Y-138489873D01*
X81581755Y-138466050D01*
X81588275Y-138459529D01*
X81593471Y-138451754D01*
X81671754Y-138373471D01*
X81679529Y-138368275D01*
X81686050Y-138361755D01*
X81709873Y-138348000D01*
X81763796Y-138311971D01*
X81793818Y-138299535D01*
X81813784Y-138288008D01*
X81836050Y-138282041D01*
X81866075Y-138269605D01*
X81929682Y-138256953D01*
X81956253Y-138249834D01*
X81965477Y-138249834D01*
X81974647Y-138248010D01*
X82085353Y-138248010D01*
X82094523Y-138249834D01*
G37*
G36*
X69244850Y-137505964D02*
G01*
X69295040Y-137511787D01*
X69312189Y-137519359D01*
X69335671Y-137524030D01*
X69360810Y-137540827D01*
X69380696Y-137549608D01*
X69394277Y-137563189D01*
X69416777Y-137578223D01*
X69431810Y-137600722D01*
X69445391Y-137614303D01*
X69454170Y-137634186D01*
X69470970Y-137659329D01*
X69475641Y-137682812D01*
X69483212Y-137699959D01*
X69489033Y-137750139D01*
X69490000Y-137755000D01*
X69490000Y-138855000D01*
X69489032Y-138859863D01*
X69483212Y-138910040D01*
X69475641Y-138927185D01*
X69470970Y-138950671D01*
X69454169Y-138975815D01*
X69445391Y-138995696D01*
X69431812Y-139009274D01*
X69416777Y-139031777D01*
X69394274Y-139046812D01*
X69380696Y-139060391D01*
X69360815Y-139069169D01*
X69335671Y-139085970D01*
X69312185Y-139090641D01*
X69295040Y-139098212D01*
X69244861Y-139104032D01*
X69240000Y-139105000D01*
X68140000Y-139105000D01*
X68135138Y-139104032D01*
X68084959Y-139098212D01*
X68067812Y-139090641D01*
X68044329Y-139085970D01*
X68019186Y-139069170D01*
X67999303Y-139060391D01*
X67985722Y-139046810D01*
X67963223Y-139031777D01*
X67948189Y-139009277D01*
X67934608Y-138995696D01*
X67925827Y-138975810D01*
X67909030Y-138950671D01*
X67904359Y-138927189D01*
X67896787Y-138910040D01*
X67890964Y-138859849D01*
X67890000Y-138855000D01*
X67890000Y-137755000D01*
X67890964Y-137750150D01*
X67896787Y-137699959D01*
X67904359Y-137682808D01*
X67909030Y-137659329D01*
X67925826Y-137634191D01*
X67934608Y-137614303D01*
X67948191Y-137600719D01*
X67963223Y-137578223D01*
X67985719Y-137563191D01*
X67999303Y-137549608D01*
X68019191Y-137540826D01*
X68044329Y-137524030D01*
X68067808Y-137519359D01*
X68084959Y-137511787D01*
X68135151Y-137505964D01*
X68140000Y-137505000D01*
X69240000Y-137505000D01*
X69244850Y-137505964D01*
G37*
G36*
X71462228Y-137539448D02*
G01*
X71607117Y-137599463D01*
X71737515Y-137686592D01*
X71848408Y-137797485D01*
X71935537Y-137927883D01*
X71995552Y-138072772D01*
X72026148Y-138226586D01*
X72026148Y-138383414D01*
X71995552Y-138537228D01*
X71935537Y-138682117D01*
X71848408Y-138812515D01*
X71737515Y-138923408D01*
X71607117Y-139010537D01*
X71462228Y-139070552D01*
X71308414Y-139101148D01*
X71151586Y-139101148D01*
X70997772Y-139070552D01*
X70852883Y-139010537D01*
X70722485Y-138923408D01*
X70611592Y-138812515D01*
X70524463Y-138682117D01*
X70464448Y-138537228D01*
X70433852Y-138383414D01*
X70433852Y-138226586D01*
X70464448Y-138072772D01*
X70524463Y-137927883D01*
X70611592Y-137797485D01*
X70722485Y-137686592D01*
X70852883Y-137599463D01*
X70997772Y-137539448D01*
X71151586Y-137508852D01*
X71308414Y-137508852D01*
X71462228Y-137539448D01*
G37*
G36*
X74002228Y-137539448D02*
G01*
X74147117Y-137599463D01*
X74277515Y-137686592D01*
X74388408Y-137797485D01*
X74475537Y-137927883D01*
X74535552Y-138072772D01*
X74566148Y-138226586D01*
X74566148Y-138383414D01*
X74535552Y-138537228D01*
X74475537Y-138682117D01*
X74388408Y-138812515D01*
X74277515Y-138923408D01*
X74147117Y-139010537D01*
X74002228Y-139070552D01*
X73848414Y-139101148D01*
X73691586Y-139101148D01*
X73537772Y-139070552D01*
X73392883Y-139010537D01*
X73262485Y-138923408D01*
X73151592Y-138812515D01*
X73064463Y-138682117D01*
X73004448Y-138537228D01*
X72973852Y-138383414D01*
X72973852Y-138226586D01*
X73004448Y-138072772D01*
X73064463Y-137927883D01*
X73151592Y-137797485D01*
X73262485Y-137686592D01*
X73392883Y-137599463D01*
X73537772Y-137539448D01*
X73691586Y-137508852D01*
X73848414Y-137508852D01*
X74002228Y-137539448D01*
G37*
G36*
X76542228Y-137539448D02*
G01*
X76687117Y-137599463D01*
X76817515Y-137686592D01*
X76928408Y-137797485D01*
X77015537Y-137927883D01*
X77075552Y-138072772D01*
X77106148Y-138226586D01*
X77106148Y-138383414D01*
X77075552Y-138537228D01*
X77015537Y-138682117D01*
X76928408Y-138812515D01*
X76817515Y-138923408D01*
X76687117Y-139010537D01*
X76542228Y-139070552D01*
X76388414Y-139101148D01*
X76231586Y-139101148D01*
X76077772Y-139070552D01*
X75932883Y-139010537D01*
X75802485Y-138923408D01*
X75691592Y-138812515D01*
X75604463Y-138682117D01*
X75544448Y-138537228D01*
X75513852Y-138383414D01*
X75513852Y-138226586D01*
X75544448Y-138072772D01*
X75604463Y-137927883D01*
X75691592Y-137797485D01*
X75802485Y-137686592D01*
X75932883Y-137599463D01*
X76077772Y-137539448D01*
X76231586Y-137508852D01*
X76388414Y-137508852D01*
X76542228Y-137539448D01*
G37*
G36*
X62232228Y-137044448D02*
G01*
X62377117Y-137104463D01*
X62507515Y-137191592D01*
X62618408Y-137302485D01*
X62705537Y-137432883D01*
X62765552Y-137577772D01*
X62796148Y-137731586D01*
X62796148Y-137888414D01*
X62765552Y-138042228D01*
X62705537Y-138187117D01*
X62618408Y-138317515D01*
X62507515Y-138428408D01*
X62377117Y-138515537D01*
X62232228Y-138575552D01*
X62078414Y-138606148D01*
X61921586Y-138606148D01*
X61767772Y-138575552D01*
X61622883Y-138515537D01*
X61492485Y-138428408D01*
X61381592Y-138317515D01*
X61294463Y-138187117D01*
X61234448Y-138042228D01*
X61203852Y-137888414D01*
X61203852Y-137731586D01*
X61234448Y-137577772D01*
X61294463Y-137432883D01*
X61381592Y-137302485D01*
X61492485Y-137191592D01*
X61622883Y-137104463D01*
X61767772Y-137044448D01*
X61921586Y-137013852D01*
X62078414Y-137013852D01*
X62232228Y-137044448D01*
G37*
G36*
X144952228Y-136454448D02*
G01*
X145097117Y-136514463D01*
X145227515Y-136601592D01*
X145338408Y-136712485D01*
X145425537Y-136842883D01*
X145485552Y-136987772D01*
X145516148Y-137141586D01*
X145516148Y-137298414D01*
X145485552Y-137452228D01*
X145425537Y-137597117D01*
X145338408Y-137727515D01*
X145227515Y-137838408D01*
X145097117Y-137925537D01*
X144952228Y-137985552D01*
X144798414Y-138016148D01*
X144641586Y-138016148D01*
X144487772Y-137985552D01*
X144342883Y-137925537D01*
X144212485Y-137838408D01*
X144101592Y-137727515D01*
X144014463Y-137597117D01*
X143954448Y-137452228D01*
X143923852Y-137298414D01*
X143923852Y-137141586D01*
X143954448Y-136987772D01*
X144014463Y-136842883D01*
X144101592Y-136712485D01*
X144212485Y-136601592D01*
X144342883Y-136514463D01*
X144487772Y-136454448D01*
X144641586Y-136423852D01*
X144798414Y-136423852D01*
X144952228Y-136454448D01*
G37*
G36*
X132062228Y-136269448D02*
G01*
X132207117Y-136329463D01*
X132337515Y-136416592D01*
X132448408Y-136527485D01*
X132535537Y-136657883D01*
X132595552Y-136802772D01*
X132626148Y-136956586D01*
X132626148Y-137113414D01*
X132595552Y-137267228D01*
X132535537Y-137412117D01*
X132448408Y-137542515D01*
X132337515Y-137653408D01*
X132207117Y-137740537D01*
X132062228Y-137800552D01*
X131908414Y-137831148D01*
X131751586Y-137831148D01*
X131597772Y-137800552D01*
X131452883Y-137740537D01*
X131322485Y-137653408D01*
X131211592Y-137542515D01*
X131124463Y-137412117D01*
X131064448Y-137267228D01*
X131033852Y-137113414D01*
X131033852Y-136956586D01*
X131064448Y-136802772D01*
X131124463Y-136657883D01*
X131211592Y-136527485D01*
X131322485Y-136416592D01*
X131452883Y-136329463D01*
X131597772Y-136269448D01*
X131751586Y-136238852D01*
X131908414Y-136238852D01*
X132062228Y-136269448D01*
G37*
G36*
X134602228Y-136269448D02*
G01*
X134747117Y-136329463D01*
X134877515Y-136416592D01*
X134988408Y-136527485D01*
X135075537Y-136657883D01*
X135135552Y-136802772D01*
X135166148Y-136956586D01*
X135166148Y-137113414D01*
X135135552Y-137267228D01*
X135075537Y-137412117D01*
X134988408Y-137542515D01*
X134877515Y-137653408D01*
X134747117Y-137740537D01*
X134602228Y-137800552D01*
X134448414Y-137831148D01*
X134291586Y-137831148D01*
X134137772Y-137800552D01*
X133992883Y-137740537D01*
X133862485Y-137653408D01*
X133751592Y-137542515D01*
X133664463Y-137412117D01*
X133604448Y-137267228D01*
X133573852Y-137113414D01*
X133573852Y-136956586D01*
X133604448Y-136802772D01*
X133664463Y-136657883D01*
X133751592Y-136527485D01*
X133862485Y-136416592D01*
X133992883Y-136329463D01*
X134137772Y-136269448D01*
X134291586Y-136238852D01*
X134448414Y-136238852D01*
X134602228Y-136269448D01*
G37*
G36*
X137142228Y-136269448D02*
G01*
X137287117Y-136329463D01*
X137417515Y-136416592D01*
X137528408Y-136527485D01*
X137615537Y-136657883D01*
X137675552Y-136802772D01*
X137706148Y-136956586D01*
X137706148Y-137113414D01*
X137675552Y-137267228D01*
X137615537Y-137412117D01*
X137528408Y-137542515D01*
X137417515Y-137653408D01*
X137287117Y-137740537D01*
X137142228Y-137800552D01*
X136988414Y-137831148D01*
X136831586Y-137831148D01*
X136677772Y-137800552D01*
X136532883Y-137740537D01*
X136402485Y-137653408D01*
X136291592Y-137542515D01*
X136204463Y-137412117D01*
X136144448Y-137267228D01*
X136113852Y-137113414D01*
X136113852Y-136956586D01*
X136144448Y-136802772D01*
X136204463Y-136657883D01*
X136291592Y-136527485D01*
X136402485Y-136416592D01*
X136532883Y-136329463D01*
X136677772Y-136269448D01*
X136831586Y-136238852D01*
X136988414Y-136238852D01*
X137142228Y-136269448D01*
G37*
G36*
X139682228Y-136269448D02*
G01*
X139827117Y-136329463D01*
X139957515Y-136416592D01*
X140068408Y-136527485D01*
X140155537Y-136657883D01*
X140215552Y-136802772D01*
X140246148Y-136956586D01*
X140246148Y-137113414D01*
X140215552Y-137267228D01*
X140155537Y-137412117D01*
X140068408Y-137542515D01*
X139957515Y-137653408D01*
X139827117Y-137740537D01*
X139682228Y-137800552D01*
X139528414Y-137831148D01*
X139371586Y-137831148D01*
X139217772Y-137800552D01*
X139072883Y-137740537D01*
X138942485Y-137653408D01*
X138831592Y-137542515D01*
X138744463Y-137412117D01*
X138684448Y-137267228D01*
X138653852Y-137113414D01*
X138653852Y-136956586D01*
X138684448Y-136802772D01*
X138744463Y-136657883D01*
X138831592Y-136527485D01*
X138942485Y-136416592D01*
X139072883Y-136329463D01*
X139217772Y-136269448D01*
X139371586Y-136238852D01*
X139528414Y-136238852D01*
X139682228Y-136269448D01*
G37*
G36*
X82094523Y-135709834D02*
G01*
X82103747Y-135709834D01*
X82130318Y-135716953D01*
X82193924Y-135729605D01*
X82223946Y-135742041D01*
X82246216Y-135748008D01*
X82266184Y-135759536D01*
X82296203Y-135771971D01*
X82350118Y-135807996D01*
X82373950Y-135821755D01*
X82380472Y-135828277D01*
X82388245Y-135833471D01*
X82466528Y-135911754D01*
X82471721Y-135919526D01*
X82478245Y-135926050D01*
X82492005Y-135949884D01*
X82528028Y-136003796D01*
X82540461Y-136033812D01*
X82551992Y-136053784D01*
X82557959Y-136076057D01*
X82570394Y-136106075D01*
X82583044Y-136169676D01*
X82590166Y-136196253D01*
X82590166Y-136205476D01*
X82591990Y-136214647D01*
X82591990Y-136325352D01*
X82590166Y-136334522D01*
X82590166Y-136343747D01*
X82583044Y-136370326D01*
X82570394Y-136433924D01*
X82557960Y-136463940D01*
X82551992Y-136486216D01*
X82540459Y-136506190D01*
X82528028Y-136536203D01*
X82492010Y-136590107D01*
X82478245Y-136613950D01*
X82471719Y-136620475D01*
X82466528Y-136628245D01*
X82388245Y-136706528D01*
X82380475Y-136711719D01*
X82373950Y-136718245D01*
X82350107Y-136732010D01*
X82296203Y-136768028D01*
X82266190Y-136780459D01*
X82246216Y-136791992D01*
X82223940Y-136797960D01*
X82193924Y-136810394D01*
X82130324Y-136823044D01*
X82103747Y-136830166D01*
X82094523Y-136830166D01*
X82085353Y-136831990D01*
X81974647Y-136831990D01*
X81965477Y-136830166D01*
X81956253Y-136830166D01*
X81929676Y-136823044D01*
X81866075Y-136810394D01*
X81836057Y-136797959D01*
X81813784Y-136791992D01*
X81793812Y-136780461D01*
X81763796Y-136768028D01*
X81709884Y-136732005D01*
X81686050Y-136718245D01*
X81679526Y-136711721D01*
X81671754Y-136706528D01*
X81593471Y-136628245D01*
X81588277Y-136620472D01*
X81581755Y-136613950D01*
X81567996Y-136590118D01*
X81531971Y-136536203D01*
X81519536Y-136506184D01*
X81508008Y-136486216D01*
X81502041Y-136463946D01*
X81489605Y-136433924D01*
X81476954Y-136370320D01*
X81469834Y-136343747D01*
X81469834Y-136334522D01*
X81468010Y-136325352D01*
X81468010Y-136214647D01*
X81469834Y-136205476D01*
X81469834Y-136196253D01*
X81476953Y-136169682D01*
X81489605Y-136106075D01*
X81502041Y-136076050D01*
X81508008Y-136053784D01*
X81519535Y-136033818D01*
X81531971Y-136003796D01*
X81568000Y-135949873D01*
X81581755Y-135926050D01*
X81588275Y-135919529D01*
X81593471Y-135911754D01*
X81671754Y-135833471D01*
X81679529Y-135828275D01*
X81686050Y-135821755D01*
X81709873Y-135808000D01*
X81763796Y-135771971D01*
X81793818Y-135759535D01*
X81813784Y-135748008D01*
X81836050Y-135742041D01*
X81866075Y-135729605D01*
X81929682Y-135716953D01*
X81956253Y-135709834D01*
X81965477Y-135709834D01*
X81974647Y-135708010D01*
X82085353Y-135708010D01*
X82094523Y-135709834D01*
G37*
G36*
X90034523Y-135709834D02*
G01*
X90043747Y-135709834D01*
X90070318Y-135716953D01*
X90133924Y-135729605D01*
X90163946Y-135742041D01*
X90186216Y-135748008D01*
X90206184Y-135759536D01*
X90236203Y-135771971D01*
X90290118Y-135807996D01*
X90313950Y-135821755D01*
X90320472Y-135828277D01*
X90328245Y-135833471D01*
X90406528Y-135911754D01*
X90411721Y-135919526D01*
X90418245Y-135926050D01*
X90432005Y-135949884D01*
X90468028Y-136003796D01*
X90480461Y-136033812D01*
X90491992Y-136053784D01*
X90497959Y-136076057D01*
X90510394Y-136106075D01*
X90523044Y-136169676D01*
X90530166Y-136196253D01*
X90530166Y-136205476D01*
X90531990Y-136214647D01*
X90531990Y-136325352D01*
X90530166Y-136334522D01*
X90530166Y-136343747D01*
X90523044Y-136370326D01*
X90510394Y-136433924D01*
X90497960Y-136463940D01*
X90491992Y-136486216D01*
X90480459Y-136506190D01*
X90468028Y-136536203D01*
X90432010Y-136590107D01*
X90418245Y-136613950D01*
X90411719Y-136620475D01*
X90406528Y-136628245D01*
X90328245Y-136706528D01*
X90320475Y-136711719D01*
X90313950Y-136718245D01*
X90290107Y-136732010D01*
X90236203Y-136768028D01*
X90206190Y-136780459D01*
X90186216Y-136791992D01*
X90163940Y-136797960D01*
X90133924Y-136810394D01*
X90070324Y-136823044D01*
X90043747Y-136830166D01*
X90034523Y-136830166D01*
X90025353Y-136831990D01*
X89914647Y-136831990D01*
X89905477Y-136830166D01*
X89896253Y-136830166D01*
X89869676Y-136823044D01*
X89806075Y-136810394D01*
X89776057Y-136797959D01*
X89753784Y-136791992D01*
X89733812Y-136780461D01*
X89703796Y-136768028D01*
X89649884Y-136732005D01*
X89626050Y-136718245D01*
X89619526Y-136711721D01*
X89611754Y-136706528D01*
X89533471Y-136628245D01*
X89528277Y-136620472D01*
X89521755Y-136613950D01*
X89507996Y-136590118D01*
X89471971Y-136536203D01*
X89459536Y-136506184D01*
X89448008Y-136486216D01*
X89442041Y-136463946D01*
X89429605Y-136433924D01*
X89416954Y-136370320D01*
X89409834Y-136343747D01*
X89409834Y-136334522D01*
X89408010Y-136325352D01*
X89408010Y-136214647D01*
X89409834Y-136205476D01*
X89409834Y-136196253D01*
X89416953Y-136169682D01*
X89429605Y-136106075D01*
X89442041Y-136076050D01*
X89448008Y-136053784D01*
X89459535Y-136033818D01*
X89471971Y-136003796D01*
X89508000Y-135949873D01*
X89521755Y-135926050D01*
X89528275Y-135919529D01*
X89533471Y-135911754D01*
X89611754Y-135833471D01*
X89619529Y-135828275D01*
X89626050Y-135821755D01*
X89649873Y-135808000D01*
X89703796Y-135771971D01*
X89733818Y-135759535D01*
X89753784Y-135748008D01*
X89776050Y-135742041D01*
X89806075Y-135729605D01*
X89869682Y-135716953D01*
X89896253Y-135709834D01*
X89905477Y-135709834D01*
X89914647Y-135708010D01*
X90025353Y-135708010D01*
X90034523Y-135709834D01*
G37*
G36*
X97350000Y-136350000D02*
G01*
X95650000Y-136350000D01*
X95650000Y-134650000D01*
X97350000Y-134650000D01*
X97350000Y-136350000D01*
G37*
G36*
X99286742Y-134686601D02*
G01*
X99440687Y-134750367D01*
X99579234Y-134842941D01*
X99697059Y-134960766D01*
X99789633Y-135099313D01*
X99853399Y-135253258D01*
X99885907Y-135416685D01*
X99885907Y-135583315D01*
X99853399Y-135746742D01*
X99789633Y-135900687D01*
X99697059Y-136039234D01*
X99579234Y-136157059D01*
X99440687Y-136249633D01*
X99286742Y-136313399D01*
X99123315Y-136345907D01*
X98956685Y-136345907D01*
X98793258Y-136313399D01*
X98639313Y-136249633D01*
X98500766Y-136157059D01*
X98382941Y-136039234D01*
X98290367Y-135900687D01*
X98226601Y-135746742D01*
X98194093Y-135583315D01*
X98194093Y-135416685D01*
X98226601Y-135253258D01*
X98290367Y-135099313D01*
X98382941Y-134960766D01*
X98500766Y-134842941D01*
X98639313Y-134750367D01*
X98793258Y-134686601D01*
X98956685Y-134654093D01*
X99123315Y-134654093D01*
X99286742Y-134686601D01*
G37*
G36*
X151966742Y-133446601D02*
G01*
X152120687Y-133510367D01*
X152259234Y-133602941D01*
X152377059Y-133720766D01*
X152469633Y-133859313D01*
X152533399Y-134013258D01*
X152565907Y-134176685D01*
X152565907Y-134343315D01*
X152533399Y-134506742D01*
X152469633Y-134660687D01*
X152377059Y-134799234D01*
X152259234Y-134917059D01*
X152120687Y-135009633D01*
X151966742Y-135073399D01*
X151803315Y-135105907D01*
X151636685Y-135105907D01*
X151473258Y-135073399D01*
X151319313Y-135009633D01*
X151180766Y-134917059D01*
X151062941Y-134799234D01*
X150970367Y-134660687D01*
X150906601Y-134506742D01*
X150874093Y-134343315D01*
X150874093Y-134176685D01*
X150906601Y-134013258D01*
X150970367Y-133859313D01*
X151062941Y-133720766D01*
X151180766Y-133602941D01*
X151319313Y-133510367D01*
X151473258Y-133446601D01*
X151636685Y-133414093D01*
X151803315Y-133414093D01*
X151966742Y-133446601D01*
G37*
G36*
X120861197Y-133490811D02*
G01*
X120999204Y-133547976D01*
X121123408Y-133630966D01*
X121229034Y-133736592D01*
X121312024Y-133860796D01*
X121369189Y-133998803D01*
X121398331Y-134145311D01*
X121398331Y-134294689D01*
X121369189Y-134441197D01*
X121312024Y-134579204D01*
X121229034Y-134703408D01*
X121123408Y-134809034D01*
X120999204Y-134892024D01*
X120861197Y-134949189D01*
X120714689Y-134978331D01*
X120565311Y-134978331D01*
X120418803Y-134949189D01*
X120280796Y-134892024D01*
X120156592Y-134809034D01*
X120050966Y-134703408D01*
X119967976Y-134579204D01*
X119910811Y-134441197D01*
X119881669Y-134294689D01*
X119881669Y-134145311D01*
X119910811Y-133998803D01*
X119967976Y-133860796D01*
X120050966Y-133736592D01*
X120156592Y-133630966D01*
X120280796Y-133547976D01*
X120418803Y-133490811D01*
X120565311Y-133461669D01*
X120714689Y-133461669D01*
X120861197Y-133490811D01*
G37*
G36*
X123401197Y-133490811D02*
G01*
X123539204Y-133547976D01*
X123663408Y-133630966D01*
X123769034Y-133736592D01*
X123852024Y-133860796D01*
X123909189Y-133998803D01*
X123938331Y-134145311D01*
X123938331Y-134294689D01*
X123909189Y-134441197D01*
X123852024Y-134579204D01*
X123769034Y-134703408D01*
X123663408Y-134809034D01*
X123539204Y-134892024D01*
X123401197Y-134949189D01*
X123254689Y-134978331D01*
X123105311Y-134978331D01*
X122958803Y-134949189D01*
X122820796Y-134892024D01*
X122696592Y-134809034D01*
X122590966Y-134703408D01*
X122507976Y-134579204D01*
X122450811Y-134441197D01*
X122421669Y-134294689D01*
X122421669Y-134145311D01*
X122450811Y-133998803D01*
X122507976Y-133860796D01*
X122590966Y-133736592D01*
X122696592Y-133630966D01*
X122820796Y-133547976D01*
X122958803Y-133490811D01*
X123105311Y-133461669D01*
X123254689Y-133461669D01*
X123401197Y-133490811D01*
G37*
G36*
X125941197Y-133490811D02*
G01*
X126079204Y-133547976D01*
X126203408Y-133630966D01*
X126309034Y-133736592D01*
X126392024Y-133860796D01*
X126449189Y-133998803D01*
X126478331Y-134145311D01*
X126478331Y-134294689D01*
X126449189Y-134441197D01*
X126392024Y-134579204D01*
X126309034Y-134703408D01*
X126203408Y-134809034D01*
X126079204Y-134892024D01*
X125941197Y-134949189D01*
X125794689Y-134978331D01*
X125645311Y-134978331D01*
X125498803Y-134949189D01*
X125360796Y-134892024D01*
X125236592Y-134809034D01*
X125130966Y-134703408D01*
X125047976Y-134579204D01*
X124990811Y-134441197D01*
X124961669Y-134294689D01*
X124961669Y-134145311D01*
X124990811Y-133998803D01*
X125047976Y-133860796D01*
X125130966Y-133736592D01*
X125236592Y-133630966D01*
X125360796Y-133547976D01*
X125498803Y-133490811D01*
X125645311Y-133461669D01*
X125794689Y-133461669D01*
X125941197Y-133490811D01*
G37*
G36*
X82094523Y-133169834D02*
G01*
X82103747Y-133169834D01*
X82130318Y-133176953D01*
X82193924Y-133189605D01*
X82223946Y-133202041D01*
X82246216Y-133208008D01*
X82266184Y-133219536D01*
X82296203Y-133231971D01*
X82350118Y-133267996D01*
X82373950Y-133281755D01*
X82380472Y-133288277D01*
X82388245Y-133293471D01*
X82466528Y-133371754D01*
X82471721Y-133379526D01*
X82478245Y-133386050D01*
X82492005Y-133409884D01*
X82528028Y-133463796D01*
X82540461Y-133493812D01*
X82551992Y-133513784D01*
X82557959Y-133536057D01*
X82570394Y-133566075D01*
X82583044Y-133629676D01*
X82590166Y-133656253D01*
X82590166Y-133665476D01*
X82591990Y-133674647D01*
X82591990Y-133785352D01*
X82590166Y-133794522D01*
X82590166Y-133803747D01*
X82583044Y-133830326D01*
X82570394Y-133893924D01*
X82557960Y-133923940D01*
X82551992Y-133946216D01*
X82540459Y-133966190D01*
X82528028Y-133996203D01*
X82492010Y-134050107D01*
X82478245Y-134073950D01*
X82471719Y-134080475D01*
X82466528Y-134088245D01*
X82388245Y-134166528D01*
X82380475Y-134171719D01*
X82373950Y-134178245D01*
X82350107Y-134192010D01*
X82296203Y-134228028D01*
X82266190Y-134240459D01*
X82246216Y-134251992D01*
X82223940Y-134257960D01*
X82193924Y-134270394D01*
X82130324Y-134283044D01*
X82103747Y-134290166D01*
X82094523Y-134290166D01*
X82085353Y-134291990D01*
X81974647Y-134291990D01*
X81965477Y-134290166D01*
X81956253Y-134290166D01*
X81929676Y-134283044D01*
X81866075Y-134270394D01*
X81836057Y-134257959D01*
X81813784Y-134251992D01*
X81793812Y-134240461D01*
X81763796Y-134228028D01*
X81709884Y-134192005D01*
X81686050Y-134178245D01*
X81679526Y-134171721D01*
X81671754Y-134166528D01*
X81593471Y-134088245D01*
X81588277Y-134080472D01*
X81581755Y-134073950D01*
X81567996Y-134050118D01*
X81531971Y-133996203D01*
X81519536Y-133966184D01*
X81508008Y-133946216D01*
X81502041Y-133923946D01*
X81489605Y-133893924D01*
X81476954Y-133830320D01*
X81469834Y-133803747D01*
X81469834Y-133794522D01*
X81468010Y-133785352D01*
X81468010Y-133674647D01*
X81469834Y-133665476D01*
X81469834Y-133656253D01*
X81476953Y-133629682D01*
X81489605Y-133566075D01*
X81502041Y-133536050D01*
X81508008Y-133513784D01*
X81519535Y-133493818D01*
X81531971Y-133463796D01*
X81568000Y-133409873D01*
X81581755Y-133386050D01*
X81588275Y-133379529D01*
X81593471Y-133371754D01*
X81671754Y-133293471D01*
X81679529Y-133288275D01*
X81686050Y-133281755D01*
X81709873Y-133268000D01*
X81763796Y-133231971D01*
X81793818Y-133219535D01*
X81813784Y-133208008D01*
X81836050Y-133202041D01*
X81866075Y-133189605D01*
X81929682Y-133176953D01*
X81956253Y-133169834D01*
X81965477Y-133169834D01*
X81974647Y-133168010D01*
X82085353Y-133168010D01*
X82094523Y-133169834D01*
G37*
G36*
X90034523Y-133169834D02*
G01*
X90043747Y-133169834D01*
X90070318Y-133176953D01*
X90133924Y-133189605D01*
X90163946Y-133202041D01*
X90186216Y-133208008D01*
X90206184Y-133219536D01*
X90236203Y-133231971D01*
X90290118Y-133267996D01*
X90313950Y-133281755D01*
X90320472Y-133288277D01*
X90328245Y-133293471D01*
X90406528Y-133371754D01*
X90411721Y-133379526D01*
X90418245Y-133386050D01*
X90432005Y-133409884D01*
X90468028Y-133463796D01*
X90480461Y-133493812D01*
X90491992Y-133513784D01*
X90497959Y-133536057D01*
X90510394Y-133566075D01*
X90523044Y-133629676D01*
X90530166Y-133656253D01*
X90530166Y-133665476D01*
X90531990Y-133674647D01*
X90531990Y-133785352D01*
X90530166Y-133794522D01*
X90530166Y-133803747D01*
X90523044Y-133830326D01*
X90510394Y-133893924D01*
X90497960Y-133923940D01*
X90491992Y-133946216D01*
X90480459Y-133966190D01*
X90468028Y-133996203D01*
X90432010Y-134050107D01*
X90418245Y-134073950D01*
X90411719Y-134080475D01*
X90406528Y-134088245D01*
X90328245Y-134166528D01*
X90320475Y-134171719D01*
X90313950Y-134178245D01*
X90290107Y-134192010D01*
X90236203Y-134228028D01*
X90206190Y-134240459D01*
X90186216Y-134251992D01*
X90163940Y-134257960D01*
X90133924Y-134270394D01*
X90070324Y-134283044D01*
X90043747Y-134290166D01*
X90034523Y-134290166D01*
X90025353Y-134291990D01*
X89914647Y-134291990D01*
X89905477Y-134290166D01*
X89896253Y-134290166D01*
X89869676Y-134283044D01*
X89806075Y-134270394D01*
X89776057Y-134257959D01*
X89753784Y-134251992D01*
X89733812Y-134240461D01*
X89703796Y-134228028D01*
X89649884Y-134192005D01*
X89626050Y-134178245D01*
X89619526Y-134171721D01*
X89611754Y-134166528D01*
X89533471Y-134088245D01*
X89528277Y-134080472D01*
X89521755Y-134073950D01*
X89507996Y-134050118D01*
X89471971Y-133996203D01*
X89459536Y-133966184D01*
X89448008Y-133946216D01*
X89442041Y-133923946D01*
X89429605Y-133893924D01*
X89416954Y-133830320D01*
X89409834Y-133803747D01*
X89409834Y-133794522D01*
X89408010Y-133785352D01*
X89408010Y-133674647D01*
X89409834Y-133665476D01*
X89409834Y-133656253D01*
X89416953Y-133629682D01*
X89429605Y-133566075D01*
X89442041Y-133536050D01*
X89448008Y-133513784D01*
X89459535Y-133493818D01*
X89471971Y-133463796D01*
X89508000Y-133409873D01*
X89521755Y-133386050D01*
X89528275Y-133379529D01*
X89533471Y-133371754D01*
X89611754Y-133293471D01*
X89619529Y-133288275D01*
X89626050Y-133281755D01*
X89649873Y-133268000D01*
X89703796Y-133231971D01*
X89733818Y-133219535D01*
X89753784Y-133208008D01*
X89776050Y-133202041D01*
X89806075Y-133189605D01*
X89869682Y-133176953D01*
X89896253Y-133169834D01*
X89905477Y-133169834D01*
X89914647Y-133168010D01*
X90025353Y-133168010D01*
X90034523Y-133169834D01*
G37*
G36*
X152570000Y-132570000D02*
G01*
X150870000Y-132570000D01*
X150870000Y-130870000D01*
X152570000Y-130870000D01*
X152570000Y-132570000D01*
G37*
G36*
X113685000Y-132065000D02*
G01*
X112555000Y-132065000D01*
X112555000Y-130935000D01*
X113685000Y-130935000D01*
X113685000Y-132065000D01*
G37*
G36*
X105564523Y-130939834D02*
G01*
X105573747Y-130939834D01*
X105600318Y-130946953D01*
X105663924Y-130959605D01*
X105693946Y-130972041D01*
X105716216Y-130978008D01*
X105736184Y-130989536D01*
X105766203Y-131001971D01*
X105820118Y-131037996D01*
X105843950Y-131051755D01*
X105850472Y-131058277D01*
X105858245Y-131063471D01*
X105936528Y-131141754D01*
X105941721Y-131149526D01*
X105948245Y-131156050D01*
X105962005Y-131179884D01*
X105998028Y-131233796D01*
X106010461Y-131263812D01*
X106021992Y-131283784D01*
X106027959Y-131306057D01*
X106040394Y-131336075D01*
X106053044Y-131399676D01*
X106060166Y-131426253D01*
X106060166Y-131435476D01*
X106061990Y-131444647D01*
X106061990Y-131555352D01*
X106060166Y-131564522D01*
X106060166Y-131573747D01*
X106053044Y-131600326D01*
X106040394Y-131663924D01*
X106027960Y-131693940D01*
X106021992Y-131716216D01*
X106010459Y-131736190D01*
X105998028Y-131766203D01*
X105962010Y-131820107D01*
X105948245Y-131843950D01*
X105941719Y-131850475D01*
X105936528Y-131858245D01*
X105858245Y-131936528D01*
X105850475Y-131941719D01*
X105843950Y-131948245D01*
X105820107Y-131962010D01*
X105766203Y-131998028D01*
X105736190Y-132010459D01*
X105716216Y-132021992D01*
X105693940Y-132027960D01*
X105663924Y-132040394D01*
X105600324Y-132053044D01*
X105573747Y-132060166D01*
X105564523Y-132060166D01*
X105555353Y-132061990D01*
X105444647Y-132061990D01*
X105435477Y-132060166D01*
X105426253Y-132060166D01*
X105399676Y-132053044D01*
X105336075Y-132040394D01*
X105306057Y-132027959D01*
X105283784Y-132021992D01*
X105263812Y-132010461D01*
X105233796Y-131998028D01*
X105179884Y-131962005D01*
X105156050Y-131948245D01*
X105149526Y-131941721D01*
X105141754Y-131936528D01*
X105063471Y-131858245D01*
X105058277Y-131850472D01*
X105051755Y-131843950D01*
X105037996Y-131820118D01*
X105001971Y-131766203D01*
X104989536Y-131736184D01*
X104978008Y-131716216D01*
X104972041Y-131693946D01*
X104959605Y-131663924D01*
X104946954Y-131600320D01*
X104939834Y-131573747D01*
X104939834Y-131564522D01*
X104938010Y-131555352D01*
X104938010Y-131444647D01*
X104939834Y-131435476D01*
X104939834Y-131426253D01*
X104946953Y-131399682D01*
X104959605Y-131336075D01*
X104972041Y-131306050D01*
X104978008Y-131283784D01*
X104989535Y-131263818D01*
X105001971Y-131233796D01*
X105038000Y-131179873D01*
X105051755Y-131156050D01*
X105058275Y-131149529D01*
X105063471Y-131141754D01*
X105141754Y-131063471D01*
X105149529Y-131058275D01*
X105156050Y-131051755D01*
X105179873Y-131038000D01*
X105233796Y-131001971D01*
X105263818Y-130989535D01*
X105283784Y-130978008D01*
X105306050Y-130972041D01*
X105336075Y-130959605D01*
X105399682Y-130946953D01*
X105426253Y-130939834D01*
X105435477Y-130939834D01*
X105444647Y-130938010D01*
X105555353Y-130938010D01*
X105564523Y-130939834D01*
G37*
G36*
X108104523Y-130939834D02*
G01*
X108113747Y-130939834D01*
X108140318Y-130946953D01*
X108203924Y-130959605D01*
X108233946Y-130972041D01*
X108256216Y-130978008D01*
X108276184Y-130989536D01*
X108306203Y-131001971D01*
X108360118Y-131037996D01*
X108383950Y-131051755D01*
X108390472Y-131058277D01*
X108398245Y-131063471D01*
X108476528Y-131141754D01*
X108481721Y-131149526D01*
X108488245Y-131156050D01*
X108502005Y-131179884D01*
X108538028Y-131233796D01*
X108550461Y-131263812D01*
X108561992Y-131283784D01*
X108567959Y-131306057D01*
X108580394Y-131336075D01*
X108593044Y-131399676D01*
X108600166Y-131426253D01*
X108600166Y-131435476D01*
X108601990Y-131444647D01*
X108601990Y-131555352D01*
X108600166Y-131564522D01*
X108600166Y-131573747D01*
X108593044Y-131600326D01*
X108580394Y-131663924D01*
X108567960Y-131693940D01*
X108561992Y-131716216D01*
X108550459Y-131736190D01*
X108538028Y-131766203D01*
X108502010Y-131820107D01*
X108488245Y-131843950D01*
X108481719Y-131850475D01*
X108476528Y-131858245D01*
X108398245Y-131936528D01*
X108390475Y-131941719D01*
X108383950Y-131948245D01*
X108360107Y-131962010D01*
X108306203Y-131998028D01*
X108276190Y-132010459D01*
X108256216Y-132021992D01*
X108233940Y-132027960D01*
X108203924Y-132040394D01*
X108140324Y-132053044D01*
X108113747Y-132060166D01*
X108104523Y-132060166D01*
X108095353Y-132061990D01*
X107984647Y-132061990D01*
X107975477Y-132060166D01*
X107966253Y-132060166D01*
X107939676Y-132053044D01*
X107876075Y-132040394D01*
X107846057Y-132027959D01*
X107823784Y-132021992D01*
X107803812Y-132010461D01*
X107773796Y-131998028D01*
X107719884Y-131962005D01*
X107696050Y-131948245D01*
X107689526Y-131941721D01*
X107681754Y-131936528D01*
X107603471Y-131858245D01*
X107598277Y-131850472D01*
X107591755Y-131843950D01*
X107577996Y-131820118D01*
X107541971Y-131766203D01*
X107529536Y-131736184D01*
X107518008Y-131716216D01*
X107512041Y-131693946D01*
X107499605Y-131663924D01*
X107486954Y-131600320D01*
X107479834Y-131573747D01*
X107479834Y-131564522D01*
X107478010Y-131555352D01*
X107478010Y-131444647D01*
X107479834Y-131435476D01*
X107479834Y-131426253D01*
X107486953Y-131399682D01*
X107499605Y-131336075D01*
X107512041Y-131306050D01*
X107518008Y-131283784D01*
X107529535Y-131263818D01*
X107541971Y-131233796D01*
X107578000Y-131179873D01*
X107591755Y-131156050D01*
X107598275Y-131149529D01*
X107603471Y-131141754D01*
X107681754Y-131063471D01*
X107689529Y-131058275D01*
X107696050Y-131051755D01*
X107719873Y-131038000D01*
X107773796Y-131001971D01*
X107803818Y-130989535D01*
X107823784Y-130978008D01*
X107846050Y-130972041D01*
X107876075Y-130959605D01*
X107939682Y-130946953D01*
X107966253Y-130939834D01*
X107975477Y-130939834D01*
X107984647Y-130938010D01*
X108095353Y-130938010D01*
X108104523Y-130939834D01*
G37*
G36*
X110644523Y-130939834D02*
G01*
X110653747Y-130939834D01*
X110680318Y-130946953D01*
X110743924Y-130959605D01*
X110773946Y-130972041D01*
X110796216Y-130978008D01*
X110816184Y-130989536D01*
X110846203Y-131001971D01*
X110900118Y-131037996D01*
X110923950Y-131051755D01*
X110930472Y-131058277D01*
X110938245Y-131063471D01*
X111016528Y-131141754D01*
X111021721Y-131149526D01*
X111028245Y-131156050D01*
X111042005Y-131179884D01*
X111078028Y-131233796D01*
X111090461Y-131263812D01*
X111101992Y-131283784D01*
X111107959Y-131306057D01*
X111120394Y-131336075D01*
X111133044Y-131399676D01*
X111140166Y-131426253D01*
X111140166Y-131435476D01*
X111141990Y-131444647D01*
X111141990Y-131555352D01*
X111140166Y-131564522D01*
X111140166Y-131573747D01*
X111133044Y-131600326D01*
X111120394Y-131663924D01*
X111107960Y-131693940D01*
X111101992Y-131716216D01*
X111090459Y-131736190D01*
X111078028Y-131766203D01*
X111042010Y-131820107D01*
X111028245Y-131843950D01*
X111021719Y-131850475D01*
X111016528Y-131858245D01*
X110938245Y-131936528D01*
X110930475Y-131941719D01*
X110923950Y-131948245D01*
X110900107Y-131962010D01*
X110846203Y-131998028D01*
X110816190Y-132010459D01*
X110796216Y-132021992D01*
X110773940Y-132027960D01*
X110743924Y-132040394D01*
X110680324Y-132053044D01*
X110653747Y-132060166D01*
X110644523Y-132060166D01*
X110635353Y-132061990D01*
X110524647Y-132061990D01*
X110515477Y-132060166D01*
X110506253Y-132060166D01*
X110479676Y-132053044D01*
X110416075Y-132040394D01*
X110386057Y-132027959D01*
X110363784Y-132021992D01*
X110343812Y-132010461D01*
X110313796Y-131998028D01*
X110259884Y-131962005D01*
X110236050Y-131948245D01*
X110229526Y-131941721D01*
X110221754Y-131936528D01*
X110143471Y-131858245D01*
X110138277Y-131850472D01*
X110131755Y-131843950D01*
X110117996Y-131820118D01*
X110081971Y-131766203D01*
X110069536Y-131736184D01*
X110058008Y-131716216D01*
X110052041Y-131693946D01*
X110039605Y-131663924D01*
X110026954Y-131600320D01*
X110019834Y-131573747D01*
X110019834Y-131564522D01*
X110018010Y-131555352D01*
X110018010Y-131444647D01*
X110019834Y-131435476D01*
X110019834Y-131426253D01*
X110026953Y-131399682D01*
X110039605Y-131336075D01*
X110052041Y-131306050D01*
X110058008Y-131283784D01*
X110069535Y-131263818D01*
X110081971Y-131233796D01*
X110118000Y-131179873D01*
X110131755Y-131156050D01*
X110138275Y-131149529D01*
X110143471Y-131141754D01*
X110221754Y-131063471D01*
X110229529Y-131058275D01*
X110236050Y-131051755D01*
X110259873Y-131038000D01*
X110313796Y-131001971D01*
X110343818Y-130989535D01*
X110363784Y-130978008D01*
X110386050Y-130972041D01*
X110416075Y-130959605D01*
X110479682Y-130946953D01*
X110506253Y-130939834D01*
X110515477Y-130939834D01*
X110524647Y-130938010D01*
X110635353Y-130938010D01*
X110644523Y-130939834D01*
G37*
G36*
X82094523Y-130629834D02*
G01*
X82103747Y-130629834D01*
X82130318Y-130636953D01*
X82193924Y-130649605D01*
X82223946Y-130662041D01*
X82246216Y-130668008D01*
X82266184Y-130679536D01*
X82296203Y-130691971D01*
X82350118Y-130727996D01*
X82373950Y-130741755D01*
X82380472Y-130748277D01*
X82388245Y-130753471D01*
X82466528Y-130831754D01*
X82471721Y-130839526D01*
X82478245Y-130846050D01*
X82492005Y-130869884D01*
X82528028Y-130923796D01*
X82540461Y-130953812D01*
X82551992Y-130973784D01*
X82557959Y-130996057D01*
X82570394Y-131026075D01*
X82583044Y-131089676D01*
X82590166Y-131116253D01*
X82590166Y-131125476D01*
X82591990Y-131134647D01*
X82591990Y-131245352D01*
X82590166Y-131254522D01*
X82590166Y-131263747D01*
X82583044Y-131290326D01*
X82570394Y-131353924D01*
X82557960Y-131383940D01*
X82551992Y-131406216D01*
X82540459Y-131426190D01*
X82528028Y-131456203D01*
X82492010Y-131510107D01*
X82478245Y-131533950D01*
X82471719Y-131540475D01*
X82466528Y-131548245D01*
X82388245Y-131626528D01*
X82380475Y-131631719D01*
X82373950Y-131638245D01*
X82350107Y-131652010D01*
X82296203Y-131688028D01*
X82266190Y-131700459D01*
X82246216Y-131711992D01*
X82223940Y-131717960D01*
X82193924Y-131730394D01*
X82130324Y-131743044D01*
X82103747Y-131750166D01*
X82094523Y-131750166D01*
X82085353Y-131751990D01*
X81974647Y-131751990D01*
X81965477Y-131750166D01*
X81956253Y-131750166D01*
X81929676Y-131743044D01*
X81866075Y-131730394D01*
X81836057Y-131717959D01*
X81813784Y-131711992D01*
X81793812Y-131700461D01*
X81763796Y-131688028D01*
X81709884Y-131652005D01*
X81686050Y-131638245D01*
X81679526Y-131631721D01*
X81671754Y-131626528D01*
X81593471Y-131548245D01*
X81588277Y-131540472D01*
X81581755Y-131533950D01*
X81567996Y-131510118D01*
X81531971Y-131456203D01*
X81519536Y-131426184D01*
X81508008Y-131406216D01*
X81502041Y-131383946D01*
X81489605Y-131353924D01*
X81476954Y-131290320D01*
X81469834Y-131263747D01*
X81469834Y-131254522D01*
X81468010Y-131245352D01*
X81468010Y-131134647D01*
X81469834Y-131125476D01*
X81469834Y-131116253D01*
X81476953Y-131089682D01*
X81489605Y-131026075D01*
X81502041Y-130996050D01*
X81508008Y-130973784D01*
X81519535Y-130953818D01*
X81531971Y-130923796D01*
X81568000Y-130869873D01*
X81581755Y-130846050D01*
X81588275Y-130839529D01*
X81593471Y-130831754D01*
X81671754Y-130753471D01*
X81679529Y-130748275D01*
X81686050Y-130741755D01*
X81709873Y-130728000D01*
X81763796Y-130691971D01*
X81793818Y-130679535D01*
X81813784Y-130668008D01*
X81836050Y-130662041D01*
X81866075Y-130649605D01*
X81929682Y-130636953D01*
X81956253Y-130629834D01*
X81965477Y-130629834D01*
X81974647Y-130628010D01*
X82085353Y-130628010D01*
X82094523Y-130629834D01*
G37*
G36*
X90034523Y-130629834D02*
G01*
X90043747Y-130629834D01*
X90070318Y-130636953D01*
X90133924Y-130649605D01*
X90163946Y-130662041D01*
X90186216Y-130668008D01*
X90206184Y-130679536D01*
X90236203Y-130691971D01*
X90290118Y-130727996D01*
X90313950Y-130741755D01*
X90320472Y-130748277D01*
X90328245Y-130753471D01*
X90406528Y-130831754D01*
X90411721Y-130839526D01*
X90418245Y-130846050D01*
X90432005Y-130869884D01*
X90468028Y-130923796D01*
X90480461Y-130953812D01*
X90491992Y-130973784D01*
X90497959Y-130996057D01*
X90510394Y-131026075D01*
X90523044Y-131089676D01*
X90530166Y-131116253D01*
X90530166Y-131125476D01*
X90531990Y-131134647D01*
X90531990Y-131245352D01*
X90530166Y-131254522D01*
X90530166Y-131263747D01*
X90523044Y-131290326D01*
X90510394Y-131353924D01*
X90497960Y-131383940D01*
X90491992Y-131406216D01*
X90480459Y-131426190D01*
X90468028Y-131456203D01*
X90432010Y-131510107D01*
X90418245Y-131533950D01*
X90411719Y-131540475D01*
X90406528Y-131548245D01*
X90328245Y-131626528D01*
X90320475Y-131631719D01*
X90313950Y-131638245D01*
X90290107Y-131652010D01*
X90236203Y-131688028D01*
X90206190Y-131700459D01*
X90186216Y-131711992D01*
X90163940Y-131717960D01*
X90133924Y-131730394D01*
X90070324Y-131743044D01*
X90043747Y-131750166D01*
X90034523Y-131750166D01*
X90025353Y-131751990D01*
X89914647Y-131751990D01*
X89905477Y-131750166D01*
X89896253Y-131750166D01*
X89869676Y-131743044D01*
X89806075Y-131730394D01*
X89776057Y-131717959D01*
X89753784Y-131711992D01*
X89733812Y-131700461D01*
X89703796Y-131688028D01*
X89649884Y-131652005D01*
X89626050Y-131638245D01*
X89619526Y-131631721D01*
X89611754Y-131626528D01*
X89533471Y-131548245D01*
X89528277Y-131540472D01*
X89521755Y-131533950D01*
X89507996Y-131510118D01*
X89471971Y-131456203D01*
X89459536Y-131426184D01*
X89448008Y-131406216D01*
X89442041Y-131383946D01*
X89429605Y-131353924D01*
X89416954Y-131290320D01*
X89409834Y-131263747D01*
X89409834Y-131254522D01*
X89408010Y-131245352D01*
X89408010Y-131134647D01*
X89409834Y-131125476D01*
X89409834Y-131116253D01*
X89416953Y-131089682D01*
X89429605Y-131026075D01*
X89442041Y-130996050D01*
X89448008Y-130973784D01*
X89459535Y-130953818D01*
X89471971Y-130923796D01*
X89508000Y-130869873D01*
X89521755Y-130846050D01*
X89528275Y-130839529D01*
X89533471Y-130831754D01*
X89611754Y-130753471D01*
X89619529Y-130748275D01*
X89626050Y-130741755D01*
X89649873Y-130728000D01*
X89703796Y-130691971D01*
X89733818Y-130679535D01*
X89753784Y-130668008D01*
X89776050Y-130662041D01*
X89806075Y-130649605D01*
X89869682Y-130636953D01*
X89896253Y-130629834D01*
X89905477Y-130629834D01*
X89914647Y-130628010D01*
X90025353Y-130628010D01*
X90034523Y-130629834D01*
G37*
G36*
X68922228Y-129919448D02*
G01*
X69067117Y-129979463D01*
X69197515Y-130066592D01*
X69308408Y-130177485D01*
X69395537Y-130307883D01*
X69455552Y-130452772D01*
X69486148Y-130606586D01*
X69486148Y-130763414D01*
X69455552Y-130917228D01*
X69395537Y-131062117D01*
X69308408Y-131192515D01*
X69197515Y-131303408D01*
X69067117Y-131390537D01*
X68922228Y-131450552D01*
X68768414Y-131481148D01*
X68611586Y-131481148D01*
X68457772Y-131450552D01*
X68312883Y-131390537D01*
X68182485Y-131303408D01*
X68071592Y-131192515D01*
X67984463Y-131062117D01*
X67924448Y-130917228D01*
X67893852Y-130763414D01*
X67893852Y-130606586D01*
X67924448Y-130452772D01*
X67984463Y-130307883D01*
X68071592Y-130177485D01*
X68182485Y-130066592D01*
X68312883Y-129979463D01*
X68457772Y-129919448D01*
X68611586Y-129888852D01*
X68768414Y-129888852D01*
X68922228Y-129919448D01*
G37*
G36*
X71462228Y-129919448D02*
G01*
X71607117Y-129979463D01*
X71737515Y-130066592D01*
X71848408Y-130177485D01*
X71935537Y-130307883D01*
X71995552Y-130452772D01*
X72026148Y-130606586D01*
X72026148Y-130763414D01*
X71995552Y-130917228D01*
X71935537Y-131062117D01*
X71848408Y-131192515D01*
X71737515Y-131303408D01*
X71607117Y-131390537D01*
X71462228Y-131450552D01*
X71308414Y-131481148D01*
X71151586Y-131481148D01*
X70997772Y-131450552D01*
X70852883Y-131390537D01*
X70722485Y-131303408D01*
X70611592Y-131192515D01*
X70524463Y-131062117D01*
X70464448Y-130917228D01*
X70433852Y-130763414D01*
X70433852Y-130606586D01*
X70464448Y-130452772D01*
X70524463Y-130307883D01*
X70611592Y-130177485D01*
X70722485Y-130066592D01*
X70852883Y-129979463D01*
X70997772Y-129919448D01*
X71151586Y-129888852D01*
X71308414Y-129888852D01*
X71462228Y-129919448D01*
G37*
G36*
X74002228Y-129919448D02*
G01*
X74147117Y-129979463D01*
X74277515Y-130066592D01*
X74388408Y-130177485D01*
X74475537Y-130307883D01*
X74535552Y-130452772D01*
X74566148Y-130606586D01*
X74566148Y-130763414D01*
X74535552Y-130917228D01*
X74475537Y-131062117D01*
X74388408Y-131192515D01*
X74277515Y-131303408D01*
X74147117Y-131390537D01*
X74002228Y-131450552D01*
X73848414Y-131481148D01*
X73691586Y-131481148D01*
X73537772Y-131450552D01*
X73392883Y-131390537D01*
X73262485Y-131303408D01*
X73151592Y-131192515D01*
X73064463Y-131062117D01*
X73004448Y-130917228D01*
X72973852Y-130763414D01*
X72973852Y-130606586D01*
X73004448Y-130452772D01*
X73064463Y-130307883D01*
X73151592Y-130177485D01*
X73262485Y-130066592D01*
X73392883Y-129979463D01*
X73537772Y-129919448D01*
X73691586Y-129888852D01*
X73848414Y-129888852D01*
X74002228Y-129919448D01*
G37*
G36*
X76542228Y-129919448D02*
G01*
X76687117Y-129979463D01*
X76817515Y-130066592D01*
X76928408Y-130177485D01*
X77015537Y-130307883D01*
X77075552Y-130452772D01*
X77106148Y-130606586D01*
X77106148Y-130763414D01*
X77075552Y-130917228D01*
X77015537Y-131062117D01*
X76928408Y-131192515D01*
X76817515Y-131303408D01*
X76687117Y-131390537D01*
X76542228Y-131450552D01*
X76388414Y-131481148D01*
X76231586Y-131481148D01*
X76077772Y-131450552D01*
X75932883Y-131390537D01*
X75802485Y-131303408D01*
X75691592Y-131192515D01*
X75604463Y-131062117D01*
X75544448Y-130917228D01*
X75513852Y-130763414D01*
X75513852Y-130606586D01*
X75544448Y-130452772D01*
X75604463Y-130307883D01*
X75691592Y-130177485D01*
X75802485Y-130066592D01*
X75932883Y-129979463D01*
X76077772Y-129919448D01*
X76231586Y-129888852D01*
X76388414Y-129888852D01*
X76542228Y-129919448D01*
G37*
G36*
X62232228Y-129424448D02*
G01*
X62377117Y-129484463D01*
X62507515Y-129571592D01*
X62618408Y-129682485D01*
X62705537Y-129812883D01*
X62765552Y-129957772D01*
X62796148Y-130111586D01*
X62796148Y-130268414D01*
X62765552Y-130422228D01*
X62705537Y-130567117D01*
X62618408Y-130697515D01*
X62507515Y-130808408D01*
X62377117Y-130895537D01*
X62232228Y-130955552D01*
X62078414Y-130986148D01*
X61921586Y-130986148D01*
X61767772Y-130955552D01*
X61622883Y-130895537D01*
X61492485Y-130808408D01*
X61381592Y-130697515D01*
X61294463Y-130567117D01*
X61234448Y-130422228D01*
X61203852Y-130268414D01*
X61203852Y-130111586D01*
X61234448Y-129957772D01*
X61294463Y-129812883D01*
X61381592Y-129682485D01*
X61492485Y-129571592D01*
X61622883Y-129484463D01*
X61767772Y-129424448D01*
X61921586Y-129393852D01*
X62078414Y-129393852D01*
X62232228Y-129424448D01*
G37*
G36*
X144952228Y-128834448D02*
G01*
X145097117Y-128894463D01*
X145227515Y-128981592D01*
X145338408Y-129092485D01*
X145425537Y-129222883D01*
X145485552Y-129367772D01*
X145516148Y-129521586D01*
X145516148Y-129678414D01*
X145485552Y-129832228D01*
X145425537Y-129977117D01*
X145338408Y-130107515D01*
X145227515Y-130218408D01*
X145097117Y-130305537D01*
X144952228Y-130365552D01*
X144798414Y-130396148D01*
X144641586Y-130396148D01*
X144487772Y-130365552D01*
X144342883Y-130305537D01*
X144212485Y-130218408D01*
X144101592Y-130107515D01*
X144014463Y-129977117D01*
X143954448Y-129832228D01*
X143923852Y-129678414D01*
X143923852Y-129521586D01*
X143954448Y-129367772D01*
X144014463Y-129222883D01*
X144101592Y-129092485D01*
X144212485Y-128981592D01*
X144342883Y-128894463D01*
X144487772Y-128834448D01*
X144641586Y-128803852D01*
X144798414Y-128803852D01*
X144952228Y-128834448D01*
G37*
G36*
X140004850Y-128615964D02*
G01*
X140055040Y-128621787D01*
X140072189Y-128629359D01*
X140095671Y-128634030D01*
X140120810Y-128650827D01*
X140140696Y-128659608D01*
X140154277Y-128673189D01*
X140176777Y-128688223D01*
X140191810Y-128710722D01*
X140205391Y-128724303D01*
X140214170Y-128744186D01*
X140230970Y-128769329D01*
X140235641Y-128792812D01*
X140243212Y-128809959D01*
X140249033Y-128860139D01*
X140250000Y-128865000D01*
X140250000Y-129965000D01*
X140249032Y-129969863D01*
X140243212Y-130020040D01*
X140235641Y-130037185D01*
X140230970Y-130060671D01*
X140214169Y-130085815D01*
X140205391Y-130105696D01*
X140191812Y-130119274D01*
X140176777Y-130141777D01*
X140154274Y-130156812D01*
X140140696Y-130170391D01*
X140120815Y-130179169D01*
X140095671Y-130195970D01*
X140072185Y-130200641D01*
X140055040Y-130208212D01*
X140004861Y-130214032D01*
X140000000Y-130215000D01*
X138900000Y-130215000D01*
X138895138Y-130214032D01*
X138844959Y-130208212D01*
X138827812Y-130200641D01*
X138804329Y-130195970D01*
X138779186Y-130179170D01*
X138759303Y-130170391D01*
X138745722Y-130156810D01*
X138723223Y-130141777D01*
X138708189Y-130119277D01*
X138694608Y-130105696D01*
X138685827Y-130085810D01*
X138669030Y-130060671D01*
X138664359Y-130037189D01*
X138656787Y-130020040D01*
X138650964Y-129969849D01*
X138650000Y-129965000D01*
X138650000Y-128865000D01*
X138650964Y-128860150D01*
X138656787Y-128809959D01*
X138664359Y-128792808D01*
X138669030Y-128769329D01*
X138685826Y-128744191D01*
X138694608Y-128724303D01*
X138708191Y-128710719D01*
X138723223Y-128688223D01*
X138745719Y-128673191D01*
X138759303Y-128659608D01*
X138779191Y-128650826D01*
X138804329Y-128634030D01*
X138827808Y-128629359D01*
X138844959Y-128621787D01*
X138895151Y-128615964D01*
X138900000Y-128615000D01*
X140000000Y-128615000D01*
X140004850Y-128615964D01*
G37*
G36*
X132062228Y-128649448D02*
G01*
X132207117Y-128709463D01*
X132337515Y-128796592D01*
X132448408Y-128907485D01*
X132535537Y-129037883D01*
X132595552Y-129182772D01*
X132626148Y-129336586D01*
X132626148Y-129493414D01*
X132595552Y-129647228D01*
X132535537Y-129792117D01*
X132448408Y-129922515D01*
X132337515Y-130033408D01*
X132207117Y-130120537D01*
X132062228Y-130180552D01*
X131908414Y-130211148D01*
X131751586Y-130211148D01*
X131597772Y-130180552D01*
X131452883Y-130120537D01*
X131322485Y-130033408D01*
X131211592Y-129922515D01*
X131124463Y-129792117D01*
X131064448Y-129647228D01*
X131033852Y-129493414D01*
X131033852Y-129336586D01*
X131064448Y-129182772D01*
X131124463Y-129037883D01*
X131211592Y-128907485D01*
X131322485Y-128796592D01*
X131452883Y-128709463D01*
X131597772Y-128649448D01*
X131751586Y-128618852D01*
X131908414Y-128618852D01*
X132062228Y-128649448D01*
G37*
G36*
X134602228Y-128649448D02*
G01*
X134747117Y-128709463D01*
X134877515Y-128796592D01*
X134988408Y-128907485D01*
X135075537Y-129037883D01*
X135135552Y-129182772D01*
X135166148Y-129336586D01*
X135166148Y-129493414D01*
X135135552Y-129647228D01*
X135075537Y-129792117D01*
X134988408Y-129922515D01*
X134877515Y-130033408D01*
X134747117Y-130120537D01*
X134602228Y-130180552D01*
X134448414Y-130211148D01*
X134291586Y-130211148D01*
X134137772Y-130180552D01*
X133992883Y-130120537D01*
X133862485Y-130033408D01*
X133751592Y-129922515D01*
X133664463Y-129792117D01*
X133604448Y-129647228D01*
X133573852Y-129493414D01*
X133573852Y-129336586D01*
X133604448Y-129182772D01*
X133664463Y-129037883D01*
X133751592Y-128907485D01*
X133862485Y-128796592D01*
X133992883Y-128709463D01*
X134137772Y-128649448D01*
X134291586Y-128618852D01*
X134448414Y-128618852D01*
X134602228Y-128649448D01*
G37*
G36*
X137142228Y-128649448D02*
G01*
X137287117Y-128709463D01*
X137417515Y-128796592D01*
X137528408Y-128907485D01*
X137615537Y-129037883D01*
X137675552Y-129182772D01*
X137706148Y-129336586D01*
X137706148Y-129493414D01*
X137675552Y-129647228D01*
X137615537Y-129792117D01*
X137528408Y-129922515D01*
X137417515Y-130033408D01*
X137287117Y-130120537D01*
X137142228Y-130180552D01*
X136988414Y-130211148D01*
X136831586Y-130211148D01*
X136677772Y-130180552D01*
X136532883Y-130120537D01*
X136402485Y-130033408D01*
X136291592Y-129922515D01*
X136204463Y-129792117D01*
X136144448Y-129647228D01*
X136113852Y-129493414D01*
X136113852Y-129336586D01*
X136144448Y-129182772D01*
X136204463Y-129037883D01*
X136291592Y-128907485D01*
X136402485Y-128796592D01*
X136532883Y-128709463D01*
X136677772Y-128649448D01*
X136831586Y-128618852D01*
X136988414Y-128618852D01*
X137142228Y-128649448D01*
G37*
G36*
X83732228Y-125544448D02*
G01*
X83877117Y-125604463D01*
X84007515Y-125691592D01*
X84118408Y-125802485D01*
X84205537Y-125932883D01*
X84265552Y-126077772D01*
X84296148Y-126231586D01*
X84296148Y-126388414D01*
X84265552Y-126542228D01*
X84205537Y-126687117D01*
X84118408Y-126817515D01*
X84007515Y-126928408D01*
X83877117Y-127015537D01*
X83732228Y-127075552D01*
X83578414Y-127106148D01*
X83421586Y-127106148D01*
X83267772Y-127075552D01*
X83122883Y-127015537D01*
X82992485Y-126928408D01*
X82881592Y-126817515D01*
X82794463Y-126687117D01*
X82734448Y-126542228D01*
X82703852Y-126388414D01*
X82703852Y-126231586D01*
X82734448Y-126077772D01*
X82794463Y-125932883D01*
X82881592Y-125802485D01*
X82992485Y-125691592D01*
X83122883Y-125604463D01*
X83267772Y-125544448D01*
X83421586Y-125513852D01*
X83578414Y-125513852D01*
X83732228Y-125544448D01*
G37*
G36*
X99890000Y-124350000D02*
G01*
X98190000Y-124350000D01*
X98190000Y-122650000D01*
X99890000Y-122650000D01*
X99890000Y-124350000D01*
G37*
G36*
X96746742Y-122686601D02*
G01*
X96900687Y-122750367D01*
X97039234Y-122842941D01*
X97157059Y-122960766D01*
X97249633Y-123099313D01*
X97313399Y-123253258D01*
X97345907Y-123416685D01*
X97345907Y-123583315D01*
X97313399Y-123746742D01*
X97249633Y-123900687D01*
X97157059Y-124039234D01*
X97039234Y-124157059D01*
X96900687Y-124249633D01*
X96746742Y-124313399D01*
X96583315Y-124345907D01*
X96416685Y-124345907D01*
X96253258Y-124313399D01*
X96099313Y-124249633D01*
X95960766Y-124157059D01*
X95842941Y-124039234D01*
X95750367Y-123900687D01*
X95686601Y-123746742D01*
X95654093Y-123583315D01*
X95654093Y-123416685D01*
X95686601Y-123253258D01*
X95750367Y-123099313D01*
X95842941Y-122960766D01*
X95960766Y-122842941D01*
X96099313Y-122750367D01*
X96253258Y-122686601D01*
X96416685Y-122654093D01*
X96583315Y-122654093D01*
X96746742Y-122686601D01*
G37*
G36*
X64732228Y-122734448D02*
G01*
X64877117Y-122794463D01*
X65007515Y-122881592D01*
X65118408Y-122992485D01*
X65205537Y-123122883D01*
X65265552Y-123267772D01*
X65296148Y-123421586D01*
X65296148Y-123578414D01*
X65265552Y-123732228D01*
X65205537Y-123877117D01*
X65118408Y-124007515D01*
X65007515Y-124118408D01*
X64877117Y-124205537D01*
X64732228Y-124265552D01*
X64578414Y-124296148D01*
X64421586Y-124296148D01*
X64267772Y-124265552D01*
X64122883Y-124205537D01*
X63992485Y-124118408D01*
X63881592Y-124007515D01*
X63794463Y-123877117D01*
X63734448Y-123732228D01*
X63703852Y-123578414D01*
X63703852Y-123421586D01*
X63734448Y-123267772D01*
X63794463Y-123122883D01*
X63881592Y-122992485D01*
X63992485Y-122881592D01*
X64122883Y-122794463D01*
X64267772Y-122734448D01*
X64421586Y-122703852D01*
X64578414Y-122703852D01*
X64732228Y-122734448D01*
G37*
G36*
X72352228Y-122734448D02*
G01*
X72497117Y-122794463D01*
X72627515Y-122881592D01*
X72738408Y-122992485D01*
X72825537Y-123122883D01*
X72885552Y-123267772D01*
X72916148Y-123421586D01*
X72916148Y-123578414D01*
X72885552Y-123732228D01*
X72825537Y-123877117D01*
X72738408Y-124007515D01*
X72627515Y-124118408D01*
X72497117Y-124205537D01*
X72352228Y-124265552D01*
X72198414Y-124296148D01*
X72041586Y-124296148D01*
X71887772Y-124265552D01*
X71742883Y-124205537D01*
X71612485Y-124118408D01*
X71501592Y-124007515D01*
X71414463Y-123877117D01*
X71354448Y-123732228D01*
X71323852Y-123578414D01*
X71323852Y-123421586D01*
X71354448Y-123267772D01*
X71414463Y-123122883D01*
X71501592Y-122992485D01*
X71612485Y-122881592D01*
X71742883Y-122794463D01*
X71887772Y-122734448D01*
X72041586Y-122703852D01*
X72198414Y-122703852D01*
X72352228Y-122734448D01*
G37*
G36*
X105422228Y-122734448D02*
G01*
X105567117Y-122794463D01*
X105697515Y-122881592D01*
X105808408Y-122992485D01*
X105895537Y-123122883D01*
X105955552Y-123267772D01*
X105986148Y-123421586D01*
X105986148Y-123578414D01*
X105955552Y-123732228D01*
X105895537Y-123877117D01*
X105808408Y-124007515D01*
X105697515Y-124118408D01*
X105567117Y-124205537D01*
X105422228Y-124265552D01*
X105268414Y-124296148D01*
X105111586Y-124296148D01*
X104957772Y-124265552D01*
X104812883Y-124205537D01*
X104682485Y-124118408D01*
X104571592Y-124007515D01*
X104484463Y-123877117D01*
X104424448Y-123732228D01*
X104393852Y-123578414D01*
X104393852Y-123421586D01*
X104424448Y-123267772D01*
X104484463Y-123122883D01*
X104571592Y-122992485D01*
X104682485Y-122881592D01*
X104812883Y-122794463D01*
X104957772Y-122734448D01*
X105111586Y-122703852D01*
X105268414Y-122703852D01*
X105422228Y-122734448D01*
G37*
G36*
X113042228Y-122734448D02*
G01*
X113187117Y-122794463D01*
X113317515Y-122881592D01*
X113428408Y-122992485D01*
X113515537Y-123122883D01*
X113575552Y-123267772D01*
X113606148Y-123421586D01*
X113606148Y-123578414D01*
X113575552Y-123732228D01*
X113515537Y-123877117D01*
X113428408Y-124007515D01*
X113317515Y-124118408D01*
X113187117Y-124205537D01*
X113042228Y-124265552D01*
X112888414Y-124296148D01*
X112731586Y-124296148D01*
X112577772Y-124265552D01*
X112432883Y-124205537D01*
X112302485Y-124118408D01*
X112191592Y-124007515D01*
X112104463Y-123877117D01*
X112044448Y-123732228D01*
X112013852Y-123578414D01*
X112013852Y-123421586D01*
X112044448Y-123267772D01*
X112104463Y-123122883D01*
X112191592Y-122992485D01*
X112302485Y-122881592D01*
X112432883Y-122794463D01*
X112577772Y-122734448D01*
X112731586Y-122703852D01*
X112888414Y-122703852D01*
X113042228Y-122734448D01*
G37*
G36*
X119422228Y-122234448D02*
G01*
X119567117Y-122294463D01*
X119697515Y-122381592D01*
X119808408Y-122492485D01*
X119895537Y-122622883D01*
X119955552Y-122767772D01*
X119986148Y-122921586D01*
X119986148Y-123078414D01*
X119955552Y-123232228D01*
X119895537Y-123377117D01*
X119808408Y-123507515D01*
X119697515Y-123618408D01*
X119567117Y-123705537D01*
X119422228Y-123765552D01*
X119268414Y-123796148D01*
X119111586Y-123796148D01*
X118957772Y-123765552D01*
X118812883Y-123705537D01*
X118682485Y-123618408D01*
X118571592Y-123507515D01*
X118484463Y-123377117D01*
X118424448Y-123232228D01*
X118393852Y-123078414D01*
X118393852Y-122921586D01*
X118424448Y-122767772D01*
X118484463Y-122622883D01*
X118571592Y-122492485D01*
X118682485Y-122381592D01*
X118812883Y-122294463D01*
X118957772Y-122234448D01*
X119111586Y-122203852D01*
X119268414Y-122203852D01*
X119422228Y-122234448D01*
G37*
G36*
X127042228Y-122234448D02*
G01*
X127187117Y-122294463D01*
X127317515Y-122381592D01*
X127428408Y-122492485D01*
X127515537Y-122622883D01*
X127575552Y-122767772D01*
X127606148Y-122921586D01*
X127606148Y-123078414D01*
X127575552Y-123232228D01*
X127515537Y-123377117D01*
X127428408Y-123507515D01*
X127317515Y-123618408D01*
X127187117Y-123705537D01*
X127042228Y-123765552D01*
X126888414Y-123796148D01*
X126731586Y-123796148D01*
X126577772Y-123765552D01*
X126432883Y-123705537D01*
X126302485Y-123618408D01*
X126191592Y-123507515D01*
X126104463Y-123377117D01*
X126044448Y-123232228D01*
X126013852Y-123078414D01*
X126013852Y-122921586D01*
X126044448Y-122767772D01*
X126104463Y-122622883D01*
X126191592Y-122492485D01*
X126302485Y-122381592D01*
X126432883Y-122294463D01*
X126577772Y-122234448D01*
X126731586Y-122203852D01*
X126888414Y-122203852D01*
X127042228Y-122234448D01*
G37*
G36*
X131239723Y-122160644D02*
G01*
X131384612Y-122220659D01*
X131515010Y-122307788D01*
X131625903Y-122418681D01*
X131713032Y-122549079D01*
X131773047Y-122693968D01*
X131803643Y-122847782D01*
X131803643Y-123004610D01*
X131773047Y-123158424D01*
X131713032Y-123303313D01*
X131625903Y-123433711D01*
X131515010Y-123544604D01*
X131384612Y-123631733D01*
X131239723Y-123691748D01*
X131085909Y-123722344D01*
X130929081Y-123722344D01*
X130775267Y-123691748D01*
X130630378Y-123631733D01*
X130499980Y-123544604D01*
X130389087Y-123433711D01*
X130301958Y-123303313D01*
X130241943Y-123158424D01*
X130211347Y-123004610D01*
X130211347Y-122847782D01*
X130241943Y-122693968D01*
X130301958Y-122549079D01*
X130389087Y-122418681D01*
X130499980Y-122307788D01*
X130630378Y-122220659D01*
X130775267Y-122160644D01*
X130929081Y-122130048D01*
X131085909Y-122130048D01*
X131239723Y-122160644D01*
G37*
G36*
X133739723Y-122160644D02*
G01*
X133884612Y-122220659D01*
X134015010Y-122307788D01*
X134125903Y-122418681D01*
X134213032Y-122549079D01*
X134273047Y-122693968D01*
X134303643Y-122847782D01*
X134303643Y-123004610D01*
X134273047Y-123158424D01*
X134213032Y-123303313D01*
X134125903Y-123433711D01*
X134015010Y-123544604D01*
X133884612Y-123631733D01*
X133739723Y-123691748D01*
X133585909Y-123722344D01*
X133429081Y-123722344D01*
X133275267Y-123691748D01*
X133130378Y-123631733D01*
X132999980Y-123544604D01*
X132889087Y-123433711D01*
X132801958Y-123303313D01*
X132741943Y-123158424D01*
X132711347Y-123004610D01*
X132711347Y-122847782D01*
X132741943Y-122693968D01*
X132801958Y-122549079D01*
X132889087Y-122418681D01*
X132999980Y-122307788D01*
X133130378Y-122220659D01*
X133275267Y-122160644D01*
X133429081Y-122130048D01*
X133585909Y-122130048D01*
X133739723Y-122160644D01*
G37*
G36*
X138062228Y-121954448D02*
G01*
X138207117Y-122014463D01*
X138337515Y-122101592D01*
X138448408Y-122212485D01*
X138535537Y-122342883D01*
X138595552Y-122487772D01*
X138626148Y-122641586D01*
X138626148Y-122798414D01*
X138595552Y-122952228D01*
X138535537Y-123097117D01*
X138448408Y-123227515D01*
X138337515Y-123338408D01*
X138207117Y-123425537D01*
X138062228Y-123485552D01*
X137908414Y-123516148D01*
X137751586Y-123516148D01*
X137597772Y-123485552D01*
X137452883Y-123425537D01*
X137322485Y-123338408D01*
X137211592Y-123227515D01*
X137124463Y-123097117D01*
X137064448Y-122952228D01*
X137033852Y-122798414D01*
X137033852Y-122641586D01*
X137064448Y-122487772D01*
X137124463Y-122342883D01*
X137211592Y-122212485D01*
X137322485Y-122101592D01*
X137452883Y-122014463D01*
X137597772Y-121954448D01*
X137751586Y-121923852D01*
X137908414Y-121923852D01*
X138062228Y-121954448D01*
G37*
G36*
X145682228Y-121954448D02*
G01*
X145827117Y-122014463D01*
X145957515Y-122101592D01*
X146068408Y-122212485D01*
X146155537Y-122342883D01*
X146215552Y-122487772D01*
X146246148Y-122641586D01*
X146246148Y-122798414D01*
X146215552Y-122952228D01*
X146155537Y-123097117D01*
X146068408Y-123227515D01*
X145957515Y-123338408D01*
X145827117Y-123425537D01*
X145682228Y-123485552D01*
X145528414Y-123516148D01*
X145371586Y-123516148D01*
X145217772Y-123485552D01*
X145072883Y-123425537D01*
X144942485Y-123338408D01*
X144831592Y-123227515D01*
X144744463Y-123097117D01*
X144684448Y-122952228D01*
X144653852Y-122798414D01*
X144653852Y-122641586D01*
X144684448Y-122487772D01*
X144744463Y-122342883D01*
X144831592Y-122212485D01*
X144942485Y-122101592D01*
X145072883Y-122014463D01*
X145217772Y-121954448D01*
X145371586Y-121923852D01*
X145528414Y-121923852D01*
X145682228Y-121954448D01*
G37*
G36*
X149872228Y-121454448D02*
G01*
X150017117Y-121514463D01*
X150147515Y-121601592D01*
X150258408Y-121712485D01*
X150345537Y-121842883D01*
X150405552Y-121987772D01*
X150436148Y-122141586D01*
X150436148Y-122298414D01*
X150405552Y-122452228D01*
X150345537Y-122597117D01*
X150258408Y-122727515D01*
X150147515Y-122838408D01*
X150017117Y-122925537D01*
X149872228Y-122985552D01*
X149718414Y-123016148D01*
X149561586Y-123016148D01*
X149407772Y-122985552D01*
X149262883Y-122925537D01*
X149132485Y-122838408D01*
X149021592Y-122727515D01*
X148934463Y-122597117D01*
X148874448Y-122452228D01*
X148843852Y-122298414D01*
X148843852Y-122141586D01*
X148874448Y-121987772D01*
X148934463Y-121842883D01*
X149021592Y-121712485D01*
X149132485Y-121601592D01*
X149262883Y-121514463D01*
X149407772Y-121454448D01*
X149561586Y-121423852D01*
X149718414Y-121423852D01*
X149872228Y-121454448D01*
G37*
G36*
X152372228Y-121454448D02*
G01*
X152517117Y-121514463D01*
X152647515Y-121601592D01*
X152758408Y-121712485D01*
X152845537Y-121842883D01*
X152905552Y-121987772D01*
X152936148Y-122141586D01*
X152936148Y-122298414D01*
X152905552Y-122452228D01*
X152845537Y-122597117D01*
X152758408Y-122727515D01*
X152647515Y-122838408D01*
X152517117Y-122925537D01*
X152372228Y-122985552D01*
X152218414Y-123016148D01*
X152061586Y-123016148D01*
X151907772Y-122985552D01*
X151762883Y-122925537D01*
X151632485Y-122838408D01*
X151521592Y-122727515D01*
X151434463Y-122597117D01*
X151374448Y-122452228D01*
X151343852Y-122298414D01*
X151343852Y-122141586D01*
X151374448Y-121987772D01*
X151434463Y-121842883D01*
X151521592Y-121712485D01*
X151632485Y-121601592D01*
X151762883Y-121514463D01*
X151907772Y-121454448D01*
X152061586Y-121423852D01*
X152218414Y-121423852D01*
X152372228Y-121454448D01*
G37*
G36*
X83732228Y-117924448D02*
G01*
X83877117Y-117984463D01*
X84007515Y-118071592D01*
X84118408Y-118182485D01*
X84205537Y-118312883D01*
X84265552Y-118457772D01*
X84296148Y-118611586D01*
X84296148Y-118768414D01*
X84265552Y-118922228D01*
X84205537Y-119067117D01*
X84118408Y-119197515D01*
X84007515Y-119308408D01*
X83877117Y-119395537D01*
X83732228Y-119455552D01*
X83578414Y-119486148D01*
X83421586Y-119486148D01*
X83267772Y-119455552D01*
X83122883Y-119395537D01*
X82992485Y-119308408D01*
X82881592Y-119197515D01*
X82794463Y-119067117D01*
X82734448Y-118922228D01*
X82703852Y-118768414D01*
X82703852Y-118611586D01*
X82734448Y-118457772D01*
X82794463Y-118312883D01*
X82881592Y-118182485D01*
X82992485Y-118071592D01*
X83122883Y-117984463D01*
X83267772Y-117924448D01*
X83421586Y-117893852D01*
X83578414Y-117893852D01*
X83732228Y-117924448D01*
G37*
G36*
X62160000Y-118850000D02*
G01*
X60460000Y-118850000D01*
X60460000Y-117150000D01*
X62160000Y-117150000D01*
X62160000Y-118850000D01*
G37*
G36*
X76660000Y-118850000D02*
G01*
X74960000Y-118850000D01*
X74960000Y-117150000D01*
X76660000Y-117150000D01*
X76660000Y-118850000D01*
G37*
G36*
X64096742Y-117186601D02*
G01*
X64250687Y-117250367D01*
X64389234Y-117342941D01*
X64507059Y-117460766D01*
X64599633Y-117599313D01*
X64663399Y-117753258D01*
X64695907Y-117916685D01*
X64695907Y-118083315D01*
X64663399Y-118246742D01*
X64599633Y-118400687D01*
X64507059Y-118539234D01*
X64389234Y-118657059D01*
X64250687Y-118749633D01*
X64096742Y-118813399D01*
X63933315Y-118845907D01*
X63766685Y-118845907D01*
X63603258Y-118813399D01*
X63449313Y-118749633D01*
X63310766Y-118657059D01*
X63192941Y-118539234D01*
X63100367Y-118400687D01*
X63036601Y-118246742D01*
X63004093Y-118083315D01*
X63004093Y-117916685D01*
X63036601Y-117753258D01*
X63100367Y-117599313D01*
X63192941Y-117460766D01*
X63310766Y-117342941D01*
X63449313Y-117250367D01*
X63603258Y-117186601D01*
X63766685Y-117154093D01*
X63933315Y-117154093D01*
X64096742Y-117186601D01*
G37*
G36*
X73516742Y-117186601D02*
G01*
X73670687Y-117250367D01*
X73809234Y-117342941D01*
X73927059Y-117460766D01*
X74019633Y-117599313D01*
X74083399Y-117753258D01*
X74115907Y-117916685D01*
X74115907Y-118083315D01*
X74083399Y-118246742D01*
X74019633Y-118400687D01*
X73927059Y-118539234D01*
X73809234Y-118657059D01*
X73670687Y-118749633D01*
X73516742Y-118813399D01*
X73353315Y-118845907D01*
X73186685Y-118845907D01*
X73023258Y-118813399D01*
X72869313Y-118749633D01*
X72730766Y-118657059D01*
X72612941Y-118539234D01*
X72520367Y-118400687D01*
X72456601Y-118246742D01*
X72424093Y-118083315D01*
X72424093Y-117916685D01*
X72456601Y-117753258D01*
X72520367Y-117599313D01*
X72612941Y-117460766D01*
X72730766Y-117342941D01*
X72869313Y-117250367D01*
X73023258Y-117186601D01*
X73186685Y-117154093D01*
X73353315Y-117154093D01*
X73516742Y-117186601D01*
G37*
G36*
X132112228Y-114234448D02*
G01*
X132257117Y-114294463D01*
X132387515Y-114381592D01*
X132498408Y-114492485D01*
X132585537Y-114622883D01*
X132645552Y-114767772D01*
X132676148Y-114921586D01*
X132676148Y-115078414D01*
X132645552Y-115232228D01*
X132585537Y-115377117D01*
X132498408Y-115507515D01*
X132387515Y-115618408D01*
X132257117Y-115705537D01*
X132112228Y-115765552D01*
X131958414Y-115796148D01*
X131801586Y-115796148D01*
X131647772Y-115765552D01*
X131502883Y-115705537D01*
X131372485Y-115618408D01*
X131261592Y-115507515D01*
X131174463Y-115377117D01*
X131114448Y-115232228D01*
X131083852Y-115078414D01*
X131083852Y-114921586D01*
X131114448Y-114767772D01*
X131174463Y-114622883D01*
X131261592Y-114492485D01*
X131372485Y-114381592D01*
X131502883Y-114294463D01*
X131647772Y-114234448D01*
X131801586Y-114203852D01*
X131958414Y-114203852D01*
X132112228Y-114234448D01*
G37*
G36*
X139732228Y-114234448D02*
G01*
X139877117Y-114294463D01*
X140007515Y-114381592D01*
X140118408Y-114492485D01*
X140205537Y-114622883D01*
X140265552Y-114767772D01*
X140296148Y-114921586D01*
X140296148Y-115078414D01*
X140265552Y-115232228D01*
X140205537Y-115377117D01*
X140118408Y-115507515D01*
X140007515Y-115618408D01*
X139877117Y-115705537D01*
X139732228Y-115765552D01*
X139578414Y-115796148D01*
X139421586Y-115796148D01*
X139267772Y-115765552D01*
X139122883Y-115705537D01*
X138992485Y-115618408D01*
X138881592Y-115507515D01*
X138794463Y-115377117D01*
X138734448Y-115232228D01*
X138703852Y-115078414D01*
X138703852Y-114921586D01*
X138734448Y-114767772D01*
X138794463Y-114622883D01*
X138881592Y-114492485D01*
X138992485Y-114381592D01*
X139122883Y-114294463D01*
X139267772Y-114234448D01*
X139421586Y-114203852D01*
X139578414Y-114203852D01*
X139732228Y-114234448D01*
G37*
G36*
X145232228Y-114234448D02*
G01*
X145377117Y-114294463D01*
X145507515Y-114381592D01*
X145618408Y-114492485D01*
X145705537Y-114622883D01*
X145765552Y-114767772D01*
X145796148Y-114921586D01*
X145796148Y-115078414D01*
X145765552Y-115232228D01*
X145705537Y-115377117D01*
X145618408Y-115507515D01*
X145507515Y-115618408D01*
X145377117Y-115705537D01*
X145232228Y-115765552D01*
X145078414Y-115796148D01*
X144921586Y-115796148D01*
X144767772Y-115765552D01*
X144622883Y-115705537D01*
X144492485Y-115618408D01*
X144381592Y-115507515D01*
X144294463Y-115377117D01*
X144234448Y-115232228D01*
X144203852Y-115078414D01*
X144203852Y-114921586D01*
X144234448Y-114767772D01*
X144294463Y-114622883D01*
X144381592Y-114492485D01*
X144492485Y-114381592D01*
X144622883Y-114294463D01*
X144767772Y-114234448D01*
X144921586Y-114203852D01*
X145078414Y-114203852D01*
X145232228Y-114234448D01*
G37*
G36*
X147732228Y-114234448D02*
G01*
X147877117Y-114294463D01*
X148007515Y-114381592D01*
X148118408Y-114492485D01*
X148205537Y-114622883D01*
X148265552Y-114767772D01*
X148296148Y-114921586D01*
X148296148Y-115078414D01*
X148265552Y-115232228D01*
X148205537Y-115377117D01*
X148118408Y-115507515D01*
X148007515Y-115618408D01*
X147877117Y-115705537D01*
X147732228Y-115765552D01*
X147578414Y-115796148D01*
X147421586Y-115796148D01*
X147267772Y-115765552D01*
X147122883Y-115705537D01*
X146992485Y-115618408D01*
X146881592Y-115507515D01*
X146794463Y-115377117D01*
X146734448Y-115232228D01*
X146703852Y-115078414D01*
X146703852Y-114921586D01*
X146734448Y-114767772D01*
X146794463Y-114622883D01*
X146881592Y-114492485D01*
X146992485Y-114381592D01*
X147122883Y-114294463D01*
X147267772Y-114234448D01*
X147421586Y-114203852D01*
X147578414Y-114203852D01*
X147732228Y-114234448D01*
G37*
G36*
X91190285Y-112043060D02*
G01*
X91371397Y-112118079D01*
X91534393Y-112226990D01*
X91673010Y-112365607D01*
X91781921Y-112528603D01*
X91856940Y-112709715D01*
X91895185Y-112901983D01*
X91895185Y-113098017D01*
X91856940Y-113290285D01*
X91781921Y-113471397D01*
X91673010Y-113634393D01*
X91534393Y-113773010D01*
X91371397Y-113881921D01*
X91190285Y-113956940D01*
X90998017Y-113995185D01*
X90801983Y-113995185D01*
X90609715Y-113956940D01*
X90428603Y-113881921D01*
X90265607Y-113773010D01*
X90126990Y-113634393D01*
X90018079Y-113471397D01*
X89943060Y-113290285D01*
X89904815Y-113098017D01*
X89904815Y-112901983D01*
X89943060Y-112709715D01*
X90018079Y-112528603D01*
X90126990Y-112365607D01*
X90265607Y-112226990D01*
X90428603Y-112118079D01*
X90609715Y-112043060D01*
X90801983Y-112004815D01*
X90998017Y-112004815D01*
X91190285Y-112043060D01*
G37*
G36*
X104790285Y-112043060D02*
G01*
X104971397Y-112118079D01*
X105134393Y-112226990D01*
X105273010Y-112365607D01*
X105381921Y-112528603D01*
X105456940Y-112709715D01*
X105495185Y-112901983D01*
X105495185Y-113098017D01*
X105456940Y-113290285D01*
X105381921Y-113471397D01*
X105273010Y-113634393D01*
X105134393Y-113773010D01*
X104971397Y-113881921D01*
X104790285Y-113956940D01*
X104598017Y-113995185D01*
X104401983Y-113995185D01*
X104209715Y-113956940D01*
X104028603Y-113881921D01*
X103865607Y-113773010D01*
X103726990Y-113634393D01*
X103618079Y-113471397D01*
X103543060Y-113290285D01*
X103504815Y-113098017D01*
X103504815Y-112901983D01*
X103543060Y-112709715D01*
X103618079Y-112528603D01*
X103726990Y-112365607D01*
X103865607Y-112226990D01*
X104028603Y-112118079D01*
X104209715Y-112043060D01*
X104401983Y-112004815D01*
X104598017Y-112004815D01*
X104790285Y-112043060D01*
G37*
G36*
X91190285Y-107043060D02*
G01*
X91371397Y-107118079D01*
X91534393Y-107226990D01*
X91673010Y-107365607D01*
X91781921Y-107528603D01*
X91856940Y-107709715D01*
X91895185Y-107901983D01*
X91895185Y-108098017D01*
X91856940Y-108290285D01*
X91781921Y-108471397D01*
X91673010Y-108634393D01*
X91534393Y-108773010D01*
X91371397Y-108881921D01*
X91190285Y-108956940D01*
X90998017Y-108995185D01*
X90801983Y-108995185D01*
X90609715Y-108956940D01*
X90428603Y-108881921D01*
X90265607Y-108773010D01*
X90126990Y-108634393D01*
X90018079Y-108471397D01*
X89943060Y-108290285D01*
X89904815Y-108098017D01*
X89904815Y-107901983D01*
X89943060Y-107709715D01*
X90018079Y-107528603D01*
X90126990Y-107365607D01*
X90265607Y-107226990D01*
X90428603Y-107118079D01*
X90609715Y-107043060D01*
X90801983Y-107004815D01*
X90998017Y-107004815D01*
X91190285Y-107043060D01*
G37*
G36*
X104790285Y-107043060D02*
G01*
X104971397Y-107118079D01*
X105134393Y-107226990D01*
X105273010Y-107365607D01*
X105381921Y-107528603D01*
X105456940Y-107709715D01*
X105495185Y-107901983D01*
X105495185Y-108098017D01*
X105456940Y-108290285D01*
X105381921Y-108471397D01*
X105273010Y-108634393D01*
X105134393Y-108773010D01*
X104971397Y-108881921D01*
X104790285Y-108956940D01*
X104598017Y-108995185D01*
X104401983Y-108995185D01*
X104209715Y-108956940D01*
X104028603Y-108881921D01*
X103865607Y-108773010D01*
X103726990Y-108634393D01*
X103618079Y-108471397D01*
X103543060Y-108290285D01*
X103504815Y-108098017D01*
X103504815Y-107901983D01*
X103543060Y-107709715D01*
X103618079Y-107528603D01*
X103726990Y-107365607D01*
X103865607Y-107226990D01*
X104028603Y-107118079D01*
X104209715Y-107043060D01*
X104401983Y-107004815D01*
X104598017Y-107004815D01*
X104790285Y-107043060D01*
G37*
G36*
X64280000Y-107280000D02*
G01*
X62720000Y-107280000D01*
X62720000Y-105720000D01*
X64280000Y-105720000D01*
X64280000Y-107280000D01*
G37*
G36*
X75780000Y-107280000D02*
G01*
X74220000Y-107280000D01*
X74220000Y-105720000D01*
X75780000Y-105720000D01*
X75780000Y-107280000D01*
G37*
G36*
X58726422Y-105753587D02*
G01*
X58867689Y-105812101D01*
X58994827Y-105897052D01*
X59102948Y-106005173D01*
X59187899Y-106132311D01*
X59246413Y-106273578D01*
X59276244Y-106423547D01*
X59276244Y-106576453D01*
X59246413Y-106726422D01*
X59187899Y-106867689D01*
X59102948Y-106994827D01*
X58994827Y-107102948D01*
X58867689Y-107187899D01*
X58726422Y-107246413D01*
X58576453Y-107276244D01*
X58423547Y-107276244D01*
X58273578Y-107246413D01*
X58132311Y-107187899D01*
X58005173Y-107102948D01*
X57897052Y-106994827D01*
X57812101Y-106867689D01*
X57753587Y-106726422D01*
X57723756Y-106576453D01*
X57723756Y-106423547D01*
X57753587Y-106273578D01*
X57812101Y-106132311D01*
X57897052Y-106005173D01*
X58005173Y-105897052D01*
X58132311Y-105812101D01*
X58273578Y-105753587D01*
X58423547Y-105723756D01*
X58576453Y-105723756D01*
X58726422Y-105753587D01*
G37*
G36*
X70226422Y-105753587D02*
G01*
X70367689Y-105812101D01*
X70494827Y-105897052D01*
X70602948Y-106005173D01*
X70687899Y-106132311D01*
X70746413Y-106273578D01*
X70776244Y-106423547D01*
X70776244Y-106576453D01*
X70746413Y-106726422D01*
X70687899Y-106867689D01*
X70602948Y-106994827D01*
X70494827Y-107102948D01*
X70367689Y-107187899D01*
X70226422Y-107246413D01*
X70076453Y-107276244D01*
X69923547Y-107276244D01*
X69773578Y-107246413D01*
X69632311Y-107187899D01*
X69505173Y-107102948D01*
X69397052Y-106994827D01*
X69312101Y-106867689D01*
X69253587Y-106726422D01*
X69223756Y-106576453D01*
X69223756Y-106423547D01*
X69253587Y-106273578D01*
X69312101Y-106132311D01*
X69397052Y-106005173D01*
X69505173Y-105897052D01*
X69632311Y-105812101D01*
X69773578Y-105753587D01*
X69923547Y-105723756D01*
X70076453Y-105723756D01*
X70226422Y-105753587D01*
G37*
G36*
X137465197Y-105320811D02*
G01*
X137603204Y-105377976D01*
X137727408Y-105460966D01*
X137833034Y-105566592D01*
X137916024Y-105690796D01*
X137973189Y-105828803D01*
X138002331Y-105975311D01*
X138002331Y-106124689D01*
X137973189Y-106271197D01*
X137916024Y-106409204D01*
X137833034Y-106533408D01*
X137727408Y-106639034D01*
X137603204Y-106722024D01*
X137465197Y-106779189D01*
X137318689Y-106808331D01*
X137169311Y-106808331D01*
X137022803Y-106779189D01*
X136884796Y-106722024D01*
X136760592Y-106639034D01*
X136654966Y-106533408D01*
X136571976Y-106409204D01*
X136514811Y-106271197D01*
X136485669Y-106124689D01*
X136485669Y-105975311D01*
X136514811Y-105828803D01*
X136571976Y-105690796D01*
X136654966Y-105566592D01*
X136760592Y-105460966D01*
X136884796Y-105377976D01*
X137022803Y-105320811D01*
X137169311Y-105291669D01*
X137318689Y-105291669D01*
X137465197Y-105320811D01*
G37*
G36*
X142465197Y-105320811D02*
G01*
X142603204Y-105377976D01*
X142727408Y-105460966D01*
X142833034Y-105566592D01*
X142916024Y-105690796D01*
X142973189Y-105828803D01*
X143002331Y-105975311D01*
X143002331Y-106124689D01*
X142973189Y-106271197D01*
X142916024Y-106409204D01*
X142833034Y-106533408D01*
X142727408Y-106639034D01*
X142603204Y-106722024D01*
X142465197Y-106779189D01*
X142318689Y-106808331D01*
X142169311Y-106808331D01*
X142022803Y-106779189D01*
X141884796Y-106722024D01*
X141760592Y-106639034D01*
X141654966Y-106533408D01*
X141571976Y-106409204D01*
X141514811Y-106271197D01*
X141485669Y-106124689D01*
X141485669Y-105975311D01*
X141514811Y-105828803D01*
X141571976Y-105690796D01*
X141654966Y-105566592D01*
X141760592Y-105460966D01*
X141884796Y-105377976D01*
X142022803Y-105320811D01*
X142169311Y-105291669D01*
X142318689Y-105291669D01*
X142465197Y-105320811D01*
G37*
G36*
X126477197Y-105220811D02*
G01*
X126615204Y-105277976D01*
X126739408Y-105360966D01*
X126845034Y-105466592D01*
X126928024Y-105590796D01*
X126985189Y-105728803D01*
X127014331Y-105875311D01*
X127014331Y-106024689D01*
X126985189Y-106171197D01*
X126928024Y-106309204D01*
X126845034Y-106433408D01*
X126739408Y-106539034D01*
X126615204Y-106622024D01*
X126477197Y-106679189D01*
X126330689Y-106708331D01*
X126181311Y-106708331D01*
X126034803Y-106679189D01*
X125896796Y-106622024D01*
X125772592Y-106539034D01*
X125666966Y-106433408D01*
X125583976Y-106309204D01*
X125526811Y-106171197D01*
X125497669Y-106024689D01*
X125497669Y-105875311D01*
X125526811Y-105728803D01*
X125583976Y-105590796D01*
X125666966Y-105466592D01*
X125772592Y-105360966D01*
X125896796Y-105277976D01*
X126034803Y-105220811D01*
X126181311Y-105191669D01*
X126330689Y-105191669D01*
X126477197Y-105220811D01*
G37*
G36*
X131477197Y-105220811D02*
G01*
X131615204Y-105277976D01*
X131739408Y-105360966D01*
X131845034Y-105466592D01*
X131928024Y-105590796D01*
X131985189Y-105728803D01*
X132014331Y-105875311D01*
X132014331Y-106024689D01*
X131985189Y-106171197D01*
X131928024Y-106309204D01*
X131845034Y-106433408D01*
X131739408Y-106539034D01*
X131615204Y-106622024D01*
X131477197Y-106679189D01*
X131330689Y-106708331D01*
X131181311Y-106708331D01*
X131034803Y-106679189D01*
X130896796Y-106622024D01*
X130772592Y-106539034D01*
X130666966Y-106433408D01*
X130583976Y-106309204D01*
X130526811Y-106171197D01*
X130497669Y-106024689D01*
X130497669Y-105875311D01*
X130526811Y-105728803D01*
X130583976Y-105590796D01*
X130666966Y-105466592D01*
X130772592Y-105360966D01*
X130896796Y-105277976D01*
X131034803Y-105220811D01*
X131181311Y-105191669D01*
X131330689Y-105191669D01*
X131477197Y-105220811D01*
G37*
G36*
X116221197Y-105170811D02*
G01*
X116359204Y-105227976D01*
X116483408Y-105310966D01*
X116589034Y-105416592D01*
X116672024Y-105540796D01*
X116729189Y-105678803D01*
X116758331Y-105825311D01*
X116758331Y-105974689D01*
X116729189Y-106121197D01*
X116672024Y-106259204D01*
X116589034Y-106383408D01*
X116483408Y-106489034D01*
X116359204Y-106572024D01*
X116221197Y-106629189D01*
X116074689Y-106658331D01*
X115925311Y-106658331D01*
X115778803Y-106629189D01*
X115640796Y-106572024D01*
X115516592Y-106489034D01*
X115410966Y-106383408D01*
X115327976Y-106259204D01*
X115270811Y-106121197D01*
X115241669Y-105974689D01*
X115241669Y-105825311D01*
X115270811Y-105678803D01*
X115327976Y-105540796D01*
X115410966Y-105416592D01*
X115516592Y-105310966D01*
X115640796Y-105227976D01*
X115778803Y-105170811D01*
X115925311Y-105141669D01*
X116074689Y-105141669D01*
X116221197Y-105170811D01*
G37*
G36*
X121221197Y-105170811D02*
G01*
X121359204Y-105227976D01*
X121483408Y-105310966D01*
X121589034Y-105416592D01*
X121672024Y-105540796D01*
X121729189Y-105678803D01*
X121758331Y-105825311D01*
X121758331Y-105974689D01*
X121729189Y-106121197D01*
X121672024Y-106259204D01*
X121589034Y-106383408D01*
X121483408Y-106489034D01*
X121359204Y-106572024D01*
X121221197Y-106629189D01*
X121074689Y-106658331D01*
X120925311Y-106658331D01*
X120778803Y-106629189D01*
X120640796Y-106572024D01*
X120516592Y-106489034D01*
X120410966Y-106383408D01*
X120327976Y-106259204D01*
X120270811Y-106121197D01*
X120241669Y-105974689D01*
X120241669Y-105825311D01*
X120270811Y-105678803D01*
X120327976Y-105540796D01*
X120410966Y-105416592D01*
X120516592Y-105310966D01*
X120640796Y-105227976D01*
X120778803Y-105170811D01*
X120925311Y-105141669D01*
X121074689Y-105141669D01*
X121221197Y-105170811D01*
G37*
G36*
X91190285Y-102043060D02*
G01*
X91371397Y-102118079D01*
X91534393Y-102226990D01*
X91673010Y-102365607D01*
X91781921Y-102528603D01*
X91856940Y-102709715D01*
X91895185Y-102901983D01*
X91895185Y-103098017D01*
X91856940Y-103290285D01*
X91781921Y-103471397D01*
X91673010Y-103634393D01*
X91534393Y-103773010D01*
X91371397Y-103881921D01*
X91190285Y-103956940D01*
X90998017Y-103995185D01*
X90801983Y-103995185D01*
X90609715Y-103956940D01*
X90428603Y-103881921D01*
X90265607Y-103773010D01*
X90126990Y-103634393D01*
X90018079Y-103471397D01*
X89943060Y-103290285D01*
X89904815Y-103098017D01*
X89904815Y-102901983D01*
X89943060Y-102709715D01*
X90018079Y-102528603D01*
X90126990Y-102365607D01*
X90265607Y-102226990D01*
X90428603Y-102118079D01*
X90609715Y-102043060D01*
X90801983Y-102004815D01*
X90998017Y-102004815D01*
X91190285Y-102043060D01*
G37*
G36*
X104790285Y-102043060D02*
G01*
X104971397Y-102118079D01*
X105134393Y-102226990D01*
X105273010Y-102365607D01*
X105381921Y-102528603D01*
X105456940Y-102709715D01*
X105495185Y-102901983D01*
X105495185Y-103098017D01*
X105456940Y-103290285D01*
X105381921Y-103471397D01*
X105273010Y-103634393D01*
X105134393Y-103773010D01*
X104971397Y-103881921D01*
X104790285Y-103956940D01*
X104598017Y-103995185D01*
X104401983Y-103995185D01*
X104209715Y-103956940D01*
X104028603Y-103881921D01*
X103865607Y-103773010D01*
X103726990Y-103634393D01*
X103618079Y-103471397D01*
X103543060Y-103290285D01*
X103504815Y-103098017D01*
X103504815Y-102901983D01*
X103543060Y-102709715D01*
X103618079Y-102528603D01*
X103726990Y-102365607D01*
X103865607Y-102226990D01*
X104028603Y-102118079D01*
X104209715Y-102043060D01*
X104401983Y-102004815D01*
X104598017Y-102004815D01*
X104790285Y-102043060D01*
G37*
G36*
X61226422Y-100753587D02*
G01*
X61367689Y-100812101D01*
X61494827Y-100897052D01*
X61602948Y-101005173D01*
X61687899Y-101132311D01*
X61746413Y-101273578D01*
X61776244Y-101423547D01*
X61776244Y-101576453D01*
X61746413Y-101726422D01*
X61687899Y-101867689D01*
X61602948Y-101994827D01*
X61494827Y-102102948D01*
X61367689Y-102187899D01*
X61226422Y-102246413D01*
X61076453Y-102276244D01*
X60923547Y-102276244D01*
X60773578Y-102246413D01*
X60632311Y-102187899D01*
X60505173Y-102102948D01*
X60397052Y-101994827D01*
X60312101Y-101867689D01*
X60253587Y-101726422D01*
X60223756Y-101576453D01*
X60223756Y-101423547D01*
X60253587Y-101273578D01*
X60312101Y-101132311D01*
X60397052Y-101005173D01*
X60505173Y-100897052D01*
X60632311Y-100812101D01*
X60773578Y-100753587D01*
X60923547Y-100723756D01*
X61076453Y-100723756D01*
X61226422Y-100753587D01*
G37*
G36*
X72726422Y-100753587D02*
G01*
X72867689Y-100812101D01*
X72994827Y-100897052D01*
X73102948Y-101005173D01*
X73187899Y-101132311D01*
X73246413Y-101273578D01*
X73276244Y-101423547D01*
X73276244Y-101576453D01*
X73246413Y-101726422D01*
X73187899Y-101867689D01*
X73102948Y-101994827D01*
X72994827Y-102102948D01*
X72867689Y-102187899D01*
X72726422Y-102246413D01*
X72576453Y-102276244D01*
X72423547Y-102276244D01*
X72273578Y-102246413D01*
X72132311Y-102187899D01*
X72005173Y-102102948D01*
X71897052Y-101994827D01*
X71812101Y-101867689D01*
X71753587Y-101726422D01*
X71723756Y-101576453D01*
X71723756Y-101423547D01*
X71753587Y-101273578D01*
X71812101Y-101132311D01*
X71897052Y-101005173D01*
X72005173Y-100897052D01*
X72132311Y-100812101D01*
X72273578Y-100753587D01*
X72423547Y-100723756D01*
X72576453Y-100723756D01*
X72726422Y-100753587D01*
G37*
G36*
X59018766Y-91935322D02*
G01*
X59292089Y-91997707D01*
X59556709Y-92090301D01*
X59809297Y-92211941D01*
X60046678Y-92361098D01*
X60265866Y-92535895D01*
X60464105Y-92734134D01*
X60638902Y-92953322D01*
X60788059Y-93190703D01*
X60909699Y-93443291D01*
X61002293Y-93707911D01*
X61064678Y-93981234D01*
X61096067Y-94259824D01*
X61096067Y-94540176D01*
X61064678Y-94818766D01*
X61002293Y-95092089D01*
X60909699Y-95356709D01*
X60788059Y-95609297D01*
X60638902Y-95846678D01*
X60464105Y-96065866D01*
X60265866Y-96264105D01*
X60046678Y-96438902D01*
X59809297Y-96588059D01*
X59556709Y-96709699D01*
X59292089Y-96802293D01*
X59018766Y-96864678D01*
X58740176Y-96896067D01*
X58459824Y-96896067D01*
X58181234Y-96864678D01*
X57907911Y-96802293D01*
X57643291Y-96709699D01*
X57390703Y-96588059D01*
X57153322Y-96438902D01*
X56934134Y-96264105D01*
X56735895Y-96065866D01*
X56561098Y-95846678D01*
X56411941Y-95609297D01*
X56290301Y-95356709D01*
X56197707Y-95092089D01*
X56135322Y-94818766D01*
X56103933Y-94540176D01*
X56103933Y-94259824D01*
X56135322Y-93981234D01*
X56197707Y-93707911D01*
X56290301Y-93443291D01*
X56411941Y-93190703D01*
X56561098Y-92953322D01*
X56735895Y-92734134D01*
X56934134Y-92535895D01*
X57153322Y-92361098D01*
X57390703Y-92211941D01*
X57643291Y-92090301D01*
X57907911Y-91997707D01*
X58181234Y-91935322D01*
X58459824Y-91903933D01*
X58740176Y-91903933D01*
X59018766Y-91935322D01*
G37*
G36*
X151818766Y-91935322D02*
G01*
X152092089Y-91997707D01*
X152356709Y-92090301D01*
X152609297Y-92211941D01*
X152846678Y-92361098D01*
X153065866Y-92535895D01*
X153264105Y-92734134D01*
X153438902Y-92953322D01*
X153588059Y-93190703D01*
X153709699Y-93443291D01*
X153802293Y-93707911D01*
X153864678Y-93981234D01*
X153896067Y-94259824D01*
X153896067Y-94540176D01*
X153864678Y-94818766D01*
X153802293Y-95092089D01*
X153709699Y-95356709D01*
X153588059Y-95609297D01*
X153438902Y-95846678D01*
X153264105Y-96065866D01*
X153065866Y-96264105D01*
X152846678Y-96438902D01*
X152609297Y-96588059D01*
X152356709Y-96709699D01*
X152092089Y-96802293D01*
X151818766Y-96864678D01*
X151540176Y-96896067D01*
X151259824Y-96896067D01*
X150981234Y-96864678D01*
X150707911Y-96802293D01*
X150443291Y-96709699D01*
X150190703Y-96588059D01*
X149953322Y-96438902D01*
X149734134Y-96264105D01*
X149535895Y-96065866D01*
X149361098Y-95846678D01*
X149211941Y-95609297D01*
X149090301Y-95356709D01*
X148997707Y-95092089D01*
X148935322Y-94818766D01*
X148903933Y-94540176D01*
X148903933Y-94259824D01*
X148935322Y-93981234D01*
X148997707Y-93707911D01*
X149090301Y-93443291D01*
X149211941Y-93190703D01*
X149361098Y-92953322D01*
X149535895Y-92734134D01*
X149734134Y-92535895D01*
X149953322Y-92361098D01*
X150190703Y-92211941D01*
X150443291Y-92090301D01*
X150707911Y-91997707D01*
X150981234Y-91935322D01*
X151259824Y-91903933D01*
X151540176Y-91903933D01*
X151818766Y-91935322D01*
G37*
G36*
X67121197Y-48490811D02*
G01*
X67259204Y-48547976D01*
X67383408Y-48630966D01*
X67489034Y-48736592D01*
X67572024Y-48860796D01*
X67629189Y-48998803D01*
X67658331Y-49145311D01*
X67658331Y-49294689D01*
X67629189Y-49441197D01*
X67572024Y-49579204D01*
X67489034Y-49703408D01*
X67383408Y-49809034D01*
X67259204Y-49892024D01*
X67121197Y-49949189D01*
X66974689Y-49978331D01*
X66825311Y-49978331D01*
X66678803Y-49949189D01*
X66540796Y-49892024D01*
X66416592Y-49809034D01*
X66310966Y-49703408D01*
X66227976Y-49579204D01*
X66170811Y-49441197D01*
X66141669Y-49294689D01*
X66141669Y-49145311D01*
X66170811Y-48998803D01*
X66227976Y-48860796D01*
X66310966Y-48736592D01*
X66416592Y-48630966D01*
X66540796Y-48547976D01*
X66678803Y-48490811D01*
X66825311Y-48461669D01*
X66974689Y-48461669D01*
X67121197Y-48490811D01*
G37*
G36*
X67121197Y-45950811D02*
G01*
X67259204Y-46007976D01*
X67383408Y-46090966D01*
X67489034Y-46196592D01*
X67572024Y-46320796D01*
X67629189Y-46458803D01*
X67658331Y-46605311D01*
X67658331Y-46754689D01*
X67629189Y-46901197D01*
X67572024Y-47039204D01*
X67489034Y-47163408D01*
X67383408Y-47269034D01*
X67259204Y-47352024D01*
X67121197Y-47409189D01*
X66974689Y-47438331D01*
X66825311Y-47438331D01*
X66678803Y-47409189D01*
X66540796Y-47352024D01*
X66416592Y-47269034D01*
X66310966Y-47163408D01*
X66227976Y-47039204D01*
X66170811Y-46901197D01*
X66141669Y-46754689D01*
X66141669Y-46605311D01*
X66170811Y-46458803D01*
X66227976Y-46320796D01*
X66310966Y-46196592D01*
X66416592Y-46090966D01*
X66540796Y-46007976D01*
X66678803Y-45950811D01*
X66825311Y-45921669D01*
X66974689Y-45921669D01*
X67121197Y-45950811D01*
G37*
G36*
X67121197Y-43410811D02*
G01*
X67259204Y-43467976D01*
X67383408Y-43550966D01*
X67489034Y-43656592D01*
X67572024Y-43780796D01*
X67629189Y-43918803D01*
X67658331Y-44065311D01*
X67658331Y-44214689D01*
X67629189Y-44361197D01*
X67572024Y-44499204D01*
X67489034Y-44623408D01*
X67383408Y-44729034D01*
X67259204Y-44812024D01*
X67121197Y-44869189D01*
X66974689Y-44898331D01*
X66825311Y-44898331D01*
X66678803Y-44869189D01*
X66540796Y-44812024D01*
X66416592Y-44729034D01*
X66310966Y-44623408D01*
X66227976Y-44499204D01*
X66170811Y-44361197D01*
X66141669Y-44214689D01*
X66141669Y-44065311D01*
X66170811Y-43918803D01*
X66227976Y-43780796D01*
X66310966Y-43656592D01*
X66416592Y-43550966D01*
X66540796Y-43467976D01*
X66678803Y-43410811D01*
X66825311Y-43381669D01*
X66974689Y-43381669D01*
X67121197Y-43410811D01*
G37*
G36*
X67121197Y-40870811D02*
G01*
X67259204Y-40927976D01*
X67383408Y-41010966D01*
X67489034Y-41116592D01*
X67572024Y-41240796D01*
X67629189Y-41378803D01*
X67658331Y-41525311D01*
X67658331Y-41674689D01*
X67629189Y-41821197D01*
X67572024Y-41959204D01*
X67489034Y-42083408D01*
X67383408Y-42189034D01*
X67259204Y-42272024D01*
X67121197Y-42329189D01*
X66974689Y-42358331D01*
X66825311Y-42358331D01*
X66678803Y-42329189D01*
X66540796Y-42272024D01*
X66416592Y-42189034D01*
X66310966Y-42083408D01*
X66227976Y-41959204D01*
X66170811Y-41821197D01*
X66141669Y-41674689D01*
X66141669Y-41525311D01*
X66170811Y-41378803D01*
X66227976Y-41240796D01*
X66310966Y-41116592D01*
X66416592Y-41010966D01*
X66540796Y-40927976D01*
X66678803Y-40870811D01*
X66825311Y-40841669D01*
X66974689Y-40841669D01*
X67121197Y-40870811D01*
G37*
G36*
X59018766Y-37135322D02*
G01*
X59292089Y-37197707D01*
X59556709Y-37290301D01*
X59809297Y-37411941D01*
X60046678Y-37561098D01*
X60265866Y-37735895D01*
X60464105Y-37934134D01*
X60638902Y-38153322D01*
X60788059Y-38390703D01*
X60909699Y-38643291D01*
X61002293Y-38907911D01*
X61064678Y-39181234D01*
X61096067Y-39459824D01*
X61096067Y-39740176D01*
X61064678Y-40018766D01*
X61002293Y-40292089D01*
X60909699Y-40556709D01*
X60788059Y-40809297D01*
X60638902Y-41046678D01*
X60464105Y-41265866D01*
X60265866Y-41464105D01*
X60046678Y-41638902D01*
X59809297Y-41788059D01*
X59556709Y-41909699D01*
X59292089Y-42002293D01*
X59018766Y-42064678D01*
X58740176Y-42096067D01*
X58459824Y-42096067D01*
X58181234Y-42064678D01*
X57907911Y-42002293D01*
X57643291Y-41909699D01*
X57390703Y-41788059D01*
X57153322Y-41638902D01*
X56934134Y-41464105D01*
X56735895Y-41265866D01*
X56561098Y-41046678D01*
X56411941Y-40809297D01*
X56290301Y-40556709D01*
X56197707Y-40292089D01*
X56135322Y-40018766D01*
X56103933Y-39740176D01*
X56103933Y-39459824D01*
X56135322Y-39181234D01*
X56197707Y-38907911D01*
X56290301Y-38643291D01*
X56411941Y-38390703D01*
X56561098Y-38153322D01*
X56735895Y-37934134D01*
X56934134Y-37735895D01*
X57153322Y-37561098D01*
X57390703Y-37411941D01*
X57643291Y-37290301D01*
X57907911Y-37197707D01*
X58181234Y-37135322D01*
X58459824Y-37103933D01*
X58740176Y-37103933D01*
X59018766Y-37135322D01*
G37*
G36*
X151818766Y-37135322D02*
G01*
X152092089Y-37197707D01*
X152356709Y-37290301D01*
X152609297Y-37411941D01*
X152846678Y-37561098D01*
X153065866Y-37735895D01*
X153264105Y-37934134D01*
X153438902Y-38153322D01*
X153588059Y-38390703D01*
X153709699Y-38643291D01*
X153802293Y-38907911D01*
X153864678Y-39181234D01*
X153896067Y-39459824D01*
X153896067Y-39740176D01*
X153864678Y-40018766D01*
X153802293Y-40292089D01*
X153709699Y-40556709D01*
X153588059Y-40809297D01*
X153438902Y-41046678D01*
X153264105Y-41265866D01*
X153065866Y-41464105D01*
X152846678Y-41638902D01*
X152609297Y-41788059D01*
X152356709Y-41909699D01*
X152092089Y-42002293D01*
X151818766Y-42064678D01*
X151540176Y-42096067D01*
X151259824Y-42096067D01*
X150981234Y-42064678D01*
X150707911Y-42002293D01*
X150443291Y-41909699D01*
X150190703Y-41788059D01*
X149953322Y-41638902D01*
X149734134Y-41464105D01*
X149535895Y-41265866D01*
X149361098Y-41046678D01*
X149211941Y-40809297D01*
X149090301Y-40556709D01*
X148997707Y-40292089D01*
X148935322Y-40018766D01*
X148903933Y-39740176D01*
X148903933Y-39459824D01*
X148935322Y-39181234D01*
X148997707Y-38907911D01*
X149090301Y-38643291D01*
X149211941Y-38390703D01*
X149361098Y-38153322D01*
X149535895Y-37934134D01*
X149734134Y-37735895D01*
X149953322Y-37561098D01*
X150190703Y-37411941D01*
X150443291Y-37290301D01*
X150707911Y-37197707D01*
X150981234Y-37135322D01*
X151259824Y-37103933D01*
X151540176Y-37103933D01*
X151818766Y-37135322D01*
G37*
G36*
X59050239Y-24290588D02*
G01*
X59411176Y-24362383D01*
X59763337Y-24469210D01*
X60103332Y-24610040D01*
X60427885Y-24783518D01*
X60733872Y-24987972D01*
X61018346Y-25221433D01*
X61278567Y-25481654D01*
X61512028Y-25766128D01*
X61716482Y-26072115D01*
X61889960Y-26396668D01*
X62030790Y-26736663D01*
X62137617Y-27088824D01*
X62209412Y-27449761D01*
X62245483Y-27815996D01*
X62245483Y-28184004D01*
X62209412Y-28550239D01*
X62137617Y-28911176D01*
X62030790Y-29263337D01*
X61889960Y-29603332D01*
X61716482Y-29927885D01*
X61512028Y-30233872D01*
X61278567Y-30518346D01*
X61018346Y-30778567D01*
X60733872Y-31012028D01*
X60427885Y-31216482D01*
X60103332Y-31389960D01*
X59763337Y-31530790D01*
X59411176Y-31637617D01*
X59050239Y-31709412D01*
X58684004Y-31745483D01*
X58315996Y-31745483D01*
X57949761Y-31709412D01*
X57588824Y-31637617D01*
X57236663Y-31530790D01*
X56896668Y-31389960D01*
X56572115Y-31216482D01*
X56266128Y-31012028D01*
X55981654Y-30778567D01*
X55721433Y-30518346D01*
X55487972Y-30233872D01*
X55283518Y-29927885D01*
X55110040Y-29603332D01*
X54969210Y-29263337D01*
X54862383Y-28911176D01*
X54790588Y-28550239D01*
X54754517Y-28184004D01*
X54754517Y-27815996D01*
X54790588Y-27449761D01*
X54862383Y-27088824D01*
X54969210Y-26736663D01*
X55110040Y-26396668D01*
X55283518Y-26072115D01*
X55487972Y-25766128D01*
X55721433Y-25481654D01*
X55981654Y-25221433D01*
X56266128Y-24987972D01*
X56572115Y-24783518D01*
X56896668Y-24610040D01*
X57236663Y-24469210D01*
X57588824Y-24362383D01*
X57949761Y-24290588D01*
X58315996Y-24254517D01*
X58684004Y-24254517D01*
X59050239Y-24290588D01*
G37*
G36*
X152050239Y-24290588D02*
G01*
X152411176Y-24362383D01*
X152763337Y-24469210D01*
X153103332Y-24610040D01*
X153427885Y-24783518D01*
X153733872Y-24987972D01*
X154018346Y-25221433D01*
X154278567Y-25481654D01*
X154512028Y-25766128D01*
X154716482Y-26072115D01*
X154889960Y-26396668D01*
X155030790Y-26736663D01*
X155137617Y-27088824D01*
X155209412Y-27449761D01*
X155245483Y-27815996D01*
X155245483Y-28184004D01*
X155209412Y-28550239D01*
X155137617Y-28911176D01*
X155030790Y-29263337D01*
X154889960Y-29603332D01*
X154716482Y-29927885D01*
X154512028Y-30233872D01*
X154278567Y-30518346D01*
X154018346Y-30778567D01*
X153733872Y-31012028D01*
X153427885Y-31216482D01*
X153103332Y-31389960D01*
X152763337Y-31530790D01*
X152411176Y-31637617D01*
X152050239Y-31709412D01*
X151684004Y-31745483D01*
X151315996Y-31745483D01*
X150949761Y-31709412D01*
X150588824Y-31637617D01*
X150236663Y-31530790D01*
X149896668Y-31389960D01*
X149572115Y-31216482D01*
X149266128Y-31012028D01*
X148981654Y-30778567D01*
X148721433Y-30518346D01*
X148487972Y-30233872D01*
X148283518Y-29927885D01*
X148110040Y-29603332D01*
X147969210Y-29263337D01*
X147862383Y-28911176D01*
X147790588Y-28550239D01*
X147754517Y-28184004D01*
X147754517Y-27815996D01*
X147790588Y-27449761D01*
X147862383Y-27088824D01*
X147969210Y-26736663D01*
X148110040Y-26396668D01*
X148283518Y-26072115D01*
X148487972Y-25766128D01*
X148721433Y-25481654D01*
X148981654Y-25221433D01*
X149266128Y-24987972D01*
X149572115Y-24783518D01*
X149896668Y-24610040D01*
X150236663Y-24469210D01*
X150588824Y-24362383D01*
X150949761Y-24290588D01*
X151315996Y-24254517D01*
X151684004Y-24254517D01*
X152050239Y-24290588D01*
G37*
G36*
X129710000Y-30338000D02*
G01*
X128010000Y-30338000D01*
X128010000Y-28638000D01*
X129710000Y-28638000D01*
X129710000Y-30338000D01*
G37*
G36*
X131646742Y-28674601D02*
G01*
X131800687Y-28738367D01*
X131939234Y-28830941D01*
X132057059Y-28948766D01*
X132149633Y-29087313D01*
X132213399Y-29241258D01*
X132245907Y-29404685D01*
X132245907Y-29571315D01*
X132213399Y-29734742D01*
X132149633Y-29888687D01*
X132057059Y-30027234D01*
X131939234Y-30145059D01*
X131800687Y-30237633D01*
X131646742Y-30301399D01*
X131483315Y-30333907D01*
X131316685Y-30333907D01*
X131153258Y-30301399D01*
X130999313Y-30237633D01*
X130860766Y-30145059D01*
X130742941Y-30027234D01*
X130650367Y-29888687D01*
X130586601Y-29734742D01*
X130554093Y-29571315D01*
X130554093Y-29404685D01*
X130586601Y-29241258D01*
X130650367Y-29087313D01*
X130742941Y-28948766D01*
X130860766Y-28830941D01*
X130999313Y-28738367D01*
X131153258Y-28674601D01*
X131316685Y-28642093D01*
X131483315Y-28642093D01*
X131646742Y-28674601D01*
G37*
M02*
