M48
; DRILL file {KiCad 9.0.4} date 2025-09-26T10:40:18+0200
; FORMAT={-:-/ absolute / metric / decimal}
; #@! TF.CreationDate,2025-09-26T10:40:18+02:00
; #@! TF.GenerationSoftware,Kicad,Pcbnew,9.0.4
; #@! TF.FileFunction,Plated,1,2,PTH
FMAT,2
METRIC
; #@! TA.AperFunction,Plated,PTH,ViaDrill
T1C0.300
; #@! TA.AperFunction,Plated,PTH,ComponentDrill
T2C0.730
; #@! TA.AperFunction,Plated,PTH,ComponentDrill
T3C0.800
; #@! TA.AperFunction,Plated,PTH,ComponentDrill
T4C1.000
; #@! TA.AperFunction,Plated,PTH,ComponentDrill
T5C1.500
; #@! TA.AperFunction,Plated,PTH,ComponentDrill
T6C4.000
; #@! TA.AperFunction,Plated,PTH,ComponentDrill
T7C4.300
%
G90
G05
T1
X84.0Y-139.5
X87.0Y-131.0
X104.0Y-155.0
X106.0Y-157.0
X109.0Y-129.0
X111.5Y-156.0
X123.5Y-127.5
X127.5Y-133.5
X137.0Y-101.5
X138.5Y-143.0
X142.0Y-137.5
X148.5Y-137.0
X149.5Y-157.0
T2
X82.03Y-131.19
X82.03Y-133.73
X82.03Y-136.27
X82.03Y-138.81
X84.5Y-151.56
X84.5Y-159.5
X87.04Y-151.56
X87.04Y-159.5
X89.58Y-151.56
X89.58Y-159.5
X89.97Y-131.19
X89.97Y-133.73
X89.97Y-136.27
X89.97Y-138.81
X92.12Y-151.56
X92.12Y-159.5
X94.66Y-151.56
X94.66Y-159.5
X97.2Y-151.56
X97.2Y-159.5
X99.74Y-151.56
X99.74Y-159.5
X102.28Y-151.56
X102.28Y-159.5
X105.5Y-131.5
X105.5Y-139.44
X108.04Y-131.5
X108.04Y-139.44
X110.58Y-131.5
X110.58Y-139.44
X113.12Y-131.5
X113.12Y-139.44
T3
X60.0Y-159.0
X61.31Y-163.5
X62.0Y-130.19
X62.0Y-137.81
X63.81Y-149.765
X63.81Y-151.765
X64.5Y-123.5
X65.81Y-149.765
X65.81Y-151.765
X66.31Y-163.5
X66.9Y-41.6
X66.9Y-44.14
X66.9Y-46.68
X66.9Y-49.22
X67.62Y-159.0
X68.69Y-130.685
X68.69Y-138.305
X71.23Y-130.685
X71.23Y-138.305
X72.12Y-123.5
X73.77Y-130.685
X73.77Y-138.305
X76.31Y-130.685
X76.31Y-138.305
X83.43Y-146.06
X83.5Y-118.69
X83.5Y-126.31
X91.05Y-146.06
X105.19Y-123.5
X111.44Y-145.5
X111.44Y-160.74
X112.81Y-123.5
X113.98Y-145.5
X113.98Y-160.74
X116.0Y-105.9
X116.52Y-145.5
X116.52Y-160.74
X119.06Y-145.5
X119.06Y-160.74
X119.19Y-123.0
X120.64Y-134.22
X121.0Y-105.9
X121.6Y-145.5
X121.6Y-160.74
X123.18Y-134.22
X124.14Y-145.5
X124.14Y-160.74
X125.72Y-134.22
X126.256Y-105.95
X126.68Y-145.5
X126.68Y-160.74
X126.81Y-123.0
X129.22Y-145.5
X129.22Y-160.74
X131.007Y-122.926
X131.256Y-105.95
X131.76Y-145.5
X131.76Y-160.74
X131.83Y-129.415
X131.83Y-137.035
X131.88Y-115.0
X133.507Y-122.926
X134.3Y-145.5
X134.3Y-160.74
X134.37Y-129.415
X134.37Y-137.035
X136.84Y-145.5
X136.84Y-160.74
X136.91Y-129.415
X136.91Y-137.035
X137.244Y-106.05
X137.83Y-122.72
X139.38Y-145.5
X139.38Y-160.74
X139.45Y-129.415
X139.45Y-137.035
X139.5Y-115.0
X141.92Y-145.5
X141.92Y-160.74
X142.244Y-106.05
X144.46Y-145.5
X144.46Y-160.74
X144.72Y-129.6
X144.72Y-137.22
X145.0Y-115.0
X145.45Y-122.72
X147.0Y-145.5
X147.0Y-160.74
X147.5Y-115.0
X149.54Y-145.5
X149.54Y-160.74
X149.64Y-122.22
X152.08Y-145.5
X152.08Y-160.74
X152.14Y-122.22
T4
X58.5Y-106.5
X61.0Y-101.5
X61.31Y-118.0
X63.5Y-106.5
X63.85Y-118.0
X70.0Y-106.5
X72.5Y-101.5
X72.81Y-151.5
X73.27Y-118.0
X73.31Y-159.46
X73.31Y-162.0
X75.0Y-106.5
X75.35Y-151.5
X75.81Y-118.0
X96.5Y-123.5
X96.5Y-135.5
X99.04Y-123.5
X99.04Y-135.5
X128.86Y-29.488
X131.4Y-29.488
X151.72Y-131.72
X151.72Y-134.26
T5
X90.9Y-103.0
X90.9Y-108.0
X90.9Y-113.0
X104.5Y-103.0
X104.5Y-108.0
X104.5Y-113.0
T6
X58.6Y-39.6
X58.6Y-94.4
X151.4Y-39.6
X151.4Y-94.4
T7
X58.5Y-28.0
X58.5Y-169.0
X151.5Y-28.0
X151.5Y-169.0
M30
