%TF.GenerationSoftware,KiCad,Pcbnew,9.0.4*%
%TF.CreationDate,2025-09-26T10:40:18+02:00*%
%TF.ProjectId,generator_dds,67656e65-7261-4746-9f72-5f6464732e6b,rev?*%
%TF.SameCoordinates,Original*%
%TF.FileFunction,Drillmap*%
%TF.FilePolarity,Positive*%
%FSLAX45Y45*%
G04 Gerber Fmt 4.5, Leading zero omitted, Abs format (unit mm)*
G04 Created by KiCad (PCBNEW 9.0.4) date 2025-09-26 10:40:18*
%MOMM*%
%LPD*%
G01*
G04 APERTURE LIST*
%ADD10C,0.038100*%
%ADD11C,0.200000*%
G04 APERTURE END LIST*
D10*
X5400000Y-2350000D02*
X15600000Y-2350000D01*
X15600000Y-17350000D01*
X5400000Y-17350000D01*
X5400000Y-2350000D01*
D11*
X5658872Y-17663389D02*
X5658872Y-17463389D01*
X5658872Y-17463389D02*
X5706491Y-17463389D01*
X5706491Y-17463389D02*
X5735062Y-17472913D01*
X5735062Y-17472913D02*
X5754110Y-17491960D01*
X5754110Y-17491960D02*
X5763634Y-17511008D01*
X5763634Y-17511008D02*
X5773157Y-17549103D01*
X5773157Y-17549103D02*
X5773157Y-17577675D01*
X5773157Y-17577675D02*
X5763634Y-17615770D01*
X5763634Y-17615770D02*
X5754110Y-17634817D01*
X5754110Y-17634817D02*
X5735062Y-17653865D01*
X5735062Y-17653865D02*
X5706491Y-17663389D01*
X5706491Y-17663389D02*
X5658872Y-17663389D01*
X5858872Y-17663389D02*
X5858872Y-17530055D01*
X5858872Y-17568151D02*
X5868396Y-17549103D01*
X5868396Y-17549103D02*
X5877919Y-17539579D01*
X5877919Y-17539579D02*
X5896967Y-17530055D01*
X5896967Y-17530055D02*
X5916015Y-17530055D01*
X5982681Y-17663389D02*
X5982681Y-17530055D01*
X5982681Y-17463389D02*
X5973157Y-17472913D01*
X5973157Y-17472913D02*
X5982681Y-17482436D01*
X5982681Y-17482436D02*
X5992205Y-17472913D01*
X5992205Y-17472913D02*
X5982681Y-17463389D01*
X5982681Y-17463389D02*
X5982681Y-17482436D01*
X6106491Y-17663389D02*
X6087443Y-17653865D01*
X6087443Y-17653865D02*
X6077919Y-17634817D01*
X6077919Y-17634817D02*
X6077919Y-17463389D01*
X6211253Y-17663389D02*
X6192205Y-17653865D01*
X6192205Y-17653865D02*
X6182681Y-17634817D01*
X6182681Y-17634817D02*
X6182681Y-17463389D01*
X6439824Y-17663389D02*
X6439824Y-17463389D01*
X6439824Y-17463389D02*
X6506491Y-17606246D01*
X6506491Y-17606246D02*
X6573157Y-17463389D01*
X6573157Y-17463389D02*
X6573157Y-17663389D01*
X6754110Y-17663389D02*
X6754110Y-17558627D01*
X6754110Y-17558627D02*
X6744586Y-17539579D01*
X6744586Y-17539579D02*
X6725538Y-17530055D01*
X6725538Y-17530055D02*
X6687443Y-17530055D01*
X6687443Y-17530055D02*
X6668396Y-17539579D01*
X6754110Y-17653865D02*
X6735062Y-17663389D01*
X6735062Y-17663389D02*
X6687443Y-17663389D01*
X6687443Y-17663389D02*
X6668396Y-17653865D01*
X6668396Y-17653865D02*
X6658872Y-17634817D01*
X6658872Y-17634817D02*
X6658872Y-17615770D01*
X6658872Y-17615770D02*
X6668396Y-17596722D01*
X6668396Y-17596722D02*
X6687443Y-17587198D01*
X6687443Y-17587198D02*
X6735062Y-17587198D01*
X6735062Y-17587198D02*
X6754110Y-17577675D01*
X6849348Y-17530055D02*
X6849348Y-17730055D01*
X6849348Y-17539579D02*
X6868396Y-17530055D01*
X6868396Y-17530055D02*
X6906491Y-17530055D01*
X6906491Y-17530055D02*
X6925538Y-17539579D01*
X6925538Y-17539579D02*
X6935062Y-17549103D01*
X6935062Y-17549103D02*
X6944586Y-17568151D01*
X6944586Y-17568151D02*
X6944586Y-17625294D01*
X6944586Y-17625294D02*
X6935062Y-17644341D01*
X6935062Y-17644341D02*
X6925538Y-17653865D01*
X6925538Y-17653865D02*
X6906491Y-17663389D01*
X6906491Y-17663389D02*
X6868396Y-17663389D01*
X6868396Y-17663389D02*
X6849348Y-17653865D01*
X7030300Y-17644341D02*
X7039824Y-17653865D01*
X7039824Y-17653865D02*
X7030300Y-17663389D01*
X7030300Y-17663389D02*
X7020777Y-17653865D01*
X7020777Y-17653865D02*
X7030300Y-17644341D01*
X7030300Y-17644341D02*
X7030300Y-17663389D01*
X7030300Y-17539579D02*
X7039824Y-17549103D01*
X7039824Y-17549103D02*
X7030300Y-17558627D01*
X7030300Y-17558627D02*
X7020777Y-17549103D01*
X7020777Y-17549103D02*
X7030300Y-17539579D01*
X7030300Y-17539579D02*
X7030300Y-17558627D01*
M02*
